<svg width="38" height="38" viewBox="0 0 38 38" fill="none" xmlns="http://www.w3.org/2000/svg">
<path d="M31.2032 37.3494C23.0759 38.2169 14.9241 38.2169 6.79681 37.3494C3.55612 37.0036 0.996445 34.4439 0.650574 31.2029C-0.216858 23.0757 -0.216858 14.9241 0.650574 6.79681C0.996445 3.55612 3.55612 0.996445 6.79681 0.650574C14.9241 -0.216858 23.0757 -0.216858 31.2029 0.650574C34.4439 0.996445 37.0036 3.55612 37.3494 6.79681C38.2169 14.9241 38.2169 23.0757 37.3494 31.2029C37.0036 34.4439 34.4442 37.0036 31.2032 37.3494Z" fill="#626262"/>
<path d="M34.7277 8.53974C34.4314 5.76199 32.2375 3.56786 29.4595 3.27129C22.4932 2.52806 15.5061 2.52806 8.53974 3.27129C5.76199 3.56786 3.56786 5.76199 3.27129 8.53974C2.52806 15.5061 2.52806 22.4932 3.27129 29.4592C3.56786 32.2372 5.76199 34.4314 8.53974 34.7277C15.5061 35.4712 22.4932 35.4712 29.4592 34.7277C32.2372 34.4314 34.4314 32.2372 34.7277 29.4592C35.4712 22.4932 35.4712 15.5061 34.7277 8.53974Z" fill="url(#paint0_linear)"/>
<path d="M0 29.8574C0.0259378 30.1394 0.0527401 30.4214 0.0806953 30.7034C0.424515 34.1825 2.96901 36.9305 6.19077 37.3018C14.2698 38.2331 22.3731 38.2331 30.4521 37.3018C33.6738 36.9305 36.2181 34.1825 36.5619 30.7034C36.5898 30.4214 36.6166 30.1394 36.6429 29.8574H0Z" fill="url(#paint1_linear)"/>
<path d="M25.5244 6.78613C22.2073 6.78613 19.5184 9.43159 19.5184 12.6948V17.1082H16.2861V22.5726L19.5184 25.4206V38.0004C23.4112 37.9818 27.3037 37.769 31.191 37.3609C34.4381 37.02 37.0024 34.4971 37.3489 31.3028C37.9955 25.3426 38.1607 19.3693 37.845 13.4023L31.1196 6.78613H25.5244Z" fill="url(#paint2_linear)"/>
<path d="M19.5392 38.0004C21.7717 37.9898 24.0039 37.9158 26.2352 37.7787V22.5726H30.678L31.2147 17.1082H26.2352V13.6384C26.2352 12.872 26.8707 12.2508 27.6547 12.2508H31.2147V6.78613H25.5836C22.2452 6.78613 19.5392 9.43159 19.5392 12.6948V17.1082H16.2861V22.5726H19.5392V38.0004Z" fill="white"/>
<defs>
<linearGradient id="paint0_linear" x1="25.9625" y1="23.7838" x2="-6.12434" y2="1.73703" gradientUnits="userSpaceOnUse">
<stop stop-color="#D8D8D8" stop-opacity="0"/>
<stop offset="1" stop-color="#5A5A5A"/>
</linearGradient>
<linearGradient id="paint1_linear" x1="18.3213" y1="29.8411" x2="18.3213" y2="36.8176" gradientUnits="userSpaceOnUse">
<stop stop-color="#525252" stop-opacity="0"/>
<stop offset="1" stop-color="#454545"/>
</linearGradient>
<linearGradient id="paint2_linear" x1="31.7852" y1="26.9781" x2="6.15156" y2="14.7258" gradientUnits="userSpaceOnUse">
<stop stop-color="#D8D8D8" stop-opacity="0"/>
<stop offset="1" stop-color="#5A5A5A"/>
</linearGradient>
</defs>
</svg>
