<svg width="17" height="16" viewBox="0 0 17 16" fill="none" xmlns="http://www.w3.org/2000/svg">
<path d="M1 7C0.447715 7 -4.82823e-08 7.44772 0 8C4.82823e-08 8.55228 0.447715 9 1 9L1 7ZM15.816 8.70711C16.2065 8.31658 16.2065 7.68342 15.816 7.29289L9.45206 0.928931C9.06153 0.538407 8.42837 0.538407 8.03784 0.928932C7.64732 1.31946 7.64732 1.95262 8.03784 2.34315L13.6947 8L8.03784 13.6569C7.64732 14.0474 7.64732 14.6805 8.03784 15.0711C8.42837 15.4616 9.06153 15.4616 9.45206 15.0711L15.816 8.70711ZM1 9L15.1089 9L15.1089 7L1 7L1 9Z" fill="#2CABE1"/>
</svg>
