<svg width="28" height="24" viewBox="0 0 28 24" fill="none" xmlns="http://www.w3.org/2000/svg">
<path d="M26.6 0.453125H1.4C0.626828 0.453125 0 1.12138 0 1.94577V21.8477C0 22.6721 0.626773 23.3404 1.4 23.3404H26.6C27.3732 23.3404 28 22.6721 28 21.8477V1.94577C28 1.12143 27.3732 0.453125 26.6 0.453125ZM27.0666 21.8478C27.0666 22.1226 26.8577 22.3453 26.6 22.3453H1.4C1.14226 22.3453 0.933352 22.1226 0.933352 21.8478V1.94577C0.933352 1.67097 1.14226 1.44824 1.4 1.44824H26.6C26.8577 1.44824 27.0666 1.67097 27.0666 1.94577V21.8478Z" fill="#3BACE2"/>
<path d="M25.7079 2.44528C25.5846 2.43379 25.4621 2.47502 25.3673 2.55991L14.6012 12.2024C14.254 12.5135 13.7472 12.5135 13.4 12.2024L2.63397 2.55985C2.50628 2.44557 2.33106 2.41257 2.17438 2.47333C2.01769 2.53408 1.90329 2.67938 1.8743 2.85448C1.84532 3.02957 1.90613 3.20781 2.03383 3.32209L12.7999 12.9641C13.4938 13.587 14.5074 13.587 15.2014 12.9641L25.9674 3.32215C26.0622 3.23732 26.1215 3.11581 26.1323 2.98432C26.143 2.85284 26.1044 2.72218 26.0247 2.62113C25.9452 2.51997 25.8313 2.45677 25.7079 2.44528Z" fill="#3BACE2"/>
<path d="M8.97554 12.8948C8.81033 12.8555 8.63817 12.9146 8.52552 13.0493L1.99215 20.5125C1.87392 20.6416 1.8305 20.8289 1.87873 21.0018C1.92697 21.1748 2.05925 21.3064 2.22441 21.3457C2.38962 21.385 2.56178 21.3258 2.67444 21.1911L9.2078 13.7279C9.32603 13.5988 9.36945 13.4115 9.32122 13.2386C9.27299 13.0657 9.14075 12.9341 8.97554 12.8948Z" fill="#3BACE2"/>
<path d="M19.4752 13.0493C19.3626 12.9146 19.1904 12.8555 19.0252 12.8948C18.86 12.9341 18.7277 13.0657 18.6795 13.2386C18.6313 13.4116 18.6747 13.5988 18.7929 13.7279L25.3263 21.1911C25.5035 21.3846 25.7932 21.3918 25.9786 21.2074C26.1641 21.0229 26.1774 20.7143 26.0086 20.5125L19.4752 13.0493Z" fill="#3BACE2"/>
</svg>
