<svg width="25" height="27" viewBox="0 0 25 27" fill="none" xmlns="http://www.w3.org/2000/svg">
<path d="M24.344 20.667L19.2839 17.0692C18.6418 16.6163 17.781 16.7653 17.3063 17.4116L15.8323 19.4322C15.6429 19.6985 15.2986 19.7757 15.0245 19.6134L14.7441 19.4486C13.8147 18.9085 12.6582 18.236 10.3281 15.7509C7.99807 13.2657 7.36608 12.0318 6.85947 11.0426L6.70573 10.7437C6.55141 10.4516 6.62249 10.0829 6.87236 9.87932L8.76622 8.3083C9.37218 7.80209 9.51215 6.88463 9.08785 6.19979L5.71335 0.804838C5.2785 0.10745 4.40607 -0.101902 3.73288 0.329554L1.61693 1.68472C0.95209 2.10145 0.46432 2.77635 0.255904 3.568C-0.506044 6.52797 0.0671615 11.6364 7.1253 19.1625C12.7399 25.1482 16.9197 26.7579 19.7926 26.7579C20.4538 26.7609 21.1124 26.6692 21.7507 26.4852C22.4933 26.2633 23.1264 25.7432 23.5171 25.0341L24.7894 22.7795C25.1946 22.0616 24.9984 21.1309 24.344 20.667ZM24.0715 22.3237L22.8021 24.5797C22.5217 25.0915 22.0663 25.4678 21.5315 25.6297C18.9685 26.38 14.4909 25.7586 7.71476 18.5341C0.938664 11.3095 0.355889 6.53599 1.05954 3.80302C1.21167 3.23211 1.56504 2.746 2.04563 2.4465L4.16158 1.0931C4.45367 0.905714 4.83233 0.996545 5.02102 1.29917L6.8541 4.23338L8.39264 6.69365C8.57689 6.99071 8.51635 7.38886 8.2535 7.60867L6.3592 9.17969C5.78272 9.64967 5.6181 10.5 5.97303 11.1749L6.12344 11.4663C6.65588 12.5075 7.31785 13.8027 9.73458 16.3789C12.1513 18.9551 13.3657 19.6609 14.3418 20.2285L14.6155 20.3893C15.2485 20.7677 16.0461 20.5922 16.4869 19.9776L17.9604 17.958C18.1666 17.6779 18.5399 17.6134 18.8186 17.8096L23.8783 21.4074C24.1623 21.6084 24.2475 22.0124 24.0715 22.3237Z" fill="#3BACE2"/>
<path d="M14.1666 4.54847C18.0763 4.5531 21.2446 7.9311 21.249 12.0995C21.249 12.3448 21.4355 12.5436 21.6656 12.5436C21.8957 12.5436 22.0822 12.3448 22.0822 12.0995C22.0773 7.44067 18.5363 3.66526 14.1666 3.66016C13.9365 3.66016 13.75 3.85899 13.75 4.10431C13.75 4.34963 13.9365 4.54847 14.1666 4.54847Z" fill="#3BACE2"/>
<path d="M14.1666 7.21449C16.6963 7.21766 18.7464 9.40331 18.7493 12.1004C18.7493 12.3457 18.9359 12.5446 19.1659 12.5446C19.396 12.5446 19.5825 12.3457 19.5825 12.1004C19.5791 8.91288 17.1563 6.32982 14.1666 6.32617C13.9365 6.32617 13.75 6.52501 13.75 6.77033C13.75 7.01565 13.9365 7.21449 14.1666 7.21449Z" fill="#3BACE2"/>
<path d="M14.1666 9.87855C15.3165 9.88001 16.2483 10.8735 16.2497 12.0994C16.2497 12.3448 16.4362 12.5436 16.6663 12.5436C16.8963 12.5436 17.0829 12.3448 17.0829 12.0994C17.081 10.3831 15.7765 8.99216 14.1666 8.99023C13.9365 8.99023 13.75 9.18907 13.75 9.43439C13.75 9.67971 13.9365 9.87855 14.1666 9.87855Z" fill="#3BACE2"/>
</svg>
