<svg width="38" height="38" viewBox="0 0 38 38" fill="none" xmlns="http://www.w3.org/2000/svg">
<path d="M37.3494 6.79681C37.0036 3.55612 34.4442 0.996155 31.2032 0.650574C23.0757 -0.216858 14.9243 -0.216858 6.7971 0.650574C3.55612 0.996445 0.996445 3.55612 0.650574 6.79681C-0.216858 14.9241 -0.216858 23.0757 0.650574 31.2029C0.996445 34.4439 3.55612 37.0036 6.79681 37.3494C14.9241 38.2169 23.0757 38.2169 31.2032 37.3494C34.4442 37.0036 37.0036 34.4439 37.3494 31.2029C38.2169 23.0757 38.2169 14.9243 37.3494 6.79681Z" fill="#626262"/>
<path d="M34.7277 8.78248C34.4314 5.889 32.2375 3.60344 29.4595 3.29452C22.4932 2.52032 15.5061 2.52032 8.53974 3.29452C5.76199 3.60344 3.56786 5.889 3.27129 8.78248C2.52806 16.0391 2.52806 23.3173 3.27129 30.5736C3.56786 33.4674 5.76199 35.7529 8.53974 36.0616C15.5061 36.8361 22.4932 36.8361 29.4592 36.0616C32.2372 35.7529 34.4314 33.4674 34.7277 30.5736C35.4712 23.3173 35.4712 16.0391 34.7277 8.78248Z" fill="url(#paint0_linear)"/>
<path d="M0 31.2139C0.0259378 31.4489 0.0527401 31.6839 0.0806953 31.9188C0.424515 34.8181 2.96901 37.1081 6.19077 37.4175C14.2698 38.1936 22.3731 38.1936 30.4521 37.4175C33.6738 37.1081 36.2181 34.8181 36.5619 31.9188C36.5898 31.6839 36.6166 31.4489 36.6429 31.2139H0Z" fill="url(#paint1_linear)"/>
<path d="M37.3446 31.4059C37.8148 27.1694 38.0318 22.9262 37.9968 18.6835L29.2344 10.2572C28.1397 9.05547 26.5408 8.30537 24.662 8.2404C20.7982 8.10653 16.9222 8.11328 13.0578 8.24096C9.84826 8.34728 7.60387 10.4218 7.0283 13.4708C6.92681 14.0091 6.86598 14.5545 6.78613 15.0967V24.0354C6.8303 24.3251 6.89522 24.6134 6.9154 24.9048C7.04409 26.7593 7.83667 28.3478 9.10569 29.4225L18.0224 37.997C22.3983 38.0265 26.7745 37.8173 31.1443 37.3687C34.4137 37.0331 36.9956 34.55 37.3446 31.4059Z" fill="url(#paint2_linear)"/>
<path d="M37.3526 31.225C37.0086 34.4551 34.4599 37.0071 31.2341 37.3516C26.9226 37.8122 22.6033 38.0275 18.2858 37.9972L9.5 29.1998C10.5185 30.0925 11.8461 30.6361 13.3867 30.6942C17.1992 30.8375 21.025 30.8337 24.8375 30.6962C28.2857 30.5713 30.781 28.0158 30.8887 24.563C31.0035 20.8969 31.0035 17.2212 30.8887 13.5551C30.8396 11.9622 30.2812 10.5606 29.3553 9.5L37.9965 18.1526C38.0306 22.5114 37.8164 26.872 37.3526 31.225Z" fill="url(#paint3_linear)"/>
<path d="M23.2701 15.5251C22.1063 14.3245 20.4363 13.5713 18.5802 13.5713C15.0644 13.5713 12.2139 16.2718 12.2139 19.6025C12.2139 21.361 13.009 22.943 14.2762 24.0456L29.0057 37.9999C29.7853 37.9355 30.565 37.864 31.344 37.7853C34.734 37.4425 37.4113 34.9061 37.7731 31.6946C37.8561 30.9565 37.9317 30.2179 37.9996 29.4793L23.2701 15.5251Z" fill="url(#paint4_linear)"/>
<path d="M38.0001 23.4934L26.9605 12.7561C26.7029 12.4273 26.2971 12.2139 25.8393 12.2139C25.0604 12.2139 24.4287 12.828 24.4287 13.5859C24.4287 14.0311 24.6481 14.4258 24.9862 14.6763L37.8027 27.1424C37.8897 25.9265 37.9555 24.7099 38.0001 23.4934Z" fill="url(#paint5_linear)"/>
<path d="M7.01367 14.8329C7.09233 14.2774 7.15226 13.7187 7.25223 13.1673C7.81896 10.0438 10.0302 7.91868 13.192 7.80977C16.9989 7.67897 20.8173 7.67205 24.6236 7.8092C28.0649 7.93309 30.5571 10.4812 30.6645 13.9236C30.7789 17.5789 30.7789 21.2432 30.6645 24.8985C30.5571 28.3409 28.0657 30.8887 24.6239 31.0129C20.8176 31.1503 16.9983 31.1538 13.1923 31.0109C9.75049 30.8815 7.37122 28.3277 7.14102 24.8801C7.12114 24.5819 7.05718 24.2863 7.01367 23.9895C7.01367 20.9372 7.01367 17.8849 7.01367 14.8329ZM18.8852 28.9728C20.6272 28.9728 22.3708 29.0249 24.1105 28.9607C26.8381 28.8595 28.5158 27.2317 28.5794 24.5067C28.6584 21.1112 28.6584 17.7112 28.5794 14.3154C28.5158 11.591 26.8369 9.92512 24.1105 9.86721C20.6499 9.79403 17.1856 9.7946 13.725 9.86721C11.0193 9.92397 9.33675 11.5561 9.26328 14.2506C9.16993 17.689 9.16993 21.1334 9.26328 24.5718C9.33675 27.266 11.0193 28.8604 13.7253 28.9607C15.4431 29.0246 17.1652 28.9728 18.8852 28.9728Z" fill="white"/>
<path d="M18.8817 13.3643C15.5413 13.3643 12.833 16.0723 12.833 19.4127C12.833 22.7534 15.5413 25.4614 18.8817 25.4614C22.2224 25.4614 24.9304 22.7534 24.9304 19.4127C24.9304 16.0723 22.2224 13.3643 18.8817 13.3643ZM18.8817 23.3789C16.6912 23.3789 14.9155 21.6032 14.9155 19.4127C14.9155 17.2221 16.6912 15.4465 18.8817 15.4465C21.0723 15.4465 22.8479 17.2221 22.8479 19.4127C22.8479 21.6032 21.0723 23.3789 18.8817 23.3789Z" fill="white"/>
<path d="M26.7227 13.0886C26.7227 13.8832 26.0785 14.5274 25.2839 14.5274C24.4892 14.5274 23.8447 13.8832 23.8447 13.0886C23.8447 12.2936 24.4892 11.6494 25.2839 11.6494C26.0785 11.6494 26.7227 12.2936 26.7227 13.0886Z" fill="white"/>
<defs>
<linearGradient id="paint0_linear" x1="25.9625" y1="24.6617" x2="-6.9519" y2="2.95094" gradientUnits="userSpaceOnUse">
<stop stop-color="#D8D8D8" stop-opacity="0"/>
<stop offset="1" stop-color="#5A5A5A"/>
</linearGradient>
<linearGradient id="paint1_linear" x1="18.3213" y1="31.2003" x2="18.3213" y2="37.014" gradientUnits="userSpaceOnUse">
<stop stop-color="#525252" stop-opacity="0"/>
<stop offset="1" stop-color="#454545"/>
</linearGradient>
<linearGradient id="paint2_linear" x1="29.0661" y1="27.4567" x2="-0.793488" y2="6.00771" gradientUnits="userSpaceOnUse">
<stop stop-color="#D8D8D8" stop-opacity="0"/>
<stop offset="1" stop-color="#5A5A5A"/>
</linearGradient>
<linearGradient id="paint3_linear" x1="29.8425" y1="27.9362" x2="1.76657" y2="8.64527" gradientUnits="userSpaceOnUse">
<stop stop-color="#D8D8D8" stop-opacity="0"/>
<stop offset="1" stop-color="#5A5A5A"/>
</linearGradient>
<linearGradient id="paint4_linear" x1="30.619" y1="29.3737" x2="6.11439" y2="11.6013" gradientUnits="userSpaceOnUse">
<stop stop-color="#D8D8D8" stop-opacity="0"/>
<stop offset="1" stop-color="#5A5A5A"/>
</linearGradient>
<linearGradient id="paint5_linear" x1="34.1156" y1="21.8709" x2="19.9581" y2="13.0277" gradientUnits="userSpaceOnUse">
<stop stop-color="#D8D8D8" stop-opacity="0"/>
<stop offset="1" stop-color="#5A5A5A"/>
</linearGradient>
</defs>
</svg>
