<svg width="38" height="38" viewBox="0 0 38 38" fill="none" xmlns="http://www.w3.org/2000/svg">
<path d="M31.2032 37.3494C23.0759 38.2169 14.9241 38.2169 6.79681 37.3494C3.55612 37.0036 0.996445 34.4439 0.650574 31.2029C-0.216858 23.0757 -0.216858 14.9241 0.650574 6.79681C0.996445 3.55612 3.55612 0.996445 6.79681 0.650574C14.9241 -0.216858 23.0757 -0.216858 31.2029 0.650574C34.4439 0.996445 37.0036 3.55612 37.3494 6.79681C38.2169 14.9241 38.2169 23.0757 37.3494 31.2029C37.0036 34.4439 34.4442 37.0036 31.2032 37.3494Z" fill="#626262"/>
<path d="M34.7277 7.42604C34.4314 4.53255 32.2375 2.247 29.4595 1.93807C22.4932 1.16387 15.5061 1.16387 8.53974 1.93807C5.76199 2.247 3.56786 4.53255 3.27129 7.42604C2.52806 14.6826 2.52806 21.9608 3.27129 29.2172C3.56786 32.1109 5.76199 34.3965 8.53974 34.7051C15.5061 35.4796 22.4932 35.4796 29.4592 34.7051C32.2372 34.3965 34.4314 32.1109 34.7277 29.2172C35.4712 21.9608 35.4712 14.6826 34.7277 7.42604Z" fill="url(#paint0_linear)"/>
<path d="M0 29.8574C0.0259378 30.1394 0.0527401 30.4214 0.0806953 30.7034C0.424515 34.1825 2.96901 36.9305 6.19077 37.3018C14.2698 38.2331 22.3731 38.2331 30.4521 37.3018C33.6738 36.9305 36.2181 34.1825 36.5619 30.7034C36.5898 30.4214 36.6166 30.1394 36.6429 29.8574H0Z" fill="url(#paint1_linear)"/>
<path d="M36.6433 32.5239L12.1535 7.96383C11.6066 7.2481 10.7461 6.78613 9.77758 6.78613C8.12551 6.78613 6.78613 8.12905 6.78613 9.78584C6.78613 10.7574 7.24707 11.6203 7.96077 12.1685L32.3654 36.6433C34.338 35.985 35.9102 34.465 36.6433 32.5239Z" fill="url(#paint2_linear)"/>
<path d="M13.0673 14.9287H8.14258V30.6988L15.1303 37.9171C20.5274 38.1281 25.9282 37.9373 31.318 37.3429C32.2602 37.2391 33.1429 36.9364 33.9283 36.478L13.0673 14.9287Z" fill="url(#paint3_linear)"/>
<path d="M29.496 16.5693C28.543 15.5612 27.171 14.9287 25.6459 14.9287C23.2335 14.9287 21.6766 15.7463 20.75 16.5053L19.7292 15.2641H14.9287V30.8464L22.3432 38.0001C25.2674 37.9083 28.1903 37.712 31.1106 37.4114C34.4661 37.0659 37.1159 34.509 37.474 31.2718C37.7135 29.1073 37.8885 26.9411 38.0001 24.7743L29.496 16.5693Z" fill="url(#paint4_linear)"/>
<path d="M7.47559 14.7881H12.4761V30.2905H7.47559V14.7881Z" fill="white"/>
<path d="M25.7637 14.4551C22.0992 14.4551 20.4895 16.4918 20.0844 17.1118V14.7887H15.4766V30.2911H20.4774V22.5042C20.4774 20.254 21.5132 18.5037 23.4778 18.5037C25.4422 18.5037 25.7637 20.6824 25.7637 23.3616V30.2911H30.7646V19.4559C30.7646 16.694 28.5256 14.4551 25.7637 14.4551Z" fill="white"/>
<path d="M12.9524 9.85963C12.9524 11.5036 11.6198 12.8362 9.97584 12.8362C8.33185 12.8362 6.99902 11.5036 6.99902 9.85963C6.99902 8.21564 8.33185 6.88281 9.97584 6.88281C11.6198 6.88281 12.9524 8.21564 12.9524 9.85963Z" fill="white"/>
<defs>
<linearGradient id="paint0_linear" x1="25.9625" y1="23.3053" x2="-6.9519" y2="1.5945" gradientUnits="userSpaceOnUse">
<stop stop-color="#D8D8D8" stop-opacity="0"/>
<stop offset="1" stop-color="#5A5A5A"/>
</linearGradient>
<linearGradient id="paint1_linear" x1="18.3213" y1="29.8411" x2="18.3213" y2="36.8176" gradientUnits="userSpaceOnUse">
<stop stop-color="#525252" stop-opacity="0"/>
<stop offset="1" stop-color="#454545"/>
</linearGradient>
<linearGradient id="paint2_linear" x1="28.0974" y1="26.1002" x2="-1.31555" y2="5.8907" gradientUnits="userSpaceOnUse">
<stop stop-color="#D8D8D8" stop-opacity="0"/>
<stop offset="1" stop-color="#5A5A5A"/>
</linearGradient>
<linearGradient id="paint3_linear" x1="26.5477" y1="29.8532" x2="3.02507" y2="11.7894" gradientUnits="userSpaceOnUse">
<stop stop-color="#D8D8D8" stop-opacity="0"/>
<stop offset="1" stop-color="#5A5A5A"/>
</linearGradient>
<linearGradient id="paint4_linear" x1="31.3965" y1="29.8532" x2="8.66832" y2="14.2368" gradientUnits="userSpaceOnUse">
<stop stop-color="#D8D8D8" stop-opacity="0"/>
<stop offset="1" stop-color="#5A5A5A"/>
</linearGradient>
</defs>
</svg>
