<svg width="20" height="20" viewBox="0 0 20 20" fill="none" xmlns="http://www.w3.org/2000/svg">
<path d="M17.9167 0H12.6308C11.6291 0 10.6875 0.39 9.97914 1.09832L0.71082 10.3667C0.2525 10.825 0 11.4342 0 12.085C0 12.7325 0.2525 13.3417 0.71082 13.8L6.2 19.2892C6.65832 19.7475 7.2675 20 7.91832 20C8.56582 20 9.175 19.7475 9.63332 19.2892L18.9016 10.0209C19.61 9.3125 20 8.37082 20 7.36918V2.08332C20 0.935 19.065 0 17.9167 0ZM19.1667 7.36918C19.1667 8.14836 18.8634 8.88086 18.3134 9.43086L9.04418 18.7C8.445 19.2992 7.39418 19.3033 6.79 18.7L1.3 13.21C0.99918 12.91 0.83332 12.51 0.83332 12.0817C0.83332 11.6567 0.999141 11.2567 1.3 10.9559L10.5683 1.6875C11.12 1.13668 11.8516 0.83332 12.6308 0.83332H17.9166C18.6058 0.83332 19.1666 1.39414 19.1666 2.08332V7.36918H19.1667Z" fill="black"/>
<path d="M15.4167 2.5C14.2684 2.5 13.3334 3.435 13.3334 4.58332C13.3334 5.73164 14.2684 6.66664 15.4167 6.66664C16.565 6.66664 17.5 5.73168 17.5 4.58332C17.5 3.435 16.565 2.5 15.4167 2.5ZM15.4167 5.83332C14.7275 5.83332 14.1667 5.2725 14.1667 4.58332C14.1667 3.89414 14.7275 3.33332 15.4167 3.33332C16.1059 3.33332 16.6667 3.89414 16.6667 4.58332C16.6667 5.2725 16.1058 5.83332 15.4167 5.83332Z" fill="black"/>
</svg>
