<svg width="38" height="38" viewBox="0 0 38 38" fill="none" xmlns="http://www.w3.org/2000/svg">
<path d="M31.2032 37.3494C23.0759 38.2169 14.9241 38.2169 6.79681 37.3494C3.55612 37.0036 0.996445 34.4439 0.650574 31.2029C-0.216858 23.0757 -0.216858 14.9241 0.650574 6.79681C0.996445 3.55612 3.55612 0.996445 6.79681 0.650574C14.9241 -0.216858 23.0757 -0.216858 31.2029 0.650574C34.4439 0.996445 37.0036 3.55612 37.3494 6.79681C38.2169 14.9241 38.2169 23.0757 37.3494 31.2029C37.0036 34.4439 34.4442 37.0036 31.2032 37.3494Z" fill="#626262"/>
<path d="M34.7277 8.53974C34.4314 5.76199 32.2375 3.56786 29.4595 3.27129C22.4932 2.52806 15.5061 2.52806 8.53974 3.27129C5.76199 3.56786 3.56786 5.76199 3.27129 8.53974C2.52806 15.5061 2.52806 22.4932 3.27129 29.4592C3.56786 32.2372 5.76199 34.4314 8.53974 34.7277C15.5061 35.4712 22.4932 35.4712 29.4592 34.7277C32.2372 34.4314 34.4314 32.2372 34.7277 29.4592C35.4712 22.4932 35.4712 15.5061 34.7277 8.53974Z" fill="url(#paint0_linear)"/>
<path d="M0 29.8574C0.0259378 30.1394 0.0527401 30.4214 0.0806953 30.7034C0.424515 34.1825 2.96901 36.9305 6.19077 37.3018C14.2698 38.2331 22.3731 38.2331 30.4521 37.3018C33.6738 36.9305 36.2181 34.1825 36.5619 30.7034C36.5898 30.4214 36.6166 30.1394 36.6429 29.8574H0Z" fill="url(#paint1_linear)"/>
<path d="M37.9925 17.7335L29.9926 9.87273C29.0961 10.3763 28.306 10.6557 27.7109 10.8106C27.3763 10.8987 27.1031 10.9467 26.9067 10.973C26.0046 10.0643 24.7449 9.5 23.3506 9.5C20.6072 9.5 18.3828 11.6855 18.3828 14.3819C18.3828 14.4792 18.3854 14.5754 18.3919 14.6714C18.4051 14.9051 18.4354 15.1348 18.4821 15.3582C17.3369 15.3414 13.6143 15.0409 10.0641 12.0504C10.0638 12.0504 10.0638 12.0501 10.0638 12.0501H10.0635L8.38924 10.4047C8.38924 10.4047 6.42505 13.7734 9.31281 16.3296C9.43955 16.4685 9.57892 16.6058 9.73153 16.7407C9.74358 16.754 9.75623 16.767 9.76828 16.7803C9.38927 16.7552 8.24927 16.6436 7.58945 16.1857C7.58945 16.1857 7.45684 18.2446 9.20255 19.7604L10.6122 21.1574C10.1829 21.1923 9.708 21.184 9.3778 21.0418C9.3778 21.0418 9.67007 22.2614 10.7998 23.2374L12.7745 25.188C11.5899 25.8662 9.516 26.7148 6.78613 26.4981L18.7656 38C22.8816 37.9988 26.9975 37.7827 31.1073 37.3516C34.3944 37.0069 36.9905 34.4559 37.3413 31.2262C37.8291 26.7333 38.0458 22.2328 37.9925 17.7335Z" fill="url(#paint2_linear)"/>
<path d="M31.2147 11.7535C30.3427 12.1889 29.0294 12.3901 28.594 12.448C28.5904 12.4279 28.5868 12.4087 28.5832 12.3895C30.0634 11.5156 30.5165 9.87022 30.5165 9.87022C29.5998 10.3705 28.7919 10.648 28.1833 10.8018C27.8411 10.8893 27.5618 10.9367 27.361 10.9631C26.4385 10.0602 25.1504 9.5 23.7246 9.5C20.9193 9.5 18.6447 11.6706 18.6447 14.3491C18.6447 14.4455 18.6474 14.5414 18.654 14.6364C18.6676 14.8685 18.6985 15.0967 18.7463 15.3186C17.3885 15.2993 12.4872 14.9018 8.42571 10.3986C8.42571 10.3986 6.16404 14.1651 9.96636 16.738C9.96636 16.738 8.42571 16.6921 7.60788 16.1408C7.60788 16.1408 7.36734 19.7702 11.7467 20.9181C11.7467 20.9181 10.2069 21.2861 9.43627 20.9643C9.43627 20.9643 10.2066 24.088 14.0567 24.3182C14.0567 24.3182 11.2953 26.7312 6.78613 26.384C9.00391 27.7242 11.6333 28.5 14.4524 28.5C22.3791 28.5 28.8051 22.3666 28.8051 14.8005C28.8051 14.7061 28.8042 14.6117 28.8021 14.5173C28.8042 14.4613 28.8051 14.4056 28.8051 14.3491C28.8051 14.3098 28.8042 14.2704 28.8036 14.2311C30.2691 13.299 31.2147 11.7535 31.2147 11.7535Z" fill="white"/>
<defs>
<linearGradient id="paint0_linear" x1="25.9625" y1="23.7838" x2="-6.12434" y2="1.73703" gradientUnits="userSpaceOnUse">
<stop stop-color="#D8D8D8" stop-opacity="0"/>
<stop offset="1" stop-color="#5A5A5A"/>
</linearGradient>
<linearGradient id="paint1_linear" x1="18.3213" y1="29.8411" x2="18.3213" y2="36.8176" gradientUnits="userSpaceOnUse">
<stop stop-color="#525252" stop-opacity="0"/>
<stop offset="1" stop-color="#454545"/>
</linearGradient>
<linearGradient id="paint2_linear" x1="29.0661" y1="27.9362" x2="0.165653" y2="6.18762" gradientUnits="userSpaceOnUse">
<stop stop-color="#D8D8D8" stop-opacity="0"/>
<stop offset="1" stop-color="#5A5A5A"/>
</linearGradient>
</defs>
</svg>
