<svg width="96" height="695" viewBox="0 0 96 695" fill="none" xmlns="http://www.w3.org/2000/svg">
<path d="M94 694.16L1.69999 694.16L1.69999 654.77C1.69999 650.35 2.60999 646.32 4.43 642.68C6.16333 638.953 8.54666 635.747 11.58 633.06C14.5267 630.373 17.8633 628.293 21.59 626.82C25.3167 625.347 29.0867 624.61 32.9 624.61C38.2733 624.61 43.3433 625.867 48.11 628.38C52.8767 630.807 56.7767 634.23 59.81 638.65C62.7567 643.07 64.23 648.227 64.23 654.12L64.23 672.84L94 672.84L94 694.16ZM45.64 672.84L45.64 655.42C45.64 652.907 44.5567 650.74 42.39 648.92C40.2233 647.1 37.06 646.19 32.9 646.19C28.6533 646.19 25.5333 647.273 23.54 649.44C21.46 651.52 20.42 653.773 20.42 656.2L20.42 672.84L45.64 672.84ZM94 613.164L1.69999 613.164L1.69999 571.564C1.69999 567.231 2.60999 563.244 4.42999 559.604C6.16332 555.877 8.54666 552.671 11.58 549.984C14.5267 547.297 17.8633 545.217 21.59 543.744C25.3167 542.184 29.0867 541.404 32.9 541.404C38.62 541.404 43.9067 542.791 48.76 545.564C53.5267 548.251 57.1667 551.891 59.68 556.484L94 536.204L94 559.734L64.23 577.414L64.23 591.844L94 591.844L94 613.164ZM45.64 591.844L45.64 572.344C45.64 569.831 44.47 567.664 42.13 565.844C39.7033 564.024 36.6267 563.114 32.9 563.114C29.1733 563.114 26.1833 564.154 23.93 566.234C21.59 568.314 20.42 570.567 20.42 572.994L20.42 591.844L45.64 591.844ZM94.78 486.406C94.78 493.252 93.48 499.492 90.88 505.126C88.1933 510.672 84.64 515.482 80.22 519.556C75.7133 523.629 70.6867 526.749 65.14 528.916C59.5067 531.082 53.7 532.166 47.72 532.166C41.6533 532.166 35.8467 531.039 30.3 528.786C24.6667 526.446 19.6833 523.239 15.35 519.166C10.93 515.006 7.46332 510.109 4.94998 504.476C2.43665 498.842 1.17998 492.689 1.17998 486.016C1.17998 479.169 2.52332 472.972 5.20999 467.426C7.80998 461.792 11.3633 456.982 15.87 452.996C20.3767 448.922 25.4467 445.802 31.08 443.636C36.6267 441.469 42.3033 440.386 48.11 440.386C54.1767 440.386 60.0267 441.556 65.66 443.896C71.2067 446.149 76.19 449.356 80.61 453.516C84.9433 457.589 88.41 462.442 91.01 468.076C93.5233 473.622 94.78 479.732 94.78 486.406ZM47.98 510.456C52.7467 510.456 57.2533 509.546 61.5 507.726C65.66 505.906 69.0833 503.176 71.77 499.536C74.4567 495.896 75.8 491.476 75.8 486.276C75.8 480.902 74.4133 476.439 71.64 472.886C68.8667 469.246 65.3567 466.559 61.11 464.826C56.7767 463.006 52.3133 462.096 47.72 462.096C42.9533 462.096 38.49 463.049 34.33 464.956C30.0833 466.776 26.66 469.506 24.06 473.146C21.46 476.699 20.16 481.076 20.16 486.276C20.16 491.649 21.5467 496.156 24.32 499.796C27.0067 503.349 30.4733 506.036 34.72 507.856C38.9667 509.589 43.3867 510.456 47.98 510.456ZM94 428.066L1.69998 428.066L1.69998 393.616C1.69998 383.476 3.77998 375.026 7.93998 368.266C12.0133 361.42 17.56 356.263 24.58 352.796C31.5133 349.33 39.2266 347.596 47.72 347.596C57.08 347.596 65.2266 349.503 72.16 353.316C79.0933 357.13 84.4667 362.503 88.28 369.436C92.0933 376.283 94 384.343 94 393.616L94 428.066ZM47.72 369.306C39.5733 369.306 32.9866 371.43 27.96 375.676C22.9333 379.923 20.42 385.903 20.42 393.616L20.42 406.746L75.28 406.746L75.28 393.616C75.28 388.416 74.11 383.996 71.77 380.356C69.3433 376.716 66.05 373.986 61.89 372.166C57.73 370.26 53.0067 369.306 47.72 369.306ZM94.78 295.36C94.78 302.726 93.5666 309.01 91.14 314.21C88.6266 319.41 85.2466 323.656 81 326.95C76.6666 330.156 71.77 332.54 66.31 334.1C60.7633 335.573 54.9566 336.31 48.89 336.31L1.69998 336.31L1.69998 314.99L48.89 314.99C53.57 314.99 57.9466 314.383 62.02 313.17C66.0933 311.87 69.43 309.79 72.03 306.93C74.5433 304.07 75.8 300.213 75.8 295.36C75.8 290.42 74.5 286.52 71.9 283.66C69.3 280.8 65.9633 278.763 61.89 277.55C57.8166 276.336 53.4833 275.73 48.89 275.73L1.69998 275.73L1.69998 254.41L48.89 254.41C57.3833 254.41 65.0966 255.84 72.03 258.7C78.9633 261.56 84.51 266.023 88.67 272.09C92.7433 278.07 94.78 285.826 94.78 295.36ZM47.07 243.22C41.5233 243.22 36.02 242.18 30.56 240.1C25.1 238.02 20.16 234.987 15.74 231C11.32 227.014 7.80997 222.16 5.20998 216.44C2.52331 210.72 1.17997 204.22 1.17997 196.94C1.17997 188.36 3.04331 180.864 6.76998 174.45C10.4966 168.037 15.35 163.27 21.33 160.15L32.77 176.53C29.5633 177.917 27.05 179.78 25.23 182.12C23.3233 184.46 22.0233 186.974 21.33 189.66C20.55 192.347 20.16 194.947 20.16 197.46C20.16 202.92 21.5466 207.427 24.32 210.98C27.0933 214.534 30.6033 217.177 34.85 218.91C39.0966 220.644 43.43 221.51 47.85 221.51C52.7033 221.51 57.2966 220.514 61.63 218.52C65.8766 216.527 69.3 213.71 71.9 210.07C74.5 206.43 75.8 202.14 75.8 197.2C75.8 194.6 75.41 191.957 74.63 189.27C73.7633 186.584 72.3766 184.114 70.47 181.86C68.5633 179.52 66.0933 177.744 63.06 176.53L73.33 159.11C77.9233 160.93 81.8233 163.92 85.03 168.08C88.15 172.24 90.5766 176.964 92.31 182.25C93.9566 187.45 94.78 192.607 94.78 197.72C94.78 204.394 93.4366 210.504 90.75 216.05C87.9766 221.597 84.3366 226.407 79.83 230.48C75.2366 234.554 70.1233 237.717 64.49 239.97C58.77 242.137 52.9633 243.22 47.07 243.22ZM20.42 78.0585L20.42 106.139L94 106.139L94 127.459L20.42 127.459L20.42 155.669L1.69997 155.669L1.69997 78.0585L20.42 78.0585ZM28.74 12.2663C28.3933 12.5263 27.7433 13.4363 26.79 14.9963C25.8366 16.5563 24.84 18.5063 23.8 20.8463C22.6733 23.1863 21.7633 25.743 21.07 28.5163C20.29 31.2897 19.9 34.063 19.9 36.8363C19.9 44.463 22.4566 48.2763 27.57 48.2763C30.69 48.2763 32.9 46.6297 34.2 43.3363C35.5 39.9563 37.06 35.1463 38.88 28.9063C40.5266 23.013 42.4333 17.943 44.6 13.6963C46.68 9.36299 49.4966 6.02632 53.05 3.68632C56.5166 1.34632 61.11 0.176322 66.83 0.176321C72.03 0.176321 76.45 1.12966 80.09 3.03632C83.6433 4.94299 86.5466 7.54299 88.8 10.8363C90.9666 14.1297 92.57 17.8563 93.61 22.0163C94.5633 26.0897 95.04 30.3363 95.04 34.7563C95.04 41.603 94.0433 48.5363 92.05 55.5563C89.97 62.5763 87.1533 68.773 83.6 74.1463L65.01 64.7863C65.4433 64.4397 66.2666 63.313 67.48 61.4063C68.6066 59.4997 69.82 57.1163 71.12 54.2563C72.42 51.3963 73.5466 48.2763 74.5 44.8963C75.3666 41.4297 75.8 37.9197 75.8 34.3663C75.8 26.8263 73.5033 23.0563 68.91 23.0563C66.57 23.0563 64.75 24.053 63.45 26.0463C62.0633 27.953 60.8933 30.5963 59.94 33.9763C58.9 37.3563 57.73 41.1697 56.43 45.4163C53.83 53.9097 50.6666 60.193 46.94 64.2663C43.2133 68.253 37.8833 70.2463 30.95 70.2463C24.45 70.2463 18.99 68.7297 14.57 65.6963C10.0633 62.5763 6.6833 58.4163 4.42997 53.2163C2.08997 48.0163 0.919968 42.3397 0.919968 36.1863C0.919968 29.6863 2.04663 23.533 4.29996 17.7263C6.46663 11.9197 8.71997 6.97965 11.06 2.90632L28.74 12.2663Z" fill="white"/>
</svg>
