<svg width="193" height="74" viewBox="0 0 193 74" fill="none" xmlns="http://www.w3.org/2000/svg">
<path d="M19.6202 71.2088C18.3664 70.9278 17.5816 70.2251 17.2208 69.0595C14.8825 61.4891 31.3265 37.5972 43.2947 26.0128C57.2873 12.4681 81.5316 2.4602 90.1152 4.58594C91.7955 5.00308 92.8318 5.87116 93.1916 7.16707C93.5079 8.29755 93.1093 9.48049 92.0016 10.6843C85.5728 17.6819 59.1784 23.0016 40.6529 21.0311C24.1611 19.2794 6.8241 12.8461 2.79229 6.98207C1.98575 5.80535 1.75078 4.69001 2.0978 3.66938C2.44008 2.66476 3.55299 2.04794 5.40909 1.83492C13.3162 0.929926 31.986 7.90885 37.8966 16.9401C45.6458 28.7767 37.4479 53.4522 28.3991 65.2403C25.049 69.6048 21.933 71.7243 19.6202 71.2088ZM38.3982 16.6497C32.3855 7.4637 13.389 0.363806 5.33865 1.2857C3.26318 1.52318 1.94935 2.28897 1.53662 3.49993C1.13381 4.68688 1.38864 5.9601 2.30062 7.28269C6.41138 13.2655 23.9446 19.8139 40.5848 21.5816C59.2607 23.5669 85.9189 18.1511 92.4484 11.0459C93.6866 9.69661 94.1291 8.34512 93.7622 7.02654C93.3433 5.52295 92.1666 4.52189 90.2642 4.05049C80.7378 1.69038 55.9352 12.9826 42.8754 25.6263C32.1439 36.0118 14.11 60.9737 16.6563 69.2143C17.0757 70.568 18.0264 71.4214 19.4849 71.7469C22.0436 72.3184 25.3795 70.1237 28.8761 65.5645C38.0171 53.6537 46.2713 28.6775 38.3982 16.6497Z" fill="white"/>
<path d="M6.67412 2.96152C6.25194 2.96597 5.85575 2.99042 5.49408 3.03179C4.75278 3.11672 3.47393 3.36043 3.24321 4.03641C3.01487 4.70704 3.19594 5.45594 3.79589 6.32803C7.37241 11.5259 22.6387 17.3681 37.8067 19.4739C37.4979 18.7961 37.1462 18.1615 36.7599 17.5727C31.3944 9.38058 14.7183 2.87169 6.67412 2.96152ZM87.2393 5.50753C79.7978 5.59024 64.8322 11.163 52.2475 20.1859C68.8593 19.6353 86.2691 15.0743 91.0333 9.89511C92.2582 8.56318 92.0299 7.74401 91.9542 7.47319C91.8001 6.92751 91.4115 6.1546 89.7847 5.75169C89.0845 5.57913 88.2278 5.49551 87.2393 5.50753ZM42.1874 22.944C42.2786 23.386 42.359 23.8365 42.4304 24.2955C42.8663 23.8841 43.3192 23.4697 43.7849 23.0556C43.2464 23.0236 42.7136 22.9871 42.1874 22.944ZM39.597 31.6329C28.1385 44.4109 16.6231 63.0086 18.3894 68.7227C18.6201 69.4752 19.0475 69.8554 19.8593 70.0373C19.9931 70.0671 20.1406 70.0827 20.2923 70.0809C21.1291 70.0702 23.4878 69.5121 27.3092 64.5349C33.0217 57.0961 38.9096 43.5349 39.597 31.6329ZM20.3108 73.0401H20.3098C19.9075 73.0454 19.5089 73.0049 19.1312 72.92C17.215 72.4926 15.9135 71.3279 15.3665 69.5504C12.7199 60.9958 29.2934 37.9941 39.5918 27.1403C39.484 25.5167 39.2533 23.9989 38.9006 22.6082C22.1673 20.5612 5.35697 14.0532 1.15072 7.9379C-0.25673 5.8962 -0.119149 4.19739 0.243468 3.13318C0.645324 1.95289 1.81732 0.467101 5.11208 0.0890913C5.5735 0.0375041 6.07322 0.00725442 6.59705 0.00103727C15.3268 -0.0968005 33.3631 6.73717 39.4443 16.0184C40.2027 17.176 40.8409 18.4768 41.3439 19.8946C43.1892 20.0733 45.1502 20.1841 47.1879 20.2241C59.7371 10.3901 77.1924 2.64444 87.1182 2.53369C88.4169 2.51947 89.5847 2.63731 90.5884 2.88591C93.5546 3.62103 94.6254 5.37766 95.0012 6.72071C95.3331 7.90721 95.3255 9.75679 93.416 11.8345C87.1754 18.6204 66.0193 23.0151 49.9957 23.1939C49.4279 23.2001 48.862 23.2024 48.3008 23.2001C46.8252 24.4031 45.4367 25.6305 44.1735 26.8531C43.7144 27.2973 43.2487 27.7603 42.7783 28.2397C43.1584 41.5301 36.4545 57.688 29.8622 66.2697C26.4866 70.6675 23.1824 73.0089 20.3108 73.0401Z" fill="white"/>
<path d="M19.2722 71.0491C18.0137 70.7694 17.226 70.0707 16.8644 68.9114C14.518 61.3858 31.022 37.6276 43.0342 26.109C57.0765 12.642 81.4072 2.6892 90.0202 4.80117C91.7075 5.21654 92.7467 6.0784 93.1084 7.36765C93.4246 8.49189 93.0237 9.66817 91.9141 10.8636C85.4584 17.8208 58.9723 23.1133 40.3815 21.1566C23.8335 19.4164 6.43642 13.02 2.39279 7.19109C1.58199 6.02058 1.34608 4.91279 1.69545 3.89795C2.0368 2.89999 3.15396 2.28495 5.02046 2.07505C12.955 1.17227 31.6877 8.11166 37.6162 17.0892C45.3924 28.8569 37.1628 53.3907 28.0837 65.113C24.7199 69.4526 21.5911 71.5605 19.2722 71.0491ZM38.1216 16.801C32.0862 7.66737 13.0273 0.610141 4.94907 1.52759C2.86509 1.76329 1.547 2.52554 1.1338 3.7294C0.727685 4.90835 0.985818 6.17535 1.89732 7.49171C6.02463 13.4385 23.616 19.9474 40.3143 21.704C59.056 23.6755 85.8087 18.289 92.3599 11.2242C93.6071 9.88074 94.0487 8.53635 93.6795 7.2271C93.2596 5.73196 92.0777 4.73712 90.1696 4.27017C80.6106 1.92204 55.7206 13.1534 42.6144 25.7256C31.8437 36.0506 13.7445 60.8739 16.2989 69.0661C16.7183 70.4136 17.6718 71.259 19.1374 71.5837C21.7022 72.1529 25.0485 69.9684 28.5612 65.435C37.7358 53.5912 46.0221 28.7586 38.1216 16.801Z" fill="white"/>
<path d="M54.6916 64.3206C54.4633 64.4269 54.0699 64.5127 53.6085 64.5127C52.175 64.5127 51.2148 63.6094 51.2148 61.9127C51.2148 60.4379 52.1618 59.2402 53.7985 59.2402C54.1498 59.2402 54.5299 59.3136 54.719 59.4101L54.5139 60.0684C54.3796 60.0154 54.1092 59.9296 53.7711 59.9296C52.7154 59.9296 52.2549 60.9054 52.2549 61.9127C52.2549 63.1126 52.8374 63.8327 53.7985 63.8327C54.0699 63.8327 54.3125 63.7904 54.5422 63.6944L54.6916 64.3206Z" fill="white"/>
<path d="M63.0789 63.8852C63.9706 63.8852 64.1597 62.6867 64.1597 61.8809C64.1597 61.0853 63.9706 59.8761 63.0515 59.8761C62.1178 59.8761 61.9429 61.0853 61.9429 61.8809C61.9429 62.7289 62.1329 63.8852 63.0666 63.8852H63.0789ZM63.025 64.5322C61.8464 64.5322 60.9004 63.6931 60.9004 61.8911C60.9004 60.0149 61.9684 59.2295 63.0907 59.2295C64.2694 59.2295 65.2036 60.0767 65.2036 61.8706C65.2036 63.8625 64.0391 64.5322 63.0373 64.5322H63.025Z" fill="white"/>
<path d="M72.05 60.6401C72.05 60.0357 72.0084 59.7276 71.9961 59.3135H72.9156L72.9672 59.9397H72.9946C73.2801 59.5261 73.7671 59.2295 74.4578 59.2295C75.0663 59.2295 75.5939 59.4518 75.8388 60.0037H75.8639C76.0407 59.7494 76.2695 59.5479 76.5002 59.4207C76.7702 59.2935 77.068 59.2295 77.4075 59.2295C78.2982 59.2295 78.9903 59.7276 78.9903 61.0443V64.4468H77.9478V61.224C77.9478 60.5552 77.8249 59.9086 77.0425 59.9086C76.6075 59.9086 76.2298 60.195 76.0804 60.6823C76.0407 60.8095 76.0407 60.9687 76.0407 61.1391V64.4468H74.9982V61.075C74.9982 60.5129 74.8777 59.9086 74.1066 59.9086C73.6735 59.9086 73.2542 60.195 73.1308 60.7455C73.1048 60.8736 73.0915 61.0212 73.0915 61.1817V64.4468H72.05V60.6401H72.05Z" fill="white"/>
<path d="M86.1193 60.6401C86.1193 60.0357 86.0777 59.7276 86.0645 59.3135H86.984L87.0398 59.9397H87.0663C87.3509 59.5261 87.8397 59.2295 88.5271 59.2295C89.1356 59.2295 89.6641 59.4518 89.9067 60.0037H89.9355C90.11 59.7494 90.3388 59.5479 90.5704 59.4207C90.8418 59.2935 91.1383 59.2295 91.4744 59.2295C92.3689 59.2295 93.0596 59.7276 93.0596 61.0443V64.4468H92.0171V61.224C92.0171 60.5552 91.8961 59.9086 91.1118 59.9086C90.6801 59.9086 90.3 60.195 90.1506 60.6823C90.11 60.8095 90.11 60.9687 90.11 61.1391V64.4468H89.0689V61.075C89.0689 60.5129 88.9479 59.9086 88.1768 59.9086C87.7428 59.9086 87.3235 60.195 87.2015 60.7455C87.1759 60.8736 87.1608 61.0212 87.1608 61.1817V64.4468H86.1193V60.6401Z" fill="white"/>
<path d="M104.112 63.0478C104.112 63.609 104.154 64.0658 104.167 64.4469H103.261L103.179 63.9057H103.152C102.962 64.1605 102.461 64.5327 101.758 64.5327C100.622 64.5327 100.162 63.8323 100.162 62.5599V59.3135H101.205V62.4434C101.205 63.239 101.366 63.8434 102.084 63.8434C102.692 63.8434 102.962 63.3969 103.018 63.1541C103.057 63.0149 103.071 62.8668 103.071 62.6973V59.3135H104.112V63.0478Z" fill="white"/>
<path d="M111.255 60.6401C111.255 60.0357 111.214 59.7276 111.201 59.3135H112.107L112.162 59.929H112.189C112.473 59.5159 113 59.2295 113.689 59.2295C114.597 59.2295 115.273 59.7494 115.273 60.9999V64.4468H114.231V61.1391C114.231 60.5231 114.084 59.9188 113.324 59.9188C112.893 59.9188 112.473 60.2052 112.352 60.7571C112.311 60.8736 112.297 61.0319 112.297 61.2124V64.4468H111.255V60.6401H111.255Z" fill="white"/>
<path d="M122.417 59.3129H123.46V64.4463H122.417V59.3129ZM122.906 58.5195C122.566 58.5195 122.309 58.3064 122.309 57.9885C122.309 57.6701 122.579 57.457 122.918 57.457C123.296 57.457 123.54 57.6701 123.54 57.9885C123.54 58.3065 123.296 58.5195 122.918 58.5195H122.906Z" fill="white"/>
<path d="M133.781 64.3206C133.552 64.4269 133.16 64.5127 132.699 64.5127C131.266 64.5127 130.305 63.6094 130.305 61.9127C130.305 60.4379 131.252 59.2402 132.888 59.2402C133.24 59.2402 133.619 59.3136 133.81 59.4101L133.606 60.0684C133.47 60.0154 133.199 59.9296 132.861 59.9296C131.806 59.9296 131.346 60.9054 131.346 61.9127C131.346 63.1126 131.928 63.8327 132.888 63.8327C133.16 63.8327 133.402 63.7904 133.632 63.6944L133.781 64.3206Z" fill="white"/>
<path d="M142.793 61.7848C142.253 61.7848 140.994 61.8706 140.994 62.9833C140.994 63.6624 141.427 63.895 141.791 63.895C142.253 63.895 142.632 63.6304 142.753 63.1207C142.779 63.0255 142.793 62.9193 142.793 62.8241V61.7848ZM143.808 63.2799C143.808 63.6726 143.808 64.1178 143.877 64.4464H142.942L142.874 63.9052H142.834C142.55 64.2987 142.09 64.5322 141.536 64.5322C140.657 64.5322 139.98 63.9599 139.98 63.0682C139.98 61.7746 141.291 61.2125 142.765 61.2018V61.0439C142.765 60.3524 142.55 59.8761 141.725 59.8761C141.318 59.8761 140.953 59.9713 140.642 60.1407L140.411 59.5684C140.697 59.4092 141.291 59.2295 141.942 59.2295C143.254 59.2295 143.808 59.9081 143.808 61.0533V63.2799Z" fill="white"/>
<path d="M152.114 58.1162V59.3138H153.371V59.9297H152.114V62.9838C152.114 63.6628 152.412 63.8323 152.789 63.8323C152.967 63.8323 153.101 63.822 153.211 63.8003L153.266 64.4264C153.075 64.4802 152.832 64.5122 152.494 64.5122C152.074 64.5122 151.709 64.4264 151.465 64.2031C151.193 63.9697 151.071 63.6202 151.071 62.9104V59.9297H150.275V59.3138H151.071V58.4457L152.114 58.1162Z" fill="white"/>
<path d="M159.975 59.3129H161.017V64.4463H159.975V59.3129ZM160.461 58.5195C160.123 58.5195 159.867 58.3064 159.867 57.9885C159.867 57.6701 160.138 57.457 160.475 57.457C160.855 57.457 161.097 57.6701 161.097 57.9885C161.097 58.3065 160.855 58.5195 160.475 58.5195H160.461Z" fill="white"/>
<path d="M170.042 63.8852C170.933 63.8852 171.123 62.6867 171.123 61.8809C171.123 61.0853 170.933 59.8761 170.013 59.8761C169.079 59.8761 168.903 61.0853 168.903 61.8809C168.903 62.7289 169.092 63.8852 170.027 63.8852H170.042ZM169.986 64.5322C168.81 64.5322 167.863 63.6931 167.863 61.8911C167.863 60.0149 168.93 59.2295 170.054 59.2295C171.23 59.2295 172.164 60.0767 172.164 61.8706C172.164 63.8625 171.002 64.5322 170.001 64.5322H169.986Z" fill="white"/>
<path d="M179.009 60.6401C179.009 60.0357 178.969 59.7276 178.953 59.3135H179.863L179.915 59.929H179.943C180.226 59.5159 180.755 59.2295 181.444 59.2295C182.351 59.2295 183.027 59.7494 183.027 60.9999V64.4468H181.985V61.1391C181.985 60.5231 181.836 59.9188 181.079 59.9188C180.646 59.9188 180.226 60.2052 180.105 60.7571C180.065 60.8736 180.052 61.0319 180.052 61.2124V64.4468H179.009V60.6401Z" fill="white"/>
<path d="M189.995 63.5987C190.224 63.7157 190.63 63.8633 191.051 63.8633C191.633 63.8633 192.01 63.5782 192.01 63.1215C192.01 62.7297 191.835 62.4539 191.172 62.1146C190.321 61.6796 189.86 61.2344 189.86 60.6505C189.86 59.8134 190.646 59.2295 191.659 59.2295C192.174 59.2295 192.553 59.3567 192.824 59.4941L192.553 60.1101C192.295 59.9713 192.023 59.8766 191.672 59.8766C191.119 59.8766 190.833 60.1946 190.833 60.5348C190.833 60.8737 190.995 61.0752 191.644 61.4141C192.403 61.7966 192.999 62.2738 192.999 62.9836C192.999 64.0132 192.106 64.5122 191.021 64.5122C190.55 64.5122 190.024 64.3943 189.738 64.2138L189.995 63.5987Z" fill="white"/>
<path d="M56.4712 53.7217V35.2044H48.3008V32.2617H69.4016V35.2044H61.2335V53.7217H56.4712Z" fill="white"/>
<path d="M71.8047 53.7217V32.2617H86.0635V35.2044H76.5523V41.1935H84.3506V44.0641H76.5523V50.6767H86.7873V53.7217H71.8047Z" fill="white"/>
<path d="M89.9766 53.7217V32.2617H94.5374V42.6722L103.263 32.2617H107.21L99.3015 41.8904L109.12 53.7217H103.186L94.5374 43.1662V53.7217H89.9766Z" fill="white"/>
<path d="M112.836 53.7217V35.2044H104.668V32.2617H125.768V35.2044H117.6V53.7217H112.836Z" fill="white"/>
<path d="M128.172 53.7217V32.2617H142.428V35.2044H132.919V41.1935H140.717V44.0641H132.919V50.6767H143.153V53.7217H128.172Z" fill="white"/>
<path d="M146.34 53.7217V32.2617H151.089V50.6767H161.367V53.7217H146.34Z" fill="white"/>
<path d="M168.657 32.2617H163.91V53.7217H168.657V32.2617Z" fill="white"/>
<path d="M191.946 52.8992C189.736 53.8282 187.099 54.292 184.038 54.292C180.297 54.292 177.384 53.3021 175.298 51.3191C173.211 49.3383 172.168 46.5745 172.168 43.0261C172.168 39.4106 173.22 36.6298 175.32 34.6811C177.423 32.7341 180.42 31.7598 184.313 31.7598C186.8 31.7598 189.274 32.0359 191.729 32.5865V36.0801C188.944 35.1627 186.611 34.7038 184.731 34.7038C182.327 34.7038 180.471 35.422 179.165 36.8571C177.86 38.2926 177.208 40.3289 177.208 42.9683C177.208 45.5587 177.911 47.5777 179.313 49.0284C180.716 50.479 182.666 51.2035 185.164 51.2035C187.403 51.2035 189.662 50.6734 191.946 49.6083V52.8992Z" fill="white"/>
</svg>
