<svg width="193" height="74" viewBox="0 0 193 74" fill="none" xmlns="http://www.w3.org/2000/svg">
<path d="M19.6202 72.1441C18.3664 71.8593 17.5816 71.1474 17.2208 69.9665C14.8825 62.2967 31.3265 38.0909 43.2947 26.3543C57.2873 12.6317 81.5316 2.49231 90.1152 4.64598C91.7955 5.0686 92.8318 5.94808 93.1916 7.26101C93.5079 8.40634 93.1093 9.60483 92.0016 10.8245C85.5728 17.914 59.1784 23.3036 40.6528 21.3072C24.1611 19.5324 6.8241 13.0146 2.79229 7.07358C1.98575 5.88141 1.75078 4.75141 2.0978 3.71737C2.44008 2.69956 3.55299 2.07464 5.40909 1.85882C13.3162 0.941936 31.986 8.01254 37.8966 17.1625C45.6458 29.1545 37.4479 54.1542 28.3991 66.0971C25.049 70.5189 21.933 72.6662 19.6202 72.1441ZM38.3982 16.8682C32.3855 7.56154 13.389 0.36838 5.33865 1.30239C3.26318 1.54298 1.94935 2.31884 1.53662 3.5457C1.13381 4.74824 1.38864 6.03819 2.30062 7.37815C6.41138 13.4395 23.9446 20.074 40.5848 21.8649C59.2607 23.8762 85.9189 18.3893 92.4484 11.1908C93.6866 9.82379 94.1291 8.45454 93.7622 7.11864C93.3433 5.5953 92.1666 4.58109 90.2642 4.1035C80.7378 1.71238 55.9352 13.153 42.8754 25.9628C32.1439 36.4846 14.11 61.7745 16.6563 70.1233C17.0757 71.4948 18.0264 72.3594 19.4849 72.6892C22.0436 73.2682 25.3795 71.0447 28.8761 66.4256C38.0171 54.3583 46.2713 29.054 38.3982 16.8682Z" fill="white"/>
<path d="M6.67412 3.00042C6.25194 3.00493 5.85575 3.0297 5.49408 3.07162C4.75277 3.15766 3.47393 3.40457 3.24321 4.08943C3.01487 4.76887 3.19594 5.52761 3.79589 6.41115C7.37241 11.6773 22.6387 17.5963 37.8067 19.7297C37.4979 19.043 37.1462 18.4001 36.7599 17.8035C31.3944 9.5038 14.7183 2.90941 6.67412 3.00042ZM87.2393 5.57987C79.7978 5.66368 64.8322 11.3096 52.2475 20.451C68.8593 19.8932 86.2691 15.2723 91.0333 10.0251C92.2582 8.67567 92.0299 7.84573 91.9542 7.57136C91.8001 7.01851 91.4115 6.23545 89.7847 5.82724C89.0845 5.65242 88.2278 5.5677 87.2393 5.57987ZM42.1874 23.2454C42.2786 23.6932 42.359 24.1497 42.4304 24.6146C42.8663 24.1979 43.3192 23.778 43.7849 23.3585C43.2464 23.326 42.7136 23.2891 42.1874 23.2454ZM39.597 32.0484C28.1385 44.9943 16.6231 63.8363 18.3894 69.6255C18.6201 70.3878 19.0475 70.7731 19.8593 70.9574C19.9931 70.9875 20.1406 71.0033 20.2923 71.0015C21.1291 70.9907 23.4878 70.4252 27.3092 65.3826C33.0217 57.8461 38.9096 44.1067 39.597 32.0484ZM20.3108 73.9995H20.3098C19.9075 74.0049 19.5089 73.9639 19.1312 73.8779C17.215 73.4449 15.9135 72.2649 15.3665 70.464C12.7199 61.797 29.2934 38.4932 39.5918 27.4969C39.484 25.8519 39.2533 24.3141 38.9006 22.9052C22.1673 20.8313 5.35697 14.2378 1.15072 8.04218C-0.25673 5.97366 -0.119149 4.25253 0.243468 3.17434C0.645324 1.97855 1.81732 0.473237 5.11208 0.0902616C5.5735 0.0379967 6.07322 0.00734971 6.59705 0.00105089C15.3268 -0.0980721 33.3631 6.82567 39.4443 16.2288C40.2027 17.4016 40.8409 18.7195 41.3439 20.1559C43.1892 20.337 45.1502 20.4492 47.1879 20.4898C59.7371 10.5266 77.1924 2.67917 87.1182 2.56697C88.4169 2.55256 89.5847 2.67195 90.5884 2.92382C93.5546 3.66859 94.6254 5.44831 95.0012 6.80899C95.3331 8.01108 95.3255 9.88496 93.416 11.99C87.1754 18.865 66.0193 23.3175 49.9957 23.4986C49.4279 23.5049 48.862 23.5072 48.3008 23.5049C46.8252 24.7237 45.4367 25.9672 44.1735 27.2058C43.7144 27.6559 43.2487 28.1249 42.7783 28.6106C43.1584 42.0756 36.4545 58.4458 29.8622 67.1402C26.4866 71.5958 23.1824 73.968 20.3108 73.9995Z" fill="#2CABE1"/>
<path d="M19.2722 71.9829C18.0137 71.6995 17.226 70.9917 16.8644 69.8171C14.518 62.1927 31.022 38.1224 43.0342 26.4525C57.0765 12.8086 81.4072 2.72504 90.0202 4.86476C91.7075 5.28558 92.7467 6.15876 93.1083 7.46495C93.4246 8.60395 93.0237 9.7957 91.9141 11.0068C85.4584 18.0554 58.9723 23.4175 40.3815 21.435C23.8335 19.672 6.43642 13.1916 2.39279 7.28607C1.58199 6.10019 1.34608 4.97784 1.69545 3.94967C2.0368 2.93861 3.15396 2.31549 5.02046 2.10283C12.955 1.18819 31.6877 8.21874 37.6162 17.3142C45.3924 29.2365 37.1628 54.0925 28.0837 65.9689C24.7199 70.3654 21.5911 72.5011 19.2722 71.9829ZM38.1216 17.0222C32.0862 7.76861 13.0273 0.618675 4.94907 1.54817C2.86509 1.78697 1.547 2.55924 1.1338 3.77891C0.727685 4.97334 0.985818 6.25699 1.89732 7.59064C6.02463 13.6155 23.616 20.2099 40.3143 21.9897C59.056 23.987 85.8087 18.5298 92.3599 11.3722C93.6071 10.0111 94.0487 8.64901 93.6795 7.32256C93.2596 5.80777 92.0777 4.79987 90.1696 4.32678C80.6106 1.94781 55.7206 13.3267 42.6144 26.0641C31.8437 36.5247 13.7445 61.6741 16.2989 69.9739C16.7183 71.3391 17.6718 72.1956 19.1374 72.5245C21.7022 73.1012 25.0485 70.8881 28.5612 66.2951C37.7358 54.2957 46.0221 29.1369 38.1216 17.0222Z" fill="white"/>
<path d="M54.6916 65.1646C54.4633 65.2723 54.0699 65.3593 53.6085 65.3593C52.175 65.3593 51.2148 64.4441 51.2148 62.7252C51.2148 61.231 52.1618 60.0176 53.7985 60.0176C54.1498 60.0176 54.5299 60.0919 54.719 60.1897L54.5139 60.8566C54.3796 60.803 54.1092 60.716 53.7711 60.716C52.7154 60.716 52.2549 61.7046 52.2549 62.7252C52.2549 63.9409 52.8374 64.6704 53.7985 64.6704C54.0699 64.6704 54.3125 64.6275 54.5422 64.5302L54.6916 65.1646Z" fill="white"/>
<path d="M63.0789 64.7247C63.9706 64.7247 64.1597 63.5104 64.1597 62.694C64.1597 61.888 63.9706 60.6629 63.0515 60.6629C62.1178 60.6629 61.9429 61.888 61.9429 62.694C61.9429 63.5532 62.1329 64.7247 63.0666 64.7247H63.0789ZM63.025 65.3802C61.8464 65.3802 60.9004 64.53 60.9004 62.7044C60.9004 60.8035 61.9684 60.0078 63.0907 60.0078C64.2694 60.0078 65.2036 60.8661 65.2036 62.6837C65.2036 64.7017 64.0391 65.3802 63.0373 65.3802H63.025Z" fill="white"/>
<path d="M72.05 61.4369C72.05 60.8247 72.0084 60.5124 71.9961 60.093H72.9156L72.9672 60.7273H72.9946C73.2801 60.3083 73.7671 60.0078 74.4578 60.0078C75.0663 60.0078 75.5939 60.2331 75.8388 60.7922H75.8639C76.0407 60.5345 76.2695 60.3304 76.5002 60.2016C76.7702 60.0727 77.068 60.0078 77.4075 60.0078C78.2982 60.0078 78.9903 60.5124 78.9903 61.8465V65.2936H77.9478V62.0285C77.9478 61.3509 77.8249 60.6958 77.0425 60.6958C76.6075 60.6958 76.2298 60.986 76.0804 61.4797C76.0407 61.6086 76.0407 61.7699 76.0407 61.9425V65.2936H74.9982V61.8776C74.9982 61.3081 74.8777 60.6958 74.1066 60.6958C73.6735 60.6958 73.2542 60.986 73.1308 61.5437C73.1048 61.6735 73.0915 61.8231 73.0915 61.9857V65.2936H72.05V61.4369H72.05Z" fill="white"/>
<path d="M86.1193 61.4369C86.1193 60.8247 86.0777 60.5124 86.0645 60.093H86.984L87.0398 60.7273H87.0663C87.3509 60.3083 87.8397 60.0078 88.5271 60.0078C89.1356 60.0078 89.6641 60.2331 89.9067 60.7922H89.9355C90.11 60.5345 90.3388 60.3304 90.5704 60.2016C90.8418 60.0727 91.1383 60.0078 91.4744 60.0078C92.3689 60.0078 93.0596 60.5124 93.0596 61.8465V65.2936H92.0171V62.0285C92.0171 61.3509 91.8961 60.6958 91.1118 60.6958C90.6801 60.6958 90.3 60.986 90.1506 61.4797C90.11 61.6086 90.11 61.7699 90.11 61.9425V65.2936H89.0689V61.8776C89.0689 61.3081 88.9479 60.6958 88.1768 60.6958C87.7428 60.6958 87.3235 60.986 87.2015 61.5437C87.1759 61.6735 87.1608 61.8231 87.1608 61.9857V65.2936H86.1193V61.4369V61.4369Z" fill="white"/>
<path d="M104.112 63.8752C104.112 64.4438 104.154 64.9065 104.167 65.2926H103.261L103.179 64.7443H103.152C102.962 65.0025 102.461 65.3796 101.758 65.3796C100.622 65.3796 100.162 64.67 100.162 63.3809V60.0918H101.205V63.2629C101.205 64.0689 101.366 64.6812 102.084 64.6812C102.692 64.6812 102.962 64.2289 103.018 63.9829C103.057 63.8418 103.071 63.6918 103.071 63.5201V60.0918H104.112V63.8752Z" fill="white"/>
<path d="M111.255 61.4369C111.255 60.8247 111.214 60.5124 111.201 60.093H112.107L112.162 60.7165H112.189C112.473 60.298 113 60.0078 113.689 60.0078C114.597 60.0078 115.273 60.5345 115.273 61.8014V65.2936H114.231V61.9425C114.231 61.3185 114.084 60.7062 113.324 60.7062C112.893 60.7062 112.473 60.9963 112.352 61.5554C112.311 61.6735 112.297 61.8339 112.297 62.0168V65.2936H111.255V61.4369H111.255Z" fill="white"/>
<path d="M122.417 60.0911H123.46V65.292H122.417V60.0911ZM122.906 59.2873C122.566 59.2873 122.309 59.0715 122.309 58.7494C122.309 58.4268 122.579 58.2109 122.918 58.2109C123.296 58.2109 123.54 58.4268 123.54 58.7494C123.54 59.0715 123.296 59.2873 122.918 59.2873H122.906Z" fill="white"/>
<path d="M133.781 65.1646C133.552 65.2723 133.16 65.3593 132.699 65.3593C131.266 65.3593 130.305 64.4441 130.305 62.7252C130.305 61.231 131.252 60.0176 132.888 60.0176C133.24 60.0176 133.619 60.0919 133.81 60.1897L133.606 60.8566C133.47 60.803 133.199 60.716 132.861 60.716C131.806 60.716 131.346 61.7046 131.346 62.7252C131.346 63.9409 131.928 64.6704 132.888 64.6704C133.16 64.6704 133.402 64.6275 133.632 64.5302L133.781 65.1646Z" fill="white"/>
<path d="M142.793 62.5967C142.253 62.5967 140.994 62.6836 140.994 63.8109C140.994 64.4989 141.427 64.7346 141.791 64.7346C142.253 64.7346 142.632 64.4665 142.753 63.9502C142.779 63.8537 142.793 63.7461 142.793 63.6496V62.5967V62.5967ZM143.808 64.1114C143.808 64.5093 143.808 64.9603 143.877 65.2932H142.942L142.874 64.7449H142.834C142.55 65.1437 142.09 65.3802 141.536 65.3802C140.657 65.3802 139.98 64.8003 139.98 63.897C139.98 62.5863 141.291 62.0168 142.765 62.006V61.8461C142.765 61.1455 142.55 60.6629 141.725 60.6629C141.318 60.6629 140.953 60.7593 140.642 60.931L140.411 60.3511C140.697 60.1898 141.291 60.0078 141.942 60.0078C143.254 60.0078 143.808 60.6954 143.808 61.8555V64.1114V64.1114Z" fill="white"/>
<path d="M152.114 58.8809V60.0941H153.371V60.7181H152.114V63.8124C152.114 64.5004 152.412 64.672 152.789 64.672C152.967 64.672 153.101 64.6616 153.211 64.6396L153.266 65.2739C153.075 65.3284 152.832 65.3609 152.494 65.3609C152.074 65.3609 151.709 65.2739 151.465 65.0478C151.193 64.8112 151.071 64.4571 151.071 63.7381V60.7181H150.275V60.0941H151.071V59.2147L152.114 58.8809Z" fill="white"/>
<path d="M159.975 60.0911H161.017V65.292H159.975V60.0911ZM160.461 59.2873C160.123 59.2873 159.867 59.0715 159.867 58.7494C159.867 58.4268 160.138 58.2109 160.475 58.2109C160.855 58.2109 161.097 58.4268 161.097 58.7494C161.097 59.0715 160.855 59.2873 160.475 59.2873H160.461Z" fill="white"/>
<path d="M170.042 64.7247C170.933 64.7247 171.123 63.5104 171.123 62.694C171.123 61.888 170.933 60.6629 170.013 60.6629C169.079 60.6629 168.903 61.888 168.903 62.694C168.903 63.5532 169.092 64.7247 170.027 64.7247H170.042ZM169.986 65.3802C168.81 65.3802 167.863 64.53 167.863 62.7044C167.863 60.8035 168.93 60.0078 170.054 60.0078C171.23 60.0078 172.164 60.8661 172.164 62.6837C172.164 64.7017 171.002 65.3802 170.001 65.3802H169.986Z" fill="white"/>
<path d="M179.009 61.4369C179.009 60.8247 178.969 60.5124 178.953 60.093H179.863L179.915 60.7165H179.943C180.226 60.298 180.755 60.0078 181.444 60.0078C182.351 60.0078 183.027 60.5345 183.027 61.8014V65.2936H181.985V61.9425C181.985 61.3185 181.836 60.7062 181.079 60.7062C180.646 60.7062 180.226 60.9963 180.105 61.5554C180.065 61.6735 180.052 61.8339 180.052 62.0168V65.2936H179.009V61.4369Z" fill="white"/>
<path d="M189.995 64.4344C190.224 64.5529 190.63 64.7025 191.051 64.7025C191.633 64.7025 192.01 64.4137 192.01 63.9509C192.01 63.554 191.835 63.2746 191.172 62.9308C190.321 62.4901 189.86 62.0391 189.86 61.4474C189.86 60.5994 190.646 60.0078 191.659 60.0078C192.174 60.0078 192.553 60.1367 192.824 60.2759L192.553 60.9C192.295 60.7594 192.023 60.6634 191.672 60.6634C191.119 60.6634 190.833 60.9856 190.833 61.3303C190.833 61.6736 190.995 61.8778 191.644 62.2211C192.403 62.6086 192.999 63.0921 192.999 63.8112C192.999 64.8544 192.106 65.3599 191.021 65.3599C190.55 65.3599 190.024 65.2405 189.738 65.0576L189.995 64.4344Z" fill="white"/>
<path d="M56.4712 54.4274V35.6669H48.3008V32.6855H69.4016V35.6669H61.2335V54.4274H56.4712Z" fill="white"/>
<path d="M71.8047 54.4274V32.6855H86.0635V35.6669H76.5523V41.7346H84.3506V44.643H76.5523V51.3424H86.7873V54.4274H71.8047Z" fill="white"/>
<path d="M89.9766 54.4274V32.6855H94.5374V43.2328L103.263 32.6855H107.21L99.3015 42.4407L109.12 54.4274H103.186L94.5374 43.7333V54.4274H89.9766Z" fill="white"/>
<path d="M112.836 54.4274V35.6669H104.668V32.6855H125.768V35.6669H117.6V54.4274H112.836Z" fill="white"/>
<path d="M128.172 54.4274V32.6855H142.428V35.6669H132.919V41.7346H140.717V44.643H132.919V51.3424H143.153V54.4274H128.172Z" fill="white"/>
<path d="M146.34 54.4274V32.6855H151.089V51.3424H161.367V54.4274H146.34Z" fill="white"/>
<path d="M168.657 32.6855H163.91V54.4274H168.657V32.6855Z" fill="white"/>
<path d="M191.946 53.5948C189.736 54.536 187.099 55.0059 184.038 55.0059C180.297 55.0059 177.384 54.003 175.298 51.994C173.211 49.9872 172.168 47.187 172.168 43.5921C172.168 39.9291 173.22 37.1117 175.32 35.1374C177.423 33.1649 180.42 32.1777 184.313 32.1777C186.8 32.1777 189.274 32.4575 191.729 33.0153V36.5549C188.944 35.6254 186.611 35.1604 184.731 35.1604C182.327 35.1604 180.471 35.888 179.165 37.342C177.86 38.7964 177.208 40.8595 177.208 43.5335C177.208 46.158 177.911 48.2035 179.313 49.6732C180.716 51.1429 182.666 51.8769 185.164 51.8769C187.403 51.8769 189.662 51.3398 191.946 50.2607V53.5948Z" fill="white"/>
</svg>
