<svg width="59" height="126" viewBox="0 0 59 126" fill="none" xmlns="http://www.w3.org/2000/svg">
<path d="M58.9367 0.188232H0V87.7858H58.9367V0.188232Z" fill="#BF2227"/>
<path d="M58.999 0L46.3339 13.1145L42.1331 8.72211L38.1831 12.8008L46.2712 20.5817L58.999 7.96912V0Z" fill="white"/>
<path d="M42.1341 25.5388L46.3349 29.9312L59 16.8167V24.7858L46.2722 37.3983L38.1841 29.6174L42.1341 25.5388Z" fill="white"/>
<path d="M42.1336 42.3559L46.3344 46.7483L58.9995 33.6338V41.6029L46.2717 54.2155L38.1836 46.4346L42.1336 42.3559Z" fill="white"/>
<path d="M42.1336 59.1721L46.3344 63.5645L58.9995 50.5127V58.4191L46.2717 71.0316L38.1836 63.2507L42.1336 59.1721Z" fill="white"/>
<path d="M58.999 67.3296L46.3339 80.3814L42.1331 75.9889L38.1831 80.0676L46.2712 87.8485L58.999 75.236V67.3296Z" fill="#BF2227"/>
<path d="M6.08132 80.5067C4.76465 80.5067 4.13766 80.7577 4.13766 81.6362C4.13766 82.5775 5.07814 82.7657 7.64878 82.7657C10.4075 82.7657 10.9091 82.3892 10.9091 81.5735C10.9091 80.8832 10.5329 80.444 8.58926 80.444V78.5615C10.5956 78.5615 12.2885 79.0635 12.2885 81.5107C12.2885 84.2717 10.2821 84.6482 7.5234 84.6482C4.76466 84.6482 2.7583 84.2717 2.7583 81.5107C2.7583 78.8753 4.70195 78.687 6.01862 78.687V80.5067H6.08132Z" fill="white"/>
<path d="M8.96593 76.2398H9.53022C10.3453 76.2398 11.1604 76.0515 11.1604 75.3613C11.1604 74.7965 10.7215 74.5455 9.84371 74.4201V72.8513C11.4739 72.9141 12.3517 73.6671 12.3517 75.3613C12.3517 77.934 10.3453 78.0595 8.65244 78.0595C6.77148 78.0595 5.07861 77.683 5.07861 75.2985C5.07861 73.2278 6.45799 72.7886 8.58974 72.7886H8.96593V76.2398V76.2398ZM7.96275 74.4201C6.89688 74.4828 6.33259 74.6083 6.33259 75.2985C6.33259 75.9888 7.08498 76.2398 7.71196 76.2398H7.96275V74.4201V74.4201Z" fill="white"/>
<path d="M5.26672 72.0357V70.3415H6.2072C5.51751 69.965 5.07861 69.463 5.07861 68.7727C5.07861 68.6472 5.07861 68.5845 5.07861 68.459H6.77148C6.77148 68.6472 6.77148 68.8355 6.77148 69.0237C6.77148 69.6512 7.08498 70.3415 8.02546 70.3415H12.1636V72.0984H5.26672V72.0357Z" fill="white"/>
<path d="M3.25977 67.0158V65.2589H5.26613V64.2549H6.4574V65.2589H10.2193C10.7836 65.2589 10.9717 65.1334 10.9717 64.6314C10.9717 64.5059 10.9717 64.3176 10.9717 64.2549H12.2257C12.2884 64.6314 12.2884 65.0079 12.2884 65.3844C12.2884 66.7648 11.8495 67.0158 10.4701 67.0158H6.5201V67.8943H5.32883V67.0158H3.25977Z" fill="white"/>
<path d="M2.88379 63.6903V61.9333H4.38857V63.6903H2.88379ZM5.26635 63.6903V61.9333H12.1632V63.6903H5.26635Z" fill="white"/>
<path d="M6.4578 60.49V61.3684H5.26653V60.49H4.45144C3.19747 60.49 2.82129 59.7997 2.82129 58.6075C2.82129 58.2937 2.82127 57.98 2.88397 57.6663H4.13794C4.13794 57.7918 4.13794 57.9172 4.13794 58.0427C4.13794 58.5447 4.26336 58.733 4.70225 58.733H5.32923V57.729H6.5205V58.733H12.2261V60.49H6.4578V60.49Z" fill="white"/>
<path d="M2.88379 57.2267V55.4697H4.38857V57.2267H2.88379ZM5.26635 57.2267V55.4697H12.1632V57.2267H5.26635Z" fill="white"/>
<path d="M8.96593 52.8972H9.53022C10.3453 52.8972 11.1604 52.709 11.1604 52.0188C11.1604 51.454 10.7215 51.203 9.84371 51.0775V49.5088C11.4739 49.5715 12.3517 50.3245 12.3517 52.0188C12.3517 54.5915 10.3453 54.717 8.65244 54.717C6.77148 54.717 5.07861 54.3405 5.07861 51.956C5.07861 49.8853 6.45799 49.446 8.58974 49.446H8.96593V52.8972V52.8972ZM7.96275 51.0775C6.89688 51.1403 6.33259 51.2658 6.33259 51.956C6.33259 52.6462 7.08498 52.8972 7.71196 52.8972H7.96275V51.0775V51.0775Z" fill="white"/>
<path d="M11.4731 45.1166C12.1001 45.5558 12.4136 45.9951 12.4136 46.6853C12.4136 48.1285 11.3477 48.8188 8.77707 48.8188C6.20643 48.8188 5.14054 48.1285 5.14054 46.6853C5.14054 45.9951 5.39134 45.5558 5.95563 45.1793H3.00879V43.4224H12.1628V45.1166H11.4731ZM10.9715 46.1206C10.9715 45.3048 10.2191 45.1793 8.71437 45.1793C7.2096 45.1793 6.45721 45.3048 6.45721 46.1206C6.45721 46.8735 7.2096 47.0618 8.71437 47.0618C10.2191 47.0618 10.9715 46.8735 10.9715 46.1206Z" fill="white"/>
<path d="M9.34176 38.0885H9.59255C10.4703 38.0885 11.0346 37.8375 11.0346 36.8962C11.0346 36.3315 10.6584 35.7668 9.90604 35.7668C9.09096 35.7668 8.77747 36.206 8.33858 37.3982C7.77429 39.0297 7.08461 39.7827 5.57984 39.7827C3.82428 39.7827 2.88379 38.716 2.88379 36.959C2.88379 35.3275 3.57349 34.1353 5.32905 34.1353H5.57984V35.8923C4.70206 35.8923 4.20046 36.206 4.20046 36.8962C4.20046 37.712 4.70206 37.963 5.26635 37.963C5.83064 37.963 6.20683 37.7747 6.52032 37.0217L7.14731 35.5785C7.77429 34.198 8.46397 33.8215 9.59255 33.8215C11.5362 33.8215 12.414 35.0138 12.414 37.0217C12.414 39.0925 11.4108 39.9709 9.71795 39.9709H9.34176V38.0885V38.0885Z" fill="white"/>
<path d="M13.1034 33.1942C13.1034 33.0687 13.1661 32.8805 13.1661 32.755C13.1661 32.1275 12.7899 31.8765 12.163 31.8138L5.26611 33.759V31.8765L10.0312 30.8725L5.26611 29.994V28.2371L11.7241 29.9313C14.1066 30.5588 14.4201 30.9353 14.4201 32.5667V33.257H13.1034V33.1942Z" fill="white"/>
<path d="M9.90641 26.4803H10.1572C10.7842 26.4803 11.1604 26.1665 11.1604 25.539C11.1604 24.9743 10.9096 24.6605 10.3453 24.6605C9.90642 24.6605 9.71831 24.9743 9.53022 25.288L9.09134 26.543C8.71515 27.547 8.15086 28.049 7.14768 28.049C6.0191 28.049 5.07861 27.3587 5.07861 25.4763C5.07861 23.8448 5.7683 23.0918 7.02227 23.0918H7.33577V24.6605C6.64608 24.6605 6.2699 24.8488 6.2699 25.4763C6.2699 25.9155 6.52069 26.292 7.02227 26.292C7.33577 26.292 7.64927 26.1038 7.83737 25.539L8.21354 24.4723C8.58974 23.3428 9.15403 22.9663 10.2199 22.9663C11.662 22.9663 12.4144 24.033 12.4144 25.539C12.4144 27.547 11.5366 28.1117 10.2199 28.1117H9.90641V26.4803Z" fill="white"/>
<path d="M3.25977 21.9621V20.2052H5.26613V19.2012H6.4574V20.2052H10.2193C10.7836 20.2052 10.9717 20.0797 10.9717 19.5777C10.9717 19.4522 10.9717 19.2639 10.9717 19.2012H12.2257C12.2884 19.5777 12.2884 19.9542 12.2884 20.3307C12.2884 21.7111 11.8495 21.9621 10.4701 21.9621H6.5201V22.8406H5.32883V21.9621H3.25977Z" fill="white"/>
<path d="M8.96593 17.2559H9.53022C10.3453 17.2559 11.1604 17.0676 11.1604 16.3774C11.1604 15.8126 10.7215 15.5617 9.84371 15.4362V13.8674C11.4739 13.9302 12.3517 14.6832 12.3517 16.3774C12.3517 18.9501 10.3453 19.0756 8.65244 19.0756C6.77148 19.0756 5.07861 18.6991 5.07861 16.3146C5.07861 14.2439 6.45799 13.8047 8.58974 13.8047H8.96593V17.2559V17.2559ZM7.96275 15.4362C6.89688 15.4989 6.33259 15.6244 6.33259 16.3146C6.33259 17.0049 7.08498 17.2559 7.71196 17.2559H7.96275V15.4362V15.4362Z" fill="white"/>
<path d="M5.26672 13.1144V11.4202H5.95641C5.32942 10.981 5.07861 10.4162 5.07861 9.66323C5.07861 8.84749 5.45482 8.28275 6.2072 8.0945C5.45482 7.84351 5.07861 7.15327 5.07861 6.33753C5.07861 5.1453 5.83101 4.64331 7.14768 4.64331H12.1636V6.40028H7.33577C6.77148 6.40028 6.45799 6.58853 6.45799 7.09053C6.45799 7.65527 6.83418 8.03176 7.64926 8.03176H12.2263V9.78873H7.39847C6.83418 9.78873 6.52069 9.97698 6.52069 10.479C6.52069 11.0437 6.89688 11.4202 7.71196 11.4202H12.289V13.1772H5.26672V13.1144Z" fill="white"/>
<path d="M44.7043 3.26275H43.5757V2.57251H46.7106V3.26275H45.582V6.33745H44.767V3.26275H44.7043Z" fill="white"/>
<path d="M47.1494 2.57251H48.3407L49.2185 5.20797L50.0336 2.57251H51.2248V6.4002H50.4725V3.70199L49.532 6.4002H48.905L47.9645 3.70199V6.4002H47.2121V2.57251H47.1494Z" fill="white"/>
<path d="M5.26683 123.615C4.95334 123.741 4.63984 123.741 4.26365 123.741C3.19777 123.741 2.31999 123.302 1.693 122.423C1.12872 121.607 0.87793 120.541 0.87793 119.286C0.87793 118.156 1.12873 117.152 1.56762 116.337C2.1946 115.27 3.07238 114.768 4.26365 114.768C5.51762 114.768 6.3954 115.27 7.02239 116.211C7.46128 116.964 7.71207 117.905 7.71207 119.097C7.71207 119.662 7.64938 120.164 7.52399 120.666C7.33589 121.419 7.08508 122.047 6.64619 122.549L7.58667 123.49L7.14779 124.18L6.08191 123.176C5.83111 123.364 5.58032 123.49 5.26683 123.615ZM5.39222 122.486L4.63985 121.733L5.14143 121.043L6.0192 121.921C6.3327 121.545 6.52081 121.043 6.58351 120.603C6.7089 120.101 6.70889 119.662 6.70889 119.16C6.70889 118.156 6.5208 117.341 6.08191 116.776C5.64302 116.148 5.07874 115.835 4.32635 115.835C3.57397 115.835 2.94699 116.148 2.5081 116.713C2.06921 117.278 1.81841 118.219 1.81841 119.411C1.81841 120.415 2.0065 121.231 2.44539 121.858C2.88428 122.486 3.51127 122.8 4.32635 122.8C4.51445 122.8 4.70254 122.8 4.89064 122.737C5.07873 122.674 5.26682 122.611 5.39222 122.486Z" fill="black"/>
<path d="M9.71851 122.235C9.84391 122.612 10.1574 122.8 10.5963 122.8C11.1606 122.8 11.5995 122.486 11.7876 121.796C11.913 121.482 11.9756 120.98 11.9756 120.353V117.341H12.8534V123.553H12.0384V122.612C11.913 122.863 11.7876 123.051 11.5995 123.176C11.286 123.49 10.8471 123.678 10.4082 123.678C9.6558 123.678 9.15421 123.364 8.90342 122.8C8.77802 122.486 8.71533 122.047 8.71533 121.545V117.341H9.59311V121.419C9.59311 121.733 9.65581 121.984 9.71851 122.235Z" fill="black"/>
<path d="M17.2425 119.474C17.3052 119.349 17.3052 119.223 17.3052 119.098C17.3052 118.721 17.1798 118.47 16.9917 118.345C16.8036 118.156 16.4901 118.094 16.1139 118.094C15.675 118.094 15.3615 118.219 15.1734 118.533C15.048 118.658 14.9853 118.909 14.9853 119.223H14.1702C14.1702 118.47 14.3583 117.905 14.7972 117.654C15.1734 117.341 15.6123 117.215 16.1766 117.215C16.7409 117.215 17.2425 117.341 17.6186 117.654C17.9948 117.905 18.183 118.345 18.183 118.972V122.549C18.183 122.674 18.1829 122.737 18.2456 122.8C18.3083 122.862 18.371 122.925 18.4964 122.925C18.5591 122.925 18.5591 122.925 18.6218 122.925C18.6845 122.925 18.7472 122.925 18.7472 122.925V123.678C18.6218 123.741 18.4964 123.741 18.4337 123.804C18.371 123.804 18.2456 123.804 18.1202 123.804C17.8068 123.804 17.6187 123.678 17.4933 123.427C17.4306 123.302 17.3679 123.113 17.3679 122.862C17.1798 123.113 16.929 123.364 16.6155 123.553C16.302 123.741 15.9258 123.866 15.5496 123.866C15.1107 123.866 14.6718 123.678 14.3583 123.364C14.0448 123.051 13.9194 122.611 13.9194 122.047C13.9194 121.482 14.0448 121.043 14.3583 120.729C14.6718 120.415 15.048 120.227 15.5496 120.164L16.929 119.976C17.0544 119.725 17.1798 119.662 17.2425 119.474ZM15.7377 122.862C16.0512 122.862 16.302 122.8 16.6155 122.612C17.1171 122.298 17.3679 121.859 17.3679 121.231V120.415C17.2425 120.478 17.1171 120.541 16.929 120.604C16.7409 120.666 16.6155 120.729 16.4274 120.729L15.9258 120.792C15.6123 120.855 15.3615 120.917 15.2361 121.043C14.9853 121.231 14.8599 121.482 14.8599 121.921C14.8599 122.235 14.9226 122.423 15.1107 122.612C15.2361 122.737 15.4869 122.862 15.7377 122.862Z" fill="black"/>
<path d="M19.562 123.49V115.019H20.4398V123.49H19.562Z" fill="black"/>
<path d="M21.6943 116.211V115.019H22.5721V116.211H21.6943ZM21.6943 123.49V117.34H22.5721V123.49H21.6943Z" fill="black"/>
<path d="M25.7693 117.341V118.219H24.9542V122.235C24.9542 122.423 25.0169 122.612 25.1423 122.674C25.205 122.737 25.3304 122.737 25.4558 122.737H25.5812C25.6439 122.737 25.7066 122.737 25.7693 122.737V123.553C25.6439 123.616 25.5812 123.616 25.4558 123.616C25.3304 123.616 25.205 123.616 25.0796 123.616C24.7034 123.616 24.3899 123.49 24.2645 123.239C24.1391 122.988 24.0764 122.674 24.0764 122.298V118.219H23.3867V117.341H24.0764V115.584H24.9542V117.341H25.7693Z" fill="black"/>
<path d="M29.9076 120.039C29.5941 121.106 29.3434 121.984 29.1553 122.612C28.6537 124.18 28.2775 125.184 28.0894 125.498C27.9013 125.875 27.5251 126 27.0235 126C26.8981 126 26.8354 126 26.7727 126C26.71 126 26.6473 125.937 26.5219 125.937V124.996C26.6473 125.059 26.7727 125.059 26.8354 125.122C26.8981 125.122 26.9608 125.122 27.0235 125.122C27.1489 125.122 27.2743 125.059 27.3997 124.996C27.4624 124.933 27.5251 124.871 27.5878 124.745C27.5878 124.682 27.6505 124.557 27.7759 124.243L27.964 123.616L26.083 117.278H27.0862L28.4656 122.298L29.8449 117.278H30.7854C30.5973 117.717 30.3465 118.659 29.9076 120.039Z" fill="black"/>
<path d="M1.31738 110.877V102.406H2.25786V110.877H1.31738Z" fill="black"/>
<path d="M4.7026 109.309C5.0161 109.874 5.58037 110.125 6.39545 110.125C6.77165 110.125 7.08514 110.062 7.33593 109.936C7.90022 109.685 8.21371 109.246 8.21371 108.681C8.21371 108.242 8.08833 107.866 7.83753 107.677C7.58674 107.489 7.21054 107.301 6.70895 107.175L5.76847 106.924C5.14148 106.736 4.70259 106.548 4.45179 106.36C4.0129 105.983 3.76212 105.481 3.76212 104.791C3.76212 104.038 4.01292 103.41 4.38911 102.908C4.828 102.407 5.45499 102.156 6.27007 102.156C7.02245 102.156 7.64944 102.344 8.15103 102.783C8.65261 103.222 8.9034 103.912 8.9034 104.854H8.02562C7.96292 104.414 7.90022 104.038 7.71213 103.787C7.39863 103.348 6.89705 103.097 6.27007 103.097C5.70578 103.097 5.32957 103.222 5.07878 103.536C4.82798 103.85 4.7026 104.163 4.7026 104.54C4.7026 104.979 4.82799 105.23 5.14148 105.481C5.32958 105.607 5.76847 105.732 6.39545 105.92L7.39863 106.171C7.90022 106.297 8.21371 106.485 8.5272 106.673C8.96609 107.05 9.21689 107.615 9.21689 108.43C9.21689 109.372 8.90341 110.062 8.40182 110.438C7.83753 110.815 7.21054 111.066 6.45816 111.066C5.58038 111.066 4.8907 110.815 4.38911 110.25C3.88752 109.685 3.63672 108.995 3.63672 108.054H4.5145C4.4518 108.619 4.57721 108.995 4.7026 109.309Z" fill="black"/>
<path d="M16.8037 106.485C16.8037 107.74 16.5529 108.807 15.9886 109.623C15.3616 110.627 14.4838 111.129 13.3552 111.129C12.2894 111.129 11.4116 110.689 10.8473 109.811C10.283 108.995 10.0322 107.928 10.0322 106.673C10.0322 105.544 10.283 104.54 10.7219 103.724C11.3489 102.658 12.2267 102.156 13.4179 102.156C14.6719 102.156 15.5497 102.658 16.1767 103.599C16.5529 104.352 16.8037 105.356 16.8037 106.485ZM15.8005 106.548C15.8005 105.544 15.6124 104.728 15.1735 104.163C14.7346 103.536 14.1703 103.222 13.4179 103.222C12.6656 103.222 12.1013 103.536 11.6624 104.101C11.2235 104.728 10.9727 105.607 10.9727 106.736C10.9727 107.677 11.1608 108.493 11.537 109.121C11.9132 109.748 12.5402 110.062 13.4179 110.062C14.233 110.062 14.86 109.685 15.2362 108.995C15.6124 108.305 15.8005 107.489 15.8005 106.548Z" fill="black"/>
<path d="M21.6937 110.062C21.8818 110.187 22.0699 110.25 22.258 110.25C22.6969 110.25 23.0104 110.062 23.3239 109.622C23.6374 109.183 23.8255 108.367 23.9509 107.112C23.7628 107.489 23.512 107.74 23.2612 107.865C22.9477 107.991 22.6969 108.116 22.3207 108.116C21.6937 108.116 21.1294 107.865 20.7532 107.363C20.3771 106.861 20.189 106.234 20.189 105.418C20.189 104.665 20.3771 103.975 20.7532 103.41C21.1294 102.845 21.6937 102.532 22.4461 102.532C23.4493 102.532 24.139 103.096 24.5152 104.163C24.7033 104.728 24.8287 105.481 24.8287 106.422C24.8287 107.426 24.7033 108.367 24.4525 109.12C24.0136 110.438 23.3239 111.066 22.3207 111.066C21.631 111.066 21.1294 110.815 20.816 110.438C20.5025 109.999 20.3144 109.497 20.3144 108.869H21.1921C21.1921 109.434 21.3802 109.873 21.6937 110.062ZM23.8255 105.355C23.8255 104.728 23.7001 104.289 23.4493 103.975C23.1985 103.661 22.885 103.536 22.5088 103.536C22.0699 103.536 21.7564 103.724 21.5056 104.038C21.2548 104.351 21.1294 104.853 21.1294 105.418C21.1294 105.92 21.2548 106.359 21.4429 106.673C21.631 106.987 22.0072 107.175 22.4461 107.175C22.7596 107.175 23.0731 107.05 23.3866 106.736C23.7001 106.422 23.8255 106.046 23.8255 105.355Z" fill="black"/>
<path d="M30.2835 106.736C30.2835 107.865 30.158 108.807 29.8446 109.497C29.4684 110.564 28.7787 111.066 27.9009 111.066C27.0858 111.066 26.4588 110.626 26.0826 109.748C25.7691 109.058 25.5811 108.054 25.5811 106.861C25.5811 105.92 25.7065 105.104 25.8945 104.414C26.2707 103.159 26.9604 102.532 27.9636 102.532C28.8414 102.532 29.4684 102.971 29.8446 103.849C30.158 104.602 30.2835 105.544 30.2835 106.736ZM29.4057 106.799C29.4057 105.857 29.2803 105.104 29.0922 104.477C28.9041 103.849 28.5279 103.536 27.9636 103.536C27.462 103.536 27.0858 103.849 26.835 104.414C26.5842 104.979 26.4588 105.857 26.4588 106.987C26.4588 107.803 26.5215 108.493 26.7096 108.995C26.9604 109.748 27.3366 110.187 27.9009 110.187C28.3398 110.187 28.716 109.936 28.9668 109.497C29.2176 108.995 29.4057 108.116 29.4057 106.799Z" fill="black"/>
<path d="M35.7385 106.736C35.7385 107.865 35.6131 108.807 35.2996 109.497C34.9234 110.564 34.2338 111.066 33.356 111.066C32.5409 111.066 31.9139 110.626 31.5377 109.748C31.2242 109.058 31.0361 108.054 31.0361 106.861C31.0361 105.92 31.1615 105.104 31.3496 104.414C31.7258 103.159 32.4155 102.532 33.356 102.532C34.2338 102.532 34.8607 102.971 35.2369 103.849C35.5504 104.602 35.7385 105.544 35.7385 106.736ZM34.798 106.799C34.798 105.857 34.6727 105.104 34.4846 104.477C34.2965 103.849 33.9203 103.536 33.356 103.536C32.8544 103.536 32.4782 103.849 32.2274 104.414C31.9766 104.979 31.8512 105.857 31.8512 106.987C31.8512 107.803 31.9139 108.493 32.102 108.995C32.3528 109.748 32.729 110.187 33.2933 110.187C33.7322 110.187 34.1084 109.936 34.3592 109.497C34.6726 108.995 34.798 108.116 34.798 106.799Z" fill="black"/>
<path d="M37.8074 103.849C38.0582 103.661 38.2463 103.284 38.3717 102.657H39.0614V110.877H38.1209V105.041H36.4907V104.226C37.1177 104.163 37.5566 104.037 37.8074 103.849Z" fill="black"/>
<path d="M4.6398 98.5157V97.7C6.01917 99.457 6.52075 97.7 9.0287 95.3155V95.2528C9.0287 95.0018 9.02869 94.7508 8.966 94.4998C6.52075 96.8843 6.14456 98.3275 4.6398 96.8215V96.0058C6.01917 97.7627 6.52076 96.1313 8.77791 93.8096C8.71521 93.6213 8.6525 93.3703 8.5271 93.1821C6.45804 95.3155 6.08186 96.5078 4.6398 95.1273V94.3116C5.89377 95.8803 6.39535 94.6881 8.27631 92.6801C8.15091 92.4918 8.02551 92.3663 7.90011 92.1781C6.39535 93.8723 5.89377 94.6253 4.6398 93.3703V92.6801C5.70567 94.0606 6.20726 93.3703 7.52394 91.8644C7.39854 91.7389 7.21043 91.6134 7.02234 91.4879C6.08186 92.4918 5.64297 92.7428 4.6398 91.8016V90.9859C5.39218 91.9898 5.89377 91.8644 6.58346 91.2369C5.95647 90.9231 5.26678 90.7349 4.57709 90.7349C3.57392 90.7349 2.63344 91.0486 1.88106 91.6761L3.8247 91.8016L1.44216 91.9898C1.06597 92.3663 0.752482 92.7428 0.564386 93.2448L3.51121 93.4958L0.376279 93.8096C0.250882 94.1861 0.188187 94.5626 0.125488 94.9391L3.38582 95.19L0.125488 95.5038C0.125488 95.8803 0.188198 96.2568 0.313596 96.6333L3.44853 96.8843L0.501684 97.1353C0.68978 97.5745 1.00327 98.0138 1.37946 98.3902L3.76202 98.5785L1.81836 98.7667C2.57074 99.3942 3.57392 99.7707 4.6398 99.7707C6.77155 99.7707 8.52711 98.2648 8.966 96.2568C6.52075 98.5785 6.14456 99.959 4.6398 98.5157Z" fill="#EF4135"/>
<path d="M15.1727 94.8136C14.6711 94.6254 14.1068 94.5627 13.2917 94.5627H13.229C11.9751 94.4999 11.7243 94.3117 11.7243 93.9979C11.7243 93.4332 12.7274 93.3704 13.229 93.3704C13.9187 93.3704 14.483 93.4959 14.9846 93.8097L15.1727 93.9352L15.7997 93.2449L15.5489 93.0567C14.9846 92.6802 14.2322 92.4919 13.229 92.4919C11.7243 92.4919 10.7838 93.1194 10.7838 94.1234C10.7838 94.6881 11.0346 95.0647 11.5989 95.3156C12.0378 95.5039 12.6648 95.5039 13.4171 95.5666C14.7338 95.6294 14.9846 95.8804 14.9846 96.2569C14.9846 97.0099 13.7933 97.0726 13.2917 97.0726C12.5394 97.0726 11.9124 96.8844 11.2854 96.4451L11.0973 96.3196L10.5957 97.0726L10.7838 97.1981C11.4735 97.7001 12.3513 97.9511 13.4171 97.9511C15.0473 97.9511 15.9878 97.3236 15.9878 96.1941C15.9878 95.5039 15.6743 95.0646 15.1727 94.8136Z" fill="black"/>
<path d="M19.1226 92.5549H18.3702L15.7368 97.7631H16.74C16.74 97.7631 17.2416 96.7591 17.367 96.5709C17.6178 96.5709 19.9376 96.5709 20.2511 96.5709C20.3765 96.7591 20.8781 97.7631 20.8781 97.7631H21.8813L19.2479 92.5549H19.1226ZM19.8122 95.6296C19.3106 95.6296 18.3702 95.6296 17.8686 95.6296C18.1194 95.1904 18.621 94.1864 18.8091 93.7472C19.1226 94.1864 19.6241 95.1904 19.8122 95.6296Z" fill="black"/>
<path d="M22.2578 92.5549V97.7631H23.1356V92.5549H22.8848H22.2578Z" fill="black"/>
<path d="M27.9005 95.8179C27.9005 95.8179 29.7188 95.8179 30.2204 95.8179C29.9069 96.5709 29.2799 96.9474 28.3394 96.9474C27.1481 96.9474 26.3331 96.1944 26.3331 95.1277C26.3331 94.5629 26.5212 94.1237 26.96 93.7472C27.3362 93.4334 27.8378 93.2452 28.4021 93.2452C29.0918 93.2452 29.5934 93.4962 30.095 93.9982L30.2204 94.1237L31.0355 93.6217L30.8473 93.4334C30.2204 92.7432 29.4053 92.3667 28.4021 92.3667C27.6497 92.3667 26.8973 92.6177 26.3331 93.0569C25.7061 93.5589 25.3926 94.2492 25.3926 95.0649C25.3926 95.8806 25.7061 96.5709 26.2704 97.0729C26.7719 97.5121 27.5243 97.7631 28.3394 97.7631C29.3426 97.7631 30.2204 97.3866 30.7846 96.6336C31.0981 96.2571 31.2235 95.7551 31.2862 95.0649V94.8139H27.9005V95.8179Z" fill="black"/>
<path d="M32.6034 92.5549H32.3526H31.7256V97.7631H36.1145V96.8219C36.1145 96.8219 33.0423 96.8219 32.6661 96.8219C32.6034 96.3826 32.6034 92.5549 32.6034 92.5549Z" fill="black"/>
<path d="M41.0676 93.1197C40.5034 92.6804 39.8137 92.4294 39.0613 92.4294C38.3089 92.4294 37.5565 92.6804 36.9922 93.1197C36.3653 93.6217 36.0518 94.3119 36.0518 95.1276C36.0518 95.9434 36.3653 96.6336 36.9922 97.1356C37.4938 97.5749 38.2462 97.8259 39.0613 97.8259C39.8764 97.8259 40.566 97.5749 41.1303 97.1356C41.7573 96.6336 42.0708 95.9434 42.0708 95.1276C41.9454 94.3119 41.6319 93.6217 41.0676 93.1197ZM41.0049 95.1276C41.0049 96.2571 40.1899 96.9474 38.9986 96.9474C37.7446 96.9474 36.9922 96.2571 36.9922 95.1276C36.9922 94.5629 37.1803 94.1237 37.6192 93.7472C37.9954 93.4334 38.497 93.3079 38.9986 93.3079C39.5002 93.3079 40.0018 93.4962 40.378 93.7472C40.8168 94.1237 41.0049 94.6257 41.0049 95.1276Z" fill="black"/>
<path d="M47.2741 95.0649C47.5876 94.8139 47.7757 94.4374 47.7757 93.9982C47.7757 93.1197 47.1487 92.5549 46.2082 92.5549H42.6971H42.4463V97.7631H46.2082C47.2114 97.7631 47.9011 97.1984 47.9011 96.2571C47.9011 95.7551 47.6503 95.3786 47.2741 95.0649ZM43.3241 95.5669C43.763 95.5669 46.2082 95.5669 46.2082 95.5669C46.6471 95.5669 46.9606 95.8179 46.9606 96.2571C46.9606 96.5081 46.8979 96.8846 46.2082 96.8846C46.2082 96.8846 43.763 96.8846 43.3241 96.8846C43.3241 96.5081 43.3241 95.8806 43.3241 95.5669ZM46.1455 94.6884C46.1455 94.6884 43.763 94.6884 43.3241 94.6884C43.3241 94.3747 43.3241 93.8099 43.3241 93.4962C43.763 93.4962 46.2082 93.4962 46.2082 93.4962C46.5844 93.4962 46.7725 93.6844 46.7725 94.0609C46.7725 94.3747 46.5217 94.6884 46.1455 94.6884Z" fill="black"/>
<path d="M51.1616 92.5549H50.4092L47.7759 97.7631H48.7791C48.7791 97.7631 49.2806 96.7591 49.406 96.5709C49.6568 96.5709 51.9767 96.5709 52.2902 96.5709C52.4156 96.7591 52.9172 97.7631 52.9172 97.7631H53.9204L51.287 92.5549H51.1616ZM51.8513 95.6296C51.3497 95.6296 50.4092 95.6296 49.9076 95.6296C50.1584 95.1904 50.66 94.1864 50.8481 93.7472C51.0989 94.1864 51.6005 95.1904 51.8513 95.6296Z" fill="black"/>
<path d="M55.1747 96.8219C55.1747 96.3826 55.1747 92.5549 55.1747 92.5549H54.9239H54.2969V97.7631H58.6858V96.8219C58.6858 96.8219 55.6136 96.8219 55.1747 96.8219Z" fill="black"/>
</svg>
