<svg width="96" height="96" viewBox="0 0 96 96" fill="none" xmlns="http://www.w3.org/2000/svg">
<path fill-rule="evenodd" clip-rule="evenodd" d="M96 48C96 21.489 74.508 0 48 0C21.489 0 0 21.492 0 48C0 74.511 21.492 96 48 96C74.511 96 96 74.508 96 48Z" fill="#464646"/>
<path d="M93.0536 48.0002C93.0536 23.119 72.8812 2.94653 48 2.94653C23.1188 2.94653 2.94632 23.119 2.94632 48.0002C2.94632 72.8814 23.1188 93.0539 48 93.0539C72.8812 93.0539 93.0536 72.8814 93.0536 48.0002Z" fill="white"/>
<path fill-rule="evenodd" clip-rule="evenodd" d="M79.8554 48C79.8554 30.4063 65.5907 16.1416 47.997 16.1416C30.4033 16.1416 16.1386 30.4063 16.1386 48C16.1386 65.5937 30.4033 79.8584 47.997 79.8584C65.5907 79.8584 79.8554 65.5937 79.8554 48Z" fill="#464646"/>
<path d="M78.6835 48C78.6835 31.051 64.946 17.3135 47.997 17.3135C31.048 17.3135 17.3105 31.051 17.3105 48C17.3105 64.9489 31.048 78.6865 47.997 78.6865C64.946 78.6865 78.6835 64.9489 78.6835 48Z" fill="white"/>
<path fill-rule="evenodd" clip-rule="evenodd" d="M77.9243 48C77.9243 31.4728 64.5272 18.0757 48 18.0757C31.4728 18.0757 18.0757 31.4728 18.0757 48C18.0757 64.5272 31.4728 77.9243 48 77.9243C64.5272 77.9243 77.9243 64.5272 77.9243 48Z" fill="#464646"/>
<path d="M29.8962 49V48.3056H31.5171V35.6412H29.8962V35H36.5398V35.6412H34.9188V48.3056H36.5398V49H29.8962Z" fill="white" stroke="white"/>
<path d="M39.1972 48.8431V44.8133H40.2826C40.7556 45.984 41.4572 46.8674 42.3875 47.4658C43.3179 48.0642 44.4614 48.3634 45.8143 48.3634C47.0276 48.3634 48.0355 48.1236 48.8302 47.6415C49.6287 47.1595 50.0241 46.5468 50.0241 45.8036C50.0241 45.4046 49.9272 45.0769 49.7372 44.8181C49.5473 44.5593 49.2256 44.3218 48.772 44.101C48.2526 43.8469 47.2292 43.588 45.698 43.3268C45.132 43.2295 44.7018 43.1558 44.4033 43.0989C42.6162 42.7617 41.3138 42.2654 40.5036 41.6123C39.6934 40.9593 39.2864 40.0807 39.2864 38.9812C39.2864 37.6942 39.8252 36.6541 40.9067 35.8586C41.9883 35.0631 43.3993 34.6665 45.1398 34.6665C45.8531 34.6665 46.5198 34.7401 47.1362 34.8873C47.7525 35.0346 48.334 35.2578 48.8805 35.5522L49.8962 34.9443H50.7878L50.9002 38.5775H49.9698C49.6093 37.5113 49.0046 36.6992 48.1634 36.1412C47.3183 35.5831 46.2678 35.3053 45.008 35.3053C43.9614 35.3053 43.1008 35.4953 42.4302 35.8728C41.7596 36.2504 41.4223 36.7301 41.4223 37.3071C41.4223 38.1738 42.6589 38.8103 45.1359 39.2163C45.4693 39.2709 45.7251 39.3137 45.8996 39.3398C48.2061 39.7387 49.8264 40.3039 50.7567 41.0377C51.6871 41.7714 52.1523 42.8115 52.1523 44.1603C52.1523 45.5495 51.5553 46.7036 50.3652 47.6225C49.1752 48.5415 47.675 48.9998 45.8686 48.9998C44.9499 48.9998 44.1436 48.9215 43.4497 48.7671C42.7558 48.6128 42.1046 48.3658 41.5037 48.0286L40.2245 48.8431H39.1972Z" fill="white" stroke="white"/>
<path d="M54.1483 41.9926C54.1483 41.0501 54.3316 40.144 54.6984 39.2793C55.0651 38.4145 55.6004 37.6178 56.2984 36.894C57.0466 36.1409 57.8422 35.5823 58.6821 35.2155C59.522 34.8487 60.4418 34.6665 61.4385 34.6665C62.4411 34.6665 63.3638 34.8487 64.2037 35.2155C65.0437 35.5823 65.8392 36.1409 66.5875 36.894C67.2943 37.6202 67.8326 38.417 68.2052 39.2866C68.5749 40.1562 68.7612 41.0598 68.7612 41.995C68.7612 42.952 68.5749 43.8678 68.2052 44.7398C67.8355 45.6119 67.2943 46.4086 66.5875 47.1252C65.8599 47.8709 65.0703 48.4247 64.2245 48.7891C63.3757 49.151 62.447 49.3332 61.4355 49.3332C60.4329 49.3332 59.5102 49.151 58.6703 48.7891C57.8304 48.4271 57.0378 47.8733 56.2954 47.1252C55.5945 46.4062 55.0621 45.6094 54.6954 44.7325C54.3287 43.8556 54.1453 42.9423 54.1453 41.9926H54.1483ZM58.3686 41.9926C58.3686 43.7949 58.3982 45.0362 58.4573 45.7139C58.5165 46.394 58.6259 46.8993 58.7797 47.2296C59.0045 47.7446 59.3268 48.1138 59.7439 48.3373C60.1609 48.5632 60.7257 48.6749 61.4385 48.6749C62.1572 48.6749 62.728 48.5632 63.142 48.3373C63.559 48.1114 63.8784 47.7421 64.1062 47.2296C64.2688 46.8701 64.3812 46.3333 64.4463 45.6143C64.5084 44.8953 64.5409 43.688 64.5409 41.9926C64.5409 40.3044 64.5084 39.0995 64.4463 38.3805C64.3812 37.6615 64.2688 37.1247 64.1062 36.7652C63.8814 36.2527 63.559 35.881 63.142 35.6576C62.725 35.4317 62.1572 35.3199 61.4385 35.3199C60.7257 35.3199 60.1609 35.4317 59.7439 35.6576C59.3268 35.8835 59.0074 36.2527 58.7797 36.7652C58.623 37.0956 58.5165 37.6008 58.4573 38.2809C58.3982 38.9611 58.3686 40.1975 58.3686 41.9926Z" fill="white" stroke="white"/>
<path d="M25.1918 60.6334C25.3828 60.6556 25.5567 60.6556 25.8602 60.6334C26.3275 60.5985 26.8049 60.4496 27.1596 60.1771C27.5859 59.8443 27.869 59.3658 27.9918 58.8048L27.9611 58.7922C27.6678 59.1344 27.2415 59.3277 26.6412 59.3277C25.526 59.3277 24.5813 58.4467 24.5813 57.008C24.5813 55.5565 25.6147 54.3333 27.0675 54.3333C28.7625 54.3333 29.564 55.7942 29.564 57.5309C29.564 59.0742 29.1275 60.2056 28.4078 60.9471C27.7803 61.5873 26.9175 61.9422 25.8909 61.9866C25.6283 62.0088 25.3623 61.9993 25.1918 61.9866V60.6271V60.6334ZM27.0164 55.6072C26.498 55.6072 26.1126 56.1333 26.1228 56.9097C26.1228 57.5499 26.4264 58.0981 27.0573 58.0981C27.4734 58.0981 27.7667 57.87 27.9099 57.6069C27.9611 57.5055 27.9918 57.3914 27.9918 57.1728C27.9918 56.3837 27.7292 55.6072 27.0266 55.6072H27.0164Z" fill="white"/>
<path d="M35.5432 58.1334C35.5432 60.4274 34.6647 61.9999 32.8639 61.9999C31.0413 61.9999 30.2393 60.2786 30.2284 58.1777C30.2284 56.0324 31.0959 54.3333 32.9186 54.3333C34.8069 54.3333 35.5432 56.102 35.5432 58.1334ZM31.8906 58.1777C31.8797 59.8768 32.2697 60.6868 32.9113 60.6868C33.5493 60.6868 33.8992 59.842 33.8992 58.1555C33.8992 56.5133 33.5638 55.6464 32.9004 55.6464C32.2916 55.6464 31.8797 56.4564 31.8906 58.1777Z" fill="white"/>
<path d="M41.5225 58.1334C41.5225 60.4274 40.644 61.9999 38.8432 61.9999C37.0205 61.9999 36.2185 60.2786 36.2076 58.1777C36.2076 56.0324 37.0752 54.3333 38.8979 54.3333C40.7861 54.3333 41.5225 56.102 41.5225 58.1334ZM37.8699 58.1777C37.8589 59.8768 38.249 60.6868 38.8906 60.6868C39.5285 60.6868 39.8784 59.842 39.8784 58.1555C39.8784 56.5133 39.5431 55.6464 38.8796 55.6464C38.2709 55.6464 37.8589 56.4564 37.8699 58.1777Z" fill="white"/>
<path d="M44.367 56.4391L43.0173 57.5001L42.353 56.5001L44.5763 54.6667H46.0069V61.9112H44.367V56.4391Z" fill="white"/>
<path d="M63.7994 56.4391L62.4498 57.5001L61.7855 56.5001L64.0087 54.6667H65.4394V61.9112H63.7994V56.4391Z" fill="white"/>
<path d="M48.3181 58.0218C47.8445 58.0218 47.5017 57.6611 47.5017 57.1827C47.5017 56.6838 47.8445 56.3333 48.3368 56.3333C48.8292 56.3333 49.1533 56.6735 49.1626 57.1827C49.1626 57.6611 48.8292 58.0218 48.3275 58.0218H48.3181Z" fill="white"/>
<path d="M48.3181 62.0218C47.8445 62.0218 47.5017 61.6611 47.5017 61.1827C47.5017 60.6838 47.8445 60.3333 48.3368 60.3333C48.8292 60.3333 49.1533 60.6735 49.1626 61.1827C49.1626 61.6611 48.8292 62.0218 48.3275 62.0218H48.3181Z" fill="white"/>
<path d="M50.1592 61.9999V60.9322L51.0664 60.0511C52.5979 58.5782 53.3455 57.7324 53.3673 56.8513C53.3673 56.2371 53.0225 55.7482 52.2132 55.7482C51.6072 55.7482 51.081 56.073 50.7144 56.3753L50.2499 55.1115C50.7797 54.6838 51.5999 54.3333 52.5507 54.3333C54.1366 54.3333 55.0112 55.3302 55.0112 56.6969C55.0112 57.9608 54.1584 58.9706 53.1423 59.9418L52.4963 60.5206V60.5431H55.1419V61.9935H50.1664L50.1592 61.9999Z" fill="white"/>
<path d="M61.1211 58.1334C61.1211 60.4274 60.2426 61.9999 58.4418 61.9999C56.6191 61.9999 55.8171 60.2786 55.8062 58.1777C55.8062 56.0324 56.6738 54.3333 58.4965 54.3333C60.3847 54.3333 61.1211 56.102 61.1211 58.1334ZM57.4685 58.1777C57.4575 59.8768 57.8476 60.6868 58.4892 60.6868C59.1271 60.6868 59.4771 59.842 59.4771 58.1555C59.4771 56.5133 59.1417 55.6464 58.4782 55.6464C57.8695 55.6464 57.4575 56.4564 57.4685 58.1777Z" fill="white"/>
<path d="M71.4704 56.0491H68.7387L68.5857 57.1605C68.7387 57.1389 68.8662 57.1389 69.041 57.1389C69.7112 57.1389 70.3959 57.2928 70.8949 57.6592C71.4267 58.0256 71.7509 58.6259 71.7509 59.4694C71.7509 60.8117 70.6254 62.0001 68.7278 62.0001C67.8718 62.0001 67.1579 61.8 66.7682 61.5906L67.0596 60.3253C67.3728 60.4792 68.0139 60.6793 68.6513 60.6793C69.3324 60.6793 70.0608 60.3468 70.0608 59.5803C70.0608 58.8352 69.4854 58.3827 68.0794 58.3827C67.6897 58.3827 67.4202 58.4042 67.1251 58.4504L67.5914 54.6667H71.4704V56.0552V56.0491Z" fill="white"/>
<path fill-rule="evenodd" clip-rule="evenodd" d="M24.0588 23.2544C23.9593 23.6672 23.5767 24.4625 22.8597 25.3151C20.8232 27.7402 18.2565 27.7101 16.2591 26.0321C13.8671 24.0227 13.9695 21.1968 15.75 19.0759C16.4399 18.2535 17.1328 17.7685 17.5123 17.6118L18.5005 18.9916C18.0938 19.1995 17.5937 19.5429 17.1207 20.1032C16.0633 21.3625 16 22.9773 17.5605 24.2878C18.9644 25.4687 20.5491 25.3783 21.736 23.9624C22.1367 23.4834 22.4801 22.8658 22.6187 22.4501L24.0588 23.2514V23.2544Z" fill="#464646"/>
<path fill-rule="evenodd" clip-rule="evenodd" d="M27.4721 16.0751L24.7758 18.0965L26.0802 19.8378L29.0929 17.5784L30.1111 18.9371L25.4355 22.4437L19.9435 15.1171L24.4655 11.7249L25.4837 13.0835L22.6248 15.2285L23.7666 16.7499L26.4628 14.7284L27.4721 16.0751Z" fill="#464646"/>
<path fill-rule="evenodd" clip-rule="evenodd" d="M27.8637 9.85146C28.4301 9.48393 29.3037 9.01094 30.313 8.56809C31.5572 8.02281 32.5092 7.82699 33.3135 8.03787C33.9853 8.21863 34.5156 8.68257 34.856 9.4538C35.3259 10.5233 34.8891 11.5897 34.2806 12.1682L34.2956 12.2043C34.9855 12.1832 35.5519 12.602 36.1032 13.2798C36.778 14.1113 37.5221 15.0904 37.8264 15.3435L35.8863 16.196C35.6393 16.0062 35.1452 15.4218 34.4433 14.4999C33.7594 13.554 33.2744 13.4244 32.4971 13.7528L31.9247 14.0028L33.3708 17.2986L31.4909 18.1241L27.8607 9.85146H27.8637ZM31.3252 12.6351L32.0723 12.3067C33.0183 11.891 33.3708 11.174 33.0484 10.4389C32.711 9.66769 32.0181 9.51104 31.1414 9.88159C30.6805 10.0834 30.4365 10.2371 30.3099 10.3214L31.3252 12.6351Z" fill="#464646"/>
<path fill-rule="evenodd" clip-rule="evenodd" d="M39.5315 7.45312L37.1124 7.89296L36.7991 6.1818L43.7251 4.92554L44.0354 6.6367L41.5771 7.08257L42.8996 14.3821L40.8571 14.7527L39.5315 7.45312Z" fill="#464646"/>
<path fill-rule="evenodd" clip-rule="evenodd" d="M48.8014 4.85645L48.8466 14.0118L46.7678 14.0238L46.7227 4.86548L48.8014 4.85645Z" fill="#464646"/>
<path fill-rule="evenodd" clip-rule="evenodd" d="M52.4466 5.00659L57.9687 5.92544L57.6886 7.60045L54.218 7.02504L53.8746 9.08869L57.1192 9.62794L56.842 11.2909L53.5974 10.7486L52.9919 14.3819L50.9433 14.0414L52.4466 5.00659Z" fill="#464646"/>
<path fill-rule="evenodd" clip-rule="evenodd" d="M63.2047 7.60989L60.1921 16.2591L58.2278 15.5752L61.2405 6.92603L63.2047 7.60989Z" fill="#464646"/>
<path fill-rule="evenodd" clip-rule="evenodd" d="M68.7991 16.244L65.8558 14.6051L64.7984 16.5061L68.0882 18.3377L67.2597 19.8199L62.1563 16.979L66.609 8.97754L71.5496 11.725L70.7212 13.2103L67.6001 11.472L66.6752 13.1349L69.6186 14.7738L68.7991 16.244Z" fill="#464646"/>
<path fill-rule="evenodd" clip-rule="evenodd" d="M74.7852 14.114C75.4209 14.5478 76.1891 15.1805 76.9483 15.9005C78.2105 17.0965 78.8131 18.0997 78.9968 19.1903C79.2017 20.3562 78.8583 21.5883 77.7466 22.7602C76.5416 24.0315 75.2461 24.4714 74.0893 24.4051C72.8391 24.3238 71.5105 23.5887 70.209 22.3565C69.4288 21.6184 68.9257 21.046 68.5973 20.6424L74.7852 14.114ZM71.152 20.9677C71.2514 21.1183 71.4593 21.3142 71.6461 21.4919C72.9987 22.7903 74.5954 22.8837 76.1017 21.2961C77.4212 19.9253 77.3037 18.4281 76.0113 17.205C75.6769 16.8856 75.4299 16.7109 75.2763 16.6205L71.155 20.9677H71.152Z" fill="#464646"/>
<path fill-rule="evenodd" clip-rule="evenodd" d="M20.6967 81.0995C20.293 80.973 19.5338 80.5362 18.7415 79.7679C16.485 77.5838 16.6929 75.0472 18.4914 73.1884C20.6485 70.9621 23.4351 71.2603 25.4084 73.1703C26.1736 73.9114 26.6044 74.6284 26.7339 75.0171L25.2999 75.8967C25.1222 75.481 24.8179 74.9598 24.2937 74.4537C23.1218 73.321 21.5281 73.1462 20.1213 74.5983C18.856 75.9058 18.8349 77.4784 20.1514 78.7527C20.5972 79.1835 21.1847 79.5661 21.5884 79.7288L20.6967 81.0965V81.0995Z" fill="#464646"/>
<path fill-rule="evenodd" clip-rule="evenodd" d="M32.7923 83.4887C31.3191 86.0766 28.8578 86.7544 26.5502 85.4409C24.2064 84.1093 23.8448 81.5606 25.1222 79.3132C26.4688 76.9483 28.9844 76.0385 31.3161 77.3641C33.7413 78.7439 34.0305 81.3106 32.7923 83.4887ZM27.0292 80.3496C26.1495 81.895 26.2549 83.3983 27.4509 84.0762C28.656 84.7631 30.0026 84.0069 30.8733 82.4735C31.6807 81.0575 31.6927 79.4518 30.4636 78.7529C29.2585 78.066 27.9028 78.8162 27.0292 80.3496Z" fill="#464646"/>
<path fill-rule="evenodd" clip-rule="evenodd" d="M42.8604 87.2816C43.0382 86.2031 43.2641 84.9017 43.5262 83.6093L43.4871 83.6002C42.9779 84.6787 42.3513 85.8717 41.794 86.8448L40.0015 90.0954L38.4319 89.7761L38.1819 86.1489C38.1065 85.0342 38.0613 83.7027 38.0885 82.5006L38.0613 82.4946C37.7631 83.6846 37.4438 85.0493 37.1515 86.1459L36.302 89.4929L34.4402 89.1133L36.8232 80.3315L39.5044 80.8798L39.7695 84.028C39.8388 85.1005 39.887 86.2784 39.8719 87.363L39.9111 87.372C40.372 86.3929 40.9143 85.2813 41.4084 84.3504L42.9629 81.5878L45.5899 82.124L44.2613 91.1227L42.2941 90.7221L42.8574 87.2907L42.8604 87.2816Z" fill="#464646"/>
<path fill-rule="evenodd" clip-rule="evenodd" d="M47.9247 82.154C48.5453 81.9913 49.425 81.8346 50.6752 81.7262C51.9375 81.6177 52.8563 81.7804 53.504 82.2112C54.1216 82.6179 54.5765 83.3349 54.6519 84.2206C54.7272 85.1063 54.4982 85.8836 54.0072 86.4409C53.3655 87.1579 52.3593 87.5435 51.1512 87.649C50.8831 87.6731 50.639 87.6791 50.4493 87.6701L50.7294 90.9056L48.7019 91.0803L47.9277 82.154H47.9247ZM50.3077 86.0854C50.4854 86.1095 50.7023 86.1065 50.9975 86.0794C52.0851 85.986 52.7087 85.3775 52.6274 84.4496C52.5551 83.6181 51.9345 83.1692 50.9132 83.2596C50.4975 83.2957 50.2173 83.359 50.0757 83.4132L50.3077 86.0854Z" fill="#464646"/>
<path fill-rule="evenodd" clip-rule="evenodd" d="M59.2521 87.0918L59.3546 89.5079L57.3301 90.1646L57.1704 80.6689L59.7341 79.8374L65.2111 87.61L63.1083 88.2908L61.7225 86.2904L59.2491 87.0918H59.2521ZM60.9693 84.9197L59.8366 83.2597C59.5172 82.7958 59.1557 82.2053 58.8605 81.7354L58.8334 81.7444C58.8725 82.2987 58.9539 82.9946 58.975 83.5399L59.0563 85.5403L60.9663 84.9227L60.9693 84.9197Z" fill="#464646"/>
<path fill-rule="evenodd" clip-rule="evenodd" d="M68.7358 85.8625L63.7138 78.2948L65.7112 76.9692L69.1245 78.6985C70.1036 79.1986 71.1761 79.8433 72.0798 80.4729L72.113 80.4518C71.3387 79.5269 70.6247 78.5267 69.8656 77.382L68.4044 75.1827L69.977 74.1404L74.9991 81.7081L73.2035 82.9011L69.6487 81.0543C68.6635 80.5452 67.5218 79.8945 66.5607 79.2558L66.5336 79.2889C67.2416 80.259 67.9736 81.3104 68.7931 82.5456L70.3054 84.8261L68.7328 85.8685L68.7358 85.8625Z" fill="#464646"/>
<path fill-rule="evenodd" clip-rule="evenodd" d="M79.4517 77.3882L76.6771 74.9118L70.7633 73.4838L72.3239 71.7335L74.5713 72.4927C75.2521 72.7216 75.7402 72.9024 76.3337 73.1253L76.3517 73.1042C76.0655 72.577 75.8155 72.0649 75.5112 71.4352L74.493 69.2993L76.0264 67.5791L77.9876 73.3362L80.8134 75.8578L79.4487 77.3852L79.4517 77.3882Z" fill="#464646"/>
</svg>
