<?xml version="1.0" encoding="utf-8"?>
<!-- Generator: Adobe Illustrator 25.0.0, SVG Export Plug-In . SVG Version: 6.00 Build 0)  -->
<svg version="1.1" id="Layer_1" xmlns="http://www.w3.org/2000/svg" xmlns:xlink="http://www.w3.org/1999/xlink" x="0px" y="0px"
	 viewBox="0 0 69 60" style="enable-background:new 0 0 69 60;" xml:space="preserve">
<style type="text/css">
	.st0{fill:#2CABE1;}
</style>
<path class="st0" d="M54.8,10.2h-14c-1.3,0-2.3,1-2.3,2.3v13.8c0,1.3,1,2.3,2.3,2.3h6.7c-0.1,3.6-0.9,6.5-2.5,8.7
	c-1.3,1.7-3.2,3.1-5.8,4.3c-1.2,0.5-1.7,1.9-1.1,3.1l1.7,3.5c0.5,1.1,1.9,1.6,3,1.1c3-1.3,5.6-2.9,7.7-4.9c2.6-2.4,4.3-5.2,5.3-8.3
	c0.9-3.1,1.4-7.3,1.4-12.6V12.5C57.1,11.2,56.1,10.2,54.8,10.2z"/>
<path class="st0" d="M17.2,49.2c3-1.3,5.6-2.9,7.7-4.9c2.6-2.4,4.3-5.2,5.3-8.2c0.9-3.1,1.4-7.3,1.4-12.6V12.5c0-1.3-1-2.3-2.3-2.3
	h-14c-1.3,0-2.3,1-2.3,2.3v13.8c0,1.3,1,2.3,2.3,2.3H22c-0.1,3.6-0.9,6.5-2.5,8.7c-1.3,1.7-3.2,3.1-5.8,4.3
	c-1.2,0.5-1.7,1.9-1.1,3.1l1.6,3.4C14.7,49.2,16.1,49.7,17.2,49.2z"/>
</svg>
