<svg width="122" height="39" viewBox="0 0 122 39" fill="none" xmlns="http://www.w3.org/2000/svg">
<g clip-path="url(#clip0)">
<path d="M42.2468 35.4175C41.951 35.165 41.5645 35.0388 41.1733 35.0668H39.7021V38.9632H41.1733C41.5692 38.9824 41.9563 38.8442 42.2468 38.58C42.448 38.3854 42.5803 38.1328 42.6246 37.8592C42.6687 37.2972 42.6687 36.7328 42.6246 36.1708C42.5803 35.8972 42.448 35.6446 42.2468 35.45V35.4175ZM41.657 37.6579C41.6489 37.7407 41.6217 37.8206 41.5775 37.8917C41.4687 38.0376 41.291 38.1185 41.107 38.106H40.6763V35.8916H41.0938C41.2778 35.8791 41.4554 35.96 41.5643 36.1059C41.6693 36.3972 41.7099 36.7071 41.6836 37.015C41.6987 37.2312 41.6987 37.4482 41.6836 37.6644L41.657 37.6579ZM47.5284 38.9632H48.5025V35.0668H47.5018L47.5284 38.9632ZM55.0431 36.5604L54.566 36.489C54.4681 36.4849 54.3747 36.4483 54.3009 36.3851C54.2462 36.3372 54.2149 36.2687 54.2148 36.1968C54.2121 36.102 54.2535 36.0112 54.3274 35.95C54.4295 35.8673 54.5597 35.8255 54.6919 35.8331C54.9668 35.8069 55.2405 35.8939 55.4473 36.0734L56.0636 35.4695C55.7044 35.1445 55.2264 34.9759 54.7383 35.0019C54.3555 34.9833 53.9795 35.1061 53.6846 35.3461C53.4246 35.5701 53.2811 35.8967 53.2936 36.2357C53.2497 36.8116 53.6904 37.3133 54.278 37.3563C54.3011 37.358 54.3242 37.359 54.3473 37.3592L54.831 37.4241C55.0564 37.4241 55.169 37.567 55.169 37.7618C55.169 37.9566 54.9768 38.1125 54.5991 38.1125C54.2682 38.1455 53.9378 38.0447 53.6846 37.8332L53.0617 38.4826C53.4703 38.8482 54.014 39.0336 54.566 38.9956C54.9652 39.008 55.3564 38.884 55.6727 38.645C55.9666 38.4332 56.1352 38.0931 56.1233 37.7358C56.1431 37.4381 56.0485 37.1439 55.8582 36.9111C55.6338 36.7087 55.347 36.5853 55.0431 36.5604ZM60.6957 35.911H61.6699V38.9632H62.644V35.8916H63.6248V35.0668H60.6957V35.911ZM71.2986 36.3072C71.306 35.9845 71.1792 35.6727 70.9473 35.4435C70.6835 35.179 70.3171 35.0373 69.9401 35.0539H68.3629V38.9502H69.3437V37.4826H69.675L70.3708 38.9632H71.504L70.6425 37.3397C71.0566 37.1661 71.3197 36.7613 71.3052 36.3202L71.2986 36.3072ZM70.2051 36.5994C70.1254 36.6794 70.0143 36.722 69.9003 36.7163H69.3503V35.8916H69.9003C70.0152 35.8884 70.1261 35.9332 70.2051 36.0149C70.2813 36.086 70.3244 36.1846 70.3244 36.2877C70.3247 36.3927 70.2817 36.4934 70.2051 36.5669V36.5994ZM76.1692 38.9307H77.1434V35.0668H76.1692V38.9307ZM84.5918 36.9371C84.8661 36.7727 85.0322 36.4793 85.0292 36.1643C85.042 35.856 84.9217 35.5566 84.6979 35.3396C84.4363 35.1224 84.099 35.013 83.7569 35.0344H82.1134V38.9307H83.843C84.1694 38.9404 84.488 38.8317 84.7376 38.6255C84.9755 38.4087 85.1019 38.099 85.0822 37.7813C85.0909 37.4326 84.9022 37.1078 84.5918 36.9371H84.5918ZM83.0876 35.8916H83.6972C83.9358 35.8916 84.0485 36.002 84.0485 36.2098C84.0485 36.4176 83.9358 36.528 83.6972 36.528H83.0876V35.8916ZM83.7503 38.0735H83.0876V37.3852H83.7503C83.9442 37.3852 84.1015 37.5392 84.1015 37.7293C84.1015 37.9194 83.9442 38.0735 83.7503 38.0735ZM91.8945 37.541C91.9052 37.6931 91.8526 37.843 91.7488 37.9566C91.5342 38.1655 91.1879 38.1655 90.9734 37.9566C90.8745 37.8406 90.8247 37.6919 90.8343 37.541V35.0669H89.8601V37.593C89.8436 37.9797 90.004 38.3535 90.2975 38.6125C90.5874 38.8692 90.9672 39.0065 91.3578 38.9956C91.7553 39.005 92.1415 38.8657 92.4379 38.606C92.7297 38.3485 92.8898 37.9775 92.8753 37.593V35.0669H91.8945V37.541ZM97.5405 35.8916H98.5213V38.9632H99.4954V35.8916H100.47V35.0668H97.5405V35.8916ZM105.208 38.9632H106.188V35.0668H105.208V38.9632ZM113.65 35.476C113.033 34.8862 112.048 34.8862 111.43 35.476C111.24 35.668 111.115 35.913 111.072 36.1773C111.019 36.7346 111.019 37.2954 111.072 37.8527C111.115 38.117 111.24 38.362 111.43 38.554C112.048 39.1438 113.033 39.1438 113.65 38.554C113.843 38.3641 113.969 38.1181 114.008 37.8527C114.07 37.2959 114.07 36.7341 114.008 36.1773C113.969 35.9119 113.843 35.6659 113.65 35.476ZM112.941 37.9631C112.759 38.1783 112.433 38.2078 112.213 38.0291C112.189 38.0092 112.166 37.9871 112.146 37.9631C112.017 37.6639 111.967 37.338 112 37.015C111.963 36.6898 112.014 36.3608 112.146 36.0604C112.239 35.9433 112.386 35.8799 112.537 35.8916C112.688 35.881 112.834 35.9443 112.928 36.0604C113.057 36.3616 113.108 36.6899 113.074 37.015C113.109 37.3375 113.061 37.6633 112.935 37.9631H112.941ZM121.026 35.0668V37.015L119.753 35.0668H118.899V38.9632H119.873V37.015L121.145 38.9632H122V35.0668H121.026ZM111.563 26.0924H108.163C107.188 26.1198 106.233 25.8171 105.46 25.2352C104.722 24.6431 104.207 23.8275 103.995 22.9169C103.761 21.8749 103.797 20.792 104.101 19.7673C104.415 18.6563 104.954 17.6184 105.685 16.7152C106.43 15.766 107.355 14.9658 108.408 14.358C109.375 13.7918 110.477 13.4871 111.603 13.4748H114.83C118.198 13.5914 121.178 11.3539 121.94 8.13686H112.179C110.372 8.11497 108.576 8.41419 106.878 9.02002C105.296 9.5833 103.832 10.4239 102.557 11.5007C101.309 12.5401 100.237 13.7676 99.3828 15.1372C98.5249 16.5252 97.8775 18.028 97.461 19.5985C96.8508 21.5484 96.764 23.6195 97.2092 25.6118C97.6266 27.2847 98.6911 28.733 100.178 29.651C101.956 30.6592 103.991 31.1481 106.043 31.0601H115.844C116.354 29.112 115.247 26.5729 111.563 26.0924ZM70.0196 14.6956C70.1401 13.856 70.1199 13.0028 69.9599 12.1695C69.8152 11.3911 69.4986 10.653 69.0322 10.0071C68.3656 9.10302 67.3855 8.46812 66.2755 8.22128C64.8728 7.885 63.4317 7.72784 61.988 7.75372H50.0598C49.4634 9.93566 50.8815 12.8384 55.6263 12.8384H60.3114C61.7494 12.8384 62.7036 13.2086 63.1543 13.9553C63.5617 14.6269 63.6604 15.436 63.426 16.1827L63.0946 17.4036H52.2135C50.977 17.4151 49.7638 17.7347 48.688 18.3322C47.5171 18.9465 46.4936 19.7989 45.6861 20.8323C44.8596 21.8902 44.2539 23.0972 43.9035 24.3845C43.5622 25.5162 43.5622 26.7205 43.9035 27.8522C44.2078 28.8397 44.8548 29.6919 45.7325 30.2614C46.6995 30.8373 47.8153 31.1281 48.9465 31.0991H60.5765C63.7271 31.0272 66.4401 28.9004 67.2032 25.904L69.4099 17.8192C69.7104 16.7913 69.9319 15.7429 70.0726 14.6827L70.0196 14.6956ZM61.3849 23.3779C60.8945 24.9884 60.1258 26.3846 57.78 26.3846C57.6696 26.3777 57.559 26.3777 57.4486 26.3846H52.4918C51.8976 26.4082 51.3238 26.17 50.9279 25.7352C50.5519 25.3004 50.4317 24.7062 50.6098 24.1637C50.7998 23.4684 51.246 22.8669 51.8623 22.4753C52.4664 22.0546 53.1887 21.8277 53.9298 21.8259H61.809L61.3849 23.3779ZM81.8682 9.046C80.2864 9.6015 78.8203 10.4331 77.541 11.5007C76.2927 12.5401 75.2212 13.7676 74.3667 15.1372C73.5094 16.5262 72.86 18.0286 72.4384 19.5985C71.8332 21.5494 71.7488 23.6198 72.1932 25.6118C72.6105 27.2847 73.6751 28.733 75.162 29.651C76.9397 30.6592 78.9746 31.1481 81.0266 31.0601H90.7945C91.3048 29.112 90.1981 26.5729 86.5136 26.0924H83.1141C82.1391 26.1198 81.1842 25.8171 80.4104 25.2352C79.6732 24.6431 79.1579 23.8275 78.9458 22.9169C78.7118 21.8749 78.7482 20.792 79.0519 19.7673C79.366 18.6563 79.9046 17.6184 80.6357 16.7152C81.3813 15.766 82.3059 14.9658 83.3593 14.358C84.3255 13.7918 85.4277 13.4871 86.5534 13.4748H89.7806C93.1438 13.5851 96.1169 11.349 96.8779 8.13686H87.1432C85.3362 8.1164 83.5403 8.41558 81.8418 9.02002" fill="black"/>
<path d="M26.6144 37.6639C20.2283 39.9478 13.093 38.8617 7.71483 34.7871C7.68186 34.7552 7.65494 34.7178 7.63531 34.6767C7.50278 34.3066 8.23172 33.6377 9.75588 32.7286C12.3668 31.1895 17.1248 29.092 22.6913 27.1049C25.4613 26.1373 28.0921 25.3256 30.4115 24.6762C30.3585 23.5008 30.2525 22.3254 30.0868 21.1435C27.4957 21.7929 24.5402 22.7345 21.472 23.8385C11.9361 27.1958 4.69303 31.0921 5.22317 32.5143C5.23777 32.5536 5.25784 32.5907 5.28281 32.6247C4.34811 31.6309 3.52396 30.5424 2.82428 29.3777L2.7779 29.2933C2.7754 29.2739 2.7754 29.2543 2.7779 29.2349C2.62548 28.8258 2.81766 28.2998 3.3478 27.6699H3.32129C5.30932 25.3645 11.7108 21.9228 19.696 19.072C22.7718 17.9677 25.9091 17.0355 29.0928 16.2796C28.8056 15.2536 28.4787 14.2276 28.112 13.2016C24.872 13.9474 21.6828 14.8908 18.5628 16.0264C8.31124 19.6824 0.670585 24.4684 1.43266 26.6763L1.1941 26.0724C0.842887 25.1136 0.565988 24.1302 0.365753 23.1307V23.0852C0.331023 22.4724 0.518832 21.8674 0.895895 21.3773C2.73151 18.5915 9.04019 14.8185 17.0519 11.9612C20.1129 10.8644 23.2541 9.99607 26.4487 9.3637C26.018 8.50002 25.5673 7.66231 25.1233 6.85058C22.0529 7.45212 19.0351 8.28805 16.0977 9.35071C6.74733 12.6431 -0.171014 17.3252 0.00790823 20.0721C0.0111752 20.0505 0.0111752 20.0286 0.00790823 20.0071C-0.0319783 18.6271 0.0790995 17.2469 0.339246 15.89C0.512828 15.2012 0.831052 14.5554 1.27362 13.9938C3.32129 11.2015 8.39076 8.00649 14.7392 5.74013C17.4073 4.77367 20.1632 4.05828 22.9696 3.60366C22.5455 3.01921 22.1082 2.45425 21.6443 1.90876C19.0498 2.31402 16.5019 2.9665 14.0368 3.85692C7.41 6.21418 2.4068 9.70138 1.36639 12.3704C4.96332 3.3359 14.8076 -1.71613 24.4342 0.532067C21.7636 -0.0588728 17.6351 0.382709 13.3277 1.94773C11.7457 2.50578 10.2159 3.19669 8.75524 4.01277C9.27509 4.27326 9.75843 4.59849 10.1932 4.98035C11.3529 4.40889 12.5988 3.89588 13.9241 3.43482C18.8412 1.68148 23.4998 1.00612 26.515 1.42172C27.2002 1.50142 27.8699 1.67861 28.503 1.94773L28.6819 2.03215C30.174 2.76268 31.5675 3.67231 32.8303 4.74008C30.3651 2.88933 22.9829 3.44131 14.938 6.32458C13.9904 6.66226 13.0759 7.01942 12.1945 7.38957C12.5988 8.00649 13.0162 8.72081 13.4801 9.56501C14.2422 9.26629 15.0175 8.96758 15.8127 8.68834C23.5395 5.96742 30.5904 4.99983 33.6652 6.04534C34.0666 6.17122 34.4384 6.37434 34.7587 6.64278C34.8117 6.69473 34.8581 6.75317 34.9111 6.81162L34.9906 6.90903L35.0502 6.96747C35.982 8.05353 36.7866 9.23847 37.4491 10.5001C36.2033 8.01298 27.2505 8.83121 17.2375 12.4093C16.5262 12.6647 15.8304 12.9245 15.1501 13.1886C15.5079 14.1302 15.8525 15.1367 16.1772 16.1563C16.8797 15.8835 17.602 15.6173 18.3375 15.351C26.8927 12.2924 34.593 11.0391 37.4094 11.9807C37.8736 12.0932 38.2623 12.4027 38.4696 12.8249C38.9644 14.1605 39.3067 15.5456 39.4902 16.955C39.4905 16.886 39.477 16.8176 39.4504 16.7537C38.748 14.864 30.0205 16.2342 19.9677 19.8188C19.1151 20.1262 18.2801 20.4379 17.4628 20.7539C17.761 21.8903 18.0393 23.0203 18.2978 24.1177C19.2322 23.7606 20.193 23.4034 21.1738 23.0527C28.556 20.4357 35.1298 18.9032 38.0588 19.0136C38.9667 19.046 39.4902 19.2343 39.6161 19.5785C39.6255 19.6235 39.6255 19.6699 39.6161 19.7149C39.4957 27.7598 34.3246 34.8985 26.6144 37.6639Z" fill="#00589E"/>
</g>
<defs>
<clipPath id="clip0">
<rect width="122" height="39" fill="white"/>
</clipPath>
</defs>
</svg>
