<svg width="136" height="24" viewBox="0 0 136 24" fill="none" xmlns="http://www.w3.org/2000/svg">
<path d="M3.70619 0.371094V18.5754C3.70619 19.3928 3.8639 19.9129 4.17932 20.2101C4.49474 20.5073 5.12558 20.7302 5.91414 20.7302H14.6671L14.8248 23.3308C12.538 23.5538 9.30491 23.6281 5.28329 23.6281C1.81367 23.6281 0 22.0677 0 19.0212V0.371094H3.70619Z" fill="#3E8186"/>
<path d="M17.5056 9.88246L17.1902 7.50475C20.3444 6.98463 23.1832 6.76172 25.6277 6.76172C27.7568 6.76172 29.3339 7.13324 30.2801 7.95057C31.3052 8.76791 31.7784 10.1797 31.7784 12.1859V23.6286H29.0973L28.703 21.028C26.7316 22.9599 24.366 23.9258 21.7638 23.9258C20.1078 23.9258 18.8461 23.5543 17.8999 22.737C16.9536 21.9196 16.4805 20.8051 16.4805 19.319V17.61C16.4805 16.2726 16.8747 15.3066 17.7421 14.5636C18.6096 13.8205 19.7924 13.449 21.3695 13.449H28.3876V12.1859C28.3876 11.1456 28.151 10.4769 27.599 10.1054C27.1259 9.73386 26.1797 9.51094 24.918 9.51094C23.6563 9.43664 21.1329 9.58525 17.5056 9.88246ZM19.9501 17.9815V18.8732C19.9501 19.6905 20.1867 20.2849 20.5809 20.6565C20.9752 21.028 21.6061 21.1766 22.4735 21.1766C24.5237 21.1766 26.4951 20.4335 28.3876 18.8732V15.901H22.0003C21.2118 15.901 20.7386 16.1239 20.4232 16.4212C20.1078 16.7927 19.9501 17.3128 19.9501 17.9815Z" fill="#3E8186"/>
<path d="M43.1335 17.09L38.2445 15.9754C36.8251 15.6039 35.8 15.0838 35.1692 14.3408C34.5383 13.5977 34.3018 12.6318 34.3018 11.22C34.3018 9.43673 34.8537 8.17357 35.8789 7.57914C36.904 6.98471 38.6388 6.6875 41.1622 6.6875C43.9221 6.7618 46.4454 6.91041 48.5745 7.28193L48.338 9.65964C44.7106 9.51103 42.5027 9.51103 41.7141 9.51103C40.0582 9.51103 38.9542 9.58533 38.4022 9.80824C37.8502 10.0312 37.6137 10.477 37.6137 11.3686C37.6137 11.7401 37.6137 12.0373 37.6925 12.2603C37.7714 12.4832 37.9291 12.7061 38.2445 12.8547C38.5599 13.0033 38.7965 13.1519 38.9542 13.1519C39.1119 13.2262 39.5062 13.3005 40.0582 13.4491L45.0261 14.5637C46.5243 14.9352 47.5494 15.4553 48.1803 16.124C48.8111 16.7928 49.1265 17.833 49.1265 19.2448C49.1265 21.1767 48.5745 22.4398 47.3917 23.0343C46.2877 23.6287 44.3164 23.9259 41.4776 23.9259C39.0331 23.9259 36.7463 23.7773 34.5383 23.4801L34.7749 21.0281C36.1154 21.1767 38.0868 21.1767 40.7679 21.1767C42.7393 21.1767 44.0009 21.0281 44.7106 20.8051C45.3415 20.5822 45.7358 19.9878 45.7358 19.1705C45.7358 18.799 45.6569 18.5017 45.578 18.2788C45.4992 18.0559 45.2626 17.833 44.9472 17.6844C44.6318 17.5358 44.3952 17.3872 44.2375 17.3872C44.0798 17.3129 43.6855 17.2386 43.1335 17.09Z" fill="#3E8186"/>
<path d="M62.2162 20.9539L62.6105 23.4802C61.5065 23.7774 60.166 23.926 58.51 23.926C57.0118 23.926 55.9078 23.5545 55.1193 22.7372C54.3307 21.9198 53.9364 20.8053 53.9364 19.3192V9.65975H50.7822V7.28204L53.9364 7.13343V2.30371H57.4061V7.13343H62.7682V9.65975H57.4061V18.7991C57.4061 19.5421 57.5638 20.1365 57.958 20.4337C58.2735 20.731 58.9043 20.8796 59.6929 20.8796H62.2162V20.9539Z" fill="#3E8186"/>
<path d="M106.691 23.5538H103.222V16.5693V9.7334H106.691V16.5693V23.5538Z" fill="#3E8186"/>
<path d="M113.867 0V18.8731C113.867 19.5418 114.025 20.0619 114.419 20.4334C114.813 20.805 115.365 20.9536 116.154 20.9536H117.731L118.125 23.4799C117.416 23.7771 116.312 23.9257 114.813 23.9257C113.473 23.9257 112.369 23.5542 111.58 22.8111C110.792 22.0681 110.397 21.0279 110.397 19.6161V0H113.867Z" fill="#3E8186"/>
<path d="M130.9 16.9413H123.093C123.251 18.6503 123.724 19.7648 124.513 20.3592C125.301 20.9537 126.563 21.2509 128.298 21.2509C129.875 21.2509 131.925 21.1023 134.448 20.8794L134.764 23.0342C133.187 23.7029 130.9 24.0001 127.824 24.0001C124.749 24.0001 122.62 23.3314 121.358 22.0682C120.097 20.7308 119.466 18.5017 119.466 15.3809C119.466 12.1859 120.097 9.95677 121.358 8.69361C122.62 7.43045 124.67 6.76172 127.588 6.76172C130.269 6.76172 132.24 7.20754 133.423 8.17348C134.606 9.06512 135.237 10.4769 135.237 12.3345C135.158 15.3809 133.739 16.9413 130.9 16.9413ZM123.014 14.415H129.954C131.136 14.415 131.688 13.6719 131.688 12.2602C131.688 11.2199 131.373 10.5512 130.742 10.1054C130.19 9.65955 129.165 9.51095 127.667 9.51095C125.932 9.51095 124.749 9.88246 124.118 10.5512C123.409 11.1456 123.093 12.4831 123.014 14.415Z" fill="#3E8186"/>
<path d="M74.1235 22.068L74.0447 21.9937C73.887 21.8451 73.6504 21.6222 73.335 21.5479H73.2561H66.238H66.1592L65.9226 21.6222H65.8437H65.7649C65.4495 21.7708 65.2917 22.068 65.2129 22.5138V22.5881C65.2129 22.7367 65.2129 22.811 65.2917 22.9596V23.0339C65.5283 23.4054 65.8437 23.554 66.0803 23.6283H66.1592H66.238H72.9407C73.7293 23.6283 74.0447 23.2568 74.2024 22.9596V23.0339C74.2812 22.8853 74.2812 22.7367 74.2812 22.5881C74.2812 22.3652 74.2024 22.2166 74.1235 22.068Z" fill="#3E8186"/>
<path d="M104.168 4.08691H105.745C106.454 4.08691 106.77 4.38413 106.77 5.05286V6.53893C106.77 7.20766 106.454 7.50487 105.745 7.50487H104.168C103.458 7.50487 103.143 7.20766 103.143 6.53893V5.05286C103.221 4.38413 103.537 4.08691 104.168 4.08691Z" fill="#3E8186"/>
<path d="M96.3612 0C94.3899 0 93.3647 2.00619 92.8916 2.89783C90.6048 7.50464 88.3969 13.7461 88.3969 13.7461C88.318 13.8947 88.318 13.8947 88.0815 13.969C87.8449 13.8947 87.8449 13.8947 87.766 13.7461C87.766 13.7461 85.4792 7.50464 83.2713 2.89783C82.877 2.00619 81.8519 0 79.8017 0C76.884 0 76.6475 2.00619 76.6475 4.08669C76.6475 8.91641 76.6475 23.4799 76.6475 23.4799H80.1171V6.613C80.1171 6.613 80.1171 5.49845 80.1959 5.49845C80.1959 5.49845 80.3537 5.34984 80.6691 6.09288C82.1673 9.06502 82.7193 12.1115 85.3215 16.4211C86.1101 17.6842 87.1352 18.0557 88.0815 18.0557C89.0277 18.0557 89.8951 17.7585 90.6048 16.4954C93.207 12.3344 93.9956 8.99071 95.4938 6.01858C95.8881 5.27554 95.967 5.42415 95.967 5.42415C96.1247 5.49845 96.0458 6.5387 96.0458 6.5387V23.4056H99.5154C99.5154 23.4056 99.5154 8.84211 99.5154 4.01238C99.5154 2.00619 99.2789 0 96.3612 0Z" fill="#3E8186"/>
</svg>
