<svg width="197" height="40" viewBox="0 0 197 40" fill="none" xmlns="http://www.w3.org/2000/svg">
<path d="M52.749 33.143L51.0545 38.5683H30.9541V24.1975C30.9541 22.7593 30.9541 20.7999 28.9121 20.7999C26.9146 20.7999 26.9146 22.7593 26.9146 24.1975V38.5683H15.477V24.1975C15.477 22.7593 15.477 20.7999 13.4781 20.7999C11.4361 20.7999 11.4361 22.7593 11.4361 24.1975V38.5683H0V13.6103H10.8022V17.3354H11.147C12.6191 14.2681 15.5938 13.0361 18.9717 13.0361C22.041 13.0361 25.2367 14.2402 26.271 17.0051H26.5517C27.5081 14.3294 31.3239 13.0361 34.0414 13.0361C42.393 13.0361 42.393 18.7332 42.393 23.6219V32.9354L42.6988 32.934L50.1871 13.4918H64.73L70.6921 28.7267L70.9312 28.7295C70.7254 27.7749 70.617 26.7589 70.617 25.6719C70.617 17.2685 78.2652 13.0654 87.0921 13.0654C90.0085 13.0654 91.7433 13.3873 94.5804 13.8542V20.4613C92.8456 19.9582 91.0747 19.5317 89.2995 19.5317C84.8096 19.5317 81.4178 21.7225 81.4178 25.8155C81.4178 30.1287 84.5705 32.318 88.9465 32.318C90.8787 32.318 92.7302 31.9599 94.6597 31.3495V37.997C92.6927 38.5014 89.7722 39.0004 87.0935 39.0004C80.5157 39.0004 74.8748 36.733 72.2295 32.1327L72.0237 32.1285L74.5453 38.5725H63.4692L61.6594 33.1472L52.749 33.143ZM54.2072 27.1087H60.3166L57.3224 18.8809H57.2445L54.2072 27.1087Z" fill="#812990"/>
<path d="M96.8149 13.4961H112.617L117.702 31.1698H117.783V13.4961H126.845V38.567H111.319L105.957 20.3889H105.88V38.567H96.8135L96.8149 13.4961Z" fill="#812990"/>
<path d="M178.698 18.8801H178.776L181.769 27.1079H175.661L178.698 18.8801ZM172.509 38.5662L174.203 33.1422H183.113L184.926 38.5662H196.002L186.185 13.4952H171.641L164.785 31.3347C162.853 31.9451 160.909 32.32 158.978 32.32C154.605 32.32 151.454 30.1293 151.454 25.8175C151.454 21.7245 154.843 19.5337 159.337 19.5337C161.109 19.5337 162.882 19.9629 164.617 20.4632V13.8562C161.781 13.3907 160.046 13.0674 157.126 13.0674C148.297 13.0674 140.65 17.2705 140.65 25.6739C140.65 34.6209 147.982 39.001 157.126 39.001C158.749 39.001 160.455 38.824 161.984 38.5662H172.509Z" fill="#812990"/>
<path d="M139.756 13.4957V38.5666H129.193V13.4957H139.756ZM134.466 0C131.359 0 128.836 2.40257 128.836 5.3598C128.836 8.31981 131.355 10.7238 134.466 10.7238C137.577 10.7238 140.1 8.31981 140.1 5.3598C140.1 2.40257 137.577 0 134.466 0Z" fill="#812990"/>
</svg>
