<svg width="20" height="45" viewBox="0 0 20 45" fill="none" xmlns="http://www.w3.org/2000/svg">
<path d="M6.02126 28.4935L6.02129 28.4934C6.09724 28.3471 6.13691 28.1844 6.13683 28.0191V28.019V6.86727C6.13683 5.83932 6.54376 4.8535 7.26823 4.12643L7.26824 4.12642C7.99284 3.39932 8.97571 2.99083 10.0006 2.99083C11.0256 2.99083 12.0085 3.39932 12.7331 4.12642L12.7331 4.12643C13.4575 4.8535 13.8645 5.83932 13.8645 6.86727V9.31823V9.51823H13.6645H11.2219H11.0219V9.31823V6.86727C11.0219 6.59511 10.9141 6.33417 10.7226 6.14195L10.7226 6.14192C10.531 5.9496 10.2713 5.84179 10.0006 5.84179C9.73002 5.84179 9.47032 5.9496 9.27873 6.14192L9.2787 6.14195C9.08715 6.33417 8.97937 6.59511 8.97937 6.86727V30.3253V30.4798L8.82999 30.5188C7.98385 30.7402 7.21639 31.1951 6.61485 31.8322L6.61483 31.8322C6.01329 32.4691 5.60169 33.2628 5.42694 34.1229C5.25219 34.9831 5.32131 35.875 5.62641 36.6976L5.43889 36.7672L5.62641 36.6976C5.93143 37.5202 6.46025 38.2406 7.15264 38.7765L7.15267 38.7765C7.84498 39.3127 8.67319 39.6432 9.54321 39.7307C10.4133 39.818 11.2904 39.6589 12.0749 39.2713C12.8593 38.8836 13.52 38.283 13.9815 37.5375C14.4431 36.7919 14.687 35.9314 14.6857 35.0536V35.0533C14.6857 34.7812 14.578 34.5202 14.3864 34.328L14.3864 34.328C14.1948 34.1357 13.9351 34.0278 13.6645 34.0278C13.5733 34.0278 13.4834 34.0401 13.3969 34.0637L13.3967 34.0638C13.2265 34.1101 13.0695 34.2005 12.9426 34.328L12.9425 34.328C12.751 34.5202 12.6432 34.7812 12.6432 35.0533C12.6432 35.5775 12.4884 36.09 12.198 36.5259C11.9078 36.9617 11.4951 37.3017 11.0122 37.5023L6.02126 28.4935ZM6.02126 28.4935C5.94535 28.6398 5.83531 28.7655 5.70063 28.8602C4.38514 29.7788 3.39621 31.0946 2.87775 32.6161L3.06706 32.6806L6.02126 28.4935ZM4.01955 27.5622L4.09429 27.5021V27.4062V6.86727C4.09429 5.29501 4.71674 3.78729 5.82443 2.67578L5.82444 2.67578C6.93219 1.56412 8.4344 0.939868 10.0006 0.939868C11.5669 0.939868 13.0691 1.56412 14.1769 2.67578L14.1769 2.67578C15.2846 3.78729 15.907 5.29501 15.907 6.86727V27.4062V27.5021L15.9817 27.5622C17.5296 28.8057 18.6544 30.501 19.2006 32.4139C19.7468 34.327 19.6874 36.3629 19.0306 38.2403L19.2157 38.3051L19.0306 38.2403C18.3739 40.1179 17.1522 41.7444 15.5346 42.8948L15.6392 43.0418L15.5346 42.8948C13.917 44.0454 11.9833 44.6633 10.0006 44.6633C8.01799 44.6633 6.08428 44.0454 4.46667 42.8948L4.35075 43.0578L4.46666 42.8948C2.84905 41.7444 1.62742 40.1179 0.970683 38.2403L0.781898 38.3064L0.970678 38.2403C0.313855 36.3629 0.254532 34.327 0.800686 32.4139C1.34693 30.501 2.4717 28.8057 4.01955 27.5622ZM11.2219 16.4711H11.0219V16.6711V19.1221V19.3221H11.2219H13.6645H13.8645V19.1221V16.6711V16.4711H13.6645H11.2219ZM13.8645 11.7692V11.5692H13.6645H11.2219H11.0219V11.7692V14.2202V14.4202H11.2219H13.6645H13.8645V14.2202V11.7692ZM11.0219 24.024V24.224H11.2219H13.6645H13.8645V24.024V21.573V21.373H13.6645H11.2219H11.0219V21.573V24.024Z" fill="#277E9A" stroke="white" stroke-width="0.4"/>
</svg>
