<svg width="46" height="46" viewBox="0 0 46 46" fill="none" xmlns="http://www.w3.org/2000/svg">
<path d="M27.4928 9.01601C27.4928 11.4988 25.4784 13.5132 22.9956 13.5132C20.5128 13.5132 18.4984 11.4988 18.4984 9.01601C18.4984 6.53321 20.5128 4.51882 22.9956 4.51882C25.4784 4.51882 27.4928 6.53321 27.4928 9.01601ZM25.6528 9.01601C25.6528 7.55289 24.4587 6.35882 22.9956 6.35882C21.5325 6.35882 20.3384 7.55289 20.3384 9.01601C20.3384 10.4791 21.5325 11.6732 22.9956 11.6732C24.4587 11.6732 25.6528 10.4791 25.6528 9.01601Z" fill="#277E9A" stroke="white" stroke-width="0.2"/>
<mask id="path-2-inside-1" fill="white">
<path d="M43.4237 31.992C43.4237 31.4269 42.964 30.9672 42.3989 30.9672C41.8339 30.9672 41.3741 31.4269 41.3741 31.992V32.0207C39.5353 29.1666 37.5336 26.6094 36.4322 25.2686C36.0778 24.828 35.4361 24.761 34.9955 25.1249C34.555 25.4793 34.4975 26.121 34.8519 26.5616C36.8536 29.0134 38.4339 31.1875 39.6693 33.0934C39.2096 32.9306 38.6829 33.103 38.4434 33.5531C38.1753 34.0511 38.3572 34.6641 38.8457 34.9418L41.6423 36.4647C43.5386 40.1232 43.7302 42.259 43.0885 42.9007C42.3606 43.6286 39.7077 43.37 34.6029 40.2956C32.5629 39.0697 30.3696 37.5182 28.1093 35.7368V30.9768H30.1493C30.7144 30.9768 31.1741 30.517 31.1741 29.952V26.3125C35.3116 21.9452 38.8361 17.5492 41.3837 13.5937V13.6032C41.3837 14.1683 41.8434 14.628 42.4085 14.628C42.9736 14.628 43.4333 14.1683 43.4333 13.6032V10.1362C45.7127 5.7976 46.0958 2.80943 44.5443 1.25788C41.4891 -1.77818 33.4631 3.33619 28.9426 6.65C28.4924 6.98521 28.3871 7.6269 28.7223 8.07704C29.0575 8.52718 29.6992 8.63253 30.1493 8.29732C37.4857 2.90521 42.0062 1.62182 43.0885 2.70408C43.711 3.32661 43.5961 5.37619 41.6327 9.14971L38.8457 10.6725C38.3477 10.9407 38.1657 11.5632 38.4434 12.0613C38.6829 12.5018 39.1905 12.6742 39.6502 12.521C37.4761 15.8827 34.5741 19.5796 31.1741 23.3148V19.3401C31.1741 18.392 30.7623 17.53 30.0727 17.0224C25.8491 13.9001 20.1505 13.9001 15.9268 17.0224C15.2372 17.53 14.8254 18.4015 14.8254 19.3401V23.3148C11.4254 19.5796 8.51384 15.8827 6.34934 12.521C6.80906 12.6646 7.31666 12.4923 7.5561 12.0613C7.82427 11.5632 7.64229 10.9503 7.15384 10.6725L4.35722 9.14014C2.38426 5.36661 2.27891 3.31704 2.90145 2.70408C3.9837 1.61225 8.49469 2.90521 15.8406 8.3069C16.2907 8.64211 16.9324 8.54633 17.2676 8.08662C17.6029 7.63648 17.5071 6.99478 17.0474 6.65957C12.5268 3.33619 4.49131 -1.78775 1.45525 1.25788C-0.0962995 2.80943 0.286799 5.7976 2.56624 10.1362V13.6032C2.56624 14.1683 3.02595 14.628 3.59103 14.628C4.1561 14.628 4.61581 14.1683 4.61581 13.6032V13.5937C7.16342 17.5396 10.6975 21.9452 14.835 26.3125V29.952C14.835 30.517 15.2947 30.9768 15.8598 30.9768H17.8998V35.7368C15.6395 37.5182 13.4367 39.0601 11.4062 40.2956C6.29187 43.3796 3.63891 43.619 2.9206 42.9007C2.27891 42.259 2.47046 40.1232 4.3668 36.4647L7.16342 34.9418C7.66145 34.6737 7.84342 34.0511 7.56567 33.5531C7.32624 33.1125 6.79948 32.9401 6.33976 33.0934C7.56567 31.197 9.13638 29.0325 11.1285 26.5999C11.4829 26.1593 11.4158 25.5176 10.9848 25.1632C10.5443 24.8089 9.90258 24.8759 9.54821 25.3069C8.45638 26.6477 6.46427 29.1858 4.63497 32.0303V32.0016C4.63497 31.4365 4.17525 30.9768 3.61018 30.9768C3.04511 30.9768 2.58539 31.4365 2.58539 32.0016V35.5165C0.69863 39.0793 -0.316581 42.5655 1.45525 44.3373C2.07779 44.9599 2.93976 45.2759 4.03159 45.2759C6.05244 45.2759 8.86821 44.1937 12.4502 42.0387C14.1741 40.9948 16.0034 39.7402 17.8902 38.3131V42.2111C17.8902 42.7762 18.3499 43.2359 18.915 43.2359H27.0846C27.6496 43.2359 28.1093 42.7762 28.1093 42.2111V38.3131C29.9961 39.7402 31.8254 40.9948 33.5493 42.0387C37.1313 44.1937 39.9471 45.2759 41.9679 45.2759C43.0598 45.2759 43.9122 44.9599 44.5443 44.3373C46.3161 42.5655 45.3009 39.0793 43.4333 35.5069L43.4237 31.992ZM29.1246 28.9272H28.6074C28.6936 28.841 28.7798 28.7548 28.866 28.6686C28.9522 28.5824 29.0384 28.4962 29.1246 28.41V28.9272ZM16.8654 28.9272V28.41C16.9516 28.4962 17.0378 28.5824 17.124 28.6686C17.2102 28.7548 17.2964 28.841 17.3826 28.9272H16.8654ZM26.0598 41.1863H19.9302V36.7232C20.9454 35.9092 21.9606 35.0568 22.995 34.1565C24.0293 35.0568 25.0446 35.9092 26.0598 36.7232V41.1863ZM19.9302 34.0799V31.379C20.4378 31.8579 20.9454 32.3272 21.453 32.7869C20.9358 33.237 20.4378 33.6585 19.9302 34.0799ZM26.0598 34.0799C25.5522 33.6585 25.0446 33.237 24.5369 32.7965C25.0446 32.3368 25.5522 31.8579 26.0598 31.3886V34.0799ZM27.4198 27.232C25.9544 28.6973 24.4699 30.1052 22.9854 31.4365C21.5105 30.1052 20.026 28.7069 18.551 27.232C17.9764 26.6573 17.4113 26.0731 16.8558 25.4889V19.3401C16.8558 19.0528 16.9612 18.7846 17.124 18.6601C20.6389 16.0646 25.3223 16.0646 28.8372 18.6601C29 18.7846 29.1054 19.0528 29.1054 19.3401V25.4889C28.5595 26.0731 28.004 26.6478 27.4198 27.232Z"/>
</mask>
<path d="M43.4237 31.992C43.4237 31.4269 42.964 30.9672 42.3989 30.9672C41.8339 30.9672 41.3741 31.4269 41.3741 31.992V32.0207C39.5353 29.1666 37.5336 26.6094 36.4322 25.2686C36.0778 24.828 35.4361 24.761 34.9955 25.1249C34.555 25.4793 34.4975 26.121 34.8519 26.5616C36.8536 29.0134 38.4339 31.1875 39.6693 33.0934C39.2096 32.9306 38.6829 33.103 38.4434 33.5531C38.1753 34.0511 38.3572 34.6641 38.8457 34.9418L41.6423 36.4647C43.5386 40.1232 43.7302 42.259 43.0885 42.9007C42.3606 43.6286 39.7077 43.37 34.6029 40.2956C32.5629 39.0697 30.3696 37.5182 28.1093 35.7368V30.9768H30.1493C30.7144 30.9768 31.1741 30.517 31.1741 29.952V26.3125C35.3116 21.9452 38.8361 17.5492 41.3837 13.5937V13.6032C41.3837 14.1683 41.8434 14.628 42.4085 14.628C42.9736 14.628 43.4333 14.1683 43.4333 13.6032V10.1362C45.7127 5.7976 46.0958 2.80943 44.5443 1.25788C41.4891 -1.77818 33.4631 3.33619 28.9426 6.65C28.4924 6.98521 28.3871 7.6269 28.7223 8.07704C29.0575 8.52718 29.6992 8.63253 30.1493 8.29732C37.4857 2.90521 42.0062 1.62182 43.0885 2.70408C43.711 3.32661 43.5961 5.37619 41.6327 9.14971L38.8457 10.6725C38.3477 10.9407 38.1657 11.5632 38.4434 12.0613C38.6829 12.5018 39.1905 12.6742 39.6502 12.521C37.4761 15.8827 34.5741 19.5796 31.1741 23.3148V19.3401C31.1741 18.392 30.7623 17.53 30.0727 17.0224C25.8491 13.9001 20.1505 13.9001 15.9268 17.0224C15.2372 17.53 14.8254 18.4015 14.8254 19.3401V23.3148C11.4254 19.5796 8.51384 15.8827 6.34934 12.521C6.80906 12.6646 7.31666 12.4923 7.5561 12.0613C7.82427 11.5632 7.64229 10.9503 7.15384 10.6725L4.35722 9.14014C2.38426 5.36661 2.27891 3.31704 2.90145 2.70408C3.9837 1.61225 8.49469 2.90521 15.8406 8.3069C16.2907 8.64211 16.9324 8.54633 17.2676 8.08662C17.6029 7.63648 17.5071 6.99478 17.0474 6.65957C12.5268 3.33619 4.49131 -1.78775 1.45525 1.25788C-0.0962995 2.80943 0.286799 5.7976 2.56624 10.1362V13.6032C2.56624 14.1683 3.02595 14.628 3.59103 14.628C4.1561 14.628 4.61581 14.1683 4.61581 13.6032V13.5937C7.16342 17.5396 10.6975 21.9452 14.835 26.3125V29.952C14.835 30.517 15.2947 30.9768 15.8598 30.9768H17.8998V35.7368C15.6395 37.5182 13.4367 39.0601 11.4062 40.2956C6.29187 43.3796 3.63891 43.619 2.9206 42.9007C2.27891 42.259 2.47046 40.1232 4.3668 36.4647L7.16342 34.9418C7.66145 34.6737 7.84342 34.0511 7.56567 33.5531C7.32624 33.1125 6.79948 32.9401 6.33976 33.0934C7.56567 31.197 9.13638 29.0325 11.1285 26.5999C11.4829 26.1593 11.4158 25.5176 10.9848 25.1632C10.5443 24.8089 9.90258 24.8759 9.54821 25.3069C8.45638 26.6477 6.46427 29.1858 4.63497 32.0303V32.0016C4.63497 31.4365 4.17525 30.9768 3.61018 30.9768C3.04511 30.9768 2.58539 31.4365 2.58539 32.0016V35.5165C0.69863 39.0793 -0.316581 42.5655 1.45525 44.3373C2.07779 44.9599 2.93976 45.2759 4.03159 45.2759C6.05244 45.2759 8.86821 44.1937 12.4502 42.0387C14.1741 40.9948 16.0034 39.7402 17.8902 38.3131V42.2111C17.8902 42.7762 18.3499 43.2359 18.915 43.2359H27.0846C27.6496 43.2359 28.1093 42.7762 28.1093 42.2111V38.3131C29.9961 39.7402 31.8254 40.9948 33.5493 42.0387C37.1313 44.1937 39.9471 45.2759 41.9679 45.2759C43.0598 45.2759 43.9122 44.9599 44.5443 44.3373C46.3161 42.5655 45.3009 39.0793 43.4333 35.5069L43.4237 31.992ZM29.1246 28.9272H28.6074C28.6936 28.841 28.7798 28.7548 28.866 28.6686C28.9522 28.5824 29.0384 28.4962 29.1246 28.41V28.9272ZM16.8654 28.9272V28.41C16.9516 28.4962 17.0378 28.5824 17.124 28.6686C17.2102 28.7548 17.2964 28.841 17.3826 28.9272H16.8654ZM26.0598 41.1863H19.9302V36.7232C20.9454 35.9092 21.9606 35.0568 22.995 34.1565C24.0293 35.0568 25.0446 35.9092 26.0598 36.7232V41.1863ZM19.9302 34.0799V31.379C20.4378 31.8579 20.9454 32.3272 21.453 32.7869C20.9358 33.237 20.4378 33.6585 19.9302 34.0799ZM26.0598 34.0799C25.5522 33.6585 25.0446 33.237 24.5369 32.7965C25.0446 32.3368 25.5522 31.8579 26.0598 31.3886V34.0799ZM27.4198 27.232C25.9544 28.6973 24.4699 30.1052 22.9854 31.4365C21.5105 30.1052 20.026 28.7069 18.551 27.232C17.9764 26.6573 17.4113 26.0731 16.8558 25.4889V19.3401C16.8558 19.0528 16.9612 18.7846 17.124 18.6601C20.6389 16.0646 25.3223 16.0646 28.8372 18.6601C29 18.7846 29.1054 19.0528 29.1054 19.3401V25.4889C28.5595 26.0731 28.004 26.6478 27.4198 27.232Z" fill="#277E9A" stroke="white" stroke-width="0.4" mask="url(#path-2-inside-1)"/>
</svg>
