<svg width="42" height="47" viewBox="0 0 42 47" fill="none" xmlns="http://www.w3.org/2000/svg">
<path d="M17.3573 24.1468L10.2991 25.8164C7.18748 26.4995 4.98656 29.3076 5.06245 32.4951V46.6114H6.58033V32.4192C6.58033 29.9147 8.25 27.7897 10.6786 27.2584L17.7367 25.5888C18.7234 25.3611 19.4823 24.4503 19.4823 23.3878V21.5664C19.4823 21.111 19.1787 20.8074 18.7234 20.8074H16.4465C15.9912 20.8074 15.6876 20.5039 15.6876 20.0485V19.2896H21.0002V31.8121L19.4823 32.9505V32.0397C19.4823 30.446 18.1921 29.1558 16.5983 29.1558C15.7635 29.1558 15.0046 29.5352 14.4733 30.1424L11.2858 33.7853C10.2232 34.9996 9.61609 36.5934 9.61609 38.263V45.8524C9.61609 46.3078 9.91966 46.6114 10.375 46.6114H15.0046C17.5091 46.6114 19.4823 44.6381 19.4823 42.1336V38.6425L23.277 36.138L27.0717 38.6425V42.1336C27.0717 44.6381 29.0449 46.6114 31.5494 46.6114H36.179C36.6343 46.6114 36.9379 46.3078 36.9379 45.8524V38.263C36.9379 36.5934 36.3308 34.9996 35.2682 33.7853L32.0807 30.1424C31.0182 28.9281 29.2726 28.8522 28.0583 29.9147C27.4512 30.446 27.0717 31.2049 27.0717 32.0397V32.9505L25.5538 31.8121V15.4949C25.5538 13.3698 23.8842 11.7002 21.7591 11.7002H14.8528C15.384 10.2582 15.7635 9.04387 15.8394 8.81619C16.5983 4.71791 20.5448 1.98573 24.6431 2.74467C28.7414 3.50361 31.4735 7.4501 30.7146 11.5484C30.4869 12.7627 30.0316 13.8252 29.2726 14.8118C27.8306 16.5574 27.0717 18.7583 27.0717 21.0351V23.4637C27.0717 24.5262 27.8306 25.437 28.8173 25.6646L35.8754 27.3343C38.304 27.8656 39.9737 30.0665 39.9737 32.4951V46.6114H41.4916V32.4192C41.4916 29.2317 39.2906 26.4995 36.2549 25.7405L29.1967 24.0709C28.8173 23.995 28.5896 23.6914 28.5896 23.3119V20.8833C28.5896 18.986 29.2726 17.0886 30.4869 15.5708C33.5227 11.5484 32.8396 5.85632 28.8173 2.82057C24.7949 -0.215192 19.1028 0.619641 16.0671 4.64202C15.1563 5.78043 14.6251 7.14652 14.3215 8.51261C14.2456 8.81619 13.7144 10.41 13.0313 12.2314C12.6518 13.3698 12.2724 14.4323 12.0447 14.9636C11.9688 15.0395 11.9688 15.1913 11.8929 15.2672C11.8929 15.3431 11.8929 15.419 11.817 15.419C11.7411 15.7984 12.0447 16.1779 12.5001 16.2538H12.576H14.0938V20.0485C14.0938 21.3387 15.0805 22.3253 16.3707 22.3253H17.8885V23.3878C17.9644 23.7673 17.7367 24.0709 17.3573 24.1468ZM17.9644 42.1336C17.9644 43.7274 16.6742 45.0935 15.0046 45.0935H11.134V38.263C11.134 36.9728 11.5893 35.7585 12.4242 34.7719L15.6117 31.129C16.0671 30.5978 16.9019 30.5219 17.5091 30.9772C17.8126 31.2049 17.9644 31.5844 17.9644 31.9638V35.5309L17.2814 35.9862L14.4733 34.6201L13.7903 35.9862L15.7635 36.9728L14.701 37.5041H12.6518V39.022H13.942L12.6518 43.3479L14.0938 43.7274L14.5492 41.9818L15.8394 43.272L16.9019 42.2095L15.0046 40.3122L15.4599 38.6425L17.8126 37.2005V42.1336H17.9644ZM28.5896 32.0397C28.5896 31.2808 29.1967 30.6736 29.9557 30.7495C30.3351 30.7495 30.7146 30.9013 30.9423 31.2049L34.1298 34.8478C34.9647 35.8344 35.42 37.0487 35.42 38.3389V45.1694H31.5494C29.9557 45.1694 28.5896 43.8792 28.5896 42.2095V37.4282L30.9423 38.8702L31.3977 40.5399L29.5003 42.4372L30.5628 43.4997L31.853 42.2095L32.3084 43.9551L33.7504 43.5756L32.612 39.022H33.9022V37.5041H31.853L30.7905 36.897L32.6879 35.9103L32.0048 34.5442L29.2726 35.9862L28.5896 35.5309V32.0397ZM13.7144 14.7359C13.8661 14.2806 14.0938 13.7493 14.2456 13.218H21.7591C23.0493 13.218 24.0359 14.2047 24.0359 15.4949V32.1915C24.0359 32.4192 24.1118 32.6469 24.3395 32.7987L27.0717 34.8478V36.8211L23.7324 34.5442C23.5047 34.3924 23.1252 34.3924 22.8975 34.5442L19.5582 36.8211V34.8478L22.2904 32.7987C22.5181 32.6469 22.594 32.4192 22.594 32.1915V19.2896C22.594 18.4547 21.9109 17.7717 21.0761 17.7717H15.7635V15.4949C15.7635 15.0395 15.4599 14.7359 15.0046 14.7359H13.7144Z" fill="#277E9A"/>
<path d="M0.964153 27.5621C1.04005 27.6379 1.19183 27.6379 1.26773 27.6379C1.49541 27.6379 1.6472 27.5621 1.79899 27.4103L4.07581 25.1334L3.01329 24.0709L2.33024 24.754C3.31687 21.4905 6.27673 19.2896 9.61606 19.2896H10.375V17.7717H9.61606C4.60706 17.7717 0.508789 21.87 0.508789 26.879C0.508789 27.1826 0.660577 27.4862 0.964153 27.5621Z" fill="#277E9A"/>
<path d="M2.02667 7.14661H0.508789C0.508789 12.1556 4.60706 16.2539 9.61606 16.2539H10.375C10.8304 16.2539 11.1339 15.9503 11.1339 15.4949C11.1339 15.2673 11.058 15.1155 10.9063 14.9637L8.62944 12.6869L7.56693 13.7494L8.47765 14.6601C4.75885 14.053 2.02667 10.8654 2.02667 7.14661Z" fill="#277E9A"/>
</svg>
