<svg width="50" height="38" viewBox="0 0 50 38" fill="none" xmlns="http://www.w3.org/2000/svg">
<path d="M48.4071 17.8939H44.2458C45.4595 16.0788 46.0663 13.918 46.0663 11.7572C46.0663 8.73201 44.8526 5.96615 42.772 3.80533C40.6913 1.73094 37.8304 0.520874 34.7962 0.520874C31.7619 0.520874 28.9877 1.73094 26.8204 3.80533L24.9998 5.62042L23.1792 3.80533C21.0119 1.73094 18.2377 0.520874 15.2034 0.520874C12.1691 0.520874 9.39494 1.73094 7.2276 3.80533C5.06026 5.96615 3.93325 8.73201 3.93325 11.7572C3.93325 14.0044 4.5401 16.0788 5.75381 17.8939H1.59252C1.07236 17.8939 0.725586 18.2396 0.725586 18.7582C0.725586 19.2768 1.07236 19.6226 1.59252 19.6226H7.14091L24.3929 36.8227C24.5663 36.9956 24.7397 37.082 24.9998 37.082C25.2599 37.082 25.4333 36.9956 25.6066 36.8227L42.772 19.709H48.4071C48.9272 19.709 49.274 19.3633 49.274 18.8447C49.274 18.3261 48.9272 17.8939 48.4071 17.8939ZM5.66712 11.7572C5.66712 9.2506 6.62075 6.83048 8.44131 5.01539C10.2619 3.2003 12.6026 2.24953 15.2034 2.24953C17.7175 2.24953 20.1449 3.2003 21.9655 5.01539L24.3929 7.43551C24.7397 7.78124 25.2599 7.78124 25.6066 7.43551L28.0341 5.01539C29.8546 3.2003 32.282 2.24953 34.7962 2.24953C37.3103 2.24953 39.7377 3.2003 41.5583 5.01539C43.3788 6.83048 44.3325 9.16417 44.3325 11.7572C44.3325 14.0044 43.5522 16.2517 42.0784 17.8939H33.3224L30.1147 11.4979C29.9413 11.1521 29.5945 10.9793 29.2478 11.0657C28.901 11.1521 28.5542 11.4114 28.4675 11.7572L25.78 24.0306L23.2659 15.128C23.1792 14.7823 22.8324 14.523 22.4857 14.523C22.1389 14.523 21.7921 14.6959 21.6187 14.9552L19.1913 19.7954L16.3304 8.21341C16.2437 7.86768 15.897 7.60838 15.5502 7.52194C15.2034 7.52194 14.8566 7.78124 14.6833 8.12697L11.3889 17.8939H7.92115C6.44736 16.2517 5.66712 14.0044 5.66712 11.7572ZM24.9998 35.0076L9.65502 19.6226H11.9958C12.3425 19.6226 12.6893 19.3633 12.776 19.0175L15.2901 11.4979L18.0643 22.4748C18.151 22.8206 18.4111 23.0799 18.8445 23.1663C19.1913 23.1663 19.5381 22.9934 19.7115 22.7341L22.2256 17.8075L24.9998 27.6608C25.0865 28.0066 25.4333 28.2659 25.8667 28.2659C26.3002 28.2659 26.5603 28.0066 26.647 27.5744L29.5945 14.3501L31.9353 19.104C32.1087 19.3633 32.3687 19.6226 32.7155 19.6226H40.2579L24.9998 35.0076Z" fill="#277E9A"/>
</svg>
