<svg width="46" height="35" viewBox="0 0 46 35" fill="none" xmlns="http://www.w3.org/2000/svg">
<path d="M45.165 8.62974H42.872V7.48327C42.872 6.00584 41.6744 4.80816 40.1969 4.80816C39.7995 4.81035 39.4077 4.90207 39.0505 5.07643V4.04384C39.0505 2.35537 37.6817 0.986572 35.9932 0.986572C34.3047 0.986572 32.9359 2.35537 32.9359 4.04384V8.62974H29.8787V7.86542C29.8842 6.60459 28.8666 5.57792 27.6058 5.57228C27.033 5.5697 26.4802 5.78256 26.0571 6.16864C25.193 5.37375 23.8639 5.37375 22.9998 6.16864C22.1358 5.37375 20.8066 5.37375 19.9425 6.16864C19.011 5.31891 17.5671 5.38522 16.7173 6.31673C16.3313 6.73987 16.1185 7.29266 16.121 7.86542V8.62974H13.0637V4.04384C13.0637 2.35537 11.6949 0.986572 10.0064 0.986572C8.31796 0.986572 6.94916 2.35537 6.94916 4.04384V5.07643C6.59194 4.90207 6.20013 4.81035 5.80269 4.80816C4.32526 4.80816 3.12758 6.00584 3.12758 7.48327V8.62974H0.834629C0.412535 8.62974 0.0703125 8.97196 0.0703125 9.39406V13.98C0.0703125 14.4021 0.412535 14.7443 0.834629 14.7443H3.12758V15.8907C3.12758 17.3682 4.32526 18.5659 5.80269 18.5659C6.20013 18.5637 6.59194 18.4719 6.94916 18.2976V19.3302C6.94916 21.0186 8.31796 22.3874 10.0064 22.3874C11.6949 22.3874 13.0637 21.0186 13.0637 19.3302V14.7443H14.5923V17.2994C14.5898 18.3133 14.993 19.2862 15.7121 20.0012L17.6496 21.9396V34.6165H19.1782V21.6231C19.1782 21.4204 19.0976 21.2261 18.9543 21.0828L16.7928 18.9205C16.3639 18.4898 16.1225 17.9072 16.121 17.2994V12.4513H20.5976C20.887 12.4474 21.1612 12.5803 21.3374 12.8098C21.3428 12.8174 21.3489 12.8251 21.3542 12.8335C21.387 12.8856 21.4127 12.9419 21.4307 13.0009C21.4451 13.048 21.4548 13.0963 21.4597 13.1453C21.4651 13.1933 21.4651 13.2418 21.4597 13.2898C21.458 13.3155 21.4547 13.341 21.4498 13.3662C21.4325 13.4468 21.4028 13.524 21.3619 13.5955C21.2286 13.8322 20.9785 13.9789 20.7069 13.98H18.4139C17.9918 13.98 17.6496 14.3222 17.6496 14.7443V16.2729C17.6495 16.602 17.8602 16.8942 18.1724 16.9982L19.8539 17.56C21.219 18.0133 22.2355 20.0792 22.2355 21.6231H23.7641C23.7641 19.5205 22.4556 16.814 20.3408 16.1093L19.1782 15.7218V15.5086H20.7069C21.3501 15.5024 21.9608 15.2248 22.3884 14.7443H29.1143V17.547C29.1134 18.043 28.9526 18.5254 28.6558 18.9228L26.9743 21.1645C26.875 21.2969 26.8214 21.4577 26.8214 21.6231V34.6165H28.35V21.8776L29.8787 19.84C30.3734 19.1778 30.6415 18.3736 30.643 17.547V14.7443H32.9359V19.3302C32.9359 21.0186 34.3047 22.3874 35.9932 22.3874C37.6817 22.3874 39.0505 21.0186 39.0505 19.3302V18.2976C39.4077 18.4719 39.7995 18.5637 40.1969 18.5659C41.6744 18.5659 42.872 17.3682 42.872 15.8907V14.7443H45.165C45.5871 14.7443 45.9293 14.4021 45.9293 13.98V9.39406C45.9293 8.97196 45.5871 8.62974 45.165 8.62974ZM3.12758 13.2156H1.59895V10.1584H3.12758V13.2156ZM6.94916 15.8907C6.94916 16.5239 6.43583 17.0372 5.80269 17.0372C5.16955 17.0372 4.65621 16.5239 4.65621 15.8907V7.48327C4.65621 6.85012 5.16955 6.33679 5.80269 6.33679C6.43583 6.33679 6.94916 6.85012 6.94916 7.48327V15.8907ZM11.5351 19.3302C11.5351 20.1745 10.8507 20.8588 10.0064 20.8588C9.16215 20.8588 8.4778 20.1745 8.4778 19.3302V4.04384C8.4778 3.19956 9.16215 2.51521 10.0064 2.51521C10.8507 2.51521 11.5351 3.19956 11.5351 4.04384V19.3302ZM15.3566 10.9227C14.9346 10.9227 14.5923 11.2649 14.5923 11.687V13.2156H13.0637V10.1584H16.121C16.1218 10.3028 16.1363 10.447 16.1645 10.5887C16.1729 10.6338 16.1875 10.6751 16.1982 10.7186C16.2157 10.7866 16.2287 10.857 16.2517 10.9227H15.3566ZM19.1782 10.1584C19.1782 10.5805 18.836 10.9227 18.4139 10.9227C17.9918 10.9227 17.6496 10.5805 17.6496 10.1584V7.86542C17.6496 7.44333 17.9918 7.10111 18.4139 7.10111C18.836 7.10111 19.1782 7.44333 19.1782 7.86542V10.1584ZM22.2355 10.1584C22.2355 10.5805 21.8933 10.9227 21.4712 10.9227C21.0491 10.9227 20.7069 10.5805 20.7069 10.1584V7.86542C20.7069 7.44333 21.0491 7.10111 21.4712 7.10111C21.8933 7.10111 22.2355 7.44333 22.2355 7.86542V10.1584ZM26.8214 7.86542C26.8214 7.44333 27.1636 7.10111 27.5857 7.10111C28.0078 7.10111 28.35 7.44333 28.35 7.86542V10.1584C28.35 10.5805 28.0078 10.9227 27.5857 10.9227C27.1636 10.9227 26.8214 10.5805 26.8214 10.1584V7.86542ZM23.7641 7.86542C23.7641 7.44333 24.1064 7.10111 24.5284 7.10111C24.9505 7.10111 25.2928 7.44333 25.2928 7.86542V10.1584C25.2928 10.5805 24.9505 10.9227 24.5284 10.9227C24.1064 10.9227 23.7641 10.5805 23.7641 10.1584V7.86542ZM32.9359 13.2156H22.9998C22.9998 13.208 22.9998 13.2019 22.9998 13.1942C22.9991 13.0422 22.9833 12.8906 22.9524 12.7418C22.9478 12.7211 22.9379 12.702 22.9333 12.6806C22.9196 12.6248 22.8997 12.5729 22.8821 12.5186C22.8498 12.4207 22.8107 12.3252 22.7652 12.2327C22.743 12.1869 22.7323 12.1349 22.7071 12.0906C22.7158 12.0846 22.7242 12.0782 22.7323 12.0715C22.7675 12.0485 22.798 12.021 22.8317 11.995C22.889 11.9522 22.9494 11.9125 23.0029 11.8643C23.0472 11.9041 23.0984 11.9354 23.1458 11.9713C23.1932 12.0073 23.2398 12.0478 23.291 12.0799C23.3632 12.1244 23.4377 12.165 23.5142 12.2014C23.5662 12.2266 23.6151 12.2564 23.6671 12.2778C23.7563 12.312 23.8477 12.3404 23.9407 12.3627C23.9888 12.3757 24.0339 12.394 24.0836 12.4039C24.3776 12.464 24.6807 12.464 24.9748 12.4039C25.0245 12.394 25.0696 12.3757 25.1177 12.3627C25.2107 12.3404 25.3021 12.312 25.3914 12.2778C25.4456 12.2557 25.4945 12.2259 25.5442 12.2014C25.621 12.165 25.6958 12.1244 25.7682 12.0799C25.8186 12.0462 25.8645 12.008 25.9126 11.9713C25.9608 11.9346 26.0112 11.9041 26.0556 11.8643C26.0999 11.9041 26.1511 11.9354 26.1985 11.9713C26.2459 12.0073 26.2925 12.0478 26.3437 12.0799C26.4158 12.1244 26.4904 12.165 26.5669 12.2014C26.6189 12.2266 26.6678 12.2564 26.7197 12.2778C26.809 12.312 26.9004 12.3404 26.9934 12.3627C27.0415 12.3757 27.0866 12.394 27.1363 12.4039C28.374 12.6555 29.5812 11.8561 29.8328 10.6185C29.8636 10.4671 29.8789 10.313 29.8787 10.1584H32.9359V13.2156V13.2156ZM37.5218 19.3302C37.5218 20.1745 36.8375 20.8588 35.9932 20.8588C35.1489 20.8588 34.4646 20.1745 34.4646 19.3302V4.04384C34.4646 3.19956 35.1489 2.51521 35.9932 2.51521C36.8375 2.51521 37.5218 3.19956 37.5218 4.04384V19.3302ZM41.3434 15.8907C41.3434 16.5239 40.8301 17.0372 40.1969 17.0372C39.5638 17.0372 39.0505 16.5239 39.0505 15.8907V7.48327C39.0505 6.85012 39.5638 6.33679 40.1969 6.33679C40.8301 6.33679 41.3434 6.85012 41.3434 7.48327V15.8907ZM44.4007 13.2156H42.872V10.1584H44.4007V13.2156Z" fill="#277E9A"/>
</svg>
