<svg width="50" height="44" viewBox="0 0 50 44" fill="none" xmlns="http://www.w3.org/2000/svg">
<mask id="path-1-inside-1" fill="white">
<path d="M46.542 23.6086C44.2022 18.0137 40.4434 12.3437 37.2015 9.49932L37.1921 9.48994C35.2564 7.85653 33.5649 7.34961 32.1836 7.98795C31.1969 8.44794 30.464 9.42422 29.9471 10.9919L27.8235 9.78094V2.08329C27.8235 1.05068 26.9777 0.205811 25.9441 0.205811H24.0647C23.0311 0.205811 22.1853 1.05068 22.1853 2.08329V9.78094L20.0804 10.9919C19.5636 9.42422 18.8307 8.44794 17.844 7.98795C16.4533 7.34022 14.7712 7.84714 12.8355 9.48994L12.8261 9.49932C12.7133 9.5932 12.6005 9.69646 12.4878 9.80911C12.1025 10.1658 12.0837 10.7572 12.4408 11.1327C12.7979 11.5176 13.3899 11.5364 13.7658 11.1797C13.8597 11.0858 13.9631 11.0013 14.0571 10.9168C14.9686 10.1471 16.2371 9.31157 17.0547 9.69646C17.5433 9.92175 18.4266 10.8323 18.887 14.3902C18.9528 14.8877 18.9998 15.404 19.0468 15.9297C17.6655 16.7933 15.9364 18.1733 14.3578 20.2667C12.967 20.9989 11.6515 21.3368 10.3171 21.3087C9.80029 21.2993 9.36803 21.7123 9.35863 22.2286C9.34924 22.7449 9.7627 23.1767 10.2795 23.1861C10.3359 23.1861 10.4017 23.1861 10.4581 23.1861C11.2004 23.1861 11.9428 23.0923 12.6945 22.9045C11.8394 24.5379 11.2004 26.3215 10.7588 28.2553C9.09552 28.8092 7.70479 29.6634 6.62415 30.7805C6.26707 31.156 6.27647 31.7474 6.65234 32.1041C6.83088 32.2825 7.0658 32.367 7.30072 32.367C7.54504 32.367 7.79876 32.2731 7.9773 32.076C8.63508 31.3907 9.42441 30.8462 10.3547 30.4144C10.1668 31.785 10.0634 33.2119 10.0634 34.7045C10.0634 35.2208 10.4863 35.6432 11.0031 35.6432C11.5199 35.6432 11.9428 35.2208 11.9428 34.7045C11.9428 32.1886 12.2247 30.0108 12.7039 28.1145C13.0516 28.5933 13.4463 29.0157 13.8315 29.2973C14.0007 29.4194 14.1886 29.4757 14.386 29.4757C14.6773 29.4757 14.9592 29.3443 15.1471 29.0908C15.4478 28.6684 15.3632 28.0863 14.9404 27.7766C14.3578 27.3541 13.6718 26.237 13.4839 25.655C14.9498 21.8625 17.2238 19.5063 19.1596 18.0982C19.2159 19.6002 19.2159 21.0927 19.2159 22.407C19.2159 23.2237 19.2159 24.0498 19.2253 24.8665C19.2535 29.9263 19.2723 35.155 18.2762 37.868C17.9098 38.8537 17.4211 38.9851 15.8988 39.2573C15.0061 39.4169 13.8973 39.6141 12.6381 40.1585C10.693 40.994 9.1613 41.5103 7.87393 41.5103C6.25767 41.5103 5.02668 40.703 3.86147 38.7223C2.5929 36.5725 2.48953 33.2494 3.57017 29.119C4.51925 25.4673 6.34224 21.3838 8.69146 17.61C8.96397 17.1688 8.83241 16.5868 8.39076 16.3146C7.94911 16.0423 7.3665 16.1738 7.09399 16.615C4.63202 20.5483 2.73385 24.8289 1.73778 28.6496C0.534986 33.2682 0.704129 37.0888 2.22642 39.6798C3.57017 41.9609 5.19583 43.1719 7.21615 43.369C7.42288 43.3878 7.62022 43.3972 7.82695 43.3972C9.61235 43.3972 11.5387 42.6837 13.3711 41.8952C14.4329 41.4352 15.382 41.2662 16.2183 41.116C17.7218 40.8438 19.2723 40.5716 20.0241 38.5251C21.1423 35.493 21.1141 30.3393 21.0859 24.8665C21.0859 24.0498 21.0765 23.2331 21.0765 22.4164C21.0765 20.7642 21.0765 18.8398 20.9731 16.9529L24.9856 14.6342L28.9981 16.9529C28.8947 18.8398 28.8947 20.7642 28.8947 22.4164C28.8947 23.2331 28.8947 24.0498 28.8853 24.8665C28.8571 30.3299 28.8383 35.493 29.9471 38.5251C30.6989 40.5622 32.2494 40.8438 33.7529 41.116C34.5892 41.2662 35.5383 41.4352 36.6001 41.8952C38.4325 42.6837 40.3495 43.3972 42.1443 43.3972C42.351 43.3972 42.5577 43.3878 42.7551 43.369C44.766 43.1719 46.401 41.9609 47.7448 39.6798C50.5638 34.9391 48.1958 27.5794 46.542 23.6086ZM24.0647 5.83824H25.9441V7.71572H24.0647V5.83824ZM25.9441 2.08329V3.96076H24.0647V2.08329H25.9441ZM25.4742 12.738C25.1829 12.569 24.8259 12.569 24.5346 12.738L20.8322 14.8783C20.804 14.6342 20.7758 14.3808 20.7476 14.1461C20.6912 13.7049 20.6255 13.2824 20.5503 12.8882L23.5949 11.1327C23.8862 10.9638 24.0647 10.654 24.0647 10.316V9.5932H25.9441V10.316C25.9441 10.654 26.1226 10.9638 26.4139 11.1327L29.4585 12.8882C29.3833 13.2824 29.3176 13.6955 29.2612 14.1461C29.233 14.3902 29.2048 14.6342 29.1766 14.8783L25.4742 12.738ZM46.1473 38.7223C44.0518 42.2895 41.7402 42.0454 37.3707 40.1585C36.1115 39.6141 35.0027 39.4169 34.11 39.2573C32.5971 38.9851 32.099 38.8537 31.7325 37.868C30.7365 35.155 30.7553 29.9263 30.7835 24.8665C30.7835 24.0498 30.7929 23.2237 30.7929 22.407C30.7929 21.0834 30.7929 19.5908 30.8492 18.0982C32.785 19.5063 35.0496 21.8531 36.5249 25.655C36.3276 26.237 35.651 27.3541 35.0684 27.7766C34.6456 28.077 34.5516 28.6684 34.8617 29.0908C35.0496 29.3443 35.3315 29.4757 35.6228 29.4757C35.8108 29.4757 36.0081 29.4194 36.1773 29.2973C36.5719 29.0157 36.9572 28.5839 37.3049 28.1145C37.7841 30.0108 38.066 32.198 38.066 34.7045C38.066 35.2208 38.4889 35.6432 39.0057 35.6432C39.5225 35.6432 39.9454 35.2208 39.9454 34.7045C39.9454 33.2119 39.8514 31.7756 39.6541 30.4144C40.5938 30.8368 41.3831 31.3907 42.0315 32.076C42.2194 32.2637 42.4638 32.367 42.7081 32.367C42.943 32.367 43.1779 32.2825 43.3565 32.1041C43.7323 31.7474 43.7417 31.1466 43.3847 30.7805C42.3134 29.6634 40.9227 28.8092 39.25 28.2553C38.8178 26.3215 38.1694 24.5379 37.3143 22.9045C38.066 23.0923 38.8084 23.1861 39.5507 23.1861C39.6071 23.1861 39.6729 23.1861 39.7293 23.1861C40.2461 23.1767 40.6596 22.7449 40.6502 22.2286C40.6408 21.7123 40.2179 21.3087 39.7105 21.3087C39.7011 21.3087 39.7011 21.3087 39.6917 21.3087C38.3573 21.3368 37.0418 20.9895 35.651 20.2667C34.0818 18.1733 32.3433 16.8027 30.962 15.9297C30.9996 15.404 31.056 14.8877 31.1218 14.3902C31.5822 10.8323 32.4655 9.92175 32.9541 9.69646C33.0951 9.63075 33.2548 9.60258 33.4146 9.60258C34.2039 9.60258 35.2 10.2879 35.9517 10.9262C39.0057 13.6016 42.5577 18.99 44.7942 24.3408C47.3971 30.5365 47.8857 35.7746 46.1473 38.7223Z"/>
</mask>
<path d="M46.542 23.6086C44.2022 18.0137 40.4434 12.3437 37.2015 9.49932L37.1921 9.48994C35.2564 7.85653 33.5649 7.34961 32.1836 7.98795C31.1969 8.44794 30.464 9.42422 29.9471 10.9919L27.8235 9.78094V2.08329C27.8235 1.05068 26.9777 0.205811 25.9441 0.205811H24.0647C23.0311 0.205811 22.1853 1.05068 22.1853 2.08329V9.78094L20.0804 10.9919C19.5636 9.42422 18.8307 8.44794 17.844 7.98795C16.4533 7.34022 14.7712 7.84714 12.8355 9.48994L12.8261 9.49932C12.7133 9.5932 12.6005 9.69646 12.4878 9.80911C12.1025 10.1658 12.0837 10.7572 12.4408 11.1327C12.7979 11.5176 13.3899 11.5364 13.7658 11.1797C13.8597 11.0858 13.9631 11.0013 14.0571 10.9168C14.9686 10.1471 16.2371 9.31157 17.0547 9.69646C17.5433 9.92175 18.4266 10.8323 18.887 14.3902C18.9528 14.8877 18.9998 15.404 19.0468 15.9297C17.6655 16.7933 15.9364 18.1733 14.3578 20.2667C12.967 20.9989 11.6515 21.3368 10.3171 21.3087C9.80029 21.2993 9.36803 21.7123 9.35863 22.2286C9.34924 22.7449 9.7627 23.1767 10.2795 23.1861C10.3359 23.1861 10.4017 23.1861 10.4581 23.1861C11.2004 23.1861 11.9428 23.0923 12.6945 22.9045C11.8394 24.5379 11.2004 26.3215 10.7588 28.2553C9.09552 28.8092 7.70479 29.6634 6.62415 30.7805C6.26707 31.156 6.27647 31.7474 6.65234 32.1041C6.83088 32.2825 7.0658 32.367 7.30072 32.367C7.54504 32.367 7.79876 32.2731 7.9773 32.076C8.63508 31.3907 9.42441 30.8462 10.3547 30.4144C10.1668 31.785 10.0634 33.2119 10.0634 34.7045C10.0634 35.2208 10.4863 35.6432 11.0031 35.6432C11.5199 35.6432 11.9428 35.2208 11.9428 34.7045C11.9428 32.1886 12.2247 30.0108 12.7039 28.1145C13.0516 28.5933 13.4463 29.0157 13.8315 29.2973C14.0007 29.4194 14.1886 29.4757 14.386 29.4757C14.6773 29.4757 14.9592 29.3443 15.1471 29.0908C15.4478 28.6684 15.3632 28.0863 14.9404 27.7766C14.3578 27.3541 13.6718 26.237 13.4839 25.655C14.9498 21.8625 17.2238 19.5063 19.1596 18.0982C19.2159 19.6002 19.2159 21.0927 19.2159 22.407C19.2159 23.2237 19.2159 24.0498 19.2253 24.8665C19.2535 29.9263 19.2723 35.155 18.2762 37.868C17.9098 38.8537 17.4211 38.9851 15.8988 39.2573C15.0061 39.4169 13.8973 39.6141 12.6381 40.1585C10.693 40.994 9.1613 41.5103 7.87393 41.5103C6.25767 41.5103 5.02668 40.703 3.86147 38.7223C2.5929 36.5725 2.48953 33.2494 3.57017 29.119C4.51925 25.4673 6.34224 21.3838 8.69146 17.61C8.96397 17.1688 8.83241 16.5868 8.39076 16.3146C7.94911 16.0423 7.3665 16.1738 7.09399 16.615C4.63202 20.5483 2.73385 24.8289 1.73778 28.6496C0.534986 33.2682 0.704129 37.0888 2.22642 39.6798C3.57017 41.9609 5.19583 43.1719 7.21615 43.369C7.42288 43.3878 7.62022 43.3972 7.82695 43.3972C9.61235 43.3972 11.5387 42.6837 13.3711 41.8952C14.4329 41.4352 15.382 41.2662 16.2183 41.116C17.7218 40.8438 19.2723 40.5716 20.0241 38.5251C21.1423 35.493 21.1141 30.3393 21.0859 24.8665C21.0859 24.0498 21.0765 23.2331 21.0765 22.4164C21.0765 20.7642 21.0765 18.8398 20.9731 16.9529L24.9856 14.6342L28.9981 16.9529C28.8947 18.8398 28.8947 20.7642 28.8947 22.4164C28.8947 23.2331 28.8947 24.0498 28.8853 24.8665C28.8571 30.3299 28.8383 35.493 29.9471 38.5251C30.6989 40.5622 32.2494 40.8438 33.7529 41.116C34.5892 41.2662 35.5383 41.4352 36.6001 41.8952C38.4325 42.6837 40.3495 43.3972 42.1443 43.3972C42.351 43.3972 42.5577 43.3878 42.7551 43.369C44.766 43.1719 46.401 41.9609 47.7448 39.6798C50.5638 34.9391 48.1958 27.5794 46.542 23.6086ZM24.0647 5.83824H25.9441V7.71572H24.0647V5.83824ZM25.9441 2.08329V3.96076H24.0647V2.08329H25.9441ZM25.4742 12.738C25.1829 12.569 24.8259 12.569 24.5346 12.738L20.8322 14.8783C20.804 14.6342 20.7758 14.3808 20.7476 14.1461C20.6912 13.7049 20.6255 13.2824 20.5503 12.8882L23.5949 11.1327C23.8862 10.9638 24.0647 10.654 24.0647 10.316V9.5932H25.9441V10.316C25.9441 10.654 26.1226 10.9638 26.4139 11.1327L29.4585 12.8882C29.3833 13.2824 29.3176 13.6955 29.2612 14.1461C29.233 14.3902 29.2048 14.6342 29.1766 14.8783L25.4742 12.738ZM46.1473 38.7223C44.0518 42.2895 41.7402 42.0454 37.3707 40.1585C36.1115 39.6141 35.0027 39.4169 34.11 39.2573C32.5971 38.9851 32.099 38.8537 31.7325 37.868C30.7365 35.155 30.7553 29.9263 30.7835 24.8665C30.7835 24.0498 30.7929 23.2237 30.7929 22.407C30.7929 21.0834 30.7929 19.5908 30.8492 18.0982C32.785 19.5063 35.0496 21.8531 36.5249 25.655C36.3276 26.237 35.651 27.3541 35.0684 27.7766C34.6456 28.077 34.5516 28.6684 34.8617 29.0908C35.0496 29.3443 35.3315 29.4757 35.6228 29.4757C35.8108 29.4757 36.0081 29.4194 36.1773 29.2973C36.5719 29.0157 36.9572 28.5839 37.3049 28.1145C37.7841 30.0108 38.066 32.198 38.066 34.7045C38.066 35.2208 38.4889 35.6432 39.0057 35.6432C39.5225 35.6432 39.9454 35.2208 39.9454 34.7045C39.9454 33.2119 39.8514 31.7756 39.6541 30.4144C40.5938 30.8368 41.3831 31.3907 42.0315 32.076C42.2194 32.2637 42.4638 32.367 42.7081 32.367C42.943 32.367 43.1779 32.2825 43.3565 32.1041C43.7323 31.7474 43.7417 31.1466 43.3847 30.7805C42.3134 29.6634 40.9227 28.8092 39.25 28.2553C38.8178 26.3215 38.1694 24.5379 37.3143 22.9045C38.066 23.0923 38.8084 23.1861 39.5507 23.1861C39.6071 23.1861 39.6729 23.1861 39.7293 23.1861C40.2461 23.1767 40.6596 22.7449 40.6502 22.2286C40.6408 21.7123 40.2179 21.3087 39.7105 21.3087C39.7011 21.3087 39.7011 21.3087 39.6917 21.3087C38.3573 21.3368 37.0418 20.9895 35.651 20.2667C34.0818 18.1733 32.3433 16.8027 30.962 15.9297C30.9996 15.404 31.056 14.8877 31.1218 14.3902C31.5822 10.8323 32.4655 9.92175 32.9541 9.69646C33.0951 9.63075 33.2548 9.60258 33.4146 9.60258C34.2039 9.60258 35.2 10.2879 35.9517 10.9262C39.0057 13.6016 42.5577 18.99 44.7942 24.3408C47.3971 30.5365 47.8857 35.7746 46.1473 38.7223Z" fill="#277E9A" stroke="white" stroke-width="0.2" mask="url(#path-1-inside-1)"/>
<path d="M11.179 13.6389C11.179 14.1276 10.7786 14.5277 10.2893 14.5277C9.80004 14.5277 9.39961 14.1276 9.39961 13.6389C9.39961 13.1503 9.80004 12.7502 10.2893 12.7502C10.7786 12.7502 11.179 13.1503 11.179 13.6389Z" fill="#277E9A" stroke="white" stroke-width="0.1"/>
</svg>
