<svg width="230" height="120" viewBox="0 0 230 120" fill="none" xmlns="http://www.w3.org/2000/svg">
<rect width="230" height="120" fill="none"/>
<path d="M168.228 56.8708V56.0045H168.826C169.117 56.0045 169.499 56.0538 169.499 56.4089C169.499 56.8338 169.161 56.8708 168.779 56.8708H168.228ZM169.521 58.6406H170.116L169.287 57.2588C169.713 57.2396 170.074 57.0107 170.074 56.4527C170.074 55.8208 169.676 55.5644 168.911 55.5644H167.702V58.6406H168.228V57.3123H168.714L169.521 58.6406ZM166.179 57.1053C166.179 58.5899 167.391 59.8004 168.875 59.8004C170.368 59.8004 171.569 58.5899 171.569 57.1053C171.569 55.6165 170.368 54.4115 168.875 54.4115C167.391 54.4115 166.179 55.6165 166.179 57.1053ZM166.752 57.1053C166.752 55.8948 167.67 54.9379 168.875 54.9379C170.065 54.9379 170.996 55.8948 170.996 57.1053C170.996 58.3185 170.065 59.2712 168.875 59.2712C167.67 59.2712 166.752 58.3185 166.752 57.1053ZM58.4111 85.3H171.589V86.5886H58.4111V85.3ZM124.38 76.1631C128.959 77.4778 128.559 81.4752 128.559 81.4752H134.048L135.994 77.3681H145.87L147.773 81.4629H157.913V66.6122H163.11C164.901 66.6122 166.68 68.3724 166.358 71.8737V81.5739H171.547V70.9785C171.547 64.7643 168.157 61.5003 163.759 61.4756H152.562V78.7938L144.756 61.599H141.186L133.637 78.0933C133.637 75.8601 130.796 74.3289 130.796 74.3289C133.311 74.3961 136.275 62.5051 127.389 61.599H113.111V75.9164H111.633C110.662 75.7834 109.541 73.786 109.536 72.5961V59.5509H163.186V54.5596H75.9871L78.5235 59.5509H104.184V73.664C104.19 77.6601 108.612 81.3765 112.92 81.4725H118.518V76.1604H124.38V76.1631ZM89.2706 61.8348H84.3666V78.5717H84.2007L74.1404 54.5623H71.2189L58.7251 81.4752H60.3483L62.7818 76.5634H77.5473L79.6655 81.4752H95.4003C99.1472 81.4163 103.203 76.5812 103.203 71.5817C103.203 67.5513 100.164 61.7621 95.4099 61.8389H89.2404L89.2706 61.8348ZM118.482 66.7123H126.175C129.296 66.8179 129.424 71.6392 126.256 71.6516H118.482V66.7123ZM140.981 65.9145L143.673 72.6249H138.016L140.981 65.9145ZM89.7312 66.8001L94.1513 66.7891C95.4537 66.8275 97.5253 68.7481 97.5774 71.7585C97.7885 74.4386 95.7691 76.2563 94.335 76.2138H89.7312V66.8001ZM70.6321 59.3151L75.4333 71.4267L64.8712 71.4076L70.6321 59.3151Z" fill="#006C85"/>
</svg>
