<svg width="230" height="120" viewBox="0 0 230 120" fill="none" xmlns="http://www.w3.org/2000/svg">
<rect width="230" height="120" fill="none"/>
<g clip-path="url(#clip0)">
<path d="M106.148 71.5506L103.538 63.8483H103.507L100.897 71.5506H106.148ZM107.5 75.4493H99.5762L98.4757 78.714H94.1362L101.526 57.8259H105.551L112.972 78.714H108.632L107.5 75.4493Z" fill="black"/>
<path d="M113.632 56.9067H117.877V68.8564H117.909L122.972 62.8657H128.349L122.689 69.2051L128.506 78.7141H123.726L119.984 72.0261H119.921L117.877 74.4984V78.7141H113.632V56.9067Z" fill="black"/>
<path d="M138.506 69.0149C138.348 67.1131 137.216 66.0037 135.267 66.0037C133.506 66.0037 132.248 67.2082 132.091 69.0149H138.506ZM127.846 70.7899C127.846 65.8769 130.896 62.422 135.235 62.422C139.606 62.422 142.625 65.7818 142.625 70.7899V72.0578H132.122C132.248 74.3082 133.412 75.5761 135.361 75.5761C136.902 75.5761 138.065 74.8154 139.166 73.2306L142.153 75.5761C140.644 77.9534 138.317 79.1578 135.361 79.1578C130.896 79.1578 127.846 75.798 127.846 70.7899Z" fill="black"/>
<path d="M144.04 62.8658H148.065V64.2604H148.128C149.04 63.1193 150.706 62.422 152.467 62.422C155.895 62.422 158.222 64.7992 158.222 68.5712V78.6824H153.977V69.3002C153.977 67.4301 152.97 66.3524 151.147 66.3524C149.354 66.3524 148.317 67.4935 148.317 69.3002V78.6824H144.071L144.04 62.8658Z" fill="black"/>
<path d="M159.699 75.3225L167.686 66.8278V66.7644H159.888V62.8657H173.598V66.2573L165.611 74.752V74.8154H174.007V78.7141H159.699V75.3225Z" fill="black"/>
<path d="M183.849 73.3574V71.0435H183.786C183.535 71.519 182.874 71.8676 181.459 72.3114C179.573 72.8185 178.912 73.294 178.912 74.1181C178.912 75.069 179.573 75.5445 180.831 75.5445C182.623 75.5762 183.849 74.657 183.849 73.3574ZM174.856 74.4034C174.856 71.7409 176.428 70.3145 180.453 69.3319C182.937 68.7297 183.724 68.2859 183.724 67.4618C183.724 66.5426 182.937 66.0038 181.554 66.0038C179.919 66.0038 178.849 66.923 178.566 68.5395L174.699 67.6837C175.17 64.5457 177.969 62.4537 181.585 62.4537C185.516 62.4537 188 64.7676 188 68.4444V78.7141H184.195V77.4463H184.132C183.378 78.5556 181.9 79.1579 180.013 79.1579C176.9 79.1579 174.856 77.2561 174.856 74.4034Z" fill="black"/>
<path d="M59.0433 87.4307C58.666 87.4307 58.3515 87.1137 58.3515 86.7333V48.6973C58.3515 48.317 58.666 48 59.0433 48C59.4206 48 59.7351 48.317 59.7351 48.6973V86.7333C59.7351 87.1137 59.4206 87.4307 59.0433 87.4307ZM42.6918 77.9217C42.3145 77.9217 42 77.6047 42 77.2243V58.2063C42 57.826 42.3145 57.509 42.6918 57.509C43.0691 57.509 43.3836 57.826 43.3836 58.2063V77.2243C43.3836 77.6047 43.0691 77.9217 42.6918 77.9217Z" fill="black"/>
<path d="M75.3945 78.6507C74.6084 78.6507 73.9795 78.0168 73.9795 77.2244V58.2064C73.9795 57.414 74.6084 56.78 75.3945 56.78C76.1807 56.78 76.8096 57.414 76.8096 58.2064V77.2244C76.7781 78.0168 76.1492 78.6507 75.3945 78.6507Z" fill="#D10000"/>
<path d="M50.8674 83.7539C49.8926 83.7539 49.1064 82.9615 49.1064 81.9789V53.4519C49.1064 52.4693 49.8926 51.6769 50.8674 51.6769C51.8422 51.6769 52.6283 52.4693 52.6283 53.4519V81.9789C52.6283 82.9615 51.8422 83.7539 50.8674 83.7539Z" fill="#D10000"/>
<path d="M67.2191 82.6762C66.8418 82.6762 66.5273 82.3592 66.5273 81.9788V53.4518C66.5273 53.0715 66.8418 52.7545 67.2191 52.7545C67.5965 52.7545 67.9109 53.0715 67.9109 53.4518V81.9788C67.9109 82.3592 67.5965 82.6762 67.2191 82.6762Z" fill="black"/>
</g>
<defs>
<clipPath id="clip0">
<rect width="146" height="39.4307" fill="white" transform="translate(42 48)"/>
</clipPath>
</defs>
</svg>
