<svg width="230" height="120" viewBox="0 0 230 120" fill="none" xmlns="http://www.w3.org/2000/svg">
<rect width="230" height="120" fill="none"/>
<g clip-path="url(#clip0)">
<mask id="mask0" mask-type="alpha" maskUnits="userSpaceOnUse" x="50" y="51" width="130" height="35">
<path d="M50.127 51.0565H179.687V85.3608H50.127V51.0565Z" fill="white"/>
</mask>
<g mask="url(#mask0)">
<path fill-rule="evenodd" clip-rule="evenodd" d="M179.687 70.2264V67.6811C179.687 64.8813 178.902 62.6465 177.354 61.038C175.802 59.4243 173.666 58.6047 171.007 58.6047C168.143 58.6047 165.855 59.5563 164.208 61.4341C162.572 63.2992 161.744 65.8857 161.744 69.1196C161.744 72.2795 162.639 74.8026 164.406 76.617C166.175 78.4336 168.652 79.3545 171.768 79.3545C173.111 79.3545 174.327 79.2531 175.38 79.0504C176.439 78.8476 177.5 78.497 178.533 78.0069L178.715 77.9214V73.8817L178.266 74.0781C177.148 74.5713 176.09 74.9272 175.118 75.1385C174.15 75.3497 173.088 75.4563 171.961 75.4563C170.305 75.4563 169.009 74.979 168.11 74.0369C167.26 73.1466 166.777 71.8655 166.675 70.2264H179.687ZM174.955 66.6091H166.769C166.946 65.2668 167.381 64.2254 168.065 63.5115C168.805 62.7373 169.767 62.3624 171.007 62.3624C172.242 62.3624 173.184 62.7331 173.883 63.4956C174.529 64.2043 174.889 65.2499 174.955 66.6091ZM153.977 79.0028H157.79V51.0565H152.98V58.4473C152.98 59.099 153.044 59.9428 153.171 60.962C151.796 59.3968 149.898 58.6047 147.519 58.6047C144.976 58.6047 142.955 59.5404 141.514 61.3866C140.091 63.2063 139.37 65.7727 139.37 69.015C139.37 72.2436 140.082 74.7952 141.486 76.5991C142.91 78.4283 144.917 79.3545 147.449 79.3545C149.961 79.3545 151.93 78.4505 153.31 76.6656L153.977 79.0028ZM153.174 69.6265C153.152 71.6849 152.771 73.1814 152.044 74.0739C151.333 74.9441 150.161 75.3866 148.562 75.3866C147.129 75.3866 146.088 74.8776 145.38 73.831C144.654 72.7622 144.285 71.1663 144.285 69.0847C144.285 66.983 144.665 65.3502 145.416 64.2307C146.149 63.1397 147.166 62.6085 148.527 62.6085C150.146 62.6085 151.295 63.0742 152.039 64.03C152.792 64.9985 153.174 66.6873 153.174 69.0498V69.6265ZM131.671 79.0028H135.196V65.609C135.196 63.2179 134.518 61.4309 133.185 60.2966C131.863 59.174 129.899 58.6047 127.346 58.6047C126.208 58.6047 124.983 58.7526 123.704 59.043C122.423 59.3334 121.226 59.7664 120.146 60.3262L119.878 60.4645L121.481 63.9794L121.773 63.8421C122.607 63.4513 123.487 63.108 124.386 62.8218C125.269 62.5409 126.206 62.3973 127.17 62.3973C128.299 62.3973 129.133 62.675 129.651 63.22C130.174 63.7713 130.439 64.6342 130.439 65.7853V66.513L127.373 66.6091C124.26 66.7042 121.901 67.284 120.361 68.3317C118.78 69.4079 117.978 71.0195 117.978 73.1223C117.978 75.0878 118.554 76.635 119.692 77.7228C120.828 78.8053 122.417 79.3545 124.412 79.3545C125.946 79.3545 127.227 79.1306 128.22 78.686C129.121 78.2826 130.024 77.5549 130.907 76.5178L131.671 79.0028ZM130.404 71.104C130.404 72.514 129.977 73.6197 129.137 74.3897C128.289 75.168 127.14 75.562 125.72 75.562C124.77 75.562 124.058 75.3507 123.604 74.9346C123.15 74.5196 122.928 73.9387 122.928 73.1571C122.928 72.0672 123.318 71.2846 124.118 70.7629C124.954 70.2179 126.336 69.9085 128.226 69.8409L130.404 69.749V71.104ZM114.107 63.7914L115.58 59.8985L115.311 59.7738C113.625 58.9986 111.706 58.6047 109.609 58.6047C106.489 58.6047 104.063 59.5256 102.399 61.3411C100.743 63.1492 99.9037 65.7547 99.9037 69.0847C99.9037 72.3566 100.706 74.9103 102.291 76.6762C103.884 78.4536 106.234 79.3545 109.272 79.3545C110.493 79.3545 111.548 79.2584 112.408 79.0662C113.279 78.874 114.11 78.5487 114.88 78.0998L115.036 78.008V73.6884L114.563 73.9514C112.968 74.8332 111.252 75.281 109.468 75.281C107.931 75.281 106.804 74.7846 106.018 73.7634C105.222 72.7315 104.819 71.1452 104.819 69.0498C104.819 64.763 106.375 62.6782 109.573 62.6782C110.672 62.6782 112.095 63.014 113.807 63.6752L114.107 63.7914ZM98.3616 63.333L98.837 58.8476L98.5573 58.7874C97.9947 58.666 97.2758 58.6047 96.4208 58.6047C95.1616 58.6047 93.9694 58.9648 92.8793 59.6746C91.9445 60.2829 91.1554 61.0845 90.5258 62.0625L90.0292 58.9553H86.1857V79.0028H90.9778V68.5408C90.9778 66.9122 91.4691 65.5741 92.4369 64.5645C93.4143 63.5432 94.6596 63.0468 96.2442 63.0468C96.8525 63.0468 97.446 63.1154 98.0075 63.2496L98.3616 63.333ZM78.4669 74.4868C79.3368 73.6905 79.7782 72.553 79.7782 71.104V69.6117L77.463 69.7089C75.5487 69.7775 74.1449 70.0944 73.2866 70.652C72.4454 71.2012 72.036 72.0197 72.036 73.1571C72.036 73.9767 72.271 74.5893 72.7538 75.0318C73.2345 75.4711 73.9768 75.694 74.9616 75.694C76.4154 75.694 77.5948 75.2874 78.4669 74.4868ZM76.5877 58.7367C79.0635 58.7367 80.9672 59.2817 82.2625 60.3452C79.3751 55.0318 73.7205 51.4209 67.2151 51.4209C57.7777 51.4209 50.127 59.0187 50.127 68.3908C50.127 77.7629 57.7777 85.3608 67.2151 85.3608C72.824 85.3608 77.7863 82.6655 80.9023 78.5202L80.2036 76.2453C79.2847 77.3669 78.3435 78.1463 77.4077 78.5656C76.4303 79.0028 75.1679 79.2225 73.6535 79.2225C71.6924 79.2225 70.1355 78.686 69.0263 77.6267C67.9149 76.5663 67.3523 75.0497 67.3523 73.1223C67.3523 71.066 68.134 69.4913 69.6771 68.4415C71.1969 67.4076 73.5312 66.8362 76.6175 66.7411L79.8143 66.6408V65.7853C79.8143 64.5993 79.5368 63.7058 78.9891 63.1292C78.4446 62.5557 77.5778 62.2653 76.4112 62.2653C75.4338 62.2653 74.483 62.411 73.5865 62.6962C72.6815 62.9845 71.7977 63.3298 70.9576 63.7227L70.7864 63.803L69.2932 60.5237L69.4495 60.4424C70.5205 59.8879 71.7073 59.4602 72.9761 59.1708C74.2438 58.8835 75.4604 58.7367 76.5877 58.7367Z" fill="#11110F"/>
</g>
</g>
<defs>
<clipPath id="clip0">
<rect width="134" height="35.9085" fill="white" transform="translate(48 50)"/>
</clipPath>
</defs>
</svg>
