<svg width="230" height="120" viewBox="0 0 230 120" fill="none" xmlns="http://www.w3.org/2000/svg">
<rect width="230" height="120" fill="none"/>
<g clip-path="url(#clip0)">
<path d="M68.2983 78.2906C67.2883 79.3867 65.9276 80.1009 64.4477 80.3118C61.7674 80.7363 59.2381 80.41 57.4958 78.1C55.5501 75.5272 55.9683 70.3528 60.8788 69.1978C63.1781 68.6422 65.5854 68.712 67.8482 69.3999C68.0283 69.4548 68.217 69.4808 68.4058 69.5212C68.551 67.6617 67.3923 66.2699 65.5222 66.0735C63.627 65.8809 61.7129 66.1433 59.9409 66.8387C59.482 67.0149 59.302 66.9282 59.1655 66.4691C58.8751 65.4729 58.5412 64.4854 58.1898 63.5065C58.0533 63.1225 58.1027 62.929 58.5092 62.7645C61.8603 61.4275 65.2928 61.032 68.8007 61.9906C71.4955 62.7183 73.2611 65.0629 73.447 68.0139C73.6822 71.9034 73.4905 75.8102 73.5573 79.691C73.5573 80.0231 73.4557 80.153 73.1072 80.1501C71.6901 80.1501 70.2701 80.1501 68.853 80.1501C68.5422 80.1501 68.4261 80.0491 68.4406 79.7401C68.4609 79.2897 68.4406 78.8392 68.4406 78.3888L68.2983 78.2906ZM65.377 72.0362C64.3432 72.0362 63.4227 72.1171 62.6008 72.6571C61.7297 73.2346 61.4799 74.069 61.6484 75.0335C61.7965 75.8997 62.4092 76.356 63.2049 76.6101C63.9004 76.8083 64.632 76.8477 65.345 76.7256C67.3981 76.4368 68.5887 75.0681 68.5016 73.1191C68.5154 72.9906 68.4822 72.8615 68.4081 72.7555C68.3339 72.6494 68.2238 72.5735 68.0979 72.5416C67.2291 72.211 66.3072 72.0398 65.377 72.0362V72.0362Z" fill="#32B3BB"/>
<path d="M102.678 72.7264C100.735 72.7264 98.7952 72.7264 96.8525 72.7264C96.3559 72.7264 96.2717 72.8477 96.4227 73.3213C97.0035 75.0307 98.1903 76.0018 99.9829 76.2348C100.86 76.36 101.755 76.2861 102.599 76.0186C103.443 75.751 104.216 75.2968 104.859 74.6899C105.175 74.4012 105.332 74.4589 105.596 74.6899C106.366 75.3916 107.144 76.0875 107.945 76.7545C108.236 77.0028 108.198 77.1674 107.977 77.4215C106.502 79.1319 104.424 80.2149 102.17 80.4476C99.2947 80.7883 96.5912 80.2773 94.329 78.3917C91.6022 76.1308 90.7253 73.1307 91.0912 69.7292C91.4135 66.7377 92.7754 64.3209 95.3541 62.6981C99.5067 60.0994 106.775 60.9079 108.695 67.6704C109.094 69.1324 109.266 70.6468 109.203 72.1605C109.203 72.6109 109.046 72.738 108.593 72.738C106.604 72.712 104.641 72.7264 102.678 72.7264ZM100.146 69.4376C101.278 69.4376 102.411 69.4376 103.543 69.4376C103.834 69.4376 103.97 69.4 103.941 69.0506C103.831 67.7108 102.666 66.2064 101.388 65.7791C98.9753 64.9735 96.7799 66.5125 96.2572 69.0853C96.173 69.4867 96.4431 69.4347 96.6841 69.4347L100.146 69.4376Z" fill="#32B3BB"/>
<path d="M46.6383 61.3524C49.5684 61.3524 51.9409 62.1032 53.8429 64.0869C54.1101 64.3757 54.1333 64.5056 53.8429 64.7972C52.9718 65.701 52.118 66.6337 51.2788 67.575C50.9884 67.8926 50.8171 67.9013 50.5151 67.575C49.4813 66.4864 48.2181 65.8425 46.6906 65.8916C44.745 65.9493 43.4498 66.9773 42.6774 68.7185C41.844 70.6415 42.3434 73.3904 43.6792 74.6696C45.378 76.3039 48.0351 76.4021 50.0214 74.9584C50.1608 74.8544 50.3118 74.7533 50.4396 74.6465C51.212 74.043 51.2149 74.0372 51.9264 74.7533C52.5826 75.4175 53.2157 76.1047 53.8923 76.7486C54.2146 77.0576 54.2263 77.2481 53.8923 77.5831C52.3266 79.2726 50.176 80.3104 47.8725 80.4879C44.321 80.7767 41.2806 79.7487 39.0156 76.9103C35.3305 72.2903 36.887 65.0715 42.1489 62.389C43.5299 61.663 45.0768 61.3058 46.6383 61.3524V61.3524Z" fill="#32B3BB"/>
<path d="M83.2681 65.1439C83.6485 64.5288 83.9273 64.0178 84.267 63.5471C84.7557 62.8375 85.4183 62.2635 86.1921 61.8795C86.966 61.4955 87.8256 61.3142 88.6897 61.3526C89.0672 61.3526 89.1688 61.4796 89.1659 61.8406C89.1485 63.3594 89.1456 64.8782 89.1659 66.3971C89.1659 66.7898 89.012 66.8417 88.6664 66.8562C85.597 66.9832 83.6659 68.8226 83.3813 71.8747C83.1461 74.4012 83.2942 76.9364 83.2797 79.4688C83.2797 80.0145 83.1316 80.1589 82.5915 80.1445C81.2382 80.104 79.885 80.1127 78.526 80.1445C78.0875 80.1445 77.9801 80.003 77.983 79.5901C77.9946 73.8035 77.9946 68.016 77.983 62.2275C77.983 61.7857 78.1136 61.6731 78.5347 61.6789C79.9518 61.7 81.3699 61.7 82.7889 61.6789C83.1635 61.6789 83.2739 61.7828 83.2652 62.1524C83.2536 63.1024 83.2681 64.0553 83.2681 65.1439Z" fill="#32B3BB"/>
<path d="M192.235 76.3676C191.767 76.9451 191.422 77.4042 191.035 77.8287C187.423 81.7759 181.214 81.3456 178.09 76.9162C175.427 73.148 175.798 66.4721 180.575 63.4518C182.27 62.3791 184.3 61.9569 186.284 62.264C188.269 62.5712 190.074 63.5867 191.361 65.1207C191.619 65.4297 191.869 65.7444 192.232 66.192V65.4153C192.232 62.1611 192.232 58.9039 192.217 55.6497C192.217 55.1213 192.374 54.9914 192.879 55.0058C193.98 55.0376 193.98 55.0058 193.98 56.1088C193.98 63.8762 193.986 71.6455 193.997 79.4168C193.997 80.0347 193.811 80.2253 193.236 80.1329C193.15 80.1213 193.062 80.1213 192.975 80.1329C192.394 80.2224 192.174 80.0463 192.214 79.4168C192.278 78.4552 192.235 77.4879 192.235 76.3676ZM185.187 78.8393C186.412 78.8739 187.62 78.5452 188.657 77.8951C189.724 77.2457 190.617 76.3488 191.259 75.2813C191.901 74.2138 192.273 73.0074 192.344 71.7655C192.414 70.5236 192.181 69.2832 191.664 68.1506C191.146 67.018 190.361 66.0269 189.374 65.2622C186.224 62.8021 181.534 63.5702 179.466 66.963C178.095 69.2066 177.997 71.6609 178.766 74.1153C179.184 75.484 180.034 76.6825 181.191 77.5333C182.347 78.3841 183.748 78.8421 185.187 78.8393V78.8393Z" fill="#253C49"/>
<path d="M115.539 76.4744C115.539 77.6294 115.516 78.5881 115.539 79.5525C115.553 79.9885 115.458 80.1531 114.976 80.13C113.779 80.1069 113.779 80.13 113.779 78.9403C113.779 71.1999 113.774 63.4566 113.765 55.7104C113.765 55.1329 113.898 54.9625 114.485 54.9885C115.527 55.0347 115.53 54.9885 115.53 56.0569V66.2238C115.876 66.0707 115.986 65.7762 116.155 65.5568C117.426 63.8993 119.032 62.7154 121.109 62.317C123.226 61.9094 125.421 62.3165 127.248 63.4561C129.076 64.5957 130.4 66.3827 130.953 68.4558C132.114 72.6716 130.744 76.8036 127.442 79.0905C125.78 80.2351 123.752 80.7306 121.746 80.4824C119.74 80.2341 117.896 79.2596 116.567 77.7449C116.259 77.3869 115.986 77.0086 115.539 76.4744ZM122.613 78.8451C124.739 78.8451 126.53 78.077 127.84 76.4022C129.835 73.8699 130.015 69.8447 128.316 67.0929C126.85 64.7165 124.053 63.4142 121.533 63.9167C117.981 64.6443 115.632 67.3643 115.434 70.9651C115.228 75.2645 118.507 78.8653 122.613 78.8451V78.8451Z" fill="#263C48"/>
<path d="M148.676 77.5225C147.405 78.9898 145.679 79.9948 143.771 80.3791C141.862 80.7634 139.879 80.505 138.134 79.6449C136.102 78.5967 135.03 76.9653 135.143 74.6668C135.257 72.3684 136.5 70.8813 138.55 70.015C140.263 69.2845 142.081 69.1488 143.922 69.2527C145.399 69.3102 146.865 69.527 148.295 69.8995C148.623 69.9862 148.67 69.8995 148.676 69.6108C148.74 66.4345 147.18 64.2602 143.716 63.9917C141.733 63.8317 139.744 64.212 137.963 65.0918C137.513 65.3113 137.289 65.3344 137.092 64.7742C136.735 63.7578 136.688 63.7665 137.725 63.368C140.338 62.3689 142.996 61.9242 145.754 62.6606C148.513 63.3969 150.267 65.5307 150.319 68.3663C150.389 72.1374 150.351 75.9113 150.377 79.6853C150.377 80.0722 150.238 80.1415 149.887 80.1444C148.673 80.1444 148.673 80.1704 148.673 78.9894L148.676 77.5225ZM148.713 72.8563V72.5243C148.713 71.5858 148.713 71.6147 147.799 71.3693C146.465 71.0489 145.104 70.8555 143.733 70.7918C142.026 70.6878 140.347 70.812 138.82 71.71C138.276 72.0167 137.82 72.4577 137.497 72.9904C137.174 73.5231 136.995 74.1296 136.977 74.7513C136.958 75.373 137.102 75.9889 137.392 76.5396C137.683 77.0903 138.112 77.5571 138.637 77.895C140.002 78.8046 141.512 79.0356 143.123 78.8277C145.972 78.461 148.949 76.5581 148.713 72.8506V72.8563Z" fill="#233B47"/>
<path d="M158.093 65.4817C159.255 63.8849 160.651 62.7934 162.53 62.3718C165.42 61.7279 168.593 62.4758 170.26 64.9706C171.099 66.2765 171.528 67.8016 171.492 69.3509C171.492 72.7582 171.492 76.1654 171.492 79.5727C171.492 80.0376 171.355 80.1502 170.911 80.1502C169.749 80.13 169.749 80.1502 169.749 78.9952V70.015C169.749 68.4673 169.517 66.9745 168.533 65.7184C166.816 63.5181 163.253 63.0937 160.802 64.7656C158.871 66.0823 158.096 67.9707 158.093 70.2316C158.093 73.3357 158.093 76.4368 158.093 79.5409C158.093 80.0376 157.959 80.156 157.474 80.1444C156.351 80.1213 156.351 80.1386 156.351 79.0327C156.351 73.8034 156.351 68.5713 156.351 63.3449C156.351 62.7356 156.475 62.4498 157.126 62.5537C157.319 62.579 157.514 62.579 157.707 62.5537C158.029 62.5191 158.116 62.6577 158.11 62.9609C158.093 63.804 158.093 64.6414 158.093 65.4817Z" fill="#253C49"/>
</g>
<defs>
<clipPath id="clip0">
<rect width="157" height="25.5458" fill="white" transform="translate(37 55)"/>
</clipPath>
</defs>
</svg>
