<svg width="230" height="120" viewBox="0 0 230 120" fill="none" xmlns="http://www.w3.org/2000/svg">
<rect width="230" height="120" fill="none"/>
<path d="M41.8368 57.3326V76.1531C41.8368 76.9981 42.0001 77.5358 42.3266 77.8431C42.6532 78.1504 43.3062 78.3808 44.1226 78.3808H53.184L53.3473 81.0695C50.9799 81.2999 47.6329 81.3767 43.4695 81.3767C39.8776 81.3767 38 79.7636 38 76.614V57.3326H41.8368Z" fill="#3E8186"/>
<path d="M56.1237 67.1664L55.7972 64.7082C59.0626 64.1705 62.0014 63.9401 64.5321 63.9401C66.7362 63.9401 68.3689 64.3242 69.3485 65.1692C70.4098 66.0142 70.8996 67.4737 70.8996 69.5478V81.3778H68.124L67.7158 78.6892C65.675 80.6864 63.2259 81.6851 60.532 81.6851C58.8177 81.6851 57.5115 81.301 56.5319 80.456C55.5523 79.611 55.0625 78.4587 55.0625 76.9223V75.1555C55.0625 73.7728 55.4707 72.7742 56.3686 72.006C57.2666 71.2378 58.4911 70.8537 60.1238 70.8537H67.3893V69.5478C67.3893 68.4723 67.1444 67.781 66.5729 67.3969C66.0831 67.0128 65.1035 66.7823 63.7974 66.7823C62.4912 66.7055 59.8789 66.8592 56.1237 67.1664ZM58.6544 75.5396V76.4614C58.6544 77.3064 58.8993 77.921 59.3075 78.3051C59.7157 78.6892 60.3687 78.8428 61.2667 78.8428C63.3892 78.8428 65.4301 78.0746 67.3893 76.4614V73.3887H60.7769C59.9606 73.3887 59.4708 73.6192 59.1442 73.9264C58.8177 74.3105 58.6544 74.8483 58.6544 75.5396Z" fill="#3E8186"/>
<path d="M82.6528 74.6192L77.5915 73.4669C76.1221 73.0828 75.0608 72.5451 74.4077 71.7769C73.7547 71.0087 73.5098 70.0101 73.5098 68.5505C73.5098 66.7069 74.0812 65.401 75.1425 64.7864C76.2037 64.1719 77.9997 63.8646 80.612 63.8646C83.4692 63.9414 86.0815 64.0951 88.2856 64.4792L88.0407 66.9374C84.2855 66.7837 81.9997 66.7837 81.1834 66.7837C79.4691 66.7837 78.3262 66.8605 77.7548 67.091C77.1833 67.3214 76.9384 67.7824 76.9384 68.7042C76.9384 69.0883 76.9384 69.3955 77.02 69.626C77.1017 69.8564 77.2649 70.0869 77.5915 70.2405C77.918 70.3942 78.1629 70.5478 78.3262 70.5478C78.4895 70.6246 78.8976 70.7014 79.4691 70.8551L84.612 72.0074C86.1631 72.3914 87.2243 72.9292 87.8774 73.6205C88.5305 74.3119 88.857 75.3874 88.857 76.8469C88.857 78.8442 88.2856 80.1501 87.0611 80.7646C85.9182 81.3792 83.8773 81.6865 80.9385 81.6865C78.4078 81.6865 76.0404 81.5328 73.7547 81.2255L73.9996 78.6905C75.3874 78.8442 77.4282 78.8442 80.2038 78.8442C82.2446 78.8442 83.5508 78.6905 84.2855 78.4601C84.9386 78.2296 85.3467 77.6151 85.3467 76.7701C85.3467 76.386 85.2651 76.0787 85.1835 75.8483C85.1018 75.6178 84.8569 75.3874 84.5304 75.2337C84.2039 75.0801 83.959 74.9264 83.7957 74.9264C83.6324 74.8496 83.2243 74.7728 82.6528 74.6192Z" fill="#3E8186"/>
<path d="M102.41 78.6145L102.818 81.2263C101.675 81.5336 100.287 81.6872 98.5729 81.6872C97.0219 81.6872 95.879 81.3032 95.0626 80.4581C94.2463 79.6131 93.8381 78.4609 93.8381 76.9245V66.9381H90.5728V64.48L93.8381 64.3263V59.3331H97.43V64.3263H102.981V66.9381H97.43V76.3868C97.43 77.155 97.5933 77.7695 98.0015 78.0768C98.328 78.3841 98.9811 78.5377 99.7974 78.5377H102.41V78.6145Z" fill="#3E8186"/>
<path d="M148.453 81.3026H144.861V74.0817V67.0144H148.453V74.0817V81.3026Z" fill="#3E8186"/>
<path d="M155.882 56.9496V76.4614C155.882 77.1528 156.046 77.6905 156.454 78.0746C156.862 78.4587 157.433 78.6123 158.25 78.6123H159.883L160.291 81.2241C159.556 81.5314 158.413 81.6851 156.862 81.6851C155.474 81.6851 154.331 81.301 153.515 80.5328C152.699 79.7646 152.291 78.6891 152.291 77.2296V56.9496H155.882Z" fill="#3E8186"/>
<path d="M173.51 74.4642H165.428C165.591 76.231 166.081 77.3833 166.897 77.9978C167.714 78.6123 169.02 78.9196 170.816 78.9196C172.449 78.9196 174.571 78.766 177.183 78.5355L177.51 80.7633C175.877 81.4546 173.51 81.7619 170.326 81.7619C167.142 81.7619 164.938 81.0705 163.632 79.7646C162.326 78.3819 161.673 76.0773 161.673 72.851C161.673 69.5478 162.326 67.2432 163.632 65.9373C164.938 64.6314 167.061 63.9401 170.081 63.9401C172.857 63.9401 174.898 64.401 176.122 65.3996C177.347 66.3214 178 67.781 178 69.7014C177.918 72.851 176.449 74.4642 173.51 74.4642ZM165.346 71.8523H172.53C173.755 71.8523 174.326 71.0842 174.326 69.6246C174.326 68.5492 174 67.8578 173.347 67.3969C172.775 66.936 171.714 66.7823 170.163 66.7823C168.367 66.7823 167.142 67.1664 166.489 67.8578C165.755 68.4723 165.428 69.8551 165.346 71.8523Z" fill="#3E8186"/>
<path d="M114.737 79.7623L114.656 79.6855C114.492 79.5319 114.248 79.3014 113.921 79.2246H113.839H106.574H106.492L106.247 79.3014H106.166H106.084C105.758 79.4551 105.594 79.7623 105.513 80.2232V80.3001C105.513 80.4537 105.513 80.5305 105.594 80.6842V80.761C105.839 81.1451 106.166 81.2987 106.411 81.3755H106.492H106.574H113.513C114.329 81.3755 114.656 80.9914 114.819 80.6842V80.761C114.901 80.6073 114.901 80.4537 114.901 80.3001C114.901 80.0696 114.819 79.916 114.737 79.7623Z" fill="#3E8186"/>
<path d="M145.842 61.1807H147.474C148.209 61.1807 148.535 61.4879 148.535 62.1793V63.7157C148.535 64.407 148.209 64.7143 147.474 64.7143H145.842C145.107 64.7143 144.78 64.407 144.78 63.7157V62.1793C144.862 61.4879 145.188 61.1807 145.842 61.1807Z" fill="#3E8186"/>
<path d="M137.763 56.9528C135.722 56.9528 134.66 59.0269 134.171 59.9487C131.803 64.7114 129.518 71.1641 129.518 71.1641C129.436 71.3178 129.436 71.3178 129.191 71.3946C128.946 71.3178 128.946 71.3178 128.864 71.1641C128.864 71.1641 126.497 64.7114 124.211 59.9487C123.803 59.0269 122.742 56.9528 120.619 56.9528C117.599 56.9528 117.354 59.0269 117.354 61.1778C117.354 66.1709 117.354 81.2273 117.354 81.2273H120.946V63.7896C120.946 63.7896 120.946 62.6373 121.028 62.6373C121.028 62.6373 121.191 62.4837 121.517 63.2519C123.068 66.3246 123.64 69.4741 126.334 73.9296C127.15 75.2355 128.211 75.6196 129.191 75.6196C130.171 75.6196 131.069 75.3123 131.803 74.0064C134.497 69.7046 135.314 66.2478 136.865 63.175C137.273 62.4069 137.354 62.5605 137.354 62.5605C137.518 62.6373 137.436 63.7128 137.436 63.7128V81.1505H141.028C141.028 81.1505 141.028 66.0941 141.028 61.1009C141.028 59.0269 140.783 56.9528 137.763 56.9528Z" fill="#3E8186"/>
</svg>
