<svg width="230" height="120" viewBox="0 0 230 120" fill="none" xmlns="http://www.w3.org/2000/svg">
<rect width="230" height="120" fill="none"/>
<g clip-path="url(#clip0)">
<path d="M66.3442 66.2418H69.9349V59.585H66.3442V66.2418Z" fill="#30B7D7"/>
<path d="M45.8354 69.2267H49.4251V62.5698H45.8354V69.2267Z" fill="#30B7D7"/>
<path d="M52.0425 57.5886H55.6322V50.9318H52.0425V57.5886Z" fill="#30B7D7"/>
<path d="M39.2549 81.3729H42.8446V74.7161H39.2549V81.3729Z" fill="#30B7D7"/>
<path d="M69.251 85.3871H72.8425V78.7302H69.251V85.3871Z" fill="#30B7D7"/>
<path d="M60.5737 75.2652H64.1634V68.6084H60.5737V75.2652Z" fill="#30B7D7"/>
<path d="M29 75.2653H32.5897V68.6094H29V75.2653Z" fill="#30B7D7"/>
<path d="M39.2549 69.2267H42.8446V62.5698H39.2549V69.2267Z" fill="#30B7D7"/>
<path d="M91.7212 59.9792H88.1538V76.1183H97.4632V72.7306H91.7212V59.9792Z" fill="#626262"/>
<path d="M108.164 59.7809C103.583 59.7809 99.8569 63.4893 99.8569 68.0481C99.8569 72.6078 103.583 76.3162 108.164 76.3162C112.744 76.3162 116.469 72.6078 116.469 68.0481C116.469 63.4893 112.744 59.7809 108.164 59.7809ZM112.925 68.0481C112.925 70.6804 110.79 72.8223 108.164 72.8223C105.506 72.8223 103.424 70.7252 103.424 68.0481C103.424 65.3691 105.506 63.2729 108.164 63.2729C110.79 63.2729 112.925 65.4148 112.925 68.0481Z" fill="#626262"/>
<path d="M133.385 64.997C133.385 61.8416 131.461 59.958 128.236 59.958H122.166V76.1175H125.69V70.0351H126.257L130.208 76.1175H134.373L130.208 69.7311C132.233 69.0821 133.385 67.3832 133.385 64.997ZM129.839 64.997C129.839 65.978 129.193 66.5636 128.111 66.5636H125.711V63.4296H128.132C129.089 63.4296 129.839 64.1177 129.839 64.997Z" fill="#626262"/>
<path d="M142.632 76.1175H146.178V59.9785H142.632V76.1175Z" fill="#626262"/>
<path d="M166.113 59.7809C161.533 59.7809 157.806 63.4893 157.806 68.0481C157.806 72.6078 161.533 76.3162 166.113 76.3162C170.693 76.3162 174.418 72.6078 174.418 68.0481C174.418 63.4893 170.693 59.7809 166.113 59.7809ZM170.874 68.0481C170.874 70.6804 168.74 72.8223 166.113 72.8223C163.455 72.8223 161.374 70.7252 161.374 68.0481C161.374 65.3691 163.455 63.2729 166.113 63.2729C168.74 63.2729 170.874 65.4148 170.874 68.0481Z" fill="#626262"/>
<path d="M189.434 59.9791V63.3453H193.404V76.1181H196.95V63.3239H200.902V59.9791H189.434Z" fill="#626262"/>
</g>
<defs>
<clipPath id="clip0">
<rect width="172" height="35.4335" fill="white" transform="translate(29 50)"/>
</clipPath>
</defs>
</svg>
