<svg width="251" height="65" fill="none" xmlns="http://www.w3.org/2000/svg"><path d="M47.423 21.989a18.26 18.26 0 0 1-.414 20.867l2.546 2.506a21.776 21.776 0 0 0 .495-25.798l-2.627 2.425zM13.702 32.135a18.29 18.29 0 0 1 3.304-10.49L14.46 19.13a21.797 21.797 0 0 0-.172 25.777l2.607-2.445a18.26 18.26 0 0 1-3.193-10.327zM21.148 17.37a18.26 18.26 0 0 1 22.231.253l2.628-2.465a21.867 21.867 0 0 0-27.385-.303l2.526 2.516zM42.801 47.069a18.28 18.28 0 0 1-21.786-.293l-2.627 2.465a21.837 21.837 0 0 0 27.01.344l-2.597-2.516z" fill="#fff"/><path d="M21.853 26.425l-2.021-1.95a14.359 14.359 0 0 0 0 15.238l2.02-1.9a11.358 11.358 0 0 1 0-11.388zM44.493 24.748l-2.02 1.89a11.358 11.358 0 0 1-.274 11.448l2.021 1.94a14.33 14.33 0 0 0 .324-15.288l-.05.01zM25.982 22.11a11.57 11.57 0 0 1 12.47.131l2.02-1.88a14.38 14.38 0 0 0-16.44-.191l1.95 1.94zM37.962 42.29a11.44 11.44 0 0 1-12.005-.151l-2.02 1.89a14.339 14.339 0 0 0 15.996.211l-1.97-1.95zM37.685 32.296a5.679 5.679 0 1 1-11.357.041 5.679 5.679 0 0 1 11.357-.04z" fill="#fff"/><path opacity=".6" d="M35.213 3.112a3.032 3.032 0 1 1-6.06-.161 3.032 3.032 0 0 1 6.06.161zM35.213 61.075a3.032 3.032 0 1 1-6.061-.161 3.032 3.032 0 0 1 6.061.161zM6.062 32.377a3.031 3.031 0 1 1-6.06-.141 3.031 3.031 0 0 1 6.06.14zM64.14 32.194a3.03 3.03 0 1 1-6.06-.162 3.03 3.03 0 0 1 6.06.162z" fill="#fff"/><path d="M99.053 22.75c-.781-3.049-2.765-8.828-8.986-8.828-3.512 0-6.222 2.108-6.222 5.62 0 10.473 20.157 4.3 20.157 17.814 0 9.297-7.735 13.286-15.311 13.286-4.224 0-10.625-2.503-10.625-5.703a5.766 5.766 0 0 1 .546-1.797l1.95-5.24h1.175c.622 3.207 2.813 9.615 10.154 9.615 4.065 0 6.796-2.578 6.796-6.954C98.687 28.923 79 36.575 79 21.498c0-7.34 7.265-10.7 13.908-10.7 3.36 0 9.456 1.562 9.456 4.292a7.348 7.348 0 0 1-.318 2.109l-1.735 5.55h-1.258zM137.488 48.118c-1.949 1.486-6.166 2.502-9.919 2.502-10.369 0-16.175-7.348-16.175-20.627 0-12.345 7.894-19.217 17.737-19.217 4.998 0 13.673 1.798 13.673 16.404 0 1.721-.159 1.797-.857 2.267s-.864.546-2.115.546H121.32c-2.267 0-3.518 0-3.518 2.344 0 4.216 2.032 14.06 13.361 14.06a18.353 18.353 0 0 0 9.533-2.579l.691 1.335-3.899 2.965zm-3.511-21.222c1.949 0 2.654-.235 2.654-2.032 0-5.316-3.746-10.936-9.919-10.936-6.408 0-8.752 6.09-8.752 10.37 0 2.578.858 2.578 3.049 2.578l12.968.02zM147.724 48.042l3.456-1.1c2.419-.773 2.419-1.243 2.419-5.232V19.134c0-3.284 0-3.457-2.419-4.148l-3.173-.85v-1.251l10.549-1.721c.546 1.327.857 3.283 1.873 3.283 1.562 0 4.611-3.67 11.482-3.67 5.004 0 10.942 1.949 10.942 12.497V41.71c0 3.906 0 4.459 2.42 5.233l3.456 1.099v1.562h-17.648v-1.562l3.519-1.1c2.343-.773 2.343-1.167 2.343-5.232V25.93c0-6.871-1.486-11.482-9.062-11.482-2.973 0-8.365.933-8.365 7.735V41.71c0 3.906 0 4.459 2.344 5.233l3.518 1.099v1.562h-17.654v-1.562zM219.901 48.118c-1.957 1.486-6.173 2.502-9.927 2.502-10.369 0-16.168-7.348-16.168-20.627 0-12.345 7.887-19.217 17.73-19.217 5.005 0 13.673 1.798 13.673 16.404 0 1.721-.152 1.797-.857 2.267s-.864.546-2.073.546h-18.54c-2.267 0-3.518 0-3.518 2.344 0 4.216 2.032 14.06 13.362 14.06 3.353.027 6.65-.864 9.532-2.579l.691 1.335-3.905 2.965zm-3.505-21.222c1.956 0 2.654-.235 2.654-2.032 0-5.316-3.746-10.936-9.919-10.936-6.408 0-8.751 6.09-8.751 10.37 0 2.599.857 2.599 3.048 2.599h12.968zM247.875 49.604c-2.184.858-2.654 1.017-4.369 1.017-6.567 0-8.516-2.074-8.516-9.146V17.412c0-1.714-.318-2.267-2.032-2.654l-3.595-.781v-1.562l3.982-.781c2.191-.394 2.191-.94 2.765-3.125l1.929-7.189h1.714l1.382 7.97c.228 1.874.464 1.874 3.457 2.344l4.921.78v1.563l-4.921.781c-3.671.622-3.671.857-3.671 3.906v18.36c0 6.953 1.327 10.154 7.106 10.154.691 0 1.874-.152 2.579-.235l.394 1.383-3.125 1.278z" fill="#fff"/></svg>