<svg width="230" height="120" viewBox="0 0 230 120" fill="none" xmlns="http://www.w3.org/2000/svg">
	<rect width="230" height="120" fill="none"/>
	<path d="M69.5847 60.7148C70.7896 62.5158 71.4124 64.6418 71.3694 66.8066C71.3263 68.9714 70.6194 71.0711 69.3439 72.823L70.8249 74.2771C72.4659 72.1383 73.3789 69.5324 73.4307 66.8395C73.4825 64.1466 72.6704 61.5077 71.1128 59.3077L69.5847 60.7148V60.7148ZM49.9701 66.6021C49.9696 64.4245 50.6405 62.2994 51.892 60.5152L50.411 59.0558C48.8022 61.2144 47.925 63.8284 47.907 66.5181C47.889 69.2079 48.7311 71.8333 50.311 74.0131L51.8274 72.5944C50.6163 70.8297 49.9688 68.7407 49.9701 66.6021V66.6021ZM54.3013 58.0346C56.1723 56.6358 58.4538 55.892 60.7918 55.9185C63.1299 55.9451 65.3938 56.7405 67.2324 58.1814L68.7611 56.7511C66.5229 54.9167 63.724 53.8994 60.8275 53.8675C57.931 53.8355 55.1103 54.7908 52.832 56.5752L54.3013 58.0352V58.0346ZM66.8962 75.2676C65.0454 76.5997 62.814 77.3024 60.5319 77.2718C58.2498 77.2412 56.0382 76.4789 54.2239 75.0976L52.6958 76.5279C54.9126 78.3145 57.6671 79.3056 60.5167 79.3418C63.3663 79.378 66.1452 78.4572 68.4068 76.7275L66.8962 75.2676Z" fill="#626262"/>
	<path d="M54.711 63.8057L53.5354 62.6742C52.7037 63.9995 52.2627 65.5316 52.2627 67.0952C52.2627 68.6588 52.7037 70.1908 53.5354 71.5162L54.7104 70.4137C54.1273 69.4097 53.8202 68.27 53.8202 67.1097C53.8202 65.9494 54.1273 64.8097 54.7104 63.8057H54.711ZM67.8801 62.8326L66.7051 63.9293C67.2707 64.9514 67.554 66.105 67.526 67.2722C67.498 68.4394 67.1597 69.5781 66.5457 70.5721L67.7213 71.6978C68.5892 70.3877 69.0674 68.8594 69.1008 67.2895C69.1341 65.7196 68.7212 64.1723 67.9097 62.8268L67.8807 62.8326H67.8801ZM57.1127 61.3019C58.2028 60.6222 59.4652 60.2681 60.7506 60.2816C62.036 60.2951 63.2907 60.6755 64.3662 61.3779L65.5412 60.287C64.1497 59.2957 62.487 58.7537 60.7773 58.7338C59.0675 58.714 57.3927 59.2174 55.9785 60.1762L57.1127 61.3019V61.3019ZM64.0812 73.0115C63.0234 73.6437 61.8103 73.9704 60.5772 73.9549C59.3442 73.9394 58.1397 73.5825 57.0982 72.9239L55.9232 74.0205C57.2864 74.9608 58.8995 75.4746 60.5567 75.4964C62.2139 75.5182 63.8401 75.0471 65.2276 74.143L64.0818 73.0115H64.0812ZM63.92 67.2124C63.9272 67.6486 63.8475 68.0819 63.6854 68.4872C63.5234 68.8924 63.2823 69.2615 62.9762 69.5731C62.6701 69.8846 62.3049 70.1325 61.902 70.3022C61.4991 70.4718 61.0664 70.56 60.6291 70.5616C60.1917 70.5632 59.7584 70.4781 59.3543 70.3113C58.9502 70.1445 58.5833 69.8994 58.2749 69.59C57.9665 69.2806 57.7228 68.9133 57.5578 68.5092C57.3929 68.1052 57.31 67.6724 57.314 67.2362C57.322 66.3696 57.672 65.541 58.2881 64.9299C58.9042 64.3189 59.7368 63.9745 60.6055 63.9715C61.4743 63.9684 62.3093 64.3069 62.9297 64.9136C63.5501 65.5203 63.9059 66.3464 63.92 67.213V67.2124Z" fill="#626262"/>
	<path opacity="0.6" d="M62.4823 50.7625C62.4819 50.9972 62.4344 51.2294 62.3426 51.4456C62.2509 51.6617 62.1167 51.8573 61.948 52.0209C61.7793 52.1845 61.5794 52.3127 61.3603 52.3981C61.1411 52.4835 60.9071 52.5243 60.6719 52.5181C60.4367 52.5118 60.2051 52.4587 59.9908 52.3618C59.7765 52.265 59.5838 52.1263 59.424 51.954C59.2642 51.7817 59.1407 51.5792 59.0605 51.3586C58.9804 51.1379 58.9453 50.9035 58.9574 50.6691C58.981 50.2106 59.1833 49.7795 59.5211 49.4678C59.8589 49.1561 60.3055 48.9884 60.7655 49.0006C61.2255 49.0128 61.6626 49.2039 61.9833 49.5331C62.3041 49.8622 62.4831 50.3034 62.4823 50.7625V50.7625ZM62.4823 84.3959C62.4801 84.6294 62.4312 84.8601 62.3386 85.0746C62.246 85.2891 62.1116 85.4831 61.943 85.6452C61.7745 85.8073 61.5754 85.9343 61.3571 86.0189C61.1389 86.1034 60.906 86.1437 60.6719 86.1375C60.4379 86.1313 60.2075 86.0787 59.9941 85.9827C59.7806 85.8868 59.5885 85.7494 59.4288 85.5786C59.2692 85.4078 59.1452 85.207 59.0642 84.9879C58.9832 84.7688 58.9466 84.5358 58.9568 84.3025C58.9769 83.8414 59.1777 83.4067 59.5161 83.092C59.8544 82.7773 60.3032 82.6078 60.7656 82.6201C61.228 82.6324 61.6671 82.8254 61.9883 83.1575C62.3094 83.4897 62.4868 83.9344 62.4823 84.3959V84.3959ZM45.526 67.7437C45.5231 67.9762 45.474 68.2059 45.3815 68.4194C45.2891 68.6329 45.1551 68.826 44.9873 68.9875C44.8195 69.149 44.6213 69.2757 44.4041 69.3603C44.187 69.4449 43.9551 69.4856 43.722 69.4802C43.489 69.4748 43.2593 69.4233 43.0463 69.3288C42.8333 69.2342 42.6412 69.0985 42.4811 68.9293C42.3211 68.7602 42.1962 68.5611 42.1138 68.3436C42.0314 68.126 41.9931 67.8943 42.001 67.6619C42.017 67.1991 42.2152 66.7613 42.5527 66.4434C42.8902 66.1255 43.3397 65.9533 43.8038 65.964C44.2678 65.9746 44.7089 66.1675 45.0313 66.5005C45.3537 66.8336 45.5315 67.2801 45.526 67.7431V67.7437ZM79.3084 67.6375C79.2959 68.1038 79.0982 68.546 78.7589 68.8669C78.4195 69.1878 77.9662 69.3611 77.4988 69.3487C77.0314 69.3362 76.588 69.139 76.2664 68.8005C75.9447 68.4619 75.771 68.0098 75.7835 67.5435C75.7959 67.0772 75.9936 66.6349 76.333 66.314C76.501 66.1551 76.6988 66.0308 76.915 65.9482C77.1312 65.8655 77.3616 65.8261 77.593 65.8323C77.8245 65.8385 78.0525 65.8901 78.2639 65.9841C78.4754 66.0782 78.6662 66.2129 78.8255 66.3805C78.9848 66.5481 79.1094 66.7454 79.1923 66.9611C79.2751 67.1768 79.3146 67.4066 79.3084 67.6375Z" fill="#626262"/>
	<path d="M99.6163 65.0849C99.162 63.3157 98.0079 59.9624 94.3894 59.9624C92.3465 59.9624 90.7702 61.1856 90.7702 63.2235C90.7702 69.3005 102.495 65.7186 102.495 73.5601C102.495 78.9548 97.9957 81.2694 93.589 81.2694C91.132 81.2694 87.4087 79.817 87.4087 77.9602C87.4567 77.5977 87.564 77.2454 87.7263 76.9175L88.8605 73.877H89.544C89.9058 75.7378 91.1803 79.4561 95.4503 79.4561C97.8148 79.4561 99.4034 77.9602 99.4034 75.421C99.4034 68.6668 87.952 73.107 87.952 64.3584C87.952 60.0994 92.1778 58.1497 96.0419 58.1497C97.9963 58.1497 101.542 59.0561 101.542 60.6402C101.541 61.0549 101.478 61.4671 101.357 61.8639L100.348 65.0843H99.6163V65.0849ZM121.973 79.8049C120.839 80.6671 118.386 81.2567 116.203 81.2567C110.172 81.2567 106.795 76.9929 106.795 69.2877C106.795 62.1244 111.386 58.1369 117.112 58.1369C120.019 58.1369 125.065 59.1802 125.065 67.6555C125.065 68.6541 124.973 68.6982 124.567 68.9709C124.161 69.2436 124.064 69.2877 123.336 69.2877H112.568C111.25 69.2877 110.522 69.2877 110.522 70.6478C110.522 73.0942 111.704 78.8062 118.294 78.8062C120.245 78.8222 122.162 78.3046 123.839 77.3098L124.241 78.0844L121.973 79.8049V79.8049ZM119.931 67.4907C121.064 67.4907 121.474 67.3543 121.474 66.3116C121.474 63.2269 119.295 59.9659 115.705 59.9659C111.977 59.9659 110.614 63.4997 110.614 65.9832C110.614 67.4791 111.113 67.4791 112.387 67.4791L119.931 67.4907ZM127.927 79.7608L129.937 79.1225C131.344 78.6739 131.344 78.4012 131.344 76.0866V62.9867C131.344 61.0811 131.344 60.9808 129.937 60.5798L128.092 60.0866V59.3607L134.228 58.3621C134.545 59.1321 134.726 60.267 135.317 60.267C136.226 60.267 137.999 58.1375 141.996 58.1375C144.907 58.1375 148.36 59.2684 148.36 65.389V76.0866C148.36 78.3531 148.36 78.6739 149.768 79.1231L151.778 79.7608V80.6671H141.513V79.7608L143.56 79.1225C144.923 78.6739 144.923 78.4453 144.923 76.0866V66.9301C144.923 62.9432 144.058 60.2676 139.652 60.2676C137.922 60.2676 134.786 60.809 134.786 64.7559V76.0866C134.786 78.3531 134.786 78.6739 136.149 79.1231L138.196 79.7608V80.6671H127.927V79.7608V79.7608ZM169.91 79.8049C168.772 80.6671 166.32 81.2567 164.136 81.2567C158.105 81.2567 154.732 76.9929 154.732 69.2877C154.732 62.1244 159.319 58.1369 165.045 58.1369C167.956 58.1369 172.998 59.1802 172.998 67.6555C172.998 68.6541 172.909 68.6982 172.499 68.9709C172.089 69.2436 171.997 69.2877 171.294 69.2877H160.509C159.191 69.2877 158.463 69.2877 158.463 70.6478C158.463 73.0942 159.645 78.8062 166.235 78.8062C168.186 78.8219 170.103 78.3049 171.78 77.3098L172.182 78.0844L169.91 79.8049V79.8049ZM167.872 67.4907C169.009 67.4907 169.415 67.3543 169.415 66.3116C169.415 63.2269 167.236 59.9659 163.646 59.9659C159.918 59.9659 158.555 63.4997 158.555 65.9832C158.555 67.4912 159.054 67.4912 160.328 67.4912H167.872V67.4907ZM186.182 80.6671C184.912 81.165 184.638 81.2572 183.641 81.2572C179.821 81.2572 178.687 80.0538 178.687 75.9502V61.9875C178.687 60.9929 178.502 60.6721 177.505 60.4475L175.414 59.9943V59.088L177.73 58.6348C179.005 58.4062 179.005 58.0893 179.339 56.8215L180.461 52.65H181.458L182.262 57.2747C182.394 58.3621 182.531 58.3621 184.272 58.6348L187.135 59.0874V59.9943L184.272 60.4475C182.137 60.8084 182.137 60.9448 182.137 62.714V73.3675C182.137 77.402 182.909 79.2594 186.27 79.2594C186.672 79.2594 187.361 79.1712 187.771 79.1231L188 79.9255L186.182 80.6671Z" fill="#626262"/>
</svg>
