<svg width="230" height="120" viewBox="0 0 230 120" fill="none" xmlns="http://www.w3.org/2000/svg">
<rect width="230" height="120" fill="none"/>
<path d="M52.5371 87.7261C52.5371 87.0919 52.2996 86.6 51.8219 86.2489C51.3463 85.8973 50.5147 85.5943 49.3302 85.3422C48.1469 85.0869 47.2069 84.7835 46.5114 84.4286C45.8159 84.0732 45.3013 83.6509 44.9677 83.1607C44.6341 82.6699 44.4687 82.087 44.4687 81.4105C44.4687 80.2865 44.9421 79.3343 45.8895 78.5572C46.8391 77.7795 48.0508 77.3904 49.5267 77.3904C51.0778 77.3904 52.3354 77.7923 53.3004 78.5952C54.266 79.3985 54.7501 80.4256 54.7501 81.677H52.3978C52.3978 81.0342 52.1256 80.4808 51.5827 80.0151C51.0378 79.5511 50.3535 79.3177 49.5267 79.3177C48.6737 79.3177 48.0092 79.5051 47.5282 79.8754C47.0484 80.2485 46.8066 80.7334 46.8066 81.3355C46.8066 81.9018 47.0302 82.3278 47.477 82.6153C47.9232 82.9037 48.7324 83.1772 49.9003 83.44C51.0666 83.7018 52.013 84.0138 52.7378 84.3794C53.4627 84.7417 54.0013 85.1795 54.3503 85.6912C54.7005 86.2029 54.8756 86.8259 54.8756 87.5613C54.8756 88.787 54.3866 89.7696 53.4082 90.5088C52.4309 91.2501 51.1621 91.6199 49.6014 91.6199C48.5056 91.6199 47.5362 91.4245 46.6939 91.0354C45.8495 90.6463 45.1908 90.1041 44.7121 89.4062C44.237 88.7083 44 87.9536 44 87.1427H46.3395C46.3806 87.9301 46.6955 88.552 47.2811 89.0128C47.8672 89.4736 48.6406 89.7038 49.6019 89.7038C50.4869 89.7038 51.1968 89.525 51.7338 89.1648C52.2692 88.8057 52.5371 88.3261 52.5371 87.7261Z" fill="#3C3C3B"/>
<path d="M68.8218 88.1309L71.4544 77.6437H73.7939L69.8104 91.3647H67.9134L64.5874 80.9669L61.3496 91.3647H59.4531L55.4829 77.6437H57.8091L60.503 87.9168L63.6891 77.6437H65.5738L68.8218 88.1309Z" fill="#3C3C3B"/>
<path d="M75.4048 74.005C75.4048 73.624 75.5206 73.3023 75.7528 73.0416C75.985 72.7794 76.3282 72.6477 76.783 72.6477C77.2404 72.6477 77.5836 72.7794 77.8201 73.0416C78.0555 73.3023 78.1745 73.624 78.1745 74.005C78.1745 74.3861 78.0555 74.703 77.8201 74.9556C77.5836 75.2098 77.2404 75.3361 76.783 75.3361C76.3282 75.3361 75.985 75.2098 75.7528 74.9556C75.5206 74.7024 75.4048 74.3861 75.4048 74.005ZM77.9359 91.3645H75.5964V77.6435H77.9359V91.3645Z" fill="#3C3C3B"/>
<path d="M84.8526 74.3226V77.6442H87.4067V79.4587H84.8526V87.9779C84.8526 88.5281 84.9663 88.9413 85.1942 89.2164C85.4232 89.4915 85.8107 89.629 86.3573 89.629C86.6274 89.629 86.9973 89.5782 87.4707 89.4754V91.3674C86.8558 91.535 86.2575 91.6206 85.6751 91.6206C84.63 91.6206 83.8416 91.3027 83.3105 90.6679C82.7784 90.0342 82.5136 89.1339 82.5136 87.9671V79.4592H80.022V77.6448H82.5136V74.3232H84.8526V74.3226Z" fill="#3C3C3B"/>
<path d="M92.3398 89.4513H100.345V91.3647H89.481V89.6397L97.0311 79.5844H89.5936V77.6437H99.9658V79.3061L92.3398 89.4513Z" fill="#3C3C3B"/>
<path d="M107.619 91.6198C105.763 91.6198 104.255 91.0081 103.089 89.7872C101.927 88.5648 101.346 86.9313 101.346 84.8856V84.4537C101.346 83.0937 101.605 81.8777 102.123 80.8083C102.642 79.7378 103.365 78.9013 104.298 78.2981C105.23 77.6933 106.24 77.3909 107.327 77.3909C109.107 77.3909 110.49 77.978 111.476 79.1528C112.463 80.3287 112.955 82.0109 112.955 84.2011V85.1773H103.685C103.719 86.5299 104.113 87.6222 104.867 88.4545C105.622 89.2884 106.581 89.7037 107.745 89.7037C108.572 89.7037 109.27 89.5346 109.844 89.1969C110.418 88.8597 110.92 88.4117 111.349 87.8529L112.779 88.9678C111.63 90.7362 109.913 91.6198 107.619 91.6198ZM107.327 79.3182C106.383 79.3182 105.59 79.6634 104.949 80.3517C104.309 81.0411 103.914 82.0077 103.76 83.2489H110.616V83.0718C110.547 81.8793 110.228 80.9565 109.655 80.302C109.081 79.6452 108.305 79.3182 107.327 79.3182Z" fill="#3C3C3B"/>
<path d="M122.277 79.7497C121.923 79.6903 121.538 79.6597 121.125 79.6597C119.591 79.6597 118.549 80.3159 118.001 81.6267V91.3646H115.662V77.6435H117.937L117.977 79.2289C118.744 78.0037 119.83 77.3904 121.239 77.3904C121.694 77.3904 122.04 77.4493 122.276 77.5681V79.7497H122.277Z" fill="#3C3C3B"/>
<path d="M123.752 84.1423C123.752 81.7337 124.34 79.891 125.516 78.6118C126.69 77.3326 128.373 76.693 130.562 76.693C131.973 76.693 133.358 76.966 134.72 77.5124V80.3679C133.584 79.9065 132.392 79.6753 131.139 79.6753C129.816 79.6753 128.831 79.9793 128.187 80.5894C127.542 81.1996 127.221 82.3835 127.221 84.1423C127.221 85.8812 127.542 87.0603 128.187 87.6796C128.831 88.2994 129.816 88.6093 131.139 88.6093C132.333 88.6093 133.527 88.3684 134.72 87.8872V90.7421C133.358 91.3084 131.973 91.591 130.562 91.591C128.372 91.591 126.69 90.9493 125.516 89.6647C124.34 88.3813 123.752 86.5406 123.752 84.1423Z" fill="#3C3C3B"/>
<path d="M137.312 91.3647V71.42H140.781V91.3647H137.312Z" fill="#3C3C3B"/>
<path d="M144.634 89.6681C143.459 88.3868 142.872 86.5505 142.872 84.1569C142.872 81.7623 143.459 79.9254 144.634 78.6436C145.809 77.3617 147.494 76.72 149.687 76.72C151.883 76.72 153.568 77.3617 154.743 78.6436C155.916 79.9254 156.504 81.7623 156.504 84.1569C156.504 86.5505 155.916 88.3868 154.743 89.6681C153.568 90.9505 151.883 91.5917 149.687 91.5917C147.494 91.5917 145.809 90.9511 144.634 89.6681ZM147.164 80.5244C146.614 81.1548 146.339 82.3682 146.339 84.1628C146.339 85.958 146.614 87.1697 147.164 87.7965C147.713 88.4232 148.558 88.7363 149.693 88.7363C150.833 88.7363 151.673 88.4232 152.218 87.7965C152.762 87.1697 153.035 85.958 153.035 84.1628C153.035 82.3682 152.762 81.1548 152.218 80.5244C151.673 79.8917 150.832 79.5765 149.693 79.5765C148.558 79.577 147.713 79.8923 147.164 80.5244Z" fill="#3C3C3B"/>
<path d="M158.581 84.8205V76.9189H162.048V85.2663C162.048 86.4235 162.284 87.2558 162.756 87.7637C163.226 88.2706 163.994 88.5253 165.058 88.5253C166.141 88.5253 166.918 88.2706 167.389 87.7637C167.86 87.2558 168.096 86.4235 168.096 85.2663V76.9189H171.563V84.8205C171.563 86.9411 170.99 88.6003 169.843 89.7976C168.696 90.9938 167.101 91.5922 165.058 91.5922C163.013 91.5922 161.423 90.9943 160.286 89.7976C159.149 88.5997 158.581 86.9411 158.581 84.8205Z" fill="#3C3C3B"/>
<path d="M173.469 83.9727C173.469 81.6219 174.042 79.8198 175.19 78.5685C176.336 77.3182 177.986 76.6931 180.138 76.6931C180.907 76.6931 181.707 76.7685 182.534 76.9189V71.3633H186V86.7221C186 88.0527 185.502 89.1965 184.5 90.155C183.499 91.1115 181.971 91.5916 179.911 91.5916C179.433 91.5916 178.955 91.5541 178.48 91.4787C178.005 91.4021 177.451 91.2046 176.817 90.8835C176.182 90.5629 175.629 90.1476 175.16 89.6369C174.69 89.1285 174.291 88.3792 173.962 87.3927C173.634 86.4069 173.469 85.2663 173.469 83.9727ZM176.937 83.7885C176.937 85.489 177.157 86.7184 177.6 87.4752C178.041 88.2304 178.812 88.6098 179.911 88.6098C181.658 88.6098 182.533 88.0896 182.533 87.0497V79.6475C181.857 79.4971 181.096 79.4168 180.25 79.4072C179.169 79.4072 178.346 79.7305 177.783 80.3781C177.22 81.0257 176.937 82.1625 176.937 83.7885Z" fill="#3C3C3B"/>
<path d="M137.037 52.0837C137.037 45.1531 131.436 39.537 124.526 39.537C118.431 39.537 113.362 43.9055 112.249 49.6897C112.248 49.6929 112.245 49.6929 112.242 49.6945C110.386 57.8915 105.508 60.6859 99.8919 60.7876C95.1066 60.8754 91.2106 56.8842 91.2106 52.0843C91.2106 47.2833 95.1055 43.3778 99.8919 43.3778C101.292 43.3778 102.612 43.7187 103.785 44.3128C103.495 43.4468 103.333 42.5246 103.333 41.5639C103.333 41.3016 103.35 41.0426 103.373 40.7873C103.397 40.5368 103.43 40.2922 103.473 40.0492C104.19 35.9692 107.741 32.8574 112.013 32.8574C114.735 32.8574 117.166 34.1221 118.758 36.0923C120.033 35.6298 121.372 35.2975 122.768 35.1556C120.582 31.476 116.587 29 112.013 29C105.796 29 100.639 33.5692 99.6655 39.5316C92.8616 39.6537 87.3643 45.2318 87.3643 52.0843C87.3643 58.8966 92.8028 64.4458 99.5518 64.6278H125.056C125.056 64.6235 125.056 64.6096 125.056 64.6011C131.718 64.319 137.037 58.8313 137.037 52.0837Z" fill="#E52322"/>
<path d="M130.898 49.9147H126.442V45.4482H122.609V49.9147H118.153V53.7592H122.609V58.2252H126.442V53.7592H130.898V49.9147Z" fill="white"/>
</svg>
