<svg width="230" height="120" viewBox="0 0 230 120" fill="none" xmlns="http://www.w3.org/2000/svg">
<rect width="230" height="120" fill="none"/>
<g clip-path="url(#clip0)">
<path d="M73.7029 91.1373H72.165V84.486H73.7029L76.4086 88.6396V84.486H77.9466V91.1373H76.4086L73.7029 86.9838V91.1373ZM89.7947 85.777H87.4593V87.068H89.6808V88.4151H87.4593V89.7622H89.7947V91.1093H85.9213V84.458H89.7947V85.777ZM97.1998 84.458H101.956V85.8051H100.361V91.1093H98.8232V85.8051H97.2283L97.1998 84.458V84.458ZM113.633 87.4047L112.551 91.1373H110.842L108.934 84.486H110.614L111.754 89.0886H111.782L113.007 84.486H114.146L115.371 89.0886H115.485L116.624 84.486H118.333L116.424 91.1373H114.716L113.633 87.4047ZM128.529 84.3457C130.409 84.3457 131.947 85.8612 131.947 87.7696C131.947 89.7341 130.494 91.2215 128.529 91.2215C126.507 91.2215 125.111 89.706 125.111 87.7696C125.111 85.8331 126.649 84.3457 128.529 84.3457ZM128.529 89.7622C129.754 89.7622 130.266 88.7799 130.266 87.7696C130.266 86.8154 129.697 85.777 128.529 85.777C127.333 85.777 126.792 86.7593 126.792 87.7696C126.792 88.7799 127.276 89.7622 128.529 89.7622ZM142 84.458C143.254 84.458 144.222 85.1315 144.222 86.4505C144.222 87.4328 143.652 88.1344 142.826 88.3589L145.162 91.1373H143.225L141.174 88.4993V91.1373H139.636V84.486L142 84.458ZM141.288 87.4328C141.886 87.4328 142.542 87.4047 142.542 86.5347C142.542 85.6647 141.858 85.6367 141.288 85.6367H141.118V87.4321L141.288 87.4328ZM156.44 91.1373L153.934 88.3028V91.1373H152.396V84.486H153.934V87.2363L156.269 84.486H158.149L155.386 87.6293L158.519 91.1373H156.44ZM150.915 55.271C151.114 57.6845 150.345 59.9578 148.779 61.6978C147.099 63.55 144.592 64.5603 141.773 64.5603H80.5669C78.089 64.5323 75.7536 63.5781 74.0162 61.8661C72.165 60.07 71.1681 57.6565 71.1396 55.1026C71.1396 50.3597 74.415 46.5149 78.8865 45.7852C79.4846 41.8281 82.9878 38.6007 87.3169 37.9271C87.5732 36.3555 88.3422 34.84 89.5669 33.6052C91.3327 31.8091 93.7251 30.7987 96.1745 30.7987C99.3359 30.7987 102.099 32.4826 103.58 35.0084C105.317 28.8903 111.013 24.4 117.763 24.4C125.14 24.4 131.292 29.7883 132.317 36.8044C136.019 34.0823 140.947 34.3347 144.649 37.7587L144.25 37.422C147.212 39.7794 148.238 42.9787 148.095 45.6729C148.01 47.2726 147.469 48.6758 146.5 49.8265C147.44 50.1352 148.209 50.6684 148.95 51.3981C149.975 52.4084 150.687 53.6713 150.886 55.0745C150.886 55.1307 150.886 55.1868 150.915 55.271C150.915 55.2149 150.915 55.1868 150.915 55.271ZM155.5 32.6228C153.336 29.7322 150.118 27.5993 146.586 26.7012C145.788 26.5328 144.962 27.066 144.792 27.8238C144.478 28.6096 144.991 29.6199 145.845 29.7883C149.405 30.7144 152.481 33.1841 154.105 36.4396C155.443 39.1057 155.785 42.2489 155.045 45.1396C154.845 45.9535 155.443 46.8235 156.298 46.9357C157.067 47.1602 157.921 46.7112 158.178 45.9815C159.345 41.4631 158.349 36.3835 155.5 32.6228ZM145.333 32.1738C144.108 31.9493 143.168 33.4367 143.709 34.4751C143.909 34.9241 144.364 35.2328 144.849 35.3451C146.7 35.8221 148.323 37.085 149.178 38.7688C149.947 40.2564 150.118 41.9962 149.69 43.5959C149.462 44.4098 150.061 45.3079 150.915 45.4482C151.684 45.6727 152.595 45.2237 152.823 44.4379C153.621 41.5753 153.023 38.3759 151.257 35.9904C149.833 34.0822 147.697 32.6228 145.333 32.1738Z" fill="#626262"/>
<path d="M71.1681 69.5557H79.0574V71.7728H76.3802V80.6131H73.8169V71.7728H71.1396L71.1681 69.5557ZM83.1017 80.6412H80.5384V69.5557H83.1017V73.9899H86.7188V69.5557H89.2821V80.6412H86.7188V76.1789H83.1017V80.6412ZM97.8833 71.8009H94.0384V73.9899H97.7409V76.207H94.0384V78.4241H97.9118V80.6412H91.4466V69.5557H97.8833V71.8009ZM102.811 69.5557H110.7V71.7728H108.023V80.6131H105.459V71.7728H102.782L102.811 69.5557ZM114.744 80.6412H112.181V69.5557H114.744V73.9899H118.361V69.5557H120.924V80.6412H118.361V76.1789H114.744V80.6412ZM125.681 80.6412H123.117V69.5557H125.681V80.6412ZM130.409 80.6412H127.845V69.5557H130.409L134.852 76.4034H134.88V69.5557H137.443V80.6412H134.88L130.437 73.7934H130.409V80.6412ZM149.804 76.8244C149.178 79.6308 146.785 80.8376 144.592 80.8376C141.573 80.8376 139.124 78.2557 139.124 75.1125C139.124 71.9131 141.459 69.3873 144.592 69.3873C146.586 69.3873 147.924 70.117 148.921 71.2676L147.241 73.0918C146.586 72.0534 145.731 71.6886 144.735 71.6886C143.168 71.6886 141.886 73.2321 141.886 75.1405C141.886 77.0208 143.168 78.5363 144.735 78.5363C145.959 78.5363 147.184 77.7505 147.184 76.4034H144.621V74.4389H149.804V76.8244ZM158.833 70.4257L157.779 72.4463C157.779 72.4463 156.668 71.6886 155.529 71.6886C154.646 71.6886 154.219 72.0534 154.219 72.6708C154.219 73.2883 155.301 73.7373 156.554 74.2705C157.807 74.7757 159.203 75.8421 159.203 77.3015C159.203 79.9395 157.152 80.8657 154.959 80.8657C152.311 80.8657 150.744 79.3783 150.744 79.3783L152.026 77.2454C152.026 77.2454 153.535 78.4802 154.788 78.4802C155.358 78.4802 156.412 78.4241 156.412 77.3857C156.412 76.5999 155.216 76.207 153.877 75.5615C152.51 74.916 151.741 73.8776 151.741 72.727C151.741 70.6783 153.592 69.3312 155.386 69.3312C157.38 69.3592 158.833 70.4257 158.833 70.4257Z" fill="#626262"/>
</g>
<defs>
<clipPath id="clip0">
<rect width="90" height="69.6" fill="white" transform="translate(70 22)"/>
</clipPath>
</defs>
</svg>
