<svg width="138" height="127" viewBox="0 0 138 127" fill="none" xmlns="http://www.w3.org/2000/svg">
<path d="M-0.000274658 43.4116C-0.000274658 43.199 0.0334854 42.9865 0.101021 42.7839L6.05993 24.9072C6.33205 24.0948 7.08884 23.5486 7.94493 23.5486H49.6572V9.64445C49.6572 6.35911 52.3308 3.68555 55.6162 3.68555H103.287C106.573 3.68555 109.246 6.35911 109.246 9.64445V56.4933L115.704 62.9508C117.879 65.1258 119.287 68.004 119.668 71.0589L121.055 82.1544C121.128 82.7264 121.164 83.3044 121.164 83.8805V100.271C121.164 100.847 121.128 101.425 121.057 101.998L119.442 114.918H121.164C122.261 114.918 123.15 115.806 123.15 116.905V124.85C123.15 125.948 122.261 126.836 121.164 126.836H99.3148C98.2183 126.836 97.3285 125.948 97.3285 124.85V116.905C97.3285 115.806 98.2183 114.918 99.3148 114.918H101.301V108.618C101.301 108.095 101.089 107.583 100.719 107.214L92.5335 99.028H55.6162C52.3308 99.028 49.6572 96.3544 49.6572 93.0691V75.1924H7.94493C6.84849 75.1924 5.95863 74.3045 5.95863 73.2061V51.0747C2.54219 50.1868 -0.000274658 47.1021 -0.000274658 43.4116ZM15.8961 43.4672C15.9259 45.6323 17.6897 47.3842 19.8627 47.3842C22.0536 47.3842 23.8353 45.6025 23.8353 43.4116V27.5212H17.6679L15.8961 43.4672ZM55.6162 47.3842C57.7097 47.3842 59.4279 45.7574 59.5788 43.7016L54.184 27.5212H51.6475C51.6455 27.5212 51.6436 27.5212 51.6436 27.5212H51.6396H49.8896L51.6316 43.1931C51.6356 43.2308 51.6197 43.2646 51.6217 43.3023C51.6237 43.3401 51.6436 43.3718 51.6436 43.4116C51.6436 45.6025 53.4253 47.3842 55.6162 47.3842ZM45.8932 27.5212H39.7257V43.4116C39.7257 45.6025 41.5075 47.3842 43.6983 47.3842C45.8714 47.3842 47.6352 45.6323 47.665 43.4672L45.8932 27.5212ZM35.7531 27.5212H27.8079V43.4116C27.8079 45.6025 29.5897 47.3842 31.7805 47.3842C33.9714 47.3842 35.7531 45.6025 35.7531 43.4116V27.5212ZM103.287 7.65815H55.6162C54.5217 7.65815 53.6299 8.55 53.6299 9.64445V15.6034H105.274V9.64445C105.274 8.55 104.382 7.65815 103.287 7.65815ZM101.301 122.864H119.178V118.891H101.301V122.864ZM103.528 104.405C104.654 105.529 105.274 107.027 105.274 108.618V114.918H115.438L117.114 101.505C117.166 101.096 117.191 100.685 117.191 100.271V83.8805C117.191 83.4673 117.166 83.0561 117.114 82.647L115.728 71.5515C115.455 69.3705 114.448 67.3147 112.895 65.7594L105.856 58.72C105.856 58.72 105.856 58.72 105.854 58.718L101.128 53.9926C100.709 53.5755 100.151 53.3431 99.5551 53.3431C98.3276 53.3431 97.3285 54.3422 97.3285 55.5697C97.3285 56.1656 97.5609 56.7238 97.98 57.1449L106.338 65.5012C108.213 67.3763 109.246 69.8711 109.246 72.5248V84.7048C109.246 86.6712 108.668 88.5761 107.578 90.2128L106.998 91.0828H107.26C108.356 91.0828 109.246 91.9707 109.246 93.0691C109.246 94.1675 108.356 95.0554 107.26 95.0554H101.301C100.775 95.0554 100.268 94.8468 99.8968 94.4734L91.1988 85.7754C90.7777 85.3543 90.2195 85.1239 89.6236 85.1239C88.3961 85.1239 87.397 86.123 87.397 87.3505C87.397 87.9365 87.6353 88.5105 88.0485 88.9257L94.7562 95.6334C94.7582 95.6354 94.7622 95.6394 94.7642 95.6413L103.528 104.405ZM102.123 91.0828H102.225L104.273 88.01C104.928 87.0268 105.274 85.8846 105.274 84.7048V83.1376H94.1782L102.123 91.0828ZM55.6162 95.0554H88.5609L85.2398 91.7343C85.0412 91.5357 84.8764 91.3072 84.7075 91.0828H73.4929C72.3964 91.0828 71.5066 90.1949 71.5066 89.0965C71.5066 87.9981 72.3964 87.1102 73.4929 87.1102H83.4482C83.5078 85.5768 84.1216 84.1903 85.1028 83.1376H53.6299V93.0691C53.6299 94.1655 54.5217 95.0554 55.6162 95.0554ZM53.6299 79.165H105.274V72.5248C105.274 70.9318 104.654 69.4341 103.53 68.3118L95.1714 59.9535C94.0014 58.7836 93.3559 57.2263 93.3559 55.5697C93.3559 52.1513 96.1367 49.3705 99.5551 49.3705C101.212 49.3705 102.769 50.016 103.939 51.186L105.274 52.5207V19.576H53.6299V23.5486H55.6162C56.4723 23.5486 57.229 24.0948 57.5012 24.9072L63.4601 42.7839C63.5276 42.9865 63.5614 43.199 63.5614 43.4116C63.5614 47.1021 61.0189 50.1868 57.6025 51.0747V73.2061C57.6025 74.3045 56.7126 75.1924 55.6162 75.1924H53.6299V79.165ZM27.8079 71.2198H35.7531V59.302H27.8079V71.2198ZM23.8353 71.2198V57.3157C23.8353 56.2192 24.7252 55.3294 25.8216 55.3294H37.7394C38.8359 55.3294 39.7257 56.2192 39.7257 57.3157V71.2198H53.6299V51.0807C52.0726 50.6755 50.6901 49.8333 49.6572 48.6614C48.2013 50.314 46.068 51.3568 43.6983 51.3568C41.3287 51.3568 39.1954 50.314 37.7394 48.6614C36.2835 50.314 34.1502 51.3568 31.7805 51.3568C29.4109 51.3568 27.2776 50.314 25.8216 48.6614C24.3657 50.314 22.2324 51.3568 19.8627 51.3568C17.4931 51.3568 15.3598 50.314 13.9038 48.6614C12.871 49.8333 11.4885 50.6755 9.93123 51.0807V71.2198H23.8353ZM7.94493 47.3842C10.1358 47.3842 11.9175 45.6025 11.9175 43.4116C11.9175 43.3718 11.9374 43.3401 11.9394 43.3003C11.9414 43.2626 11.9255 43.2288 11.9295 43.1911L13.6714 27.5212H9.37705L3.98425 43.7016C4.13322 45.7574 5.85136 47.3842 7.94493 47.3842Z" fill="#12110C"/>
<path d="M124.782 28.5724C113.382 32.9757 102.032 37.3596 90.7149 41.7306C90.1814 41.0565 89.7255 40.3393 89.1354 39.7604C87.1249 37.7878 84.7104 37.0846 81.9614 37.6419C81.594 37.7164 81.4749 37.6149 81.3542 37.2995C80.1985 34.2796 79.0311 31.2641 77.8621 28.2493C77.7596 27.985 77.6914 27.8004 78.0216 27.6078C81.1069 25.8077 82.5381 22.5152 81.7861 19.0039C81.7682 18.9204 81.7497 18.8371 81.7246 18.7216C93.1017 14.3273 104.464 9.93852 115.845 5.54275C116.169 6.00665 116.458 6.51027 116.83 6.94035C118.889 9.31512 121.466 10.2276 124.542 9.63445C124.86 9.57316 125.008 9.60943 125.13 9.92908C126.297 12.9823 127.477 16.0307 128.661 19.0774C128.766 19.3461 128.765 19.5003 128.477 19.6663C125.448 21.4118 123.986 24.7121 124.692 28.17C124.716 28.288 124.744 28.405 124.782 28.5724ZM100.257 14.1084C100.238 14.1176 100.098 14.1897 99.953 14.2508C95.091 16.3043 92.4117 22.3552 95.1145 27.8672C97.4198 32.5683 103.236 34.6241 108.067 32.4309C113.72 29.8645 115.657 22.7153 112.018 17.6445C111.366 16.7351 110.458 16.0015 109.622 15.2365C109.198 14.8478 108.748 14.9116 108.465 15.2657C108.175 15.6285 108.274 16.05 108.744 16.441C108.838 16.5195 108.934 16.5959 109.031 16.6704C110.72 17.9609 111.741 19.6676 112.194 21.7355C113.202 26.3372 109.916 31.0816 105.27 31.7232C100.695 32.3552 96.6398 29.4855 95.6816 24.9373C94.8959 21.2076 97.0182 17.1266 100.492 15.6481C102.199 14.9213 103.949 14.7412 105.769 15.1173C106.382 15.2439 106.755 15.0381 106.855 14.5918C106.958 14.1285 106.663 13.7743 106.044 13.6386C104.114 13.2149 102.226 13.3582 100.257 14.1084ZM105.947 19.8299C105.501 18.7229 104.352 17.9499 103.093 17.9438C102.8 17.9424 102.617 17.8995 102.49 17.5961C102.332 17.2192 101.996 17.1045 101.616 17.2332C101.209 17.3714 101.019 17.7017 101.143 18.1018C101.245 18.4328 101.143 18.5854 100.914 18.7981C99.7441 19.883 99.5792 21.7486 100.545 22.9545C101.294 23.8897 102.354 24.0807 103.466 24.1197C104.057 24.1405 104.659 24.1079 105.238 24.208C106.421 24.4125 106.871 25.6572 106.152 26.6266C105.398 27.6431 104.005 27.4836 103.304 26.3005C103.005 25.7967 102.637 25.6378 102.24 25.8411C101.827 26.0527 101.722 26.5071 101.997 27.0261C102.59 28.1427 103.522 28.7513 104.779 28.7886C105.097 28.798 105.265 28.8524 105.413 29.1567C105.596 29.5344 105.955 29.651 106.349 29.4783C106.717 29.3169 106.885 29.0035 106.748 28.62C106.636 28.3084 106.749 28.1567 106.963 27.9585C108.285 26.7343 108.327 24.6497 107.049 23.4597C106.325 22.7858 105.416 22.6334 104.47 22.606C103.827 22.5874 103.179 22.5844 102.544 22.4934C101.961 22.41 101.575 22.0352 101.459 21.4264C101.303 20.6101 101.752 19.7974 102.51 19.5295C103.31 19.2469 104.136 19.5989 104.583 20.4126C104.863 20.9218 105.233 21.0947 105.637 20.9058C106.035 20.72 106.148 20.328 105.947 19.8299Z" fill="#2CABE1"/>
<path d="M129.363 33.4735C129.839 34.7058 130.298 35.8954 130.788 37.163C119.631 38.907 108.513 40.6449 97.3945 42.3828C97.3878 42.3525 97.381 42.3222 97.3743 42.2919C108.03 39.3544 118.685 36.417 129.363 33.4735Z" fill="#2CABE1"/>
<path d="M98.9773 40.2236C109.462 36.174 119.946 32.1245 130.464 28.0621C130.872 29.1183 131.273 30.1575 131.701 31.2639C120.785 34.2735 109.891 37.2773 98.9964 40.281C98.99 40.2618 98.9837 40.2427 98.9773 40.2236Z" fill="#2CABE1"/>
<path d="M77.1335 26.3516C76.5086 24.7339 75.8947 23.1462 75.2835 21.5573C75.2472 21.4629 75.2337 21.3597 75.2057 21.2444C75.3298 21.1809 75.432 21.1166 75.5426 21.0738C77.1024 20.4688 78.6633 19.8667 80.2248 19.2636C81.0397 21.5508 79.8823 24.9789 77.1335 26.3516Z" fill="#2CABE1"/>
<path d="M117.35 4.95703C119.023 4.31079 120.694 3.66527 122.404 3.00471C123.062 4.70684 123.715 6.39806 124.369 8.09065C121.795 8.89983 118.515 7.43955 117.35 4.95703Z" fill="#2CABE1"/>
<path d="M89.1564 42.317C87.4832 42.9633 85.8123 43.6087 84.1005 44.2698C83.4438 42.5697 82.7905 40.8781 82.1367 39.1855C84.701 38.3723 87.9525 39.8151 89.1564 42.317Z" fill="#2CABE1"/>
<path d="M126.235 27.9958C125.487 25.2337 126.927 21.9985 129.35 20.9551C130 22.6378 130.65 24.3199 131.312 26.0349C129.616 26.6902 127.946 27.335 126.235 27.9958Z" fill="#2CABE1"/>
<path d="M100.257 14.1091C102.226 13.3588 104.114 13.2155 106.045 13.6392C106.663 13.775 106.959 14.1291 106.855 14.5924C106.755 15.0387 106.382 15.2445 105.769 15.118C103.95 14.7419 102.2 14.922 100.492 15.6487C97.0186 17.1272 94.8963 21.2082 95.682 24.938C96.6402 29.4861 100.695 32.3558 105.271 31.7239C109.916 31.0822 113.202 26.3378 112.194 21.7361C111.741 19.6682 110.72 17.9615 109.032 16.671C108.934 16.5965 108.838 16.5201 108.744 16.4416C108.274 16.0506 108.175 15.6291 108.465 15.2663C108.748 14.9122 109.198 14.8484 109.623 15.2372C110.458 16.0021 111.366 16.7357 112.019 17.6451C115.657 22.7159 113.72 29.8652 108.068 32.4315C103.237 34.6247 97.4202 32.5689 95.1149 27.8678C92.4121 22.3558 95.0914 16.3049 99.9534 14.2514C100.098 14.1903 100.238 14.1182 100.257 14.1091Z" fill="black" stroke="black"/>
<path d="M105.949 19.8308C106.15 20.3288 106.037 20.7208 105.639 20.9066C105.234 21.0955 104.865 20.9226 104.585 20.4134C104.137 19.5997 103.311 19.2477 102.511 19.5304C101.753 19.7982 101.304 20.6109 101.46 21.4272C101.577 22.0361 101.963 22.4108 102.545 22.4943C103.18 22.5853 103.829 22.5882 104.472 22.6068C105.417 22.6342 106.326 22.7867 107.05 23.4605C108.328 24.6505 108.287 26.7351 106.964 27.9593C106.75 28.1575 106.638 28.3093 106.749 28.6208C106.886 29.0044 106.719 29.3177 106.35 29.4791C105.957 29.6518 105.597 29.5352 105.414 29.1576C105.267 28.8533 105.099 28.7989 104.78 28.7894C103.523 28.7521 102.591 28.1435 101.999 27.0269C101.723 26.5079 101.828 26.0536 102.241 25.842C102.639 25.6386 103.006 25.7975 103.305 26.3013C104.006 27.4845 105.399 27.644 106.153 26.6274C106.872 25.6581 106.422 24.4133 105.239 24.2088C104.66 24.1087 104.059 24.1414 103.467 24.1206C102.356 24.0815 101.296 23.8905 100.546 22.9554C99.5804 21.7494 99.7454 19.8838 100.915 18.7989C101.145 18.5863 101.246 18.4337 101.144 18.1026C101.021 17.7025 101.21 17.3722 101.617 17.2341C101.997 17.1054 102.333 17.22 102.491 17.5969C102.618 17.9004 102.801 17.9432 103.094 17.9446C104.353 17.9507 105.502 18.7237 105.949 19.8308Z" fill="black" stroke="black"/>
<path d="M73.396 20.808C73.498 20.3573 73.7919 20.1102 74.2135 19.9475C90.2322 13.7661 106.249 7.57855 122.266 1.39363C123.052 1.09004 123.36 1.23651 123.672 2.04237C126.725 9.94618 129.778 17.8503 132.831 25.7544C133.221 26.7639 133.143 26.9441 132.136 27.3874C132.075 27.4141 132.02 27.4527 131.912 27.5139C132.256 28.4042 132.596 29.2853 132.937 30.1664C133.082 30.5436 133.237 30.9175 133.371 31.2988C133.613 31.986 133.403 32.3632 132.705 32.5511C132.101 32.7136 131.5 32.8894 130.832 33.0779C131.139 33.8717 131.428 34.6211 131.717 35.3705C131.964 36.01 132.217 36.6476 132.457 37.2897C132.726 38.0081 132.51 38.4075 131.759 38.5268C128.227 39.0879 124.694 39.6406 121.16 40.1928C110.75 41.8197 100.339 43.4451 89.9285 45.0707C87.9808 45.3748 86.035 45.6925 84.0828 45.9653C83.7526 46.0114 83.3943 45.8602 83.049 45.8002C79.8313 37.4694 76.6136 29.1387 73.396 20.808ZM124.782 28.5727C124.745 28.4053 124.716 28.2883 124.692 28.1704C123.987 24.7125 125.448 21.4121 128.478 19.6667C128.766 19.5007 128.766 19.3464 128.661 19.0777C127.477 16.031 126.298 12.9826 125.131 9.92941C125.008 9.60976 124.861 9.57349 124.543 9.63479C121.467 10.2279 118.89 9.31546 116.831 6.94069C116.458 6.51061 116.169 6.00699 115.846 5.54309C104.465 9.93885 93.102 14.3276 81.7249 18.7219C81.75 18.8374 81.7685 18.9208 81.7864 19.0043C82.5384 22.5156 81.1072 25.808 78.0219 27.6081C77.6917 27.8008 77.7599 27.9853 77.8624 28.2496C79.0314 31.2644 80.1988 34.2799 81.3545 37.2999C81.4752 37.6153 81.5943 37.7167 81.9617 37.6422C84.7107 37.0849 87.1252 37.7882 89.1357 39.7607C89.7258 40.3397 90.1817 41.0568 90.7152 41.731C102.032 37.3599 113.382 32.976 124.782 28.5727ZM129.363 33.4722C118.685 36.4157 108.03 39.3531 97.3742 42.2906C97.3809 42.3209 97.3876 42.3512 97.3944 42.3815C108.512 40.6436 119.631 38.9058 130.788 37.1618C130.298 35.8941 129.838 34.7045 129.363 33.4722ZM98.9774 40.2244C98.9837 40.2435 98.9901 40.2626 98.9965 40.2818C109.891 37.278 120.785 34.2743 131.701 31.2647C131.273 30.1583 130.872 29.1191 130.464 28.0629C119.946 32.1253 109.462 36.1748 98.9774 40.2244ZM77.1327 26.3515C79.8816 24.9789 81.039 21.5508 80.2241 19.2635C78.6626 19.8666 77.1017 20.4687 75.5419 21.0737C75.4313 21.1166 75.3291 21.1808 75.205 21.2444C75.233 21.3597 75.2465 21.4628 75.2828 21.5572C75.894 23.1461 76.5079 24.7339 77.1327 26.3515ZM117.35 4.95742C118.515 7.43995 121.795 8.90022 124.369 8.09105C123.715 6.39846 123.062 4.70723 122.404 3.0051C120.694 3.66567 119.023 4.31119 117.35 4.95742ZM89.1558 42.3173C87.9519 39.8154 84.7004 38.3725 82.1361 39.1858C82.7898 40.8784 83.4432 42.57 84.0999 44.2701C85.8117 43.609 87.4826 42.9636 89.1558 42.3173ZM126.235 27.9947C127.946 27.3339 129.616 26.6891 131.312 26.0338C130.65 24.3189 130 22.6367 129.35 20.954C126.927 21.9974 125.487 25.2327 126.235 27.9947Z" fill="black" stroke="black"/>
</svg>
