<svg width="95" height="95" viewBox="0 0 95 95" fill="none" xmlns="http://www.w3.org/2000/svg">
<path d="M45 46.5C45 36.2994 36.7006 28 26.5 28C16.2994 28 8 36.2994 8 46.5C8 56.7006 16.2994 65 26.5 65C36.7006 65 45 56.7006 45 46.5Z" fill="#2CABE1"/>
<path d="M31.1719 53.4375H28.2031V44.5312H31.1719V41.5625H22.2656V44.5312H25.2344V53.4375H22.2656V56.4062H31.1719V53.4375Z" fill="black"/>
<path d="M46.0156 46.0156C46.0156 35.3756 37.3588 26.7188 26.7188 26.7188C16.0787 26.7188 7.42188 35.3756 7.42188 46.0156C7.42188 56.6556 16.0787 65.3125 26.7188 65.3125C37.3588 65.3125 46.0156 56.6556 46.0156 46.0156ZM10.3906 46.0156C10.3906 37.0129 17.716 29.6875 26.7188 29.6875C35.7215 29.6875 43.0469 37.0129 43.0469 46.0156C43.0469 55.0184 35.7215 62.3438 26.7188 62.3438C17.716 62.3438 10.3906 55.0184 10.3906 46.0156Z" fill="black"/>
<path d="M25.2344 35.625H28.2031V38.5938H25.2344V35.625Z" fill="black"/>
<path d="M87.5781 7.42188H50.353C48.2852 3.85344 44.4303 1.48438 40.0781 1.48438C35.6636 1.48438 31.8131 3.90984 29.7662 7.49461C28.4852 6.50305 26.9058 5.9375 25.2344 5.9375C21.142 5.9375 17.8125 9.26695 17.8125 13.3594C17.8125 13.4291 17.8244 13.4974 17.8259 13.5657C15.2653 14.2248 13.3594 16.533 13.3594 19.2969C13.3594 20.9831 14.0689 22.5002 15.2089 23.5867C7.07156 27.7786 1.48438 36.2484 1.48438 46.0156C1.48438 57.3473 8.99383 66.9557 19.2969 70.1323V87.5781C19.2969 90.8527 21.9598 93.5156 25.2344 93.5156H28.2031C31.4777 93.5156 34.1406 90.8527 34.1406 87.5781V70.1323C36.2559 69.4806 38.239 68.538 40.0781 67.3847V87.5781C40.0781 90.8527 42.7411 93.5156 46.0156 93.5156H87.5781C90.8527 93.5156 93.5156 90.8527 93.5156 87.5781V13.3594C93.5156 10.0848 90.8527 7.42188 87.5781 7.42188ZM51.9531 10.3906H87.5781C89.2154 10.3906 90.5469 11.7221 90.5469 13.3594V19.2969H59.2251C59.323 18.8174 59.375 18.3202 59.375 17.8125C59.375 13.7201 56.0455 10.3906 51.9531 10.3906C51.824 10.3906 51.7037 10.4218 51.5761 10.4292C51.5731 10.4159 51.5687 10.404 51.5657 10.3906H51.9531ZM16.3281 19.2969C16.3281 17.6596 17.6596 16.3281 19.2969 16.3281C20.14 16.3281 20.9475 16.6888 21.5101 17.3182L23.7218 15.338C22.9425 14.4667 21.9198 13.8745 20.808 13.5791C20.805 13.5048 20.7812 13.4336 20.7812 13.3594C20.7812 10.9042 22.7792 8.90625 25.2344 8.90625C26.5391 8.90625 27.7341 9.49555 28.5742 10.4663C28.3412 11.3941 28.2031 12.3604 28.2031 13.3594H31.1719C31.1719 8.44758 35.1663 4.45312 40.0781 4.45312C44.1973 4.45312 47.7004 7.28531 48.683 11.1833C46.2338 12.3975 44.5312 14.9002 44.5312 17.8125H47.5C47.5 15.3573 49.498 13.3594 51.9531 13.3594C54.4083 13.3594 56.4062 15.3573 56.4062 17.8125C56.4062 20.2677 54.4083 22.2656 51.9531 22.2656H35.1634C32.5182 21.3216 29.683 20.7812 26.7188 20.7812C23.8613 20.7812 21.1227 21.2815 18.5591 22.1617C17.2544 21.8277 16.3281 20.6714 16.3281 19.2969ZM4.45312 46.0156C4.45312 33.7384 14.4415 23.75 26.7188 23.75C38.996 23.75 48.9844 33.7384 48.9844 46.0156C48.9844 58.2929 38.996 68.2812 26.7188 68.2812C14.4415 68.2812 4.45312 58.2929 4.45312 46.0156ZM31.1719 87.5781C31.1719 89.2154 29.8404 90.5469 28.2031 90.5469H25.2344C23.5971 90.5469 22.2656 89.2154 22.2656 87.5781V70.8329C23.7144 71.0912 25.1973 71.25 26.7188 71.25C28.2402 71.25 29.7231 71.0912 31.1719 70.8329V87.5781ZM50.2995 54.9219H84.6094V51.9531H51.2184C51.4544 50.9823 51.6429 49.9952 51.7631 48.9844H72.7344V28.2031H48.9844V34.1659C47.0725 30.5885 44.3249 27.5248 41.0014 25.2344H51.9531C54.3682 25.2344 56.4968 24.0573 57.852 22.2656H90.5469V72.7344H43.0469V65.2205C46.2665 62.4788 48.7751 58.9445 50.2995 54.9219V54.9219ZM51.9531 46.0156V31.1719H69.7656V46.0156H51.9531ZM87.5781 90.5469H46.0156C44.3784 90.5469 43.0469 89.2154 43.0469 87.5781V75.7031H90.5469V87.5781C90.5469 89.2154 89.2154 90.5469 87.5781 90.5469Z" fill="black"/>
<path d="M66.7969 78.6719C64.3417 78.6719 62.3438 80.6698 62.3438 83.125C62.3438 85.5802 64.3417 87.5781 66.7969 87.5781C69.252 87.5781 71.25 85.5802 71.25 83.125C71.25 80.6698 69.252 78.6719 66.7969 78.6719ZM66.7969 84.6094C65.9775 84.6094 65.3125 83.9444 65.3125 83.125C65.3125 82.3056 65.9775 81.6406 66.7969 81.6406C67.6162 81.6406 68.2812 82.3056 68.2812 83.125C68.2812 83.9444 67.6162 84.6094 66.7969 84.6094Z" fill="black"/>
<path d="M75.7031 28.2031H84.6094V31.1719H75.7031V28.2031Z" fill="black"/>
<path d="M75.7031 34.1406H78.6719V37.1094H75.7031V34.1406Z" fill="black"/>
<path d="M81.6406 34.1406H84.6094V37.1094H81.6406V34.1406Z" fill="black"/>
<path d="M75.7031 40.0781H84.6094V43.0469H75.7031V40.0781Z" fill="black"/>
<path d="M75.7031 46.0156H84.6094V48.9844H75.7031V46.0156Z" fill="black"/>
<path d="M48.9844 57.8906H84.6094V60.8594H48.9844V57.8906Z" fill="black"/>
<path d="M81.6406 63.8281H84.6094V66.7969H81.6406V63.8281Z" fill="black"/>
<path d="M75.7031 63.8281H78.6719V66.7969H75.7031V63.8281Z" fill="black"/>
<path d="M48.9844 63.8281H72.7344V66.7969H48.9844V63.8281Z" fill="black"/>
</svg>
