<svg width="103" height="108" viewBox="0 0 103 108" fill="none" xmlns="http://www.w3.org/2000/svg">
<path d="M18.6875 20.875H67.5625C72.517 20.8807 77.2669 22.8514 80.7703 26.3547C84.2736 29.8581 86.2443 34.608 86.25 39.5625V88.4375C86.2443 93.392 84.2736 98.1419 80.7703 101.645C77.2669 105.149 72.517 107.119 67.5625 107.125H18.6875C13.733 107.119 8.98309 105.149 5.47974 101.645C1.97639 98.1419 0.00570679 93.392 0 88.4375V39.5625C0.00570679 34.608 1.97639 29.8581 5.47974 26.3547C8.98309 22.8514 13.733 20.8807 18.6875 20.875ZM2.875 88.4375C2.87975 92.6298 4.54724 96.649 7.51163 99.6134C10.476 102.578 14.4952 104.245 18.6875 104.25H67.5625C71.7548 104.245 75.774 102.578 78.7384 99.6134C81.7028 96.649 83.3702 92.6298 83.375 88.4375V39.5625C83.3702 35.3702 81.7028 31.351 78.7384 28.3866C75.774 25.4222 71.7548 23.7548 67.5625 23.75H18.6875C14.4952 23.7548 10.476 25.4222 7.51163 28.3866C4.54724 31.351 2.87975 35.3702 2.875 39.5625V88.4375Z" fill="black"/>
<path d="M43.125 94.1875H48.875V91.3125H51.75V95.625C51.75 96.0062 51.5986 96.3719 51.329 96.6415C51.0594 96.9111 50.6937 97.0625 50.3125 97.0625H41.6875C41.3063 97.0625 40.9406 96.9111 40.671 96.6415C40.4014 96.3719 40.25 96.0062 40.25 95.625V91.3125H43.125V94.1875Z" fill="black"/>
<path d="M37.9134 88.7512L45.1009 83.0012C45.3563 82.7981 45.673 82.6875 45.9993 82.6875C46.3256 82.6875 46.6423 82.7981 46.8977 83.0012L54.0852 88.7512C54.3831 88.9895 54.5741 89.3364 54.6162 89.7155C54.6583 90.0946 54.5481 90.4749 54.3098 90.7727C54.0716 91.0706 53.7247 91.2616 53.3456 91.3037C52.9665 91.3458 52.5862 91.2356 52.2884 90.9973L45.9993 85.9647L39.7102 90.9973C39.4124 91.2356 39.0321 91.3458 38.653 91.3037C38.2739 91.2616 37.927 91.0706 37.6887 90.7727C37.4505 90.4749 37.3403 90.0946 37.3824 89.7155C37.4245 89.3364 37.6155 88.9895 37.9134 88.7512Z" fill="black"/>
<path d="M16.5312 88.5148V88.4375C16.5312 85.2664 18.7885 82.6875 21.5625 82.6875C24.3365 82.6875 26.5938 85.2664 26.5938 88.4375V88.5148C27.5924 88.6914 28.498 89.2112 29.1541 89.9845C29.8103 90.7578 30.1758 91.7359 30.1875 92.75C30.1875 95.128 28.1998 97.0625 25.7557 97.0625H17.3693C14.9256 97.0625 12.9375 95.128 12.9375 92.75C12.9492 91.7359 13.3147 90.7578 13.9709 89.9845C14.627 89.2112 15.5326 88.6914 16.5312 88.5148ZM17.3693 94.1875H25.7557C26.6133 94.1875 27.3125 93.5431 27.3125 92.75C27.3125 91.9569 26.6133 91.3125 25.7557 91.3125C25.6012 91.3165 25.448 91.3425 25.3009 91.3898C25.0501 91.4622 24.7843 91.4649 24.532 91.3977C24.2798 91.3305 24.0506 91.1959 23.8691 91.0083C23.6876 90.8207 23.5605 90.5872 23.5017 90.3328C23.4428 90.0785 23.4543 89.813 23.5349 89.5647C23.6549 89.2009 23.717 88.8205 23.7188 88.4375C23.7188 86.8793 22.7319 85.5625 21.5625 85.5625C20.3931 85.5625 19.4062 86.8793 19.4062 88.4375C19.408 88.8205 19.4701 89.2009 19.5901 89.5647C19.6707 89.813 19.6822 90.0785 19.6233 90.3328C19.5645 90.5872 19.4374 90.8207 19.2559 91.0083C19.0744 91.1959 18.8452 91.3305 18.593 91.3977C18.3407 91.4649 18.0749 91.4622 17.8241 91.3898C17.677 91.3425 17.5238 91.3165 17.3693 91.3125C16.5117 91.3125 15.8125 91.9569 15.8125 92.75C15.8125 93.5431 16.5117 94.1875 17.3693 94.1875Z" fill="black"/>
<path d="M60.375 82.6875C63.8051 82.6913 67.0936 84.0555 69.519 86.481C71.9445 88.9064 73.3087 92.1949 73.3125 95.625C73.3125 96.0062 73.161 96.3719 72.8915 96.6415C72.6219 96.9111 72.2562 97.0625 71.875 97.0625C68.4449 97.0587 65.1564 95.6945 62.731 93.269C60.3055 90.8436 58.9413 87.5551 58.9375 84.125C58.9375 83.7438 59.0889 83.3781 59.3585 83.1085C59.6281 82.8389 59.9938 82.6875 60.375 82.6875ZM70.3168 94.0668C69.9839 91.963 68.9935 90.0187 67.4874 88.5126C65.9813 87.0065 64.037 86.0161 61.9332 85.6832C62.2661 87.787 63.2565 89.7313 64.7626 91.2374C66.2687 92.7435 68.213 93.7339 70.3168 94.0668Z" fill="black"/>
<path d="M24.4375 48.1875C25.2904 48.1875 26.1242 48.4404 26.8334 48.9143C27.5426 49.3881 28.0953 50.0617 28.4217 50.8497C28.7481 51.6377 28.8335 52.5048 28.6671 53.3413C28.5007 54.1779 28.09 54.9463 27.4869 55.5494C26.8838 56.1525 26.1154 56.5632 25.2788 56.7296C24.4423 56.896 23.5752 56.8106 22.7872 56.4842C21.9992 56.1578 21.3257 55.6051 20.8518 54.8959C20.3779 54.1867 20.125 53.3529 20.125 52.5C20.1263 51.3566 20.581 50.2605 21.3895 49.452C22.198 48.6435 23.2941 48.1888 24.4375 48.1875ZM24.4375 53.9375C24.7218 53.9375 24.9997 53.8532 25.2361 53.6952C25.4725 53.5373 25.6568 53.3128 25.7656 53.0501C25.8744 52.7874 25.9028 52.4984 25.8474 52.2196C25.7919 51.9407 25.655 51.6846 25.454 51.4835C25.2529 51.2825 24.9968 51.1456 24.7179 51.0901C24.4391 51.0347 24.1501 51.0631 23.8874 51.1719C23.6247 51.2807 23.4002 51.465 23.2423 51.7014C23.0843 51.9378 23 52.2157 23 52.5C23.0002 52.8812 23.1518 53.2467 23.4213 53.5162C23.6908 53.7857 24.0563 53.9373 24.4375 53.9375Z" fill="black"/>
<path d="M24.4375 45.3125C23.6436 45.3125 23 44.6689 23 43.875C23 43.0811 23.6436 42.4375 24.4375 42.4375C25.2314 42.4375 25.875 43.0811 25.875 43.875C25.875 44.6689 25.2314 45.3125 24.4375 45.3125Z" fill="black"/>
<path d="M24.4375 62.5625C23.6436 62.5625 23 61.9189 23 61.125C23 60.3311 23.6436 59.6875 24.4375 59.6875C25.2314 59.6875 25.875 60.3311 25.875 61.125C25.875 61.9189 25.2314 62.5625 24.4375 62.5625Z" fill="black"/>
<path d="M24.4375 39.5625C23.6436 39.5625 23 38.9189 23 38.125C23 37.3311 23.6436 36.6875 24.4375 36.6875C25.2314 36.6875 25.875 37.3311 25.875 38.125C25.875 38.9189 25.2314 39.5625 24.4375 39.5625Z" fill="black"/>
<path d="M24.4375 68.3125C23.6436 68.3125 23 67.6689 23 66.875C23 66.0811 23.6436 65.4375 24.4375 65.4375C25.2314 65.4375 25.875 66.0811 25.875 66.875C25.875 67.6689 25.2314 68.3125 24.4375 68.3125Z" fill="black"/>
<path d="M17.25 28.0625H69C71.6677 28.0657 74.2253 29.1269 76.1117 31.0133C77.9981 32.8997 79.0593 35.4573 79.0625 38.125V75.5C79.0625 75.8812 78.911 76.2469 78.6415 76.5165C78.3719 76.786 78.0062 76.9375 77.625 76.9375H8.625C8.24375 76.9375 7.87811 76.786 7.60854 76.5165C7.33895 76.2469 7.1875 75.8812 7.1875 75.5V38.125C7.19073 35.4573 8.25193 32.8997 10.1383 31.0133C12.0247 29.1269 14.5823 28.0657 17.25 28.0625ZM10.0625 74.0625H76.1875V38.125C76.1853 36.2194 75.4273 34.3926 74.0799 33.0451C72.7324 31.6977 70.9056 30.9397 69 30.9375H17.25C15.3444 30.9397 13.5176 31.6977 12.1701 33.0451C10.8227 34.3926 10.0647 36.2194 10.0625 38.125V74.0625Z" fill="black"/>
<g clip-path="url(#clip0)">
<circle cx="63.125" cy="39" r="25.5" fill="white" stroke="black" stroke-width="3"/>
<path d="M87.6248 37C84.0185 37 80.6279 35.6085 78.0779 33.0816C73.2435 28.2915 72.7878 20.6662 77.0181 15.3443L87.6251 2L98.232 15.3443C102.462 20.6662 102.007 28.2915 97.1721 33.0818C94.6218 35.6085 91.2313 37 87.6248 37Z" fill="#2CABE1"/>
<path d="M58.6577 50.1127C58.8208 50.1812 58.9898 50.2135 59.1561 50.2135C59.6597 50.2135 60.1381 49.9165 60.3452 49.423L68.6929 29.5323C68.9685 28.876 68.6596 28.1204 68.0032 27.845C67.3464 27.5694 66.5911 27.8782 66.3157 28.5347L57.9679 48.4254C57.6925 49.0818 58.0013 49.8373 58.6577 50.1127Z" fill="black"/>
<path d="M61.8248 31.915C61.8248 29.1036 59.7511 26.8164 57.2024 26.8164C54.6537 26.8164 52.5801 29.1036 52.5801 31.915C52.5801 34.7265 54.6537 37.0137 57.2024 37.0137C59.7511 37.0137 61.8248 34.7263 61.8248 31.915ZM57.2024 34.4354C56.0752 34.4354 55.1582 33.3048 55.1582 31.9149C55.1582 30.525 56.0752 29.3944 57.2024 29.3944C58.3297 29.3944 59.2467 30.525 59.2467 31.9149C59.2467 33.3048 58.3297 34.4354 57.2024 34.4354Z" fill="black"/>
<path d="M69.1869 51.5664C71.7356 51.5664 73.8092 49.2792 73.8092 46.4678C73.8092 43.6563 71.7356 41.3691 69.1869 41.3691C66.6382 41.3691 64.5645 43.6563 64.5645 46.4678C64.5645 49.2792 66.6382 51.5664 69.1869 51.5664ZM69.1869 43.9473C70.3141 43.9473 71.2311 45.0779 71.2311 46.4678C71.2311 47.8576 70.3141 48.9883 69.1869 48.9883C68.0596 48.9883 67.1426 47.8576 67.1426 46.4678C67.1426 45.0779 68.0596 43.9473 69.1869 43.9473Z" fill="black"/>
<path d="M98.8928 14.2528L88.0545 0.49152C87.81 0.181113 87.4368 0 87.0417 0C86.6466 0 86.2734 0.181113 86.0291 0.49152L75.1906 14.2528C75.1135 14.3506 75.0379 14.4492 74.9637 14.5484C71.3164 12.788 67.272 11.8594 63.1953 11.8594C48.2687 11.8594 36.125 24.0031 36.125 38.9297C36.125 53.8563 48.2687 66 63.1953 66C68.2687 66 73.2151 64.5878 77.4995 61.9161C78.1037 61.5395 78.2879 60.7444 77.9113 60.1403C77.5346 59.5361 76.7395 59.3518 76.1354 59.7286C72.2605 62.1447 67.7859 63.4219 63.1953 63.4219C49.6902 63.4219 38.7031 52.4348 38.7031 38.9297C38.7031 25.4246 49.6902 14.4375 63.1953 14.4375C66.7919 14.4375 70.3599 15.2358 73.5933 16.7509C70.6848 22.4675 71.6861 29.5648 76.3748 34.2534C79.224 37.1027 83.0122 38.6719 87.0416 38.6719C87.2562 38.6719 87.47 38.6665 87.6832 38.6576C87.6843 38.7483 87.6875 38.8392 87.6875 38.9297C87.6875 43.5542 86.3926 48.0572 83.943 51.9515C83.564 52.5542 83.7453 53.3499 84.3479 53.729C84.5611 53.8632 84.7985 53.9272 85.0329 53.9272C85.4613 53.9272 85.8804 53.7137 86.1254 53.3243C88.834 49.0181 90.2656 44.0406 90.2656 38.9297C90.2656 38.7303 90.2606 38.5298 90.2562 38.3296C93.0586 37.7244 95.6329 36.329 97.7085 34.2535C103.11 28.8522 103.619 20.2537 98.8928 14.2528ZM87.0416 36.0938C83.7008 36.0938 80.56 34.7928 78.1978 32.4305C73.7195 27.9523 73.2973 20.8234 77.2161 15.848H77.2159L87.0418 3.37257L96.8674 15.848C100.786 20.8234 100.364 27.9523 95.8857 32.4306C93.5232 34.7928 90.3824 36.0938 87.0416 36.0938Z" fill="black"/>
<path d="M81.4141 55.8809C81.0737 55.8809 80.7412 56.0188 80.5027 56.2586C80.2631 56.4983 80.125 56.8309 80.125 57.1699C80.125 57.5102 80.2629 57.8415 80.5027 58.0826C80.7425 58.3223 81.0739 58.459 81.4141 58.459C81.7531 58.459 82.0844 58.3223 82.3254 58.0826C82.5651 57.8415 82.7031 57.5102 82.7031 57.1699C82.7031 56.8309 82.5652 56.4983 82.3254 56.2586C82.0857 56.0188 81.7531 55.8809 81.4141 55.8809Z" fill="black"/>
</g>
<defs>
<clipPath id="clip0">
<rect width="66" height="66" fill="white" transform="translate(36.125)"/>
</clipPath>
</defs>
</svg>
