<svg width="94" height="128" viewBox="0 0 94 128" fill="none" xmlns="http://www.w3.org/2000/svg">
<rect x="3" y="53" width="39" height="10" fill="#2CABE1"/>
<path d="M62.0268 54.4263C62.4953 54.4263 62.964 54.2476 63.3215 53.8901C64.0366 53.175 64.0366 52.0156 63.3215 51.3008C60.3505 48.3296 56.3947 46.6934 52.1828 46.6934C47.9709 46.6934 44.0151 48.3296 41.0441 51.3008C40.329 52.0159 40.329 53.1753 41.0441 53.8901C41.7592 54.605 42.9186 54.6052 43.6335 53.8899C45.9128 51.6106 48.9489 50.3552 52.1828 50.3552C55.4167 50.3552 58.4526 51.6106 60.7321 53.8899C61.0895 54.2473 61.5583 54.4263 62.0268 54.4263Z" fill="black"/>
<path d="M56.7617 59.6912C57.2302 59.6912 57.6989 59.5125 58.0563 59.155C58.7714 58.4397 58.7714 57.2805 58.0563 56.5654C54.8178 53.3271 49.548 53.3271 46.3098 56.5654C45.5947 57.2808 45.5947 58.4399 46.3098 59.155C47.0248 59.8699 48.1843 59.8699 48.8991 59.155C50.7099 57.344 53.6559 57.344 55.4667 59.155C55.8244 59.5122 56.2932 59.6912 56.7617 59.6912Z" fill="black"/>
<path d="M52.1826 65.6074C53.1939 65.6074 54.0137 64.7876 54.0137 63.7764C54.0137 62.7651 53.1939 61.9453 52.1826 61.9453C51.1714 61.9453 50.3516 62.7651 50.3516 63.7764C50.3516 64.7876 51.1714 65.6074 52.1826 65.6074Z" fill="black"/>
<path d="M25.3811 115.598H19.0088C17.9976 115.598 17.1777 116.417 17.1777 117.429C17.1777 118.44 17.9976 119.26 19.0088 119.26H25.3811C26.3923 119.26 27.2122 118.44 27.2122 117.429C27.2122 116.417 26.3923 115.598 25.3811 115.598Z" fill="black"/>
<path d="M17.5381 59.8164H26.8494C27.8606 59.8164 28.6804 58.9968 28.6804 57.9854C28.6804 56.9739 27.8606 56.1543 26.8494 56.1543H17.5381C16.5269 56.1543 15.707 56.9739 15.707 57.9854C15.707 58.9968 16.5266 59.8164 17.5381 59.8164Z" fill="black"/>
<path fill-rule="evenodd" clip-rule="evenodd" d="M51.8682 13.0033C35.2856 13.2338 21.9231 26.9198 22.0808 43.5114C22.1025 45.7897 22.3813 48.0324 22.896 50.2064H4.8623C2.18115 50.2064 0 52.3878 0 55.0687V122.288C0 124.969 2.18115 127.151 4.8623 127.151H39.7517C42.4326 127.151 44.614 124.969 44.614 122.288V98.9767C46.2725 101.269 48.9673 102.764 52.0066 102.764H52.5896C57.1931 102.764 61.0088 99.3356 61.6226 94.8983C63.7861 94.6908 65.4841 92.8639 65.4841 90.6466V87.5539H66.6948C67.7061 87.5539 68.5259 86.7343 68.5259 85.7228C68.5259 84.7113 67.7061 83.8917 66.6948 83.8917H65.4841V80.1884H66.5168C68.5352 80.1884 70.3069 78.7562 70.73 76.7829L72.634 67.9008C73.0156 66.1205 73.8193 64.4979 74.9585 63.2079C80.4229 57.0182 83.1973 48.5177 82.3715 40.2201C81.6865 33.2062 78.6027 26.7177 73.5161 21.7016C67.7122 15.9791 60.0234 12.8842 51.8682 13.0033ZM74.0712 27.9999C73.1523 26.6918 72.1081 25.4569 70.9446 24.3095C65.8447 19.2799 59.0872 16.5668 51.9199 16.6649C37.3477 16.8676 25.605 28.8952 25.7434 43.4765C25.7654 45.7758 26.085 48.0336 26.6758 50.2062H39.7522C42.4333 50.2062 44.6145 52.3876 44.6145 55.0685V76.5263H66.5171C66.8201 76.5263 67.0859 76.3112 67.1494 76.015L69.0535 67.133C69.5669 64.7394 70.6594 62.5438 72.2134 60.7841C76.9674 55.3992 79.4167 47.8102 78.7324 40.6415C78.2786 35.9779 76.6082 31.6539 74.0417 27.9999H74.0712ZM52.5891 99.1022H52.0061C49.4353 99.1022 47.2754 97.3156 46.699 94.9191H57.8965C57.3201 97.3158 55.1602 99.1022 52.5891 99.1022ZM44.6138 87.5541H51.0886C52.0999 87.5541 52.9197 86.7345 52.9197 85.723C52.9197 84.7116 52.0999 83.892 51.0886 83.892H44.6138V80.1886H61.8215V83.892H59.7148C58.7036 83.892 57.8838 84.7116 57.8838 85.723C57.8838 86.7345 58.7036 87.5541 59.7148 87.5541H61.8215V90.6469C61.8215 90.9835 61.5476 91.2572 61.2112 91.2572H44.6138V87.5541ZM39.7515 53.8685C40.4131 53.8685 40.9517 54.4069 40.9517 55.0687V62.3353H34.4871C34.4082 62.3353 34.3306 62.3402 34.2543 62.35H26.0936C26.0173 62.3402 25.9397 62.3353 25.8608 62.3353H3.66211V55.0687C3.66211 54.4069 4.20044 53.8685 4.8623 53.8685H39.7515ZM35.1423 66.0121C35.2212 66.0121 35.2988 66.0072 35.3751 65.9975H40.9517V122.288C40.9517 122.95 40.4133 123.488 39.7515 123.488H4.8623C4.20044 123.488 3.66211 122.95 3.66211 122.288V65.9975H25.5983C25.6393 66.0028 25.6807 66.0067 25.7225 66.0092C25.7584 66.0111 25.7946 66.0121 25.8311 66.0121H35.1423Z" fill="black"/>
<path d="M12.1592 59.8164C13.1704 59.8164 13.9902 58.9966 13.9902 57.9854C13.9902 56.9741 13.1704 56.1543 12.1592 56.1543C11.1479 56.1543 10.3281 56.9741 10.3281 57.9854C10.3281 58.9966 11.1479 59.8164 12.1592 59.8164Z" fill="black"/>
<path d="M32.2275 59.8164C33.2388 59.8164 34.0586 58.9966 34.0586 57.9854C34.0586 56.9741 33.2388 56.1543 32.2275 56.1543C31.2163 56.1543 30.3965 56.9741 30.3965 57.9854C30.3965 58.9966 31.2163 59.8164 32.2275 59.8164Z" fill="black"/>
<path d="M28.2227 75.3713C27.3679 74.831 26.2368 75.0862 25.6965 75.9409C25.1562 76.7959 25.4114 77.9267 26.2661 78.467C28.499 79.8782 29.832 82.2932 29.832 84.9272C29.832 89.1387 26.4058 92.5649 22.1943 92.5649C17.9829 92.5649 14.5566 89.1387 14.5566 84.9272C14.5566 82.2932 15.8896 79.8782 18.1226 78.467C18.9773 77.9267 19.2324 76.7959 18.6921 75.9409C18.1521 75.0864 17.0215 74.831 16.166 75.3713C12.865 77.4573 10.8945 81.0298 10.8945 84.9272C10.8945 91.158 15.9636 96.2271 22.1943 96.2271C28.425 96.2271 33.4941 91.158 33.4941 84.9272C33.4941 81.0298 31.5234 77.4575 28.2227 75.3713Z" fill="black"/>
<path d="M22.1943 87.395C23.2056 87.395 24.0254 86.5754 24.0254 85.564V74.999C24.0254 73.9875 23.2056 73.168 22.1943 73.168C21.1831 73.168 20.3633 73.9875 20.3633 74.999V85.564C20.3633 86.5754 21.1831 87.395 22.1943 87.395Z" fill="black"/>
<path d="M16.2314 97.9062C13.8152 97.9062 11.7563 99.4602 10.998 101.621H9.54785C8.53662 101.621 7.7168 102.44 7.7168 103.452C7.7168 104.463 8.53662 105.283 9.54785 105.283H10.998C11.7561 107.443 13.8152 108.997 16.2314 108.997C18.6477 108.997 20.7065 107.443 21.4646 105.283H34.7603C35.7715 105.283 36.5913 104.463 36.5913 103.452C36.5913 102.44 35.7715 101.621 34.7603 101.621H21.4646C20.7065 99.4602 18.6477 97.9062 16.2314 97.9062ZM16.2314 105.335C15.1931 105.335 14.3481 104.49 14.3481 103.452C14.3481 102.413 15.1929 101.568 16.2314 101.568C17.2698 101.568 18.1145 102.413 18.1145 103.452C18.1145 104.49 17.2698 105.335 16.2314 105.335Z" fill="black"/>
<path d="M12.9854 42.5586H16.7019C17.7131 42.5586 18.533 41.739 18.533 40.7275C18.533 39.7161 17.7131 38.8965 16.7019 38.8965H12.9854C11.9741 38.8965 11.1543 39.7161 11.1543 40.7275C11.1543 41.739 11.9741 42.5586 12.9854 42.5586Z" fill="black"/>
<path d="M14.8066 28.5246L18.2988 29.7963C18.5056 29.8718 18.7173 29.9074 18.9253 29.9074C19.6731 29.9074 20.3752 29.4457 20.646 28.7023C20.9919 27.7519 20.5022 26.7014 19.552 26.3554L16.0598 25.0837C15.1094 24.7377 14.0588 25.2272 13.7127 26.1774C13.3665 27.1276 13.8565 28.1786 14.8066 28.5246Z" fill="black"/>
<path d="M21.1342 16.4716L23.9806 18.8615C24.3237 19.1496 24.7416 19.2902 25.1571 19.2902C25.6796 19.2902 26.1982 19.068 26.5605 18.6364C27.2109 17.862 27.11 16.7072 26.3356 16.0568L23.4892 13.6669C22.715 13.017 21.56 13.1173 20.9096 13.892C20.259 14.6664 20.3595 15.8212 21.1342 16.4716Z" fill="black"/>
<path d="M33.0593 10.5303C33.3984 11.1182 34.0141 11.4468 34.6469 11.4468C34.9572 11.4468 35.2719 11.3679 35.5602 11.2017C36.4362 10.6963 36.7368 9.57665 36.2314 8.70068L34.3745 5.4812C33.8691 4.60473 32.7492 4.30444 31.8735 4.80981C30.9975 5.31518 30.697 6.43481 31.2023 7.31079L33.0593 10.5303Z" fill="black"/>
<path d="M44.4409 5.80857C44.5971 6.69749 45.3698 7.32298 46.2421 7.32298C46.3474 7.32298 46.454 7.31394 46.5612 7.29515C47.5573 7.1201 48.2228 6.17088 48.0476 5.17478L47.4042 1.51438C47.2292 0.518535 46.2805 -0.146748 45.2839 0.0278121C44.2878 0.202861 43.6223 1.15208 43.7975 2.14817L44.4409 5.80857Z" fill="black"/>
<path d="M58.2369 7.3878C58.3449 7.40708 58.4523 7.41612 58.5582 7.41612C59.4296 7.41612 60.2018 6.79185 60.359 5.90415L61.007 2.24448C61.1832 1.24863 60.5189 0.298439 59.5231 0.122414C58.527 -0.0550766 57.577 0.610207 57.4008 1.60606L56.7528 5.26572C56.577 6.26157 57.2413 7.21177 58.2369 7.3878Z" fill="black"/>
<path d="M69.1744 11.471C69.4632 11.638 69.7784 11.7174 70.0896 11.7174C70.7217 11.7174 71.337 11.3895 71.6763 10.8031L73.5374 7.58602C74.0437 6.71053 73.7447 5.59041 72.8692 5.08407C71.9939 4.57821 70.8738 4.87679 70.3672 5.75203L68.5061 8.96908C67.9998 9.84456 68.2989 10.9647 69.1744 11.471Z" fill="black"/>
<path d="M83.7112 14.3119C83.0618 13.5365 81.907 13.4342 81.1318 14.0836L78.2825 16.4698C77.5071 17.119 77.405 18.274 78.0542 19.0492C78.4163 19.4815 78.9358 19.7047 79.459 19.7047C79.8738 19.7047 80.2908 19.5646 80.6338 19.2774L83.4832 16.8912C84.2583 16.242 84.3604 15.0873 83.7112 14.3119Z" fill="black"/>
<path d="M89.6451 29.0388C90.5958 28.6941 91.087 27.6438 90.7423 26.6931C90.3975 25.7427 89.3473 25.2522 88.3966 25.5962L84.9027 26.8633C83.952 27.208 83.4608 28.2583 83.8055 29.209C84.0755 29.9534 84.7782 30.416 85.5269 30.416C85.7342 30.416 85.9449 30.3804 86.1512 30.3059L89.6451 29.0388Z" fill="black"/>
<path d="M91.2847 38.8994L87.5679 38.8945C87.5671 38.8945 87.5662 38.8945 87.5654 38.8945C86.5552 38.8945 85.7356 39.7129 85.7344 40.7231C85.7332 41.7346 86.5518 42.5554 87.563 42.5566L91.2798 42.5615H91.2822C92.2925 42.5615 93.1121 41.7432 93.1133 40.7329C93.1148 39.7214 92.2959 38.9006 91.2847 38.8994Z" fill="black"/>
</svg>
