<svg width="105" height="112" viewBox="0 0 105 112" fill="none" xmlns="http://www.w3.org/2000/svg">
<path d="M17.2906 87.9219V88.0219H17.3906H30.7656H30.8656V87.9219V81.2344V81.1344H30.7656H17.3906H17.2906V81.2344V87.9219ZM30.8656 71.2031V71.1031H30.7656H17.3906H17.2906V71.2031V77.8906V77.9906H17.3906H30.7656H30.8656V77.8906V71.2031ZM32.4375 91.1656H15.7188C14.8495 91.1656 14.1469 90.4614 14.1469 89.5937V69.5312C14.1469 68.6635 14.8495 67.9594 15.7188 67.9594H32.4375C33.3068 67.9594 34.0094 68.6635 34.0094 69.5312V89.5937C34.0094 90.4614 33.3068 91.1656 32.4375 91.1656Z" fill="black" stroke="white" stroke-width="0.2"/>
<path d="M74.1344 87.9219V88.0219H74.2344H87.6094H87.7094V87.9219V81.2344V81.1344H87.6094H74.2344H74.1344V81.2344V87.9219ZM87.7094 71.2031V71.1031H87.6094H74.2344H74.1344V71.2031V77.8906V77.9906H74.2344H87.6094H87.7094V77.8906V71.2031ZM89.2812 91.1656H72.5625C71.6932 91.1656 70.9906 90.4614 70.9906 89.5937V69.5312C70.9906 68.6635 71.6932 67.9594 72.5625 67.9594H89.2812C90.1505 67.9594 90.8531 68.6635 90.8531 69.5312V89.5937C90.8531 90.4614 90.1505 91.1656 89.2812 91.1656Z" fill="black" stroke="white" stroke-width="0.2"/>
<path d="M44.2406 88.0219H47.3844V94.5094H44.2406V88.0219Z" fill="black" stroke="white" stroke-width="0.2"/>
<path d="M103.646 61.4938L90.5886 51.919C99.3024 43.4543 104.328 31.7779 104.328 19.3743C104.328 18.7407 103.97 18.1622 103.403 17.878L83.341 7.84672C82.8712 7.61099 82.3161 7.61099 81.8447 7.84672L61.7822 17.878C61.2171 18.1622 60.8593 18.7407 60.8593 19.3743C60.8593 23.457 61.4211 27.4561 62.461 31.2931L53.4897 24.7143C52.8978 24.2829 52.102 24.2829 51.5102 24.7143L20.7343 47.2829V42.7805C20.7343 41.8577 19.987 41.1087 19.0624 41.1087H9.03117C8.10662 41.1087 7.3593 41.8577 7.3593 42.7805V57.0901L1.35392 61.4938C0.772109 61.9218 0.529687 62.6759 0.755391 63.363C0.981094 64.0501 1.61975 64.5149 2.34367 64.5149H7.3593V101.296H5.68742C4.76287 101.296 4.01555 102.045 4.01555 102.968V109.656C4.01555 110.578 4.76287 111.327 5.68742 111.327H99.3124C100.237 111.327 100.984 110.578 100.984 109.656V102.968C100.984 102.045 100.237 101.296 99.3124 101.296H97.6405V64.5149H102.656C103.38 64.5149 104.019 64.0501 104.244 63.363C104.47 62.6759 104.228 61.9218 103.646 61.4938ZM82.5937 11.2122L100.971 20.4008C100.643 33.9681 93.8337 46.4938 82.5937 54.1443C71.3537 46.4938 64.5441 33.9681 64.2164 20.4008L82.5937 11.2122ZM52.4999 28.1349L64.3602 36.8337C67.7541 44.9874 73.4903 52.0962 81.079 57.1553L81.6674 57.5465C81.9467 57.7338 82.271 57.8274 82.5937 57.8274C82.9163 57.8274 83.2407 57.7338 83.5216 57.5465L84.1101 57.1553C85.4844 56.2391 86.7884 55.2427 88.039 54.1978L97.5486 61.1712H7.45125L52.4999 28.1349ZM10.703 44.4524H17.3905V49.7339L10.703 54.6375V44.4524ZM97.6405 107.984H7.3593V104.64H97.6405V107.984ZM64.203 101.296H40.7968V86.2493C40.7968 79.7959 46.0482 74.5462 52.4999 74.5462C58.9517 74.5462 64.203 79.7959 64.203 86.2493V101.296ZM94.2968 101.296H67.5468V86.2493C67.5468 77.9535 60.7974 71.2024 52.4999 71.2024C44.2024 71.2024 37.453 77.9535 37.453 86.2493V101.296H10.703V64.5149H94.2968V101.296Z" fill="black"/>
<path d="M30.4 20.403C30.492 16.6209 32.096 13.0334 34.8532 10.443C35.1881 10.1455 35.3295 9.68633 35.2198 9.25203C35.1102 8.81773 34.7678 8.48065 34.3319 8.3778C33.8959 8.27495 33.439 8.42347 33.1468 8.76297C29.9419 11.7974 28.088 15.9904 28 20.403C28.088 24.8156 29.9419 29.0085 33.1468 32.043C33.439 32.3825 33.8959 32.531 34.3319 32.4281C34.7678 32.3253 35.1102 31.9882 35.2198 31.5539C35.3295 31.1196 35.1881 30.6604 34.8532 30.363C32.096 27.7725 30.492 24.185 30.4 20.403V20.403Z" fill="black"/>
<path d="M38.3978 13.5069C38.1601 13.2952 37.848 13.1867 37.5302 13.2051C37.2125 13.2236 36.915 13.3676 36.7034 13.6053C33.0989 17.4206 33.0989 23.3861 36.7034 27.2013C36.9885 27.5216 37.4228 27.6654 37.8427 27.5786C38.2626 27.4919 38.6043 27.1877 38.7391 26.7806C38.8739 26.3736 38.7813 25.9256 38.4962 25.6053C35.7011 22.7005 35.7011 18.1061 38.4962 15.2013C38.7079 14.9636 38.8165 14.6515 38.798 14.3337C38.7795 14.016 38.6356 13.7185 38.3978 13.5069V13.5069Z" fill="black"/>
<path d="M42.0923 17.1996C41.6489 16.7073 40.8904 16.6676 40.3979 17.1108C39.3894 17.9054 38.8008 19.1185 38.8008 20.4024C38.8008 21.6864 39.3894 22.8994 40.3979 23.694C40.7149 23.991 41.1677 24.0935 41.5816 23.962C41.9956 23.8304 42.3062 23.4855 42.3937 23.06C42.4812 22.6346 42.332 22.195 42.0035 21.9108C41.5383 21.5411 41.2475 20.9948 41.2007 20.4024C41.2475 19.81 41.5383 19.2637 42.0035 18.894C42.4958 18.4506 42.5356 17.6921 42.0923 17.1996V17.1996Z" fill="black"/>
<path d="M24.4 20.4032C24.4 15.1232 26.7652 10.0208 31.24 5.66238C31.547 5.36228 31.6705 4.92121 31.5641 4.50532C31.4577 4.08943 31.1375 3.76191 30.7241 3.64612C30.3107 3.53033 29.867 3.64388 29.56 3.94398C24.616 8.76318 22 14.4548 22 20.4032C22 26.3516 24.616 32.0432 29.56 36.8624C30.0345 37.3263 30.7953 37.3177 31.2592 36.8432C31.7231 36.3687 31.7145 35.6079 31.24 35.144C26.7652 30.7856 24.4 25.6832 24.4 20.4032V20.4032Z" fill="black"/>
<path d="M18.4 20.4025C18.4 13.8097 21.1864 7.45928 26.4604 2.04248C26.7605 1.73509 26.8738 1.29094 26.7577 0.877351C26.6415 0.463758 26.3135 0.143552 25.8973 0.0373507C25.481 -0.0688506 25.0397 0.0550877 24.7396 0.362479C19.0228 6.24248 16 13.1725 16 20.4025C16 27.6325 19.0228 34.5625 24.7396 40.4425C25.2035 40.9177 25.9648 40.9268 26.44 40.4629C26.9152 39.999 26.9243 39.2377 26.4604 38.7625C21.1864 33.3457 18.4 26.9953 18.4 20.4025V20.4025Z" fill="black"/>
<path d="M101.2 20L82.5 11L64 20C64.3477 33.9047 70.5733 46.6592 82.5 54.5C94.4267 46.6592 100.852 33.9047 101.2 20Z" fill="#2CABE1"/>
<path d="M83.1993 17C78.1269 17 74 21.4708 74 26.9909C74.0195 28.2708 74.3705 29.5238 75.0186 30.6277C75.3248 31.1501 75.5871 31.6972 75.8025 32.2631C75.9455 32.6791 75.8083 33.1399 75.4612 33.41C74.8572 33.8928 74.5072 34.6253 74.5111 35.3986C74.5086 36.2482 74.9287 37.0435 75.6318 37.5205C75.8846 37.6922 76.0384 37.976 76.0443 38.2815V42.5535C76.0443 45.3716 78.1075 47.6643 80.6439 47.6643C83.1804 47.6643 85.2436 45.3716 85.2436 42.5535C85.2358 40.4487 86.1511 38.4463 87.7478 37.0749C90.7411 34.5773 92.4495 30.8639 92.3986 26.9659C92.3986 21.4708 88.2717 17 83.1993 17ZM87.0834 36.2985C85.2594 37.8638 84.2133 40.15 84.2214 42.5535C84.2214 44.8079 82.6161 46.6421 80.6439 46.6421C78.6717 46.6421 77.0664 44.8079 77.0664 42.5535V38.2815C77.0581 37.6485 76.7475 37.0577 76.2308 36.6921C75.7942 36.4069 75.5316 35.9201 75.5332 35.3986C75.5297 34.9284 75.745 34.4835 76.1158 34.1945C76.7963 33.6493 77.0561 32.7326 76.7628 31.9115C76.5275 31.2924 76.2408 30.6941 75.9058 30.1228C75.3426 29.1649 75.0381 28.077 75.0221 26.9659C75.0221 22.0346 78.6906 18.0221 83.1993 18.0221C87.7079 18.0221 91.3764 22.0346 91.3764 26.9659C91.4232 30.5644 89.8463 33.9925 87.0834 36.2985V36.2985Z" fill="black" stroke="black" stroke-width="0.8"/>
<path d="M83.1992 20.1992C80.8418 20.1992 78.8316 21.9956 78.0512 24.5065C78.0457 24.5215 78.0419 24.536 78.0376 24.5519C77.8146 25.2811 77.7004 26.0435 77.6992 26.811C77.6992 27.3565 77.6992 29.0247 78.6692 30.0669C78.8352 30.2392 79.099 30.2367 79.2622 30.0614C79.4253 29.8861 79.4276 29.6026 79.2673 29.4242C78.9198 29.0091 78.6966 28.4912 78.6269 27.9379C78.695 27.9333 78.7622 27.9274 78.8329 27.9274C80.7745 27.9265 82.3532 29.8356 82.3532 32.181C82.3532 32.3988 82.3435 32.6033 82.3278 32.8051C82.1172 33.0468 81.8932 33.2744 81.6569 33.4869C80.4249 34.5711 79.742 36.2171 79.8151 37.9265C79.8151 38.1775 80.0045 38.381 80.2381 38.381C80.4718 38.381 80.6611 38.1775 80.6611 37.9265C80.5884 36.4852 81.1617 35.0935 82.2034 34.1824C83.6959 32.9515 84.5401 31.0194 84.4683 28.9992C84.4683 26.1538 82.4759 23.8356 80.0266 23.8356C79.7453 23.8364 79.4647 23.8684 79.1895 23.931C79.9248 22.2539 81.4746 21.1628 83.1992 21.1083C85.7648 21.1083 87.8523 23.666 87.8523 26.8101C87.8856 29.287 86.8859 31.6499 85.1273 33.2515C85.0689 33.3056 85.0042 33.3638 84.934 33.4269C84.0922 34.1788 82.3413 35.7451 81.9327 39.6947C81.908 39.9435 82.0752 40.1671 82.3067 40.1947C82.3221 40.1971 82.3376 40.1986 82.3532 40.1992C82.5687 40.199 82.7495 40.0248 82.7732 39.7947C83.1442 36.2083 84.6599 34.8533 85.4746 34.1256C85.5495 34.0583 85.6184 33.9965 85.6802 33.9392C87.6272 32.1669 88.7344 29.5518 88.6984 26.8101C88.6984 23.1647 86.2314 20.1992 83.1992 20.1992V20.1992ZM80.0266 24.7447C82.0093 24.7447 83.6222 26.6538 83.6222 28.9992C83.6414 29.8593 83.4825 30.7132 83.1569 31.4992C82.8731 28.9719 81.0448 27.0174 78.8337 27.0174C78.736 27.0174 78.6421 27.0251 78.5478 27.0324C78.5478 26.9451 78.5478 26.8692 78.5478 26.8101C78.5479 26.2023 78.6288 25.5975 78.7881 25.0142C79.1803 24.8374 79.6013 24.7458 80.0266 24.7447V24.7447Z" fill="black" stroke="black" stroke-width="0.8"/>
</svg>
