<svg width="100" height="113" viewBox="0 0 100 113" fill="none" xmlns="http://www.w3.org/2000/svg">
<path d="M74.7258 52.8548C75.7337 52.8548 76.5484 52.0383 76.5484 51.0323V1.82258C76.5484 0.816516 75.7337 0 74.7258 0H1.82258C0.814694 0 0 0.816516 0 1.82258V111.177C0 112.185 0.814694 113 1.82258 113H56.5C56.7442 113 56.9812 112.951 57.2017 112.858C57.424 112.765 57.6245 112.63 57.7904 112.462L76.0107 94.242C76.1784 94.0743 76.3133 93.8757 76.4062 93.6533C76.4992 93.4328 76.5484 93.1958 76.5484 92.9516V61.9677C76.5484 60.9599 75.7337 60.1452 74.7258 60.1452C73.7179 60.1452 72.9032 60.9599 72.9032 61.9677V91.129H56.5C55.4921 91.129 54.6774 91.9437 54.6774 92.9516V109.355H3.64516V3.64516H72.9032V51.0323C72.9032 52.0383 73.7179 52.8548 74.7258 52.8548ZM70.3261 94.7742L58.3226 106.778V94.7742H70.3261Z" fill="black"/>
<path d="M9.1136 18.2265H38.2749C39.2828 18.2265 40.0975 17.41 40.0975 16.4039V9.1136C40.0975 8.10753 39.2828 7.29102 38.2749 7.29102H9.1136C8.10571 7.29102 7.29102 8.10753 7.29102 9.1136V16.4039C7.29102 17.41 8.10571 18.2265 9.1136 18.2265ZM10.9362 10.9362H36.4523V14.5813H10.9362V10.9362Z" fill="black"/>
<path d="M9.1136 27.3385H41.92C42.9279 27.3385 43.7426 26.522 43.7426 25.5159C43.7426 24.5099 42.9279 23.6934 41.92 23.6934H9.1136C8.10571 23.6934 7.29102 24.5099 7.29102 25.5159C7.29102 26.522 8.10571 27.3385 9.1136 27.3385Z" fill="black"/>
<path d="M9.1136 34.6295H41.92C42.9279 34.6295 43.7426 33.813 43.7426 32.807C43.7426 31.8009 42.9279 30.9844 41.92 30.9844H9.1136C8.10571 30.9844 7.29102 31.8009 7.29102 32.807C7.29102 33.813 8.10571 34.6295 9.1136 34.6295Z" fill="black"/>
<path d="M9.1136 41.9186H41.92C42.9279 41.9186 43.7426 41.1021 43.7426 40.096C43.7426 39.09 42.9279 38.2734 41.92 38.2734H9.1136C8.10571 38.2734 7.29102 39.09 7.29102 40.096C7.29102 41.1021 8.10571 41.9186 9.1136 41.9186Z" fill="black"/>
<path d="M67.4351 10.9355H49.2093C48.2014 10.9355 47.3867 11.7521 47.3867 12.7581C47.3867 13.7642 48.2014 14.5807 49.2093 14.5807H67.4351C68.443 14.5807 69.2577 13.7642 69.2577 12.7581C69.2577 11.7521 68.443 10.9355 67.4351 10.9355Z" fill="black"/>
<path d="M63.791 85.6614C66.8056 85.6614 69.2588 83.2082 69.2588 80.1936C69.2588 77.1791 66.8056 74.7259 63.791 74.7259C61.983 74.7259 60.3919 75.6171 59.395 76.9731L51.0056 74.4543C50.8598 71.5673 48.4868 69.2581 45.5652 69.2581C42.5507 69.2581 40.0975 71.7113 40.0975 74.7259C40.0975 74.9519 40.1376 75.1688 40.1649 75.3875L31.1249 79.9075C30.1407 78.9615 28.8102 78.371 27.3394 78.371C26.2203 78.371 25.1796 78.7119 24.3121 79.2914L17.9531 74.5236C18.1153 74.0078 18.2265 73.4701 18.2265 72.9033C18.2265 69.8887 15.7733 67.4355 12.7588 67.4355C9.74421 67.4355 7.29102 69.8887 7.29102 72.9033C7.29102 75.9178 9.74421 78.371 12.7588 78.371C13.8778 78.371 14.9185 78.0302 15.7861 77.4506L22.145 82.2185C21.9828 82.7343 21.8717 83.272 21.8717 83.8388C21.8717 86.8533 24.3249 89.3065 27.3394 89.3065C30.354 89.3065 32.8071 86.8533 32.8071 83.8388C32.8071 83.6128 32.767 83.3959 32.7397 83.1772L41.7797 78.6572C42.7639 79.6031 44.0944 80.1936 45.5652 80.1936C47.3732 80.1936 48.9643 79.3024 49.9613 77.9464L58.3506 80.4652C58.4964 83.3521 60.8694 85.6614 63.791 85.6614ZM63.791 78.371C64.7971 78.371 65.6136 79.1875 65.6136 80.1936C65.6136 81.1997 64.7971 82.0162 63.791 82.0162C62.785 82.0162 61.9684 81.1997 61.9684 80.1936C61.9684 79.1875 62.785 78.371 63.791 78.371ZM12.7588 74.7259C11.7527 74.7259 10.9362 73.9094 10.9362 72.9033C10.9362 71.8972 11.7527 71.0807 12.7588 71.0807C13.7648 71.0807 14.5813 71.8972 14.5813 72.9033C14.5813 73.9094 13.7648 74.7259 12.7588 74.7259ZM27.3394 85.6614C26.3333 85.6614 25.5168 84.8448 25.5168 83.8388C25.5168 82.8327 26.3333 82.0162 27.3394 82.0162C28.3455 82.0162 29.162 82.8327 29.162 83.8388C29.162 84.8448 28.3455 85.6614 27.3394 85.6614ZM45.5652 76.5485C44.5591 76.5485 43.7426 75.7319 43.7426 74.7259C43.7426 73.7198 44.5591 72.9033 45.5652 72.9033C46.5713 72.9033 47.3878 73.7198 47.3878 74.7259C47.3878 75.7319 46.5713 76.5485 45.5652 76.5485Z" fill="black"/>
<path d="M34.6292 94.7734C33.6213 94.7734 32.8066 95.5881 32.8066 96.596C32.8066 97.6039 33.6213 98.4186 34.6292 98.4186H49.2099C50.2178 98.4186 51.0324 97.6039 51.0324 96.596C51.0324 95.5881 50.2178 94.7734 49.2099 94.7734H34.6292Z" fill="black"/>
<path d="M9.1136 94.7734C8.10571 94.7734 7.29102 95.5881 7.29102 96.596C7.29102 97.6039 8.10571 98.4186 9.1136 98.4186H23.6942C24.7021 98.4186 25.5168 97.6039 25.5168 96.596C25.5168 95.5881 24.7021 94.7734 23.6942 94.7734H9.1136Z" fill="black"/>
<path d="M49.2099 105.71H34.6292C33.6213 105.71 32.8066 104.895 32.8066 103.887C32.8066 102.879 33.6213 102.064 34.6292 102.064H49.2099C50.2178 102.064 51.0324 102.879 51.0324 103.887C51.0324 104.895 50.2178 105.71 49.2099 105.71Z" fill="black"/>
<path d="M23.6942 105.71H9.1136C8.10571 105.71 7.29102 104.895 7.29102 103.887C7.29102 102.879 8.10571 102.064 9.1136 102.064H23.6942C24.7021 102.064 25.5168 102.879 25.5168 103.887C25.5168 104.895 24.7021 105.71 23.6942 105.71Z" fill="black"/>
<rect x="67.6152" y="19.2012" width="12.6803" height="3.90162" fill="#2CABE1"/>
<rect x="91.9434" y="25.1875" width="8.69088" height="3.90162" transform="rotate(42.4 91.9434 25.1875)" fill="#2CABE1"/>
<rect x="70.541" y="24.0781" width="6.82784" height="1.95081" fill="#2CABE1"/>
<rect x="89.6016" y="29.6543" width="6.82784" height="1.95081" transform="rotate(42.4 89.6016 29.6543)" fill="#2CABE1"/>
<circle cx="73.9544" cy="47.9759" r="21.9466" fill="#2CABE1"/>
<path d="M86.8282 66.7472C86.5122 66.2623 85.8631 66.1251 85.3782 66.4411C82.0267 68.6241 78.1309 69.7781 74.1123 69.7781C62.7151 69.7781 53.4427 60.5058 53.4427 49.1086C53.4427 44.9699 54.6612 40.977 56.9667 37.5609C57.2904 37.0813 57.164 36.43 56.6843 36.1063C56.2047 35.7825 55.5533 35.909 55.2295 36.3887C52.6898 40.1521 51.3471 44.5508 51.3471 49.1087C51.3471 55.1895 53.7151 60.9063 58.0149 65.2061C62.3146 69.506 68.0315 71.8739 74.1123 71.8739C78.5381 71.8739 82.8292 70.6025 86.5221 68.1972C87.0071 67.8814 87.1442 67.2321 86.8282 66.7472Z" fill="black"/>
<path d="M90.3482 63.57C89.935 63.1648 89.2716 63.1714 88.8663 63.5845L88.8315 63.6198C88.4239 64.0306 88.4265 64.694 88.8373 65.1017C89.0417 65.3045 89.3085 65.4057 89.5753 65.4057C89.8447 65.4057 90.1143 65.3024 90.3192 65.0959L90.3626 65.0519C90.7679 64.6386 90.7615 63.9753 90.3482 63.57Z" fill="black"/>
<path d="M94.5924 35.3988C94.7971 35.6034 95.0652 35.7057 95.3333 35.7057C95.6015 35.7057 95.8696 35.6033 96.0742 35.3988L97.8197 33.6534C99.0633 32.4095 99.0633 30.3857 97.8197 29.1419L94.079 25.4012C93.4764 24.7988 92.6753 24.4669 91.8233 24.4669C90.9712 24.4669 90.1701 24.7988 89.5676 25.4012L87.8222 27.1466C87.6257 27.343 87.5153 27.6096 87.5153 27.8875C87.5153 28.1653 87.6257 28.4319 87.8222 28.6284L88.3177 29.1239L87.0622 30.3793C84.3999 28.5302 81.3892 27.2831 78.1991 26.7082V24.9328H80.5044C81.083 24.9328 81.5522 24.4637 81.5522 23.885V19.2744C81.5522 18.6957 81.083 18.2266 80.5044 18.2266H67.7207C67.1421 18.2266 66.6729 18.6957 66.6729 19.2744V23.8849C66.6729 24.4636 67.1421 24.9327 67.7207 24.9327H70.026V26.7103C67.027 27.2541 64.1651 28.3962 61.5954 30.0907C61.1123 30.4093 60.9789 31.0591 61.2974 31.5424C61.6162 32.0255 62.2661 32.1589 62.7492 31.8403C66.1233 29.6153 70.0527 28.4392 74.1126 28.4392C85.5098 28.4392 94.7822 37.7115 94.7822 49.1088C94.7822 52.9738 93.709 56.7428 91.6787 60.0077C91.3732 60.4991 91.5238 61.1452 92.0153 61.4509C92.1875 61.558 92.3787 61.609 92.5676 61.609C92.9178 61.609 93.2599 61.4336 93.4584 61.1144C95.6956 57.5169 96.8779 53.3654 96.8779 49.1088C96.8779 44.4133 95.4647 39.9357 92.8417 36.1591L94.0972 34.9036L94.5924 35.3988ZM76.1033 26.4305C75.4449 26.3738 74.7811 26.3435 74.1124 26.3435C73.4451 26.3434 72.781 26.373 72.1215 26.4303V24.9328H76.1032L76.1033 26.4305ZM68.7685 22.8371V20.3223H79.4565V22.8371H68.7685ZM91.556 34.4805C91.1305 33.975 90.6826 33.4841 90.2097 33.0112C89.737 32.5384 89.2461 32.0905 88.7404 31.6649L89.7994 30.6059L92.6149 33.4214L91.556 34.4805ZM90.5405 28.3832L90.045 27.8878L91.0495 26.8834C91.2563 26.6766 91.531 26.5628 91.8233 26.5628C92.1156 26.5628 92.3904 26.6766 92.5971 26.8835L96.3378 30.624C96.7644 31.0507 96.7644 31.745 96.3378 32.1718L95.3333 33.1761L94.8394 32.6822L94.8379 32.6806L90.5405 28.3832Z" fill="black"/>
<path d="M74.1125 34.2571C73.5339 34.2571 73.0647 34.7262 73.0647 35.3049V37.6101C73.0647 38.1888 73.5338 38.6579 74.1125 38.6579C74.6911 38.6579 75.1603 38.1888 75.1603 37.6101V35.3049C75.1603 34.7262 74.6911 34.2571 74.1125 34.2571Z" fill="black"/>
<path d="M84.6137 38.6069C84.4189 38.412 84.1486 38.2999 83.873 38.2999C83.5974 38.2999 83.3271 38.412 83.1323 38.6069C82.9374 38.8018 82.8252 39.0721 82.8252 39.3477C82.8252 39.6243 82.9373 39.8936 83.1323 40.0885C83.3271 40.2834 83.5974 40.3955 83.873 40.3955C84.1486 40.3955 84.4189 40.2834 84.6137 40.0885C84.8086 39.8936 84.9207 39.6233 84.9207 39.3477C84.9207 39.0721 84.8087 38.8018 84.6137 38.6069Z" fill="black"/>
<path d="M87.9161 48.0609H85.6109C85.0323 48.0609 84.5631 48.53 84.5631 49.1087C84.5631 49.6874 85.0323 50.1565 85.6109 50.1565H87.9161C88.4947 50.1565 88.9639 49.6874 88.9639 49.1087C88.9639 48.53 88.4947 48.0609 87.9161 48.0609Z" fill="black"/>
<path d="M84.6137 58.1282C84.4189 57.9333 84.1486 57.8212 83.873 57.8212C83.5974 57.8212 83.3271 57.9333 83.1323 58.1282C82.9374 58.3231 82.8252 58.5935 82.8252 58.869C82.8252 59.1456 82.9373 59.416 83.1323 59.6098C83.3271 59.8058 83.5974 59.9168 83.873 59.9168C84.1486 59.9168 84.4189 59.8058 84.6137 59.6098C84.8086 59.4149 84.9207 59.1456 84.9207 58.869C84.9207 58.5935 84.8087 58.3242 84.6137 58.1282Z" fill="black"/>
<path d="M74.1125 59.5594C73.5339 59.5594 73.0647 60.0285 73.0647 60.6072V62.9125C73.0647 63.4912 73.5339 63.9603 74.1125 63.9603C74.6911 63.9603 75.1603 63.4912 75.1603 62.9125V60.6072C75.1603 60.0286 74.6911 59.5594 74.1125 59.5594Z" fill="black"/>
<path d="M65.0925 58.1282C64.8975 57.9333 64.6273 57.8212 64.3517 57.8212C64.0762 57.8212 63.8058 57.9333 63.6111 58.1282C63.4162 58.3231 63.3039 58.5935 63.3039 58.869C63.3039 59.1456 63.4161 59.4149 63.6111 59.6098C63.8058 59.8058 64.0762 59.9168 64.3517 59.9168C64.6273 59.9168 64.8976 59.8058 65.0925 59.6098C65.2874 59.4149 65.3995 59.1456 65.3995 58.869C65.3996 58.5935 65.2875 58.3231 65.0925 58.1282Z" fill="black"/>
<path d="M62.6138 48.0609H60.3085C59.73 48.0609 59.2607 48.53 59.2607 49.1087C59.2607 49.6874 59.73 50.1565 60.3085 50.1565H62.6138C63.1924 50.1565 63.6616 49.6874 63.6616 49.1087C63.6617 48.53 63.1925 48.0609 62.6138 48.0609Z" fill="black"/>
<path d="M65.0925 38.6069C64.8976 38.412 64.6273 38.2999 64.3517 38.2999C64.0762 38.2999 63.8058 38.412 63.6111 38.6069C63.4162 38.8018 63.3039 39.0721 63.3039 39.3477C63.3039 39.6233 63.4161 39.8936 63.6111 40.0885C63.8058 40.2834 64.0762 40.3955 64.3517 40.3955C64.6273 40.3955 64.8976 40.2834 65.0925 40.0885C65.2874 39.8936 65.3995 39.6233 65.3995 39.3477C65.3995 39.0721 65.2875 38.8018 65.0925 38.6069Z" fill="black"/>
<path d="M82.2934 40.9276C81.9523 40.5865 81.4225 40.5224 81.0099 40.7722L72.3605 46.0085C72.267 46.0616 72.136 46.1386 72.0473 46.2084C71.1419 46.855 70.5498 47.9137 70.5498 49.1086C70.5498 51.0732 72.148 52.6713 74.1124 52.6713C75.3027 52.6713 76.358 52.0839 77.0052 51.1843C77.0826 51.0884 77.1548 50.9626 77.2136 50.8589L82.4488 42.2111C82.6986 41.7986 82.6344 41.2688 82.2934 40.9276ZM75.4082 49.7944L75.3217 49.9373C75.057 50.3223 74.6139 50.5757 74.1123 50.5757C73.3035 50.5757 72.6454 49.9177 72.6454 49.1088C72.6454 48.6071 72.8989 48.1638 73.2842 47.8991L73.4262 47.8131C73.6311 47.7041 73.8644 47.6419 74.1122 47.6419C74.9211 47.6419 75.5792 48.2999 75.5792 49.1089C75.5792 49.3564 75.517 49.5896 75.4082 49.7944ZM77.0456 47.0899C76.7989 46.7325 76.4887 46.4223 76.1312 46.1756L78.4484 44.7728L77.0456 47.0899Z" fill="black"/>
<path d="M74.1123 30.9571C64.1034 30.9571 55.9605 39.0998 55.9605 49.1087C55.9605 59.1175 64.1033 67.2603 74.1123 67.2603C84.1212 67.2603 92.2639 59.1175 92.2639 49.1087C92.2639 39.0998 84.1211 30.9571 74.1123 30.9571ZM74.1123 65.1646C65.259 65.1646 58.0562 57.9619 58.0562 49.1087C58.0562 40.2554 65.2589 33.0527 74.1123 33.0527C82.9655 33.0527 90.1682 40.2554 90.1682 49.1087C90.1682 57.9619 82.9655 65.1646 74.1123 65.1646Z" fill="black"/>
<path d="M74.0148 26.0298C61.3428 26.0298 51.0332 36.3391 51.0332 49.0112C51.0332 61.6833 61.3426 71.9927 74.0148 71.9927C86.6871 71.9927 96.9964 61.6833 96.9964 49.0112C96.9964 36.3391 86.6869 26.0298 74.0148 26.0298ZM74.0148 69.3394C62.8059 69.3394 53.6865 60.2202 53.6865 49.0112C53.6865 37.8022 62.8057 28.683 74.0148 28.683C85.2238 28.683 94.343 37.8022 94.343 49.0112C94.343 60.2202 85.2238 69.3394 74.0148 69.3394Z" fill="black"/>
<path d="M59.561 32.9477C59.366 32.7528 59.0958 32.6406 58.8202 32.6406C58.5446 32.6406 58.2743 32.7528 58.0795 32.9477C57.8846 33.1425 57.7724 33.4129 57.7724 33.6884C57.7724 33.9651 57.8845 34.2343 58.0795 34.4292C58.2743 34.6241 58.5446 34.7362 58.8202 34.7362C59.0958 34.7362 59.3661 34.6241 59.561 34.4292C59.7559 34.2343 59.868 33.964 59.868 33.6884C59.868 33.413 59.756 33.1426 59.561 32.9477Z" fill="black"/>
<path d="M90.5405 28.3832V28.3832ZM90.5405 28.3832L90.045 27.8878L91.0495 26.8834C91.2563 26.6766 91.531 26.5628 91.8233 26.5628C92.1156 26.5628 92.3904 26.6766 92.5971 26.8835L96.3378 30.624C96.7644 31.0507 96.7644 31.745 96.3378 32.1718L95.3333 33.1761L94.8394 32.6822L94.8379 32.6806L90.5405 28.3832ZM86.8282 66.7472C86.5122 66.2623 85.8631 66.1251 85.3782 66.4411C82.0267 68.6241 78.1309 69.7781 74.1123 69.7781C62.7151 69.7781 53.4427 60.5058 53.4427 49.1086C53.4427 44.9699 54.6612 40.977 56.9667 37.5609C57.2904 37.0813 57.164 36.4301 56.6843 36.1063C56.2047 35.7825 55.5533 35.909 55.2295 36.3887C52.6898 40.1521 51.3471 44.5508 51.3471 49.1087C51.3471 55.1895 53.7151 60.9063 58.0149 65.2061C62.3146 69.506 68.0315 71.8739 74.1123 71.8739C78.5381 71.8739 82.8292 70.6025 86.5221 68.1972C87.0071 67.8814 87.1442 67.2321 86.8282 66.7472ZM90.3482 63.57C89.935 63.1648 89.2716 63.1714 88.8663 63.5845L88.8315 63.6198C88.4239 64.0306 88.4265 64.694 88.8373 65.1017C89.0417 65.3045 89.3085 65.4057 89.5753 65.4057C89.8447 65.4057 90.1143 65.3024 90.3192 65.0959L90.3626 65.0519C90.7679 64.6386 90.7615 63.9752 90.3482 63.57ZM94.5924 35.3988C94.7971 35.6034 95.0652 35.7057 95.3333 35.7057C95.6015 35.7057 95.8696 35.6033 96.0742 35.3988L97.8197 33.6534C99.0633 32.4095 99.0633 30.3857 97.8197 29.1419L94.079 25.4012C93.4764 24.7988 92.6753 24.4669 91.8233 24.4669C90.9712 24.4669 90.1701 24.7988 89.5676 25.4012L87.8222 27.1466C87.6257 27.343 87.5153 27.6096 87.5153 27.8875C87.5153 28.1653 87.6257 28.4319 87.8222 28.6284L88.3177 29.1239L87.0622 30.3793C84.3999 28.5302 81.3892 27.2831 78.1991 26.7082V24.9328H80.5044C81.083 24.9328 81.5522 24.4637 81.5522 23.885V19.2744C81.5522 18.6957 81.083 18.2266 80.5044 18.2266H67.7207C67.1421 18.2266 66.6729 18.6957 66.6729 19.2744V23.8849C66.6729 24.4636 67.1421 24.9327 67.7207 24.9327H70.026V26.7103C67.027 27.2541 64.1651 28.3962 61.5954 30.0907C61.1123 30.4093 60.9789 31.0591 61.2974 31.5424C61.6162 32.0255 62.2661 32.1589 62.7492 31.8403C66.1233 29.6153 70.0527 28.4392 74.1126 28.4392C85.5098 28.4392 94.7822 37.7115 94.7822 49.1088C94.7822 52.9738 93.7091 56.7428 91.6787 60.0077C91.3732 60.4991 91.5238 61.1452 92.0153 61.4509C92.1875 61.558 92.3787 61.609 92.5676 61.609C92.9178 61.609 93.2599 61.4336 93.4584 61.1144C95.6956 57.5169 96.8779 53.3654 96.8779 49.1088C96.8779 44.4133 95.4647 39.9357 92.8417 36.1591L94.0972 34.9036L94.5924 35.3988ZM76.1033 26.4305C75.4449 26.3738 74.7811 26.3435 74.1124 26.3435C73.4451 26.3434 72.781 26.373 72.1215 26.4303V24.9328H76.1032L76.1033 26.4305ZM68.7685 22.8371V20.3223H79.4565V22.8371H68.7685ZM91.556 34.4805C91.1305 33.975 90.6826 33.4841 90.2097 33.0112C89.737 32.5384 89.2461 32.0905 88.7404 31.6649L89.7994 30.6059L92.6149 33.4214L91.556 34.4805ZM74.1125 34.2571C73.5339 34.2571 73.0647 34.7262 73.0647 35.3049V37.6101C73.0647 38.1888 73.5338 38.6579 74.1125 38.6579C74.6911 38.6579 75.1603 38.1888 75.1603 37.6101V35.3049C75.1603 34.7262 74.6911 34.2571 74.1125 34.2571ZM84.6137 38.6069C84.4189 38.412 84.1486 38.2999 83.873 38.2999C83.5974 38.2999 83.3271 38.412 83.1323 38.6069C82.9374 38.8018 82.8252 39.0721 82.8252 39.3477C82.8252 39.6243 82.9373 39.8936 83.1323 40.0885C83.3271 40.2834 83.5974 40.3955 83.873 40.3955C84.1486 40.3955 84.4189 40.2834 84.6137 40.0885C84.8086 39.8936 84.9207 39.6233 84.9207 39.3477C84.9207 39.0721 84.8087 38.8018 84.6137 38.6069ZM87.9161 48.0609H85.6109C85.0323 48.0609 84.5631 48.53 84.5631 49.1087C84.5631 49.6874 85.0323 50.1565 85.6109 50.1565H87.9161C88.4947 50.1565 88.9639 49.6874 88.9639 49.1087C88.9639 48.53 88.4947 48.0609 87.9161 48.0609ZM84.6137 58.1282C84.4189 57.9333 84.1486 57.8212 83.873 57.8212C83.5974 57.8212 83.3271 57.9333 83.1323 58.1282C82.9374 58.3231 82.8252 58.5935 82.8252 58.869C82.8252 59.1456 82.9373 59.416 83.1323 59.6098C83.3271 59.8058 83.5974 59.9168 83.873 59.9168C84.1486 59.9168 84.4189 59.8058 84.6137 59.6098C84.8086 59.4149 84.9207 59.1456 84.9207 58.869C84.9207 58.5935 84.8087 58.3242 84.6137 58.1282ZM74.1125 59.5594C73.5339 59.5594 73.0647 60.0285 73.0647 60.6072V62.9125C73.0647 63.4912 73.5339 63.9603 74.1125 63.9603C74.6911 63.9603 75.1603 63.4912 75.1603 62.9125V60.6072C75.1603 60.0286 74.6911 59.5594 74.1125 59.5594ZM65.0925 58.1282C64.8975 57.9333 64.6273 57.8212 64.3517 57.8212C64.0762 57.8212 63.8058 57.9333 63.6111 58.1282C63.4162 58.3231 63.3039 58.5935 63.3039 58.869C63.3039 59.1456 63.4161 59.4149 63.6111 59.6098C63.8058 59.8058 64.0762 59.9168 64.3517 59.9168C64.6273 59.9168 64.8976 59.8058 65.0925 59.6098C65.2874 59.4149 65.3995 59.1456 65.3995 58.869C65.3996 58.5935 65.2875 58.3231 65.0925 58.1282ZM62.6138 48.0609H60.3085C59.73 48.0609 59.2607 48.53 59.2607 49.1087C59.2607 49.6874 59.73 50.1565 60.3085 50.1565H62.6138C63.1924 50.1565 63.6616 49.6874 63.6616 49.1087C63.6617 48.53 63.1925 48.0609 62.6138 48.0609ZM65.0925 38.6069C64.8976 38.412 64.6273 38.2999 64.3517 38.2999C64.0762 38.2999 63.8058 38.412 63.6111 38.6069C63.4162 38.8018 63.3039 39.0721 63.3039 39.3477C63.3039 39.6233 63.4161 39.8936 63.6111 40.0885C63.8058 40.2834 64.0762 40.3955 64.3517 40.3955C64.6273 40.3955 64.8976 40.2834 65.0925 40.0885C65.2874 39.8936 65.3995 39.6233 65.3995 39.3477C65.3995 39.0721 65.2875 38.8018 65.0925 38.6069ZM82.2934 40.9276C81.9523 40.5865 81.4225 40.5224 81.0099 40.7722L72.3605 46.0085C72.267 46.0616 72.136 46.1386 72.0473 46.2084C71.1419 46.855 70.5498 47.9137 70.5498 49.1086C70.5498 51.0732 72.148 52.6713 74.1124 52.6713C75.3027 52.6713 76.358 52.0839 77.0052 51.1843C77.0826 51.0884 77.1548 50.9626 77.2136 50.8589L82.4488 42.2111C82.6986 41.7986 82.6344 41.2688 82.2934 40.9276ZM75.4082 49.7944L75.3217 49.9373C75.057 50.3223 74.6139 50.5757 74.1123 50.5757C73.3035 50.5757 72.6454 49.9177 72.6454 49.1088C72.6454 48.6071 72.8989 48.1638 73.2842 47.8991L73.4262 47.8131C73.6311 47.7041 73.8644 47.6419 74.1122 47.6419C74.9211 47.6419 75.5792 48.2999 75.5792 49.1089C75.5792 49.3564 75.517 49.5896 75.4082 49.7944ZM77.0456 47.0899C76.7989 46.7325 76.4887 46.4223 76.1312 46.1756L78.4484 44.7728L77.0456 47.0899ZM74.1123 30.9571C64.1034 30.9571 55.9605 39.0998 55.9605 49.1087C55.9605 59.1175 64.1033 67.2603 74.1123 67.2603C84.1212 67.2603 92.2639 59.1175 92.2639 49.1087C92.2639 39.0998 84.1211 30.9571 74.1123 30.9571ZM74.1123 65.1646C65.259 65.1646 58.0562 57.9619 58.0562 49.1087C58.0562 40.2554 65.2589 33.0527 74.1123 33.0527C82.9655 33.0527 90.1682 40.2554 90.1682 49.1087C90.1682 57.9619 82.9655 65.1646 74.1123 65.1646ZM74.0148 26.0298C61.3428 26.0298 51.0332 36.3391 51.0332 49.0112C51.0332 61.6833 61.3426 71.9927 74.0148 71.9927C86.6871 71.9927 96.9964 61.6833 96.9964 49.0112C96.9964 36.3391 86.6869 26.0298 74.0148 26.0298ZM74.0148 69.3394C62.8059 69.3394 53.6865 60.2202 53.6865 49.0112C53.6865 37.8022 62.8057 28.683 74.0148 28.683C85.2238 28.683 94.343 37.8022 94.343 49.0112C94.343 60.2202 85.2238 69.3394 74.0148 69.3394ZM59.561 32.9477C59.366 32.7528 59.0958 32.6406 58.8202 32.6406C58.5446 32.6406 58.2743 32.7528 58.0795 32.9477C57.8846 33.1425 57.7724 33.4129 57.7724 33.6884C57.7724 33.9651 57.8845 34.2343 58.0795 34.4292C58.2743 34.6241 58.5446 34.7362 58.8202 34.7362C59.0958 34.7362 59.3661 34.6241 59.561 34.4292C59.7559 34.2343 59.868 33.964 59.868 33.6884C59.868 33.413 59.756 33.1426 59.561 32.9477Z" stroke="black" stroke-width="0.5"/>
</svg>
