<svg width="99" height="110" viewBox="0 0 99 110" fill="none" xmlns="http://www.w3.org/2000/svg">
<path fill-rule="evenodd" clip-rule="evenodd" d="M3.65015 13C2.73779 13 2 13.7392 2 14.6499V19.5999C2 24.1491 5.70117 27.85 10.2502 27.85C12.946 27.85 15.344 26.5504 16.8503 24.5448C18.3569 26.5504 20.7546 27.85 23.4504 27.85C26.146 27.85 28.5439 26.5504 30.0503 24.5449C31.5566 26.5504 33.9548 27.85 36.6504 27.85C39.3462 27.85 41.7441 26.5504 43.2505 24.5448C44.7571 26.5504 47.1548 27.85 49.8506 27.85C52.5461 27.85 54.9438 26.5505 56.4502 24.5452C57.9565 26.5506 60.3545 27.85 63.05 27.85C65.7458 27.85 68.1436 26.5504 69.6499 24.5448C71.1562 26.5504 73.5544 27.85 76.2502 27.85C78.946 27.85 81.344 26.5504 82.8503 24.5448C84.3569 26.5504 86.7546 27.85 89.4504 27.85C93.9995 27.85 97.7004 24.1489 97.7004 19.5999V14.6499C97.7004 13.7392 96.9612 13 96.0505 13H3.65015Z" fill="#2CABE1"/>
<path d="M2.04872 14.449L5.34879 1.2491C5.53364 0.516463 6.19183 0 6.94922 0H92.7494C93.5067 0 94.1667 0.516463 94.3498 1.2491L97.6499 14.449C97.7736 14.9424 97.6615 15.4637 97.3496 15.8647C97.0377 16.2658 96.5576 16.4999 96.0494 16.4999H3.64935C3.1412 16.4999 2.66264 16.2656 2.3492 15.8647C2.03557 15.4637 1.92497 14.9424 2.04872 14.449ZM93.9356 13.2001L91.4606 3.30006H8.23796L5.76296 13.2001H93.9356Z" fill="black"/>
<path d="M43.2515 13.1992H56.4516C57.3623 13.1992 58.1016 13.9384 58.1016 14.8492V19.7992C58.1016 24.3481 54.4007 28.0492 49.8515 28.0492C45.3025 28.0492 41.6014 24.3483 41.6014 19.7992V14.8492C41.6014 13.9384 42.3391 13.1992 43.2515 13.1992ZM44.9015 19.7992C44.9015 22.5282 47.1224 24.7492 49.8515 24.7492C52.5806 24.7492 54.8015 22.5282 54.8015 19.7992V16.4991H44.9015V19.7992Z" fill="black"/>
<path d="M56.4508 13.1992H69.6508C70.5616 13.1992 71.3008 13.9384 71.3008 14.8492V19.7992C71.3008 24.3481 67.5999 28.0492 63.0507 28.0492C58.5017 28.0492 54.8007 24.3483 54.8007 19.7992V14.8492C54.8008 13.9384 55.5401 13.1992 56.4508 13.1992ZM58.1009 19.7992C58.1009 22.5282 60.3218 24.7492 63.0509 24.7492C65.78 24.7492 68.0009 22.5282 68.0009 19.7992V16.4991H58.1009V19.7992Z" fill="black"/>
<path d="M69.65 13.1992H82.8501C83.7608 13.1992 84.5 13.9384 84.5 14.8492V19.7992C84.5 24.3481 80.7991 28.0492 76.2499 28.0492C71.7008 28.0492 67.9999 24.3483 67.9999 19.7992V14.8492C68.0001 13.9384 68.7393 13.1992 69.65 13.1992ZM71.2999 19.7992C71.2999 22.5282 73.5209 24.7492 76.2499 24.7492C78.979 24.7492 81.1999 22.5282 81.1999 19.7992V16.4991H71.2999V19.7992Z" fill="black"/>
<path d="M82.8514 13.1992H96.0512C96.962 13.1992 97.7012 13.9384 97.7012 14.8492V19.7992C97.7012 24.3481 94.0003 28.0492 89.4511 28.0492C84.9021 28.0492 81.201 24.3483 81.201 19.7992V14.8492C81.2012 13.9384 81.9405 13.1992 82.8514 13.1992ZM84.5013 19.7992C84.5013 22.5282 86.7222 24.7492 89.4513 24.7492C92.1804 24.7492 94.4013 22.5282 94.4013 19.7992V16.4991H84.5013V19.7992Z" fill="black"/>
<path d="M30.0504 13.1992H43.2505C44.1629 13.1992 44.9004 13.9384 44.9004 14.8492V19.7992C44.9004 24.3481 41.1995 28.0492 36.6503 28.0492C32.1014 28.0492 28.4003 24.3483 28.4003 19.7992V14.8492C28.4005 13.9384 29.1379 13.1992 30.0504 13.1992ZM31.7003 19.7992C31.7003 22.5282 33.9213 24.7492 36.6503 24.7492C39.3794 24.7492 41.6003 22.5282 41.6003 19.7992V16.4991H31.7003V19.7992Z" fill="black"/>
<path d="M16.8512 13.1992H30.0512C30.9637 13.1992 31.7012 13.9384 31.7012 14.8492V19.7992C31.7012 24.3481 28.0003 28.0492 23.4511 28.0492C18.9021 28.0492 15.201 24.3483 15.201 19.7992V14.8492C15.2012 13.9384 15.9387 13.1992 16.8512 13.1992ZM18.5013 19.7992C18.5013 22.5282 20.7222 24.7492 23.4513 24.7492C26.1804 24.7492 28.4013 22.5282 28.4013 19.7992V16.4991H18.5013V19.7992Z" fill="black"/>
<path d="M3.64999 13.1992H16.8501C17.7625 13.1992 18.5 13.9384 18.5 14.8492V19.7992C18.5 24.3481 14.7991 28.0492 10.2499 28.0492C5.70096 28.0492 1.99987 24.3483 1.99987 19.7992V14.8492C1.99987 13.9384 2.73753 13.1992 3.64999 13.1992ZM5.29993 19.7992C5.29993 22.5282 7.52086 24.7492 10.2499 24.7492C12.979 24.7492 15.1999 22.5282 15.1999 19.7992V16.4991H5.29993V19.7992Z" fill="black"/>
<path d="M54.8015 1.65039H58.1016V14.8505H54.8015V1.65039Z" fill="black"/>
<path d="M41.6003 1.65039H44.9004V14.8505H41.6003V1.65039Z" fill="black"/>
<path d="M68.0007 1.65039H71.3008V14.8505H68.0007V1.65039Z" fill="black"/>
<path d="M28.4011 1.65039H31.7012V14.8505H28.4011V1.65039Z" fill="black"/>
<path d="M82.8392 1.44768L84.4883 14.6445L81.2136 15.0537L79.5645 1.85689L82.8392 1.44768Z" fill="black"/>
<path d="M16.8601 1.44626L20.1348 1.85547L18.4857 15.0523L15.211 14.6431L16.8601 1.44626Z" fill="black"/>
<path d="M68.0576 84.2838L83.1468 84.254L85.8165 67.033C86.1713 64.6126 88.2718 62.8008 90.684 62.8008C90.7137 62.8008 90.7451 62.8008 90.7764 62.8008C93.4873 62.8008 95.7034 64.9952 95.7264 67.7162C95.7281 67.9372 95.7165 68.1566 95.69 68.3579L93.1655 89.8046C92.8751 92.3061 90.7648 94.1836 88.26 94.1836C88.2484 94.1836 88.2368 94.1836 88.2254 94.1836H68.0607C65.3317 94.1836 63.1107 91.9627 63.1107 89.2336C63.1107 86.5045 65.3318 84.2838 68.0576 84.2838ZM68.0627 90.8837H88.2389C88.2422 90.8837 88.2473 90.8837 88.2505 90.8837C89.0888 90.8837 89.7916 90.2584 89.8891 89.4202L92.4149 67.9536C92.4232 67.8811 92.4265 67.8069 92.4265 67.7374C92.4199 66.8316 91.6807 66.1007 90.7468 66.1007C90.7352 66.1007 90.7253 66.0989 90.7155 66.1007C89.9005 66.1007 89.2007 66.7045 89.0802 67.5246L86.1928 86.153C86.0691 86.9566 85.3776 87.5489 84.5659 87.5506L68.0627 87.5837C67.1535 87.5837 66.4127 88.3229 66.4127 89.2336C66.4127 90.1445 67.1535 90.8837 68.0627 90.8837Z" fill="black"/>
<path d="M87.7837 91.9873L92.7363 106.836L89.6061 107.88L84.6534 93.0314L87.7837 91.9873Z" fill="black"/>
<path d="M69.7989 91.9819L72.9297 93.0254L67.98 107.876L64.8492 106.832L69.7989 91.9819Z" fill="black"/>
<path d="M26.3999 69.4004H72.6001C73.5108 69.4004 74.25 70.1379 74.25 71.0503V77.6503C74.25 78.5627 73.5108 79.3002 72.6001 79.3002H26.4001C25.4877 79.3002 24.7502 78.5627 24.7502 77.6503V71.0503C24.75 70.1379 25.4875 69.4004 26.3999 69.4004ZM28.0501 76.0003H70.9499V72.7003H28.0499V76.0003H28.0501Z" fill="black"/>
<path d="M46.1994 76H52.7993C53.71 76 54.4492 76.7375 54.4492 77.6499V107.35C54.4492 108.262 53.71 109 52.7993 109H46.1994C45.2869 109 44.5494 108.262 44.5494 107.35V77.6499C44.5494 76.7377 45.2869 76 46.1994 76ZM47.8495 105.7H51.1495V79.3001H47.8495V105.7Z" fill="black"/>
<path d="M8.18973 62.8008C8.22608 62.8008 8.25238 62.8008 8.2837 62.8008C10.7256 62.8008 12.8246 64.6108 13.1792 67.0199L15.8504 84.2542L30.9367 84.2838C33.6658 84.2838 35.8867 86.5047 35.8867 89.2338C35.8867 91.9629 33.6658 94.1838 30.9367 94.1838H10.7869C10.7753 94.1838 10.7639 94.1838 10.7523 94.1838C8.2344 94.1838 6.12407 92.3061 5.83365 89.8081L3.31089 68.3647C3.2844 68.147 3.27125 67.9275 3.27299 67.7129C3.29271 64.9952 5.51016 62.8008 8.18973 62.8008ZM6.58775 67.9702L9.11225 89.4235C9.20951 90.2584 9.91256 90.8837 10.7622 90.8837C10.7655 90.8837 10.7705 90.8837 10.7738 90.8837H30.9367C31.8474 90.8837 32.5867 90.1445 32.5867 89.2338C32.5867 88.3231 31.8474 87.5838 30.9334 87.5838L14.4335 87.5508C13.6218 87.549 12.9303 86.955 12.8066 86.1532L9.9174 67.5114C9.79867 66.7045 9.0989 66.1007 8.25412 66.1007C8.24426 66.1007 8.23111 66.1007 8.22279 66.1007C7.31865 66.1007 6.57944 66.8316 6.57286 67.7425C6.57112 67.8167 6.57769 67.891 6.58775 67.9702Z" fill="black"/>
<path d="M11.2224 91.9844L14.3516 93.0273L9.40189 107.878L6.27277 106.835L11.2224 91.9844Z" fill="black"/>
<path d="M29.1941 91.9713L34.1484 106.82L31.0197 107.864L26.0653 93.0152L29.1941 91.9713Z" fill="black"/>
<path d="M0 105.701H99V109.001H0V105.701Z" fill="black"/>
</svg>
