<svg width="118" height="113" viewBox="0 0 118 113" fill="none" xmlns="http://www.w3.org/2000/svg">
<path d="M34.9187 71.1272H65.118C66.1618 71.1272 67.0055 70.2816 67.0055 69.2397V47.5339C67.0055 46.4921 66.1618 45.6465 65.118 45.6465H34.9187C33.8749 45.6465 33.0312 46.4921 33.0312 47.5339V69.2397C33.0312 70.2816 33.8749 71.1272 34.9187 71.1272ZM36.8062 49.4214H63.2306V67.3523H36.8062V49.4214Z" fill="black"/>
<path d="M62.6007 55.5566H37.4346C36.0429 55.5566 34.918 56.4022 34.918 57.4441C34.918 58.486 36.0429 59.3316 37.4346 59.3316H62.6007C63.9924 59.3316 65.1173 58.486 65.1173 57.4441C65.1173 56.4022 63.9924 55.5566 62.6007 55.5566Z" fill="black"/>
<path d="M47.6582 68.2972L47.6582 49.4226C47.6582 48.3788 46.8126 47.5352 45.7707 47.5352C44.7289 47.5352 43.8833 48.3788 43.8833 49.4226L43.8833 68.2972C43.8833 69.341 44.7289 70.1847 45.7707 70.1847C46.8126 70.1847 47.6582 69.341 47.6582 68.2972Z" fill="black"/>
<path d="M2.76753 31.3805L16.5439 22.2003H16.1403V8.07692C16.1403 6.96269 17.0437 6.0593 18.158 6.0593H28.2461C29.3603 6.0593 30.2637 6.96269 30.2637 8.07692V13.0504L49.3201 0.339339C49.9981 -0.113113 50.8818 -0.113113 51.5597 0.339339L98.1123 31.3805C100.968 33.2843 101.74 37.1428 99.8364 39.9987C97.9325 42.8547 94.0741 43.6267 91.2181 41.7228L84.7395 37.4051V76.6761H88.7748C88.7748 75.5619 89.6782 74.6585 90.7924 74.6585H106.933C108.048 74.6585 108.951 75.5619 108.951 76.6761H117.021V80.7113H108.951V100.888H117.021V104.923H108.951C108.951 106.037 108.048 106.94 106.933 106.94H90.7924C89.6782 106.94 88.7748 106.037 88.7748 104.923V104.154L73.7112 110.409C65.4995 113.763 56.319 113.864 48.0349 110.693L16.8667 98.8074C15.0203 98.1058 13.5343 96.6897 12.7447 94.8791C11.9293 93.0431 11.8872 90.9561 12.6277 89.0885C13.2874 87.4187 14.5373 86.0495 16.1403 85.2409V37.4051L9.66175 41.7228C6.80581 43.6267 2.94736 42.8547 1.04348 39.9987C-0.860405 37.1428 -0.0884094 33.2841 2.76753 31.3805ZM92.81 102.905H104.916V78.6937H92.81V102.905ZM26.2285 10.0945H20.1756V19.7791L26.2285 15.7439V10.0945ZM16.445 93.2529C16.8014 94.0766 17.475 94.722 18.3133 95.0425L49.4816 106.926C56.8053 109.732 64.9222 109.645 72.1838 106.682L88.7748 99.7839V80.7113H83.6601C76.9702 80.7192 70.373 82.2765 64.3857 85.2611C62.4087 86.248 60.2297 86.7625 58.0201 86.7642H42.3694C40.6981 86.7751 39.3518 88.1387 39.3627 89.8101C39.3717 91.2101 40.34 92.4214 41.7036 92.7384C41.9679 92.7626 42.2262 92.8171 42.4945 92.8171H66.5809V96.8523H42.4945C42.4522 96.8523 42.4118 96.8523 42.3694 96.8523C42.3291 96.8523 42.2907 96.8402 42.2484 96.8402C40.6471 96.8145 39.0658 96.4793 37.5917 95.8536L20.7224 88.6931C19.9188 88.3501 19.0099 88.3501 18.2064 88.6931C17.3706 89.0459 16.7149 89.7241 16.3905 90.5715C16.0478 91.4363 16.0675 92.4027 16.445 93.2529ZM42.3694 82.729H58.0201C59.6035 82.7267 61.1649 82.3577 62.582 81.6516C68.2371 78.8345 74.3989 77.177 80.7043 76.777V34.7095L50.4399 14.5333L20.1756 34.7095V84.4641C20.9055 84.5257 21.622 84.6977 22.3001 84.9746L35.3824 90.5291C35.3443 90.2845 35.3194 90.0381 35.3078 89.7907C35.3078 85.8906 38.4694 82.729 42.3694 82.729ZM6.2154 38.735C6.64565 38.735 7.06608 38.6078 7.42421 38.3695L49.3201 10.4335C49.9981 9.98106 50.8818 9.98106 51.5597 10.4335L93.4556 38.3655C94.4584 39.0331 95.8122 38.7612 96.4798 37.7584C96.7181 37.4003 96.8453 36.9799 96.8453 36.5496C96.8465 35.82 96.4821 35.138 95.8748 34.7338L50.4399 4.4452L5.00507 34.7378C4.39777 35.1423 4.03334 35.824 4.0346 36.5537C4.03435 37.7582 5.01088 38.7347 6.2154 38.735Z" fill="black"/>
<path d="M20.1759 94.834H16.1406V98.8692H20.1759V94.834Z" fill="black"/>
<path d="M109.473 25.3121V5.24608C109.474 4.96626 109.4 4.69124 109.261 4.44871C109.121 4.20617 108.92 4.00468 108.678 3.86454C108.436 3.72439 108.161 3.65053 107.881 3.65039C107.602 3.65025 107.327 3.72384 107.084 3.86375L104.815 5.16008C102.312 6.59362 99.4943 7.38584 96.6114 7.46614C93.7286 7.54645 90.8707 6.91234 88.2923 5.62033L84.6916 3.82075C84.4705 3.7103 84.2268 3.6528 83.9797 3.6528C83.7326 3.6528 83.4889 3.7103 83.2678 3.82075L79.6926 5.61396C77.1139 6.90821 74.2549 7.54397 71.3708 7.4645C68.4866 7.38502 65.667 6.59279 63.1636 5.15849L60.9006 3.86375C60.6582 3.72384 60.3833 3.65025 60.1035 3.65039C59.8237 3.65053 59.5488 3.72439 59.3066 3.86454C59.0645 4.00468 58.8635 4.20617 58.7239 4.44871C58.5844 4.69124 58.5112 4.96626 58.5117 5.24608V25.3121C58.504 32.5297 60.4619 39.6131 64.1752 45.8021C67.8885 51.9912 73.2171 57.0522 79.589 60.442L83.2423 62.3897C83.4731 62.5129 83.7308 62.5774 83.9924 62.5774C84.2541 62.5774 84.5117 62.5129 84.7425 62.3897L88.3958 60.442C94.768 57.0525 100.097 51.9915 103.81 45.8024C107.523 39.6133 109.481 32.5297 109.473 25.3121Z" fill="#2CABE1"/>
<path d="M109.473 25.3121V5.24608C109.474 4.96626 109.4 4.69124 109.261 4.44871C109.121 4.20617 108.92 4.00468 108.678 3.86454C108.436 3.72439 108.161 3.65053 107.881 3.65039C107.602 3.65025 107.327 3.72384 107.084 3.86375L104.815 5.16008C102.312 6.59362 99.4943 7.38584 96.6114 7.46614C93.7286 7.54645 90.8707 6.91234 88.2923 5.62033L84.6916 3.82075C84.4705 3.7103 84.2268 3.6528 83.9797 3.6528C83.7326 3.6528 83.4889 3.7103 83.2678 3.82075L79.6926 5.61396C77.1139 6.90821 74.2549 7.54397 71.3708 7.4645C68.4866 7.38502 65.667 6.59279 63.1636 5.15849L60.9006 3.86375C60.6582 3.72384 60.3833 3.65025 60.1035 3.65039C59.8237 3.65053 59.5488 3.72439 59.3066 3.86454C59.0645 4.00468 58.8635 4.20617 58.7239 4.44871C58.5844 4.69124 58.5112 4.96626 58.5117 5.24608V25.3121C58.504 32.5297 60.4619 39.6131 64.1752 45.8021C67.8885 51.9912 73.2171 57.0522 79.589 60.442L83.2423 62.3897C83.4731 62.5129 83.7308 62.5774 83.9924 62.5774C84.2541 62.5774 84.5117 62.5129 84.7425 62.3897L88.3958 60.442C94.768 57.0525 100.097 51.9915 103.81 45.8024C107.523 39.6133 109.481 32.5297 109.473 25.3121ZM83.9924 59.1807L81.0892 57.6312C75.2268 54.5128 70.3242 49.8568 66.9077 44.163C63.4912 38.4691 61.6898 31.9523 61.6968 25.3121V7.99003C64.6461 9.65517 67.9595 10.5697 71.3453 10.653C74.7311 10.7363 78.0855 9.98586 81.1131 8.46779L83.9797 7.03451L86.8686 8.47735C89.8973 9.99465 93.2527 10.7438 96.6391 10.6588C100.026 10.5739 103.339 9.65734 106.288 7.99003V25.3121C106.295 31.9524 104.494 38.4693 101.078 44.1632C97.6611 49.8572 92.7583 54.5131 86.8956 57.6312L83.9924 59.1807Z" fill="black"/>
<path d="M103.104 14.8551C103.104 14.6173 103.051 14.3826 102.948 14.1681C102.846 13.9535 102.697 13.7647 102.512 13.6153C102.327 13.4659 102.111 13.3599 101.88 13.3049C101.648 13.2499 101.408 13.2474 101.175 13.2976C95.861 14.4304 90.3198 13.7328 85.4521 11.318L84.7004 10.9438C84.4782 10.8318 84.2327 10.7734 83.9838 10.7734C83.7349 10.7734 83.4894 10.8318 83.2671 10.9438L82.5314 11.3117C77.6631 13.7297 72.1198 14.4291 66.8034 13.296C66.5716 13.2472 66.3318 13.2507 66.1015 13.3063C65.8713 13.3619 65.6563 13.4682 65.4723 13.6174C65.2883 13.7666 65.1399 13.955 65.0379 14.1689C64.9359 14.3827 64.883 14.6166 64.8828 14.8535V25.3117C64.8761 31.3745 66.5207 37.3246 69.6401 42.5234C72.7595 47.7221 77.2359 51.9731 82.5887 54.8199L83.2433 55.1703C83.4739 55.2933 83.7312 55.3576 83.9926 55.3576C84.2539 55.3576 84.5112 55.2933 84.7418 55.1703L85.398 54.8199C90.7508 51.9731 95.2272 47.7221 98.3466 42.5234C101.466 37.3246 103.111 31.3745 103.104 25.3117V14.8551ZM99.9188 25.3117C99.9247 30.779 98.4466 36.1454 95.6419 40.8384C92.8372 45.5315 88.8112 49.3753 83.9933 51.9597C79.1755 49.3753 75.1495 45.5315 72.3448 40.8384C69.5401 36.1454 68.0619 30.779 68.0679 25.3117V16.755C73.5068 17.5098 79.047 16.6068 83.9647 14.1639L83.9933 14.148L84.0316 14.1687C88.9462 16.6106 94.4833 17.5125 99.9188 16.7566V25.3117Z" fill="black"/>
<path d="M93.0016 22.6502L80.8075 34.8443L75.8356 29.8724C75.5353 29.5823 75.133 29.4218 74.7154 29.4254C74.2979 29.4291 73.8984 29.5966 73.6032 29.8918C73.3079 30.1871 73.1404 30.5865 73.1368 31.0041C73.1332 31.4216 73.2937 31.8239 73.5838 32.1243L79.6816 38.2221C79.9803 38.5207 80.3852 38.6884 80.8075 38.6884C81.2298 38.6884 81.6348 38.5207 81.9335 38.2221L95.2535 24.9021C95.4056 24.7552 95.5269 24.5795 95.6104 24.3852C95.6938 24.1909 95.7378 23.9819 95.7396 23.7704C95.7414 23.559 95.7012 23.3493 95.6211 23.1536C95.541 22.9578 95.4228 22.78 95.2732 22.6305C95.1237 22.481 94.9459 22.3627 94.7502 22.2827C94.5545 22.2026 94.3447 22.1623 94.1333 22.1641C93.9218 22.166 93.7129 22.2099 93.5186 22.2934C93.3243 22.3768 93.1485 22.4981 93.0016 22.6502Z" fill="black"/>
</svg>
