<svg width="142" height="130" viewBox="0 0 142 130" fill="none" xmlns="http://www.w3.org/2000/svg">
<path d="M125.569 95.6949L125.625 95.7455H125.701H129.659C136.285 95.7455 141.675 101.136 141.675 107.761V117.534C141.675 118.775 140.67 119.777 139.432 119.777H126.97H126.806L126.774 119.937C125.656 125.414 120.803 129.55 115 129.55C109.197 129.55 104.345 125.414 103.227 119.937L103.195 119.777H103.031H73.2195H73.0562L73.0235 119.937C71.906 125.414 67.0535 129.55 61.2504 129.55C55.4472 129.55 50.5947 125.414 49.4772 119.937L49.4445 119.777H49.2812H41.7049C40.4666 119.777 39.4617 118.775 39.4617 117.534V107.761C39.4617 101.491 44.3101 96.3834 50.4468 95.8498L50.5128 95.844L50.5624 95.8L61.0192 86.5061C68.4954 79.8614 78.1207 76.2 88.1254 76.2C98.13 76.2 107.755 79.8614 115.232 86.5061L125.569 95.6949ZM118.348 95.7455H118.874L118.48 95.396L112.25 89.8597C106.211 84.4915 98.5929 81.3421 90.5821 80.7992L90.3685 80.7847V80.9988V95.5455V95.7455H90.5685H118.348ZM64.0004 89.8573L64.1333 90.0068L64.0004 89.8573L57.7703 95.396L57.3772 95.7455H57.9032H85.6822H85.8822V95.5455V80.9963V80.7823L85.6687 80.7968C77.6578 81.3397 70.0394 84.4891 64.0004 89.8573ZM136.989 115.291H137.189V115.091V107.761C137.189 103.61 133.811 100.232 129.659 100.232H51.4776C47.3261 100.232 43.9481 103.61 43.9481 107.761V115.091V115.291H44.1481H49.2812H49.4445L49.4772 115.131C50.5947 109.654 55.4472 105.518 61.2504 105.518C67.0535 105.518 71.906 109.654 73.0235 115.131L73.0562 115.291H73.2195H103.031H103.195L103.227 115.131C104.345 109.654 109.197 105.518 115 105.518C120.803 105.518 125.656 109.654 126.774 115.131L126.806 115.291H126.97H136.989ZM53.7208 117.534C53.7208 121.686 57.0989 125.064 61.2504 125.064C65.4018 125.064 68.7799 121.686 68.7799 117.534C68.7799 113.383 65.4018 110.005 61.2504 110.005C57.0989 110.005 53.7208 113.383 53.7208 117.534ZM107.471 117.534C107.471 121.686 110.849 125.064 115 125.064C119.152 125.064 122.53 121.686 122.53 117.534C122.53 113.383 119.152 110.005 115 110.005C110.849 110.005 107.471 113.383 107.471 117.534Z" fill="black" stroke="white" stroke-width="0.4"/>
<path d="M0.369922 115.292H34.1745V119.778H0.369922V115.292Z" fill="black" stroke="white" stroke-width="0.4"/>
<path d="M15.0281 105.518H34.1736V110.005H15.0281V105.518Z" fill="black" stroke="white" stroke-width="0.4"/>
<path d="M5.25664 105.518H9.743V110.005H5.25664V105.518Z" fill="black" stroke="white" stroke-width="0.4"/>
<path d="M57.0926 15.0293C51.9131 15.0293 47.6992 19.2432 47.6992 24.4227C47.6992 29.6022 51.9131 33.8161 57.0926 33.8161C62.2721 33.8161 66.486 29.6022 66.486 24.4227C66.486 19.2432 62.2721 15.0293 57.0926 15.0293Z" fill="#2CABE1"/>
<path d="M81.5147 61.9963V54.4816C81.5147 53.4427 80.6731 52.6029 79.636 52.6029H57.0919V46.9669C57.0919 45.928 56.2503 45.0882 55.2132 45.0882H53.3346V41.3309H72.1213C73.1584 41.3309 74 40.4911 74 39.4522V1.87868C74 0.839768 73.1584 0 72.1213 0H19.5184C18.4814 0 17.6397 0.839768 17.6397 1.87868V39.4522C17.6397 40.4911 18.4814 41.3309 19.5184 41.3309H38.3051V45.0882H36.4265C35.3894 45.0882 34.5478 45.928 34.5478 46.9669V52.6029H12.0037C10.9666 52.6029 10.125 53.4427 10.125 54.4816V61.9963C10.125 63.0352 10.9666 63.875 12.0037 63.875H79.636C80.6731 63.875 81.5147 63.0352 81.5147 61.9963ZM21.3971 3.75735H70.2426V37.5735H21.3971V3.75735ZM42.0625 41.3309H49.5772V45.0882H42.0625V41.3309ZM38.3051 48.8456H53.3346V52.6029H38.3051V48.8456ZM77.7574 60.1176H13.8824V56.3603H77.7574V60.1176Z" fill="black"/>
<path d="M57.0926 15.0293C51.9131 15.0293 47.6992 19.2432 47.6992 24.4227C47.6992 29.6022 51.9131 33.8161 57.0926 33.8161C62.2721 33.8161 66.486 29.6022 66.486 24.4227C66.486 19.2432 62.2721 15.0293 57.0926 15.0293ZM57.0926 30.0587C53.9853 30.0587 51.4566 27.53 51.4566 24.4227C51.4566 21.3153 53.9853 18.7866 57.0926 18.7866C60.1999 18.7866 62.7286 21.3153 62.7286 24.4227C62.7286 27.53 60.1999 30.0587 57.0926 30.0587Z" fill="black"/>
<path d="M42.0624 7.51562H27.033C25.9959 7.51562 25.1543 8.35539 25.1543 9.3943V31.9384C25.1543 32.9773 25.9959 33.8171 27.033 33.8171H42.0624C43.0994 33.8171 43.9411 32.9773 43.9411 31.9384V9.3943C43.9411 8.35539 43.0994 7.51562 42.0624 7.51562ZM40.1837 30.0597H28.9116V11.273H40.1837V30.0597Z" fill="black"/>
<path d="M47.6992 7.51562H66.486V11.273H47.6992V7.51562Z" fill="black"/>
<path d="M80.8927 26.1446C80.5021 26.5351 80.5021 27.1683 80.8927 27.5588L82.1349 28.801C82.5254 29.1915 83.1586 29.1915 83.5491 28.801L83.9429 28.4072C85.9813 26.3689 87.1498 23.5471 87.1498 20.6652C87.1498 17.7833 85.9813 14.9615 83.9429 12.9232L83.5491 12.5294C83.1586 12.1388 82.5254 12.1388 82.1349 12.5294L80.8927 13.7716C80.5021 14.1621 80.5021 14.7953 80.8927 15.1858L81.2865 15.5796C82.6241 16.9191 83.3924 18.7715 83.3924 20.6652C83.3924 22.5589 82.6241 24.4113 81.2865 25.7508L80.8927 26.1446Z" fill="black"/>
<path d="M90.9078 20.6646C90.9078 25.0081 89.217 29.0923 86.1416 32.1658C85.9641 32.3444 85.9647 32.6329 86.143 32.8107L88.1598 34.8218C88.3368 34.9984 88.6236 34.9977 88.7999 34.8204C92.5835 31.0386 94.6651 26.0132 94.6651 20.6646C94.6651 15.316 92.5836 10.2905 88.8018 6.51063C88.6244 6.33225 88.336 6.33163 88.1579 6.50924L86.1448 8.51657C85.9655 8.69538 85.9649 8.98563 86.1434 9.1652C89.217 12.2368 90.9078 16.3211 90.9078 20.6646Z" fill="black"/>
</svg>
