<svg width="132" height="132" viewBox="0 0 132 132" fill="none" xmlns="http://www.w3.org/2000/svg">
<circle cx="25.5" cy="25.5" r="22.5" fill="#2CABE1"/>
<path d="M58.7071 32.7909C58.3166 33.1815 58.3166 33.8146 58.7071 34.2052L60.2976 35.7957C60.6882 36.1862 61.3213 36.1862 61.7119 35.7957L62.25 35.2575C64.5556 32.9519 65.8774 29.7602 65.8774 26.5004C65.8774 23.2407 64.5556 20.0489 62.25 17.7433L61.7119 17.2052C61.3213 16.8146 60.6882 16.8146 60.2976 17.2052L58.7071 18.7957C58.3166 19.1862 58.3166 19.8194 58.7071 20.2099L59.2453 20.748C60.7583 22.2632 61.6274 24.3584 61.6274 26.5004C61.6274 28.6424 60.7583 30.7377 59.2453 32.2528L58.7071 32.7909Z" fill="black"/>
<path d="M70.1275 26.5002C70.1275 31.4132 68.2151 36.033 64.7364 39.5095C64.5356 39.7114 64.5364 40.0378 64.738 40.2389L67.0192 42.5137C67.2195 42.7134 67.5439 42.7127 67.7433 42.5121C72.023 38.2345 74.3775 32.5501 74.3775 26.5002C74.3775 20.4504 72.0231 14.766 67.7454 10.4905C67.5448 10.2887 67.2186 10.288 67.0171 10.4889L64.7401 12.7595C64.5373 12.9617 64.5366 13.29 64.7385 13.4931C68.215 16.9675 70.1275 21.5872 70.1275 26.5002Z" fill="black"/>
<path d="M29.8054 12.7734H17.0312V40.4509H21.2893V29.8057H29.8054C34.5021 29.8057 38.3216 25.9862 38.3216 21.2896C38.3216 16.5929 34.5021 12.7734 29.8054 12.7734ZM29.8054 25.5476H21.2893V17.0315H29.8054C32.1538 17.0315 34.0635 18.9412 34.0635 21.2896C34.0635 23.6379 32.1538 25.5476 29.8054 25.5476Z" fill="black"/>
<path d="M132 119.226V63.871H88.5379L67.1071 85.3018L49.3467 88.2633C44.1923 89.1213 40.4516 93.539 40.4516 98.7637V119.226H66.1703C66.6472 122.539 68.2057 125.504 70.4944 127.742H36.1936V87.2903H31.9355V50.2558C42.9362 47.4093 51.0968 37.4263 51.0968 25.5484C51.0968 11.4606 39.6362 0 25.5484 0C11.4606 0 0 11.4606 0 25.5484C0 37.4263 8.16058 47.4093 19.1613 50.2558V87.2903H14.9032V127.742H8.51613V132H123.484V127.742H91.3121C93.5986 125.504 95.1571 122.539 95.6361 119.226H132ZM4.25806 25.5484C4.25806 13.8089 13.8089 4.25806 25.5484 4.25806C37.2879 4.25806 46.8387 13.8089 46.8387 25.5484C46.8387 37.2879 37.2879 46.8387 25.5484 46.8387C13.8089 46.8387 4.25806 37.2879 4.25806 25.5484ZM27.6774 50.9882V87.2903H23.4194V50.9882C24.1241 51.0478 24.8288 51.0968 25.5484 51.0968C26.268 51.0968 26.9727 51.0478 27.6774 50.9882ZM31.9355 127.742H19.1613V100.065H31.9355V127.742ZM31.9355 95.8065H19.1613V91.5484H31.9355V95.8065ZM66.1703 114.968H44.7097V110.71H67.4584C66.8261 112.034 66.3875 113.465 66.1703 114.968ZM80.9032 127.742C75.0335 127.742 70.2581 122.967 70.2581 117.097C70.2581 111.227 75.0335 106.452 80.9032 106.452C86.773 106.452 91.5484 111.227 91.5484 117.097C91.5484 122.967 86.773 127.742 80.9032 127.742ZM91.5484 106.452V106.688C88.8403 103.918 85.0719 102.194 80.9032 102.194C76.7346 102.194 72.9662 103.918 70.2581 106.688V106.452H44.7097V98.7637C44.7097 95.6276 46.9537 92.9791 50.0472 92.4639L69.1531 89.2788L90.3008 68.129H127.742V106.452H108.581V110.71H127.742V114.968H95.6361C95.419 113.465 94.9804 112.034 94.3481 110.71H104.323V106.452H91.5484Z" fill="black"/>
<path d="M123.483 93.6777H108.58V97.9358H123.483V93.6777Z" fill="black"/>
<path d="M132 85H68V89.2581H132V85Z" fill="black"/>
<path d="M4.25806 127.742H0V132H4.25806V127.742Z" fill="black"/>
<path d="M132 127.742H127.742V132H132V127.742Z" fill="black"/>
</svg>
