<svg width="118" height="118" viewBox="0 0 118 118" fill="none" xmlns="http://www.w3.org/2000/svg">
<path d="M116.097 0H108.484C107.959 0 107.483 0.213161 107.138 0.557645L100.083 7.6129H17.917L10.8617 0.557645C10.5172 0.213161 10.0414 0 9.51613 0H1.90323C0.852645 0 0 0.852645 0 1.90323V116.097C0 117.147 0.852645 118 1.90323 118H9.51613C10.5667 118 11.4194 117.147 11.4194 116.097V55.9815L17.917 49.4839H37.3261L15.3229 115.495C15.1287 116.076 15.2277 116.713 15.5855 117.21C15.9433 117.707 16.5181 118 17.129 118H100.871C101.482 118 102.057 117.707 102.414 117.208C102.772 116.712 102.869 116.074 102.677 115.493L80.6739 49.4839H100.083L106.581 55.9815V116.097C106.581 117.147 107.433 118 108.484 118H116.097C117.147 118 118 117.147 118 116.097V1.90323C118 0.852645 117.147 0 116.097 0ZM7.6129 114.194H3.80645V3.80645H7.6129V114.194ZM11.4194 6.49761L15.2258 10.3041V46.7927L11.4194 50.5992V6.49761ZM41.34 49.4839H44.9409L23.3697 114.194H19.7688L41.34 49.4839ZM69.0471 49.4839L90.6164 114.194H27.3836L48.9529 49.4839H69.0471ZM98.2312 114.194H94.6303L73.061 49.4839H76.6619L98.2312 114.194ZM98.9677 45.6774H19.0323V11.4194H98.9677V45.6774ZM102.774 46.7927V10.3041L106.581 6.49761V50.5992L102.774 46.7927ZM114.194 114.194H110.387V3.80645H114.194V114.194Z" fill="black"/>
<path d="M57.2812 54.9902H60.7181V63.0097H57.2812V54.9902Z" fill="black"/>
<path d="M57.2812 71.0293H60.7181V77.9031H57.2812V71.0293Z" fill="black"/>
<path d="M57.2812 85.9219H60.7181V93.9413H57.2812V85.9219Z" fill="black"/>
<path d="M57.2812 100.816H60.7181V108.836H57.2812V100.816Z" fill="black"/>
<path d="M50.4062 36.6602H93.9402V40.097H50.4062V36.6602Z" fill="black"/>
<path d="M25.2031 36.6602H41.242V40.097H25.2031V36.6602Z" fill="black"/>
<rect x="25.5586" y="16.3926" width="66.8835" height="14.1845" stroke="black" stroke-width="3"/>
<rect x="66.8008" y="16.3926" width="16.4757" height="14.1845" fill="#2CABE1" stroke="black" stroke-width="3"/>
</svg>
