<svg width="168" height="130" viewBox="0 0 168 130" fill="none" xmlns="http://www.w3.org/2000/svg">
<path d="M13 47.4375C13 58.9066 30.0689 78.2395 30.7934 79.0589C30.9957 79.2883 31.2446 79.4721 31.5234 79.598C31.8022 79.7238 32.1046 79.7889 32.4106 79.7889C32.7165 79.7889 33.0189 79.7238 33.2977 79.598C33.5765 79.4721 33.8254 79.2883 34.0278 79.0589C34.7436 78.2395 51.8125 58.9066 51.8125 47.4375C51.8125 42.2906 49.7679 37.3546 46.1285 33.7152C42.4892 30.0758 37.5531 28.0312 32.4062 28.0312C27.2594 28.0313 22.3233 30.0758 18.684 33.7152C15.0446 37.3546 13 42.2906 13 47.4375Z" fill="#2CABE1"/>
<path d="M4.625 116.438V12.9375C4.625 10.65 5.5337 8.4562 7.1512 6.8387C8.7687 5.2212 10.9625 4.3125 13.25 4.3125H73.625C75.9125 4.3125 78.1063 5.2212 79.7238 6.8387C81.3413 8.4562 82.25 10.65 82.25 12.9375V51.75H86.5625V12.9375C86.5591 9.50731 85.1949 6.2186 82.7694 3.79309C80.3439 1.36758 77.0552 0.00342505 73.625 0H13.25C9.81981 0.00342505 6.5311 1.36758 4.10559 3.79309C1.68008 6.2186 0.315925 9.50731 0.3125 12.9375V116.438C0.315925 119.868 1.68008 123.156 4.10559 125.582C6.5311 128.007 9.81981 129.372 13.25 129.375H43.4375V125.062H13.25C10.9625 125.062 8.7687 124.154 7.1512 122.536C5.5337 120.919 4.625 118.725 4.625 116.438Z" fill="black"/>
<path d="M28.3438 8.625H32.6562V12.9375H28.3438V8.625Z" fill="black"/>
<path d="M36.9688 8.625H49.9062V12.9375H36.9688V8.625Z" fill="black"/>
<path d="M13.25 47.4375C13.25 58.9066 30.3189 78.2395 31.0434 79.0589C31.2457 79.2883 31.4946 79.4721 31.7734 79.598C32.0522 79.7238 32.3546 79.7889 32.6606 79.7889C32.9665 79.7889 33.2689 79.7238 33.5477 79.598C33.8265 79.4721 34.0754 79.2883 34.2778 79.0589C34.9936 78.2395 52.0625 58.9066 52.0625 47.4375C52.0625 42.2906 50.0179 37.3546 46.3785 33.7152C42.7392 30.0758 37.8031 28.0312 32.6562 28.0312C27.5094 28.0313 22.5733 30.0758 18.934 33.7152C15.2946 37.3546 13.25 42.2906 13.25 47.4375ZM32.6562 32.3438C36.658 32.3483 40.4945 33.94 43.3241 36.7697C46.1537 39.5993 47.7454 43.4358 47.75 47.4375C47.75 54.7688 38.0016 67.937 32.6562 74.3195C27.3109 67.937 17.5625 54.7688 17.5625 47.4375C17.5671 43.4358 19.1588 39.5993 21.9884 36.7697C24.818 33.94 28.6545 32.3483 32.6562 32.3438Z" fill="black"/>
<path d="M32.6562 51.75C33.9356 51.75 35.1863 51.3706 36.2501 50.6598C37.3139 49.949 38.143 48.9387 38.6326 47.7567C39.1222 46.5747 39.2503 45.2741 39.0007 44.0193C38.7511 42.7644 38.135 41.6118 37.2303 40.7072C36.3257 39.8025 35.1731 39.1864 33.9182 38.9368C32.6634 38.6872 31.3628 38.8153 30.1808 39.3049C28.9988 39.7945 27.9885 40.6236 27.2777 41.6874C26.5669 42.7512 26.1875 44.0019 26.1875 45.2813C26.1875 46.9969 26.869 48.6422 28.0822 49.8553C29.2953 51.0685 30.9406 51.75 32.6562 51.75ZM32.6562 43.125C33.0827 43.125 33.4996 43.2515 33.8542 43.4884C34.2088 43.7253 34.4852 44.0621 34.6484 44.4561C34.8116 44.8501 34.8543 45.2836 34.7711 45.7019C34.6879 46.1202 34.4825 46.5044 34.1809 46.806C33.8794 47.1075 33.4952 47.3129 33.0769 47.3961C32.6586 47.4793 32.2251 47.4366 31.8311 47.2734C31.4371 47.1102 31.1003 46.8338 30.8634 46.4792C30.6265 46.1246 30.5 45.7077 30.5 45.2813C30.5 44.7094 30.7272 44.1609 31.1315 43.7566C31.5359 43.3522 32.0844 43.125 32.6562 43.125Z" fill="black"/>
<path d="M167.132 88.5007L161.154 75.3271C159.002 70.6429 154.324 67.6353 149.169 67.6211H63.465C57.1354 67.6277 52.0066 72.7565 52 79.0861V107.738C52.0047 111.206 54.815 114.016 58.2833 114.021H67.6602C68.5749 118.527 72.536 121.764 77.1333 121.764C81.7307 121.764 85.6917 118.527 86.6065 114.021H133.394C134.308 118.527 138.269 121.764 142.867 121.764C147.464 121.764 151.425 118.527 152.34 114.021H162.626C165.593 114.018 167.997 111.614 168 108.647V92.5033C168.001 91.1222 167.705 89.7572 167.132 88.5007ZM162.94 88.6272L144.8 87.1092V78.9889L157.835 77.3595L162.94 88.6272ZM77.1333 117.888C73.9303 117.888 71.3333 115.291 71.3333 112.088C71.3333 108.885 73.9303 106.288 77.1333 106.288C80.3364 106.288 82.9333 108.885 82.9333 112.088C82.9333 115.291 80.3364 117.888 77.1333 117.888ZM142.867 117.888C139.664 117.888 137.067 115.291 137.067 112.088C137.067 108.885 139.664 106.288 142.867 106.288C146.07 106.288 148.667 108.885 148.667 112.088C148.667 115.291 146.07 117.888 142.867 117.888ZM162.626 110.154H152.34C151.425 105.649 147.464 102.412 142.867 102.412C138.269 102.412 134.308 105.649 133.394 110.154H86.6065C85.6917 105.649 81.7307 102.412 77.1333 102.412C72.536 102.412 68.5749 105.649 67.6602 110.154H58.2833C56.9494 110.153 55.8686 109.072 55.8667 107.738V79.0861C55.8714 74.8909 59.2698 71.4925 63.465 71.4878H149.169C151.418 71.4925 153.588 72.31 155.28 73.7883L142.747 75.3544H67.4667C66.399 75.3544 65.5333 76.2201 65.5333 77.2878V88.8878C65.5333 89.9554 66.399 90.8211 67.4667 90.8211H142.785L164.133 92.5996V108.647C164.132 109.479 163.457 110.153 162.626 110.154ZM69.4 86.9544V79.2211H82.9333V86.9544H69.4ZM86.8 79.2211H102.267V86.9544H86.8V79.2211ZM106.133 79.2211H119.667V86.9544H106.133V79.2211ZM123.533 79.2211H140.933V86.9544H123.533V79.2211Z" fill="black"/>
</svg>
