<svg width="113" height="113" viewBox="0 0 113 113" fill="none" xmlns="http://www.w3.org/2000/svg">
<path d="M58.0249 62.1692C57.6228 62.1547 57.2229 62.1722 56.821 62.1692C56.7135 62.1671 56.6078 62.1504 56.5009 62.1504C56.3939 62.1504 56.2875 62.1668 56.1807 62.1692C55.7807 62.1722 55.3784 62.1547 54.9806 62.1692C29.5526 63.0523 9.39999 83.9301 9.41603 109.373C9.41603 109.971 9.43354 110.586 9.45463 111.183C9.49034 112.197 10.3226 113.001 11.337 113H101.664C102.683 113.001 103.517 112.192 103.548 111.174C103.566 110.579 103.583 109.967 103.583 109.373C103.598 83.9325 83.4498 63.0566 58.0249 62.1692ZM90.5706 82.5755C87.4858 83.448 84.3545 84.1471 81.1916 84.6694C81.0123 84.7018 80.8294 84.7308 80.6488 84.7615C78.5682 78.5302 75.0653 72.8688 70.4176 68.2258C78.3858 70.9514 85.3883 75.9374 90.5706 82.5755ZM76.8205 85.3007C70.7073 86.1145 64.5496 86.5485 58.3827 86.6002V66.0579C65.8381 67.0875 72.6188 74.1887 76.8205 85.3007ZM54.616 66.0579V86.6004C48.4492 86.5478 42.2915 86.1138 36.1782 85.3009C40.3799 74.1885 47.1607 67.0875 54.616 66.0579ZM34.9292 88.935C41.4528 89.8449 48.0294 90.3235 54.616 90.3678V109.234H32.0207C32.0047 102.363 32.9843 95.5252 34.9292 88.935ZM58.3827 90.3678C64.9694 90.3244 71.546 89.8458 78.0696 88.935C80.0145 95.5252 80.9941 102.363 80.978 109.234H58.3827V90.3678ZM42.5815 68.2262C37.9364 72.867 34.4352 78.5253 32.355 84.7532C32.1648 84.721 31.9772 84.6992 31.7844 84.6639C28.6289 84.1435 25.5052 83.4461 22.428 82.5751C27.6104 75.9371 34.6131 70.9512 42.5815 68.2262ZM20.1288 85.8088C23.7357 86.905 27.411 87.7618 31.1309 88.3735L31.1828 88.3818C29.2325 95.1605 28.2466 102.18 28.2543 109.234H13.1827C13.1964 100.92 15.6082 92.7863 20.1288 85.8088ZM84.7445 109.234C84.7519 102.181 83.766 95.1615 81.8157 88.3833L81.8424 88.3792C85.5704 87.7653 89.2538 86.9063 92.8688 85.8077C97.3904 92.7852 99.8027 100.919 99.816 109.234H84.7445Z" fill="black"/>
<path d="M111.403 3.7887L86.9194 0.022035C86.8152 0.0195844 86.711 0.0258843 86.6079 0.0408683C86.5047 0.027815 86.4006 0.0244102 86.2968 0.0306983L67.3619 3.474C66.4828 1.37202 64.4284 0.00266614 62.15 0H50.85C48.5716 0.00264111 46.5173 1.37202 45.6383 3.474L26.7032 0.0312633C26.6013 0.0257148 26.499 0.0293075 26.3977 0.0419983C26.2928 0.0263396 26.1867 0.0196609 26.0806 0.022035L1.59726 3.7887C0.678686 3.93035 0.00056751 4.72057 3.44073e-07 5.65V22.6C-0.000331593 23.1495 0.239524 23.6718 0.656597 24.0296C1.07367 24.3875 1.6263 24.5452 2.16941 24.4613L26.3429 20.7423L43.795 23.9153C41.7393 25.9429 40.3424 28.543 39.7864 31.3763C39.5843 32.4529 39.8745 33.5634 40.5774 34.4036C41.2984 35.2781 42.3727 35.7842 43.5061 35.7833H54.6167V38.0138C52.0223 38.931 50.466 41.5839 50.9314 44.2961C51.3967 47.0082 53.7482 48.9906 56.5 48.9906C59.2518 48.9906 61.6033 47.0082 62.0686 44.2961C62.534 41.5839 60.9777 38.931 58.3833 38.0138V35.7833H69.4939C70.6273 35.7844 71.7017 35.2784 72.4228 34.404C73.1257 33.5638 73.4159 32.4533 73.2138 31.3767C72.6579 28.5432 71.2609 25.943 69.2052 23.9153L86.6572 20.7423L110.831 24.4613C111.374 24.5447 111.926 24.3868 112.343 24.0291C112.76 23.6713 113 23.1494 113 22.6V5.65C112.999 4.72057 112.321 3.93035 111.403 3.7887Z" fill="#2CABE1"/>
<path d="M58.3457 52.5304C57.117 52.4899 55.8627 52.4899 54.6764 52.5304C24.188 53.5505 -0.000201233 78.5616 1.25562e-09 109.067C1.25562e-09 109.764 0.0188333 110.48 0.0414333 111.176C0.0484445 111.679 0.259587 112.157 0.626282 112.5C0.992977 112.844 1.48365 113.023 1.98541 112.997C2.48446 112.981 2.95671 112.768 3.29822 112.403C3.63972 112.039 3.82246 111.554 3.80622 111.055C3.7855 110.399 3.76667 109.724 3.76667 109.067C3.76935 80.5948 26.3435 57.2506 54.7997 56.2933C55.9069 56.2556 57.0748 56.2556 58.2225 56.2933C86.67 57.2623 109.231 80.6031 109.233 109.067C109.233 109.724 109.215 110.399 109.194 111.055C109.178 111.554 109.36 112.039 109.702 112.404C110.043 112.768 110.516 112.982 111.015 112.997C111.036 112.999 111.057 112.999 111.077 112.999C112.093 112.999 112.926 112.192 112.959 111.177C112.982 110.48 113 109.764 113 109.067C112.999 78.5707 88.8248 53.5636 58.3457 52.5304Z" fill="black"/>
<path d="M111.403 3.7887L86.9194 0.022035C86.8152 0.0195844 86.711 0.0258843 86.6079 0.0408683C86.5047 0.027815 86.4006 0.0244102 86.2968 0.0306983L67.3619 3.474C66.4828 1.37202 64.4284 0.00266614 62.15 0H50.85C48.5716 0.00264111 46.5173 1.37202 45.6383 3.474L26.7032 0.0312633C26.6013 0.0257148 26.499 0.0293075 26.3977 0.0419983C26.2928 0.0263396 26.1867 0.0196609 26.0806 0.022035L1.59726 3.7887C0.678686 3.93035 0.00056751 4.72057 3.44073e-07 5.65V22.6C-0.000331593 23.1495 0.239524 23.6718 0.656597 24.0296C1.07367 24.3875 1.6263 24.5452 2.16941 24.4613L26.3429 20.7423L43.795 23.9153C41.7393 25.9429 40.3424 28.543 39.7864 31.3763C39.5843 32.4529 39.8745 33.5634 40.5774 34.4036C41.2984 35.2781 42.3727 35.7842 43.5061 35.7833H54.6167V38.0138C52.0223 38.931 50.466 41.5839 50.9314 44.2961C51.3967 47.0082 53.7482 48.9906 56.5 48.9906C59.2518 48.9906 61.6033 47.0082 62.0686 44.2961C62.534 41.5839 60.9777 38.931 58.3833 38.0138V35.7833H69.4939C70.6273 35.7844 71.7017 35.2784 72.4228 34.404C73.1257 33.5638 73.4159 32.4533 73.2138 31.3767C72.6579 28.5432 71.2609 25.943 69.2052 23.9153L86.6572 20.7423L110.831 24.4613C111.374 24.5447 111.926 24.3868 112.343 24.0291C112.76 23.6713 113 23.1494 113 22.6V5.65C112.999 4.72057 112.321 3.93035 111.403 3.7887ZM56.5 45.2C55.4599 45.2 54.6167 44.3568 54.6167 43.3167C54.6167 42.2765 55.4599 41.4333 56.5 41.4333C57.5401 41.4333 58.3833 42.2765 58.3833 43.3167C58.3824 44.3564 57.5397 45.1991 56.5 45.2ZM84.75 17.2608L67.8 20.3434V7.22258L84.75 4.13994V17.2608ZM50.85 3.76667H62.15C63.1897 3.7676 64.0324 4.61025 64.0333 5.65V20.3965C59.2274 18.312 53.7726 18.312 48.9667 20.3965V5.65C48.9676 4.61025 49.8102 3.7676 50.85 3.76667ZM3.76667 7.26665L24.4833 4.0793V17.2167L3.76667 20.404V7.26665ZM28.25 4.14032L45.2 7.22258V20.3434L28.25 17.2608V4.14032ZM69.5233 32.0005C69.5158 32.0093 69.5053 32.0151 69.4939 32.0167L56.6441 32.0457C56.5942 32.0417 56.5512 32.0167 56.5 32.0167C56.4488 32.0167 56.4038 32.0423 56.3525 32.0464L43.4867 32.0754C44.5269 26.5855 49.9993 22.6 56.5 22.6C63.0007 22.6 68.4731 26.5855 69.5233 32.0001V32.0005ZM109.233 20.404L88.5167 17.2167V4.0793L109.233 7.26665V20.404Z" fill="black"/>
</svg>
