<svg width="106" height="101" viewBox="0 0 106 101" fill="none" xmlns="http://www.w3.org/2000/svg">
<path fill-rule="evenodd" clip-rule="evenodd" d="M81.9219 21.5488L99.5902 33.7334C99.813 33.8872 99.9951 34.0927 100.121 34.3324C100.247 34.5721 100.312 34.8387 100.312 35.1094V40.125C100.312 40.5684 100.136 40.9937 99.8228 41.3072C99.5093 41.6207 99.084 41.7969 98.6406 41.7969H90.2812V90.2812H98.6406C99.084 90.2812 99.5093 90.4574 99.8228 90.7709C100.136 91.0845 100.312 91.5097 100.312 91.9531V98.6406C100.312 99.084 100.136 99.5093 99.8228 99.8228C99.5093 100.136 99.084 100.312 98.6406 100.312H1.67188C1.22847 100.312 0.803218 100.136 0.489681 99.8228C0.176143 99.5093 0 99.084 0 98.6406V91.9531C0 91.5097 0.176143 91.0845 0.489681 90.7709C0.803218 90.4574 1.22847 90.2812 1.67188 90.2812H10.0312V41.7969H1.67188C1.22847 41.7969 0.803218 41.6207 0.489681 41.3072C0.176143 40.9937 0 40.5684 0 40.125V35.1094C7.72907e-06 34.8387 0.065739 34.5721 0.191545 34.3324C0.317351 34.0927 0.499469 33.8872 0.72225 33.7334L49.2066 0.295922C49.4858 0.10324 49.817 4.78327e-05 50.1562 4.78327e-05C50.4955 4.78327e-05 50.8267 0.10324 51.1059 0.295922L65.2031 10.0179V1.67188C65.2031 1.22847 65.3793 0.803218 65.6928 0.489681C66.0063 0.176143 66.4316 0 66.875 0H80.25C80.6934 0 81.1187 0.176143 81.4322 0.489681C81.7457 0.803218 81.9219 1.22847 81.9219 1.67188V21.5488ZM13.375 91.9531C13.375 92.3965 13.1989 92.8218 12.8853 93.1353C12.5718 93.4489 12.1465 93.625 11.7031 93.625H3.34375V96.9688C68.5644 96.9688 74.0144 96.9688 96.9688 96.9688V93.625H88.6094C88.166 93.625 87.7407 93.4489 87.4272 93.1353C87.1136 92.8218 86.9375 92.3965 86.9375 91.9531V40.125C86.9375 39.6816 87.1136 39.2563 87.4272 38.9428C87.7407 38.6293 88.166 38.4531 88.6094 38.4531H96.9688V35.9871L79.3004 23.8025C79.0776 23.6487 78.8955 23.4432 78.7697 23.2035C78.6439 22.9639 78.5781 22.6972 78.5781 22.4265V3.34375H68.5469V13.2078C68.546 13.5123 68.4619 13.8107 68.3038 14.0709C68.1457 14.3311 67.9196 14.5432 67.6498 14.6843C67.38 14.8254 67.0768 14.8901 66.7729 14.8715C66.469 14.8529 66.1759 14.7517 65.9254 14.5788L50.1562 3.7032L3.34375 35.9871V38.4531H11.7031C12.1465 38.4531 12.5718 38.6293 12.8853 38.9428C13.1989 39.2563 13.375 39.6816 13.375 40.125V91.9531Z" fill="black"/>
<path fill-rule="evenodd" clip-rule="evenodd" d="M27.8125 64.9614C25.3056 66.9754 23.4841 69.721 22.5995 72.8187C21.7151 75.9167 21.8111 79.2137 22.8748 82.254C23.9384 85.2946 25.9167 87.9287 28.5367 89.7919C31.1566 91.6555 34.2886 92.6562 37.5 92.6562C40.7114 92.6562 43.8434 91.6555 46.4633 89.7919C49.0833 87.9287 51.0616 85.2946 52.1252 82.254C53.1889 79.2137 53.2849 75.9167 52.4005 72.8187C51.5159 69.721 49.6944 66.9754 47.1875 64.9614V32.3771C47.1875 29.799 46.1668 27.3265 44.3501 25.5035C42.5333 23.6803 40.0693 22.6562 37.5 22.6562C34.9307 22.6562 32.4667 23.6803 30.6499 25.5035C28.8332 27.3265 27.8125 29.799 27.8125 32.3771V64.9614ZM31.4685 66.8323C31.3245 67.11 31.1157 67.3485 30.8602 67.5279C28.8285 68.9466 27.301 70.9787 26.5001 73.3289C25.6994 75.6791 25.667 78.2245 26.4079 80.5943C27.1488 82.9643 28.6241 85.0348 30.6192 86.5052C32.6142 87.9752 35.0248 88.7679 37.5 88.7679C39.9752 88.7679 42.3858 87.9752 44.3808 86.5052C46.3759 85.0348 47.8512 82.9643 48.5921 80.5943C49.333 78.2245 49.3006 75.6791 48.4999 73.3289C47.699 70.9787 46.1715 68.9466 44.1398 67.5279C43.8843 67.3485 43.6755 67.11 43.5315 66.8323C43.3875 66.5549 43.3124 66.2466 43.3125 65.9335V63.484H39.4375V71.2607C39.4375 71.7762 39.2334 72.2708 38.8701 72.6353C38.5067 73.0001 38.0138 73.2048 37.5 73.2048C36.7335 73.2048 35.9843 73.4328 35.3472 73.8601C34.7099 74.2874 34.2132 74.8946 33.92 75.6052C33.6267 76.3156 33.5499 77.0974 33.6994 77.8518C33.8489 78.6061 34.218 79.2988 34.76 79.8428C35.3019 80.3865 35.9924 80.7567 36.744 80.9069C37.4958 81.0568 38.2748 80.9798 38.983 80.6854C39.691 80.3913 40.2962 79.8928 40.722 79.2534C41.1478 78.6141 41.375 77.8623 41.375 77.0932C41.375 76.5776 41.5791 76.0831 41.9424 75.7185C42.1833 75.4766 42.4813 75.3052 42.8044 75.2171C42.9686 75.1723 43.1393 75.149 43.3125 75.149C43.8263 75.149 44.3192 75.3537 44.6826 75.7185C45.0459 76.0831 45.25 76.5776 45.25 77.0932C45.2521 78.5448 44.8487 79.968 44.0852 81.2013C43.3218 82.4343 42.229 83.4279 40.9312 84.0693C39.6333 84.7106 38.1821 84.9738 36.7426 84.8293C35.3031 84.6845 33.9328 84.1377 32.7875 83.2508C31.6421 82.3642 30.7674 81.1726 30.263 79.8121C29.7583 78.4517 29.644 76.9765 29.9331 75.5539C30.2221 74.1315 30.9028 72.8187 31.8979 71.7652C32.8929 70.7113 34.1626 69.9587 35.5625 69.5924V32.3771C35.5625 31.8616 35.7666 31.367 36.1299 31.0025C36.4933 30.6377 36.9862 30.433 37.5 30.433C38.0138 30.433 38.5067 30.6377 38.8701 31.0025C39.2334 31.367 39.4375 31.8616 39.4375 32.3771V36.2655H43.3125V32.3771C43.3125 30.8301 42.7001 29.3467 41.6101 28.2529C40.52 27.159 39.0415 26.5446 37.5 26.5446C35.9585 26.5446 34.48 27.159 33.3899 28.2529C32.2999 29.3467 31.6875 30.8301 31.6875 32.3771V65.9335C31.6876 66.2466 31.6125 66.5549 31.4685 66.8323ZM43.3125 47.9305H39.4375V51.8189H43.3125V47.9305ZM43.3125 44.0422V40.1538H39.4375V44.0422H43.3125ZM39.4375 55.7072V59.5956H43.3125V55.7072H39.4375Z" fill="black"/>
<circle cx="88.1562" cy="62.1562" r="14.5" fill="#2CABE1"/>
<path d="M105.094 62.375C105.094 59.0684 104.113 55.836 102.276 53.0866C100.439 50.3372 97.8279 48.1943 94.773 46.9289C91.718 45.6635 88.3565 45.3324 85.1133 45.9775C81.8702 46.6226 78.8912 48.2149 76.5531 50.5531C74.2149 52.8912 72.6226 55.8702 71.9775 59.1133C71.3324 62.3565 71.6635 65.718 72.9289 68.773C74.1943 71.8279 76.3372 74.4391 79.0866 76.2761C81.836 78.1132 85.0683 79.0938 88.375 79.0938C92.8076 79.0889 97.0572 77.3259 100.192 74.1916C103.326 71.0573 105.089 66.8076 105.094 62.375ZM75 62.375C75 59.7297 75.7844 57.1438 77.2541 54.9443C78.7238 52.7448 80.8127 51.0304 83.2566 50.0181C85.7006 49.0058 88.3898 48.7409 90.9843 49.257C93.5788 49.7731 95.962 51.0469 97.8326 52.9175C99.7031 54.788 100.977 57.1712 101.493 59.7657C102.009 62.3602 101.744 65.0494 100.732 67.4934C99.7196 69.9374 98.0053 72.0262 95.8058 73.4959C93.6062 74.9656 91.0203 75.75 88.375 75.75C84.829 75.746 81.4293 74.3356 78.9219 71.8282C76.4144 69.3207 75.004 65.9211 75 62.375Z" fill="black"/>
<path d="M90.7391 65.0257C91.0545 65.3303 91.4768 65.4988 91.9151 65.495C92.3535 65.4912 92.7728 65.3153 93.0828 65.0054C93.3928 64.6954 93.5686 64.2761 93.5724 63.8377C93.5762 63.3993 93.4077 62.977 93.1032 62.6617C91.8299 61.4448 90.1364 60.7656 88.3751 60.7656C86.6138 60.7656 84.9203 61.4448 83.647 62.6617C83.3425 62.977 83.174 63.3993 83.1778 63.8377C83.1816 64.2761 83.3574 64.6954 83.6674 65.0054C83.9774 65.3153 84.3967 65.4912 84.8351 65.495C85.2734 65.4988 85.6958 65.3303 86.0111 65.0257C86.6478 64.4175 87.4945 64.078 88.3751 64.078C89.2557 64.078 90.1024 64.4175 90.7391 65.0257Z" fill="black"/>
<path d="M95.4682 60.2973C95.6224 60.457 95.8069 60.5844 96.0109 60.672C96.2149 60.7596 96.4342 60.8058 96.6562 60.8077C96.8782 60.8096 97.0984 60.7673 97.3038 60.6832C97.5093 60.5992 97.696 60.475 97.853 60.3181C98.0099 60.1611 98.1341 59.9744 98.2181 59.769C98.3022 59.5635 98.3445 59.3433 98.3426 59.1213C98.3406 58.8994 98.2945 58.68 98.2069 58.476C98.1193 58.272 97.9919 58.0875 97.8322 57.9333C96.5903 56.6913 95.1158 55.706 93.493 55.0338C91.8702 54.3616 90.1309 54.0156 88.3744 54.0156C86.618 54.0156 84.8787 54.3616 83.2559 55.0338C81.6331 55.706 80.1586 56.6913 78.9166 57.9333C78.757 58.0875 78.6296 58.272 78.542 58.476C78.4544 58.68 78.4082 58.8994 78.4063 59.1213C78.4044 59.3433 78.4467 59.5635 78.5307 59.769C78.6148 59.9744 78.739 60.1611 78.8959 60.3181C79.0529 60.475 79.2396 60.5992 79.445 60.6832C79.6505 60.7673 79.8707 60.8096 80.0927 60.8077C80.3146 60.8058 80.534 60.7596 80.738 60.672C80.942 60.5844 81.1265 60.457 81.2807 60.2973C82.2122 59.3657 83.3181 58.6266 84.5353 58.1224C85.7524 57.6182 87.057 57.3587 88.3744 57.3587C89.6919 57.3587 90.9965 57.6182 92.2136 58.1224C93.4308 58.6266 94.5367 59.3657 95.4682 60.2973Z" fill="black"/>
<path d="M88.375 70.7344C89.2984 70.7344 90.0469 69.9859 90.0469 69.0625C90.0469 68.1391 89.2984 67.3906 88.375 67.3906C87.4516 67.3906 86.7031 68.1391 86.7031 69.0625C86.7031 69.9859 87.4516 70.7344 88.375 70.7344Z" fill="black"/>
</svg>
