<svg width="40" height="40" viewBox="0 0 40 40" fill="none" xmlns="http://www.w3.org/2000/svg">
<path d="M35 0H5C2.23858 0 0 2.23858 0 5V35C0 37.7614 2.23858 40 5 40H35C37.7614 40 40 37.7614 40 35V5C40 2.23858 37.7614 0 35 0Z" fill="white"/>
<path d="M20.4 11.9C23.2 11.9 23.5 11.9 24.6 12C25.6 12 26.2 12.2 26.5 12.4C27 12.6 27.3 12.8 27.7 13.2C28.1 13.6 28.3 13.9 28.5 14.4C28.6 14.8 28.8 15.3 28.9 16.3C28.9 17.4 29 17.7 29 20.5C29 23.3 29 23.6 28.9 24.7C28.9 25.7 28.7 26.3 28.5 26.6C28.3 27.1 28.1 27.4 27.7 27.8C27.3 28.2 27 28.4 26.5 28.6C26.1 28.7 25.6 28.9 24.6 29C23.5 29 23.2 29.1 20.4 29.1C17.6 29.1 17.3 29.1 16.2 29C15.2 29 14.6 28.8 14.3 28.6C13.8 28.4 13.5 28.2 13.1 27.8C12.7 27.4 12.5 27.1 12.3 26.6C12.2 26.2 12 25.7 11.9 24.7C11.8 23.6 11.8 23.3 11.8 20.5C11.8 17.7 11.8 17.4 11.9 16.3C11.9 15.3 12.1 14.7 12.3 14.4C12.5 13.9 12.7 13.6 13.1 13.2C13.5 12.8 13.8 12.6 14.3 12.4C14.7 12.3 15.2 12.1 16.2 12C17.3 11.9 17.6 11.9 20.4 11.9ZM20.4 10C17.6 10 17.2 10 16.1 10.1C15 10.2 14.2 10.3 13.6 10.6C12.9 10.9 12.3 11.2 11.8 11.8C11.2 12.4 10.9 13 10.6 13.6C10.3 14.3 10.2 15 10.1 16.1C10 17.2 10 17.6 10 20.4C10 23.2 10 23.6 10.1 24.7C10.2 25.8 10.3 26.6 10.6 27.2C10.9 27.9 11.2 28.5 11.8 29C12.4 29.6 13 29.9 13.6 30.2C14.3 30.5 15 30.6 16.1 30.7C17.2 30.8 17.6 30.8 20.4 30.8C23.2 30.8 23.6 30.8 24.7 30.7C25.8 30.6 26.6 30.5 27.2 30.2C27.9 29.9 28.5 29.6 29 29C29.6 28.4 29.9 27.8 30.2 27.2C30.5 26.5 30.6 25.8 30.7 24.7C30.8 23.6 30.8 23.2 30.8 20.4C30.8 17.6 30.8 17.2 30.7 16.1C30.6 15 30.5 14.2 30.2 13.6C29.9 12.9 29.6 12.3 29 11.8C28.4 11.2 27.8 10.9 27.2 10.6C26.5 10.3 25.8 10.2 24.7 10.1C23.6 10.1 23.2 10 20.4 10Z" fill="#222221"/>
<path d="M20.4 15.1001C17.4 15.1001 15 17.5001 15 20.5001C15 23.5001 17.4 25.9001 20.4 25.9001C23.4 25.9001 25.8 23.5001 25.8 20.5001C25.7 17.5001 23.3 15.1001 20.4 15.1001ZM20.4 24.0001C18.5 24.0001 16.9 22.4001 16.9 20.5001C16.9 18.6001 18.5 17.0001 20.4 17.0001C22.3 17.0001 23.9 18.6001 23.9 20.5001C23.9 22.4001 22.3 24.0001 20.4 24.0001Z" fill="#222221"/>
<path d="M27.2001 14.9001C27.2001 15.6001 26.6001 16.2001 25.9001 16.2001C25.2001 16.2001 24.6001 15.6001 24.6001 14.9001C24.6001 14.2001 25.2001 13.6001 25.9001 13.6001C26.6001 13.7001 27.2001 14.2001 27.2001 14.9001Z" fill="#222221"/>
</svg>
