<svg width="40" height="40" viewBox="0 0 40 40" fill="none" xmlns="http://www.w3.org/2000/svg">
<path d="M35 0H5C2.23858 0 0 2.23858 0 5V35C0 37.7614 2.23858 40 5 40H35C37.7614 40 40 37.7614 40 35V5C40 2.23858 37.7614 0 35 0Z" fill="white"/>
<path d="M15.2999 16.3999H11.3999V29.0999H15.2999V16.3999Z" fill="#222221"/>
<path d="M13.3 14.7C14.6 14.7 15.6 13.6 15.6 12.4C15.6 11.2 14.6 10 13.3 10C12 10 11 11.1 11 12.3C11 13.5 12 14.7 13.3 14.7Z" fill="#222221"/>
<path d="M21.5998 22.3999C21.5998 20.5999 22.3998 19.4999 23.9998 19.4999C25.3998 19.4999 26.0998 20.4999 26.0998 22.3999C26.0998 24.1999 26.0998 29.0999 26.0998 29.0999H29.9998C29.9998 29.0999 29.9998 24.4999 29.9998 20.9999C29.9998 17.5999 28.0998 15.8999 25.3998 15.8999C22.6998 15.8999 21.5998 17.9999 21.5998 17.9999V16.3999H17.7998V29.0999H21.5998C21.5998 29.0999 21.5998 24.3999 21.5998 22.3999Z" fill="#222221"/>
</svg>
