<svg width="40" height="40" viewBox="0 0 40 40" fill="none" xmlns="http://www.w3.org/2000/svg">
<path d="M35 0H5C2.23858 0 0 2.23858 0 5V35C0 37.7614 2.23858 40 5 40H35C37.7614 40 40 37.7614 40 35V5C40 2.23858 37.7614 0 35 0Z" fill="white"/>
<path d="M8 27.2545C10.1273 28.6727 12.7273 29.5 15.5636 29.5C24.6636 29.5 29.8636 21.8182 29.5091 14.8455C30.4545 14.1364 31.2818 13.3091 31.9909 12.2455C31.1636 12.6 30.2182 12.9545 29.1545 13.0727C30.2182 12.4818 30.9273 11.5364 31.2818 10.3545C30.3364 10.9455 29.2727 11.3 28.2091 11.5364C27.2636 10.5909 26.0818 10 24.6636 10C21.4727 10 19.1091 12.9545 19.8182 16.0273C15.6818 15.7909 12.1364 13.9 9.6545 10.9455C8.3545 13.1909 8.9455 16.0273 11.1909 17.5636C10.3636 17.5636 9.6545 17.3273 8.9455 16.9727C8.9455 19.2182 10.4818 21.3455 12.8455 21.8182C12.1364 22.0545 11.4273 22.0545 10.6 21.9364C11.1909 23.9455 13.0818 25.3636 15.2091 25.3636C13.3182 26.7818 10.6 27.4909 8 27.2545Z" fill="#222221"/>
</svg>
